<svg fill="none" height="887" viewBox="0 0 500 887" width="500" xmlns="http://www.w3.org/2000/svg" xmlns:xlink="http://www.w3.org/1999/xlink"><linearGradient id="a"><stop offset=".0184063" stop-color="#453db1" stop-opacity=".71"/><stop offset=".37863" stop-color="#302c76" stop-opacity=".95"/><stop offset=".814622" stop-color="#181830"/></linearGradient><radialGradient id="b" cx="0" cy="0" gradientTransform="matrix(-519.64209423 992.8438276 -987.61651517 -516.906184 519.641 -13.6292)" gradientUnits="userSpaceOnUse" r="1" xlink:href="#a"/><radialGradient id="c" cx="0" cy="0" gradientTransform="matrix(-519.64209423 992.8438276 -987.61651517 -516.906184 519.641 -13.6291)" gradientUnits="userSpaceOnUse" r="1" xlink:href="#a"/><linearGradient id="d" gradientUnits="userSpaceOnUse" x1="7.02015" x2="471.782" y1="74.0783" y2="74.0783"><stop offset=".132522" stop-color="#5750b4"/><stop offset=".982223" stop-color="#9faae6"/></linearGradient><linearGradient id="e" gradientUnits="userSpaceOnUse" x1="39.7431" x2="132.146" y1="117.748" y2="117.748"><stop offset=".103393" stop-color="#5750b4"/><stop offset="1" stop-color="#9faae6" stop-opacity="0"/></linearGradient><path d="m0 33.6625 32.9431-33.251367h208.6609l17.853 22.818867h141.883l16.913-20.86513h54.498l27.249 27.50403v534.9061l-15.974 16.123v191.579l-29.598 29.875h-411.0833l-26.5443-26.792v-390.036l-16.678249-12.329z" fill="url(#b)"/><path d="m0 33.6625 32.9431-33.251367h208.6609l17.853 22.818867h141.883l16.913-20.86513h54.498l27.249 27.50403v534.9061l-15.974 16.123v191.579 113.977h-483.903849v-57.164-430.736-25.359z" fill="url(#c)"/><path d="m40.4221 26.4417h197.2549l21.135 18.0807h147.942l17.846-18.0807h42.269l22.074 18.8843v62.278l-15.263 13.058h-333.691l-12.333-10.551h-82.5374l-13.5636 11.604h-15.555v-71.9693z" fill="url(#d)"/><path d="m39.7431 121.759 8.486-8.023h75.4309l8.486 8.023z" fill="url(#e)"/><path d="m125.392 63.4758c1.76 0 3.301.32 4.624.96s2.341 1.536 3.056 2.688c.725 1.1414 1.088 2.4534 1.088 3.936 0 1.4827-.363 2.8-1.088 3.952-.715 1.1414-1.733 2.032-3.056 2.672s-2.864.96-4.624.96h-8.48v8.832h-4.224v-24zm-.16 11.52c.949 0 1.771-.16 2.464-.48.704-.32 1.243-.7733 1.616-1.36.373-.5973.56-1.296.56-2.096s-.187-1.4933-.56-2.08c-.373-.5973-.912-1.056-1.616-1.376-.693-.32-1.515-.48-2.464-.48h-8.32v7.872zm32.691-5.632-.96 9.056.96 9.056h-4.288l-.464-4.496c-.938 1.5574-2.128 2.7734-3.568 3.648-1.44.864-3.029 1.296-4.768 1.296-1.749 0-3.312-.3946-4.688-1.184-1.376-.8-2.448-1.92-3.216-3.36s-1.152-3.0933-1.152-4.96c0-1.8666.384-3.52 1.152-4.96s1.84-2.5546 3.216-3.344c1.376-.8 2.939-1.2 4.688-1.2 1.75 0 3.339.432 4.768 1.296 1.44.864 2.63 2.0747 3.568 3.632l.464-4.48zm-12.096 15.232c1.12 0 2.171-.256 3.152-.768.992-.5226 1.867-1.248 2.624-2.176.768-.928 1.382-2.0053 1.84-3.232-.458-1.216-1.072-2.288-1.84-3.216-.757-.928-1.632-1.6533-2.624-2.176-.981-.5226-2.032-.784-3.152-.784s-2.122.2667-3.008.8c-.885.5227-1.578 1.2534-2.08 2.192-.49.928-.736 1.9894-.736 3.184 0 1.1947.246 2.2614.736 3.2.502.9387 1.195 1.6694 2.08 2.192.886.5227 1.888.784 3.008.784zm36.1-4.256c-.214 1.4827-.8 2.8-1.76 3.952-.95 1.152-2.182 2.048-3.696 2.688-1.504.6294-3.163.944-4.976.944-2.07 0-3.91-.4-5.52-1.2-1.6-.8-2.848-1.92-3.744-3.36-.886-1.44-1.328-3.088-1.328-4.944s.442-3.504 1.328-4.944c.896-1.44 2.144-2.56 3.744-3.36 1.61-.8 3.45-1.2 5.52-1.2 1.813 0 3.472.32 4.976.96 1.514.64 2.746 1.536 3.696 2.688.96 1.152 1.546 2.4747 1.76 3.968h-4.192c-.203-.896-.592-1.6693-1.168-2.32-.576-.6613-1.302-1.1626-2.176-1.504-.864-.352-1.83-.528-2.896-.528-1.28 0-2.4.2507-3.36.752-.96.5014-1.702 1.2214-2.224 2.16-.523.9387-.784 2.048-.784 3.328s.261 2.3894.784 3.328c.522.9387 1.264 1.6587 2.224 2.16.96.5014 2.08.752 3.36.752 1.066 0 2.037-.176 2.912-.528.874-.352 1.6-.8533 2.176-1.504.576-.6613.96-1.424 1.152-2.288zm30.548 3.936v-14.912h4.16v18.112h-31.552v-18.112h4.16v14.912h9.536v-14.912h4.16v14.912zm12.673-.752 11.136-14.16h5.376v18.112h-4.096v-14.304l-11.264 14.304h-5.248v-18.112h4.096zm33.575-14.608c1.749 0 3.312.4 4.688 1.2 1.376.7894 2.448 1.904 3.216 3.344s1.152 3.0934 1.152 4.96c0 1.8667-.384 3.52-1.152 4.96s-1.84 2.56-3.216 3.36c-1.376.7894-2.939 1.184-4.688 1.184-1.803 0-3.435-.4533-4.896-1.36-1.451-.9173-2.645-2.2026-3.584-3.856v10.048h-4.16v-23.392h4.16v4.72c.928-1.632 2.123-2.9013 3.584-3.808 1.472-.9066 3.104-1.36 4.896-1.36zm-.992 15.68c1.12 0 2.123-.2613 3.008-.784.885-.5226 1.573-1.2533 2.064-2.192.501-.9386.752-2.0053.752-3.2 0-1.1946-.251-2.256-.752-3.184-.491-.9386-1.179-1.6693-2.064-2.192-.885-.5333-1.888-.8-3.008-.8s-2.176.2614-3.168.784c-.981.5227-1.856 1.248-2.624 2.176-.757.928-1.365 2-1.824 3.216.459 1.2267 1.067 2.304 1.824 3.232.768.928 1.643 1.6534 2.624 2.176.992.512 2.048.768 3.168.768zm16.9-4.704c.363 1.504 1.179 2.6774 2.448 3.52 1.28.832 2.896 1.248 4.848 1.248 1.398 0 2.816-.2186 4.256-.656 1.451-.448 2.731-1.0613 3.84-1.84v3.008c-1.12.8534-2.474 1.5254-4.064 2.016-1.578.4907-3.189.736-4.832.736-2.101 0-3.984-.4-5.648-1.2-1.653-.8-2.944-1.92-3.872-3.36-.928-1.4506-1.392-3.1093-1.392-4.976 0-1.856.443-3.4986 1.328-4.928.886-1.44 2.118-2.5546 3.696-3.344 1.579-.8 3.371-1.2 5.376-1.2 1.995 0 3.739.4534 5.232 1.36 1.504.9067 2.662 2.192 3.472 3.856.811 1.6534 1.216 3.5734 1.216 5.76zm5.888-7.712c-1.045 0-1.984.1867-2.816.56-.821.3627-1.504.8854-2.048 1.568-.544.6827-.906 1.488-1.088 2.416h11.648c-.298-1.44-.949-2.5546-1.952-3.344-.992-.8-2.24-1.2-3.744-1.2zm28.831 4.512v-7.328h4.128v18.112h-4.128v-7.584h-11.264v7.584h-4.128v-18.112h4.128v7.328zm23.938 0v-7.328h4.128v18.112h-4.128v-7.584h-11.264v7.584h-4.128v-18.112h4.128v7.328zm19.521-1.632c1.451 0 2.725.2614 3.824.784 1.099.512 1.952 1.2374 2.56 2.176.608.9387.912 2.0214.912 3.248 0 1.2374-.304 2.3254-.912 3.264-.597.9387-1.445 1.664-2.544 2.176s-2.368.768-3.808.768h-11.008v-18.112h4.16v5.696zm9.376 12.416v-18.112h4.16v18.112zm-9.92-3.072c1.12 0 2-.2826 2.64-.848.651-.5653.976-1.3386.976-2.32 0-.992-.325-1.7706-.976-2.336-.64-.576-1.52-.864-2.64-.864h-6.272v6.368zm22.602-.88 11.136-14.16h5.376v18.112h-4.096v-14.304l-11.264 14.304h-5.248v-18.112h4.096zm6.112-15.984c-1.92 0-3.462-.48-4.624-1.44-1.163-.96-1.883-2.3466-2.16-4.16h3.36c.17.9707.554 1.7227 1.152 2.256.597.5227 1.354.784 2.272.784.917 0 1.674-.2613 2.272-.784.597-.5333.981-1.2853 1.152-2.256h3.328c-.256 1.8027-.971 3.1894-2.144 4.16-1.163.96-2.699 1.44-4.608 1.44z" fill="#fff"/></svg>