<svg fill="none" height="887" viewBox="0 0 500 887" width="500" xmlns="http://www.w3.org/2000/svg" xmlns:xlink="http://www.w3.org/1999/xlink"><radialGradient id="a" cx="0" cy="0" gradientTransform="matrix(-519.64858185 987.81501152 -985.45202944 -518.4055148 519.641 -13.558)" gradientUnits="userSpaceOnUse" r="1"><stop offset=".0184063" stop-color="#453db1" stop-opacity=".71"/><stop offset=".37863" stop-color="#302c76" stop-opacity=".95"/><stop offset=".814622" stop-color="#181830"/></radialGradient><linearGradient id="b" gradientUnits="userSpaceOnUse" x1="7.02018" x2="471.782" y1="73.8369" y2="73.8369"><stop offset=".19446" stop-color="#5750b4"/><stop offset=".982223" stop-color="#9faae6"/></linearGradient><linearGradient id="c" gradientUnits="userSpaceOnUse" x1="39.7432" x2="132.146" y1="117.153" y2="117.153"><stop offset=".103393" stop-color="#5750b4"/><stop offset="1" stop-color="#9faae6" stop-opacity="0"/></linearGradient><path d="m0 33.494 32.9431-33.082867h208.6609l17.853 22.703167h141.883l16.913-20.75933h54.498l27.249 27.36463v532.1954l-15.974 16.041v190.609l-29.598 29.723h-411.0833l-26.5443-26.657v-388.058l-16.678249-12.267z" fill="url(#a)"/><path d="m0 33.494 32.9431-33.082867h208.6609l17.853 22.703167h141.883l16.913-20.75933h54.498l27.249 27.36463v532.1954l-15.974 16.041v190.609 117.889h-483.903849v-131.572l-.122151-354.438.122151-29.138z" fill="url(#a)"/><path d="m40.4221 26.4417h197.2559l21.134 17.9891h147.942l17.846-17.9891h42.27l22.073 18.7886v61.9627l-15.263 12.992h-333.691l-12.333-10.498h-82.5373l-13.5637 11.545h-15.555v-71.6044z" fill="url(#b)"/><path d="m39.7432 121.144 8.4859-7.982h75.4309l8.486 7.982z" fill="url(#c)"/><path d="m171 76.9707c-.224 1.9627-.912 3.696-2.064 5.2s-2.677 2.672-4.576 3.504-4.037 1.248-6.416 1.248c-2.667 0-5.024-.5173-7.072-1.552-2.037-1.0453-3.621-2.5066-4.752-4.384-1.12-1.888-1.68-4.0586-1.68-6.512 0-2.4533.56-4.6186 1.68-6.496 1.131-1.888 2.715-3.3493 4.752-4.384 2.048-1.0453 4.405-1.568 7.072-1.568 2.379 0 4.517.416 6.416 1.248s3.424 2 4.576 3.504 1.84 3.2374 2.064 5.2h-4.256c-.235-1.2693-.741-2.368-1.52-3.296s-1.792-1.6373-3.04-2.128c-1.248-.5013-2.672-.752-4.272-.752-1.867 0-3.493.352-4.88 1.056-1.376.704-2.437 1.712-3.184 3.024-.747 1.3014-1.12 2.832-1.12 4.592s.373 3.296 1.12 4.608c.747 1.3014 1.808 2.304 3.184 3.008 1.387.704 3.013 1.056 4.88 1.056 1.611 0 3.035-.2453 4.272-.736 1.248-.4906 2.261-1.2 3.04-2.128s1.285-2.032 1.52-3.312zm1.354-8.608h19.2v3.264h-7.52v14.848h-4.16v-14.848h-7.52zm42.257 0-.96 9.056.96 9.056h-4.288l-.464-4.496c-.939 1.5574-2.128 2.7734-3.568 3.648-1.44.864-3.03 1.296-4.768 1.296-1.75 0-3.312-.3946-4.688-1.184-1.376-.8-2.448-1.92-3.216-3.36s-1.152-3.0933-1.152-4.96c0-1.8666.384-3.52 1.152-4.96s1.84-2.5546 3.216-3.344c1.376-.8 2.938-1.2 4.688-1.2 1.749 0 3.338.432 4.768 1.296 1.44.864 2.629 2.0747 3.568 3.632l.464-4.48zm-12.096 15.232c1.12 0 2.17-.256 3.152-.768.992-.5226 1.866-1.248 2.624-2.176.768-.928 1.381-2.0053 1.84-3.232-.459-1.216-1.072-2.288-1.84-3.216-.758-.928-1.632-1.6533-2.624-2.176-.982-.5226-2.032-.784-3.152-.784s-2.123.2667-3.008.8c-.886.5227-1.579 1.2534-2.08 2.192-.491.928-.736 1.9894-.736 3.184 0 1.1947.245 2.2614.736 3.2.501.9387 1.194 1.6694 2.08 2.192.885.5227 1.888.784 3.008.784zm28.739-15.68c1.75 0 3.312.4 4.688 1.2 1.376.7894 2.448 1.904 3.216 3.344s1.152 3.0934 1.152 4.96c0 1.8667-.384 3.52-1.152 4.96s-1.84 2.56-3.216 3.36c-1.376.7894-2.938 1.184-4.688 1.184-1.802 0-3.434-.4533-4.896-1.36-1.45-.9173-2.645-2.2026-3.584-3.856v10.048h-4.16v-23.392h4.16v4.72c.928-1.632 2.123-2.9013 3.584-3.808 1.472-.9066 3.104-1.36 4.896-1.36zm-.992 15.68c1.12 0 2.123-.2613 3.008-.784.886-.5226 1.574-1.2533 2.064-2.192.502-.9386.752-2.0053.752-3.2 0-1.1946-.25-2.256-.752-3.184-.49-.9386-1.178-1.6693-2.064-2.192-.885-.5333-1.888-.8-3.008-.8s-2.176.2614-3.168.784c-.981.5227-1.856 1.248-2.624 2.176-.757.928-1.365 2-1.824 3.216.459 1.2267 1.067 2.304 1.824 3.232.768.928 1.643 1.6534 2.624 2.176.992.512 2.048.768 3.168.768zm10.967-15.232h19.2v3.264h-7.52v14.848h-4.16v-14.848h-7.52zm31.058 18.56c-2.176 0-4.102-.3946-5.776-1.184-1.664-.8-2.96-1.92-3.888-3.36-.918-1.44-1.376-3.0933-1.376-4.96 0-1.8666.458-3.52 1.376-4.96.928-1.44 2.224-2.5546 3.888-3.344 1.674-.8 3.6-1.2 5.776-1.2s4.096.4 5.76 1.2c1.674.7894 2.97 1.904 3.888 3.344.928 1.44 1.392 3.0934 1.392 4.96 0 1.8667-.464 3.52-1.392 4.96-.918 1.44-2.214 2.56-3.888 3.36-1.664.7894-3.584 1.184-5.76 1.184zm0-3.264c1.386 0 2.592-.2506 3.616-.752 1.024-.512 1.813-1.2373 2.368-2.176.554-.9386.832-2.0426.832-3.312 0-1.2586-.278-2.3573-.832-3.296-.555-.9386-1.344-1.664-2.368-2.176s-2.23-.768-3.616-.768c-1.387 0-2.592.256-3.616.768s-1.814 1.2374-2.368 2.176c-.555.9387-.832 2.0374-.832 3.296 0 1.2694.277 2.3734.832 3.312.554.9387 1.344 1.664 2.368 2.176 1.024.5014 2.229.752 3.616.752zm29.637-6.64c1.387.2774 2.437.7947 3.152 1.552.725.7574 1.088 1.728 1.088 2.912 0 1.024-.256 1.9147-.768 2.672-.501.7467-1.227 1.3227-2.176 1.728-.949.3947-2.08.592-3.392.592h-13.536l.928-9.056-.928-9.056h13.12c1.152 0 2.149.1867 2.992.56.843.3627 1.488.8907 1.936 1.584.448.6827.672 1.4934.672 2.432 0 .96-.267 1.7867-.8 2.48-.533.6934-1.296 1.2267-2.288 1.6zm-1.104-3.44c0-.7253-.229-1.296-.688-1.712s-1.179-.624-2.16-.624h-7.44l.528 4.704h6.624c1.056 0 1.84-.208 2.352-.624.523-.4266.784-1.008.784-1.744zm-2.048 10.016c1.109 0 1.92-.208 2.432-.624.512-.4266.768-1.0506.768-1.872 0-.7466-.304-1.344-.912-1.792-.597-.448-1.52-.672-2.768-.672h-7.2l-.56 4.96zm21.725-9.536c1.45 0 2.725.2614 3.824.784 1.098.512 1.952 1.2374 2.56 2.176.608.9387.912 2.0214.912 3.248 0 1.2374-.304 2.3254-.912 3.264-.598.9387-1.446 1.664-2.544 2.176-1.099.512-2.368.768-3.808.768h-11.008v-18.112h4.16v5.696zm9.376 12.416v-18.112h4.16v18.112zm-9.92-3.072c1.12 0 2-.2826 2.64-.848.65-.5653.976-1.3386.976-2.32 0-.992-.326-1.7706-.976-2.336-.64-.576-1.52-.864-2.64-.864h-6.272v6.368zm22.601-.88 11.136-14.16h5.376v18.112h-4.096v-14.304l-11.264 14.304h-5.248v-18.112h4.096zm6.112-15.984c-1.92 0-3.461-.48-4.624-1.44s-1.883-2.3466-2.16-4.16h3.36c.171.9707.555 1.7227 1.152 2.256.597.5227 1.355.784 2.272.784s1.675-.2613 2.272-.784c.597-.5333.981-1.2853 1.152-2.256h3.328c-.256 1.8027-.971 3.1894-2.144 4.16-1.163.96-2.699 1.44-4.608 1.44z" fill="#fff"/></svg>