<svg fill="none" height="965" viewBox="0 0 518 965" width="518" xmlns="http://www.w3.org/2000/svg" xmlns:xlink="http://www.w3.org/1999/xlink"><radialGradient id="a" cx="0" cy="0" gradientTransform="matrix(-537.40696214 1026.78591899 -1021.37254968 -534.57367206 537.402 -14.1551)" gradientUnits="userSpaceOnUse" r="1"><stop offset=".0184063" stop-color="#453db1" stop-opacity=".71"/><stop offset=".37863" stop-color="#302c76" stop-opacity=".95"/><stop offset=".814622" stop-color="#181830"/></radialGradient><radialGradient id="b" cx="0" cy="0" gradientTransform="matrix(-537.30831749 1026.51022833 -1021.15897574 -534.50730057 537.309 -14.1511)" gradientUnits="userSpaceOnUse" r="1"><stop offset=".113981" stop-color="#dcc0ff"/><stop offset=".369639" stop-color="#f4e8f2"/><stop offset=".662127" stop-color="#dcc0ff"/></radialGradient><linearGradient id="c" gradientUnits="userSpaceOnUse" x1="7.26014" x2="487.907" y1="76.9553" y2="76.9553"><stop offset=".0715564" stop-color="#5750b4"/><stop offset=".982223" stop-color="#9faae6"/></linearGradient><linearGradient id="d" gradientUnits="userSpaceOnUse" x1="41.1016" x2="136.663" y1="121.712" y2="121.712"><stop offset=".114583" stop-color="#5750b4"/><stop offset="1" stop-color="#9faae6" stop-opacity="0"/></linearGradient><path d="m0 34.753 34.069-34.387888h215.793l18.463 23.598788h146.732l17.492-21.57828h56.36l28.181 28.44408v553.1883l-16.52 16.674v198.128l-30.61 30.896h-425.1338l-27.4516-27.709v-403.366l-17.248274-12.751z" fill="url(#a)"/><path d="m0 34.7437 34.0631-34.378588h215.7559l18.46 23.592388h146.706l17.489-21.57243h56.351l28.175 28.43633v553.0386l-16.517 16.669v198.074 166.397h-500.356696v-107.659-445.337-26.218z" fill="url(#b)"/><path d="m41.8037 27.397h203.9973l21.857 18.8101h152.998l18.457-18.8101h43.714l22.828 19.6461v64.7899l-15.786 13.585h-345.095l-12.755-10.976h-85.3582l-14.0273 12.072h-16.0866v-74.8729z" fill="url(#c)"/><path d="m41.1016 125.861 8.776-8.297h78.0094l8.776 8.297z" fill="url(#d)"/><path d="m167.122 89.4323v-24.0001h23.616v24.0001h-4.192v-20.256h-15.2v20.256zm40.973-18.5601c1.749 0 3.312.4 4.688 1.2001 1.376.7893 2.448 1.904 3.216 3.344s1.152 3.0933 1.152 4.96c0 1.8666-.384 3.52-1.152 4.96s-1.84 2.56-3.216 3.36c-1.376.7893-2.939 1.184-4.688 1.184-1.803 0-3.435-.4534-4.896-1.36-1.451-.9174-2.645-2.2027-3.584-3.856v10.048h-4.16v-23.3921h4.16v4.7201c.928-1.632 2.123-2.9014 3.584-3.808 1.472-.9067 3.104-1.3601 4.896-1.3601zm-.992 15.6801c1.12 0 2.123-.2614 3.008-.784.885-.5227 1.573-1.2534 2.064-2.192.501-.9387.752-2.0054.752-3.2 0-1.1947-.251-2.256-.752-3.184-.491-.9387-1.179-1.6694-2.064-2.1921-.885-.5333-1.888-.7999-3.008-.7999s-2.176.2613-3.168.784c-.981.5226-1.856 1.248-2.624 2.176-.757.928-1.365 2-1.824 3.216.459 1.2266 1.067 2.304 1.824 3.232.768.928 1.643 1.6533 2.624 2.176.992.512 2.048.768 3.168.768zm16.9-4.704c.363 1.504 1.179 2.6773 2.448 3.52 1.28.832 2.896 1.248 4.848 1.248 1.398 0 2.816-.2187 4.256-.656 1.451-.448 2.731-1.0614 3.84-1.84v3.008c-1.12.8533-2.474 1.5253-4.064 2.016-1.578.4906-3.189.736-4.832.736-2.101 0-3.984-.4-5.648-1.2-1.653-.8-2.944-1.92-3.872-3.36-.928-1.4507-1.392-3.1094-1.392-4.976 0-1.856.443-3.4987 1.328-4.928.886-1.44 2.118-2.5547 3.696-3.344 1.579-.8001 3.371-1.2001 5.376-1.2001 1.995 0 3.739.4534 5.232 1.3601 1.504.9066 2.662 2.1919 3.472 3.856.811 1.6533 1.216 3.5733 1.216 5.76zm5.888-7.712c-1.045 0-1.984.1866-2.816.5599-.821.3627-1.504.8854-2.048 1.5681-.544.6826-.906 1.488-1.088 2.416h11.648c-.298-1.44-.949-2.5547-1.952-3.344-.992-.8-2.24-1.2-3.744-1.2zm26.415 11.584 6.736-14.4001h6.176v18.1121h-3.904v-14.48l-7.008 14.48h-4.064l-7.008-14.4321v14.4321h-3.904v-18.1121h6.176zm21.432-.24 11.136-14.1601h5.376v18.1121h-4.096v-14.304l-11.264 14.304h-5.248v-18.1121h4.096zm36.968-14.1601h4.416l-9.376 19.3921c-1.419 2.9653-3.659 4.448-6.72 4.448-1.952 0-3.723-.5014-5.312-1.504v-3.168c.832.5226 1.616.896 2.352 1.12.736.2346 1.552.352 2.448.352.917 0 1.712-.208 2.384-.624s1.221-1.0934 1.648-2.032l.208-.448h-1.648l-8.32-17.5361h4.576l6.64 14.7841zm19.819 14.4001 6.736-14.4001h6.176v18.1121h-3.904v-14.48l-7.008 14.48h-4.064l-7.008-14.4321v14.4321h-3.904v-18.1121h6.176z" fill="#fff"/></svg>