<svg width="85" height="85" viewBox="0 0 85 85" fill="none" xmlns="http://www.w3.org/2000/svg">
<path d="M41.8901 84.8998C18.8501 84.8998 0.100098 66.1498 0.100098 43.1098C0.100098 20.0698 18.8501 1.31982 41.8901 1.31982C64.9301 1.31982 83.6801 20.0698 83.6801 43.1098C83.6801 66.1498 64.9301 84.8998 41.8901 84.8998ZM41.8901 2.02982C19.2401 2.02982 0.810097 20.4598 0.810097 43.1098C0.810097 65.7598 19.2401 84.1898 41.8901 84.1898C64.5401 84.1898 82.9701 65.7598 82.9701 43.1098C82.9701 20.4598 64.5401 2.02982 41.8901 2.02982Z" fill="#80CCDD"/>
<path d="M84.8096 43.1197H80.5896C80.5896 21.7797 63.2296 4.4197 41.8896 4.4197V0.199707C65.5596 0.199707 84.8096 19.4597 84.8096 43.1197Z" fill="#80CCDD"/>
</svg>
