<svg width="130" height="130" viewBox="0 0 130 130" fill="none" xmlns="http://www.w3.org/2000/svg">
<path d="M66.8898 124.7C35.1398 124.7 9.2998 98.87 9.2998 67.11C9.2998 35.35 35.1298 9.52002 66.8898 9.52002C98.6498 9.52002 124.48 35.35 124.48 67.11C124.48 98.87 98.6498 124.7 66.8898 124.7ZM66.8898 10.23C35.5198 10.23 10.0098 35.75 10.0098 67.12C10.0098 98.49 35.5298 124 66.8898 124C98.2498 124 123.77 98.48 123.77 67.12C123.77 35.76 98.2498 10.23 66.8898 10.23ZM66.8898 119.7C37.8998 119.7 14.3098 96.11 14.3098 67.12C14.3098 38.13 37.8998 14.54 66.8898 14.54C95.8798 14.54 119.47 38.13 119.47 67.12C119.47 96.11 95.8798 119.7 66.8898 119.7ZM66.8898 15.24C38.2798 15.24 15.0098 38.51 15.0098 67.12C15.0098 95.73 38.2798 119 66.8898 119C95.4998 119 118.77 95.73 118.77 67.12C118.77 38.51 95.4998 15.24 66.8898 15.24Z" fill="#3364AD"/>
<path d="M66.8901 118.98C66.6501 118.98 66.4101 118.98 66.1701 118.98L66.2001 116.87C66.4301 116.87 66.6601 116.87 66.8901 116.87V118.98ZM68.8301 118.94L68.7501 116.83C68.9801 116.83 69.2101 116.81 69.4401 116.8L69.5501 118.91C69.3101 118.92 69.0701 118.93 68.8301 118.94ZM63.3001 118.85C63.0601 118.83 62.8201 118.82 62.5801 118.8L62.7501 116.7C62.9801 116.72 63.2101 116.74 63.4401 116.75L63.3001 118.86V118.85ZM72.4101 118.68L72.1901 116.58C72.4201 116.56 72.6501 116.53 72.8701 116.5L73.1201 118.6C72.8801 118.63 72.6501 118.66 72.4101 118.68ZM59.7301 118.48C59.4901 118.45 59.2601 118.41 59.0201 118.38L59.3401 116.29C59.5701 116.33 59.7901 116.36 60.0201 116.39L59.7301 118.48ZM75.9601 118.18L75.5901 116.1C75.8201 116.06 76.0401 116.02 76.2701 115.98L76.6701 118.05C76.4401 118.09 76.2001 118.14 75.9601 118.18ZM56.1901 117.87C55.9601 117.82 55.7201 117.77 55.4901 117.72L55.9501 115.66C56.1701 115.71 56.4001 115.76 56.6201 115.81L56.1801 117.88L56.1901 117.87ZM79.4701 117.43L78.9601 115.38C79.1801 115.32 79.4101 115.27 79.6301 115.21L80.1701 117.25C79.9401 117.31 79.7101 117.37 79.4701 117.43ZM52.7001 117C52.4701 116.93 52.2401 116.87 52.0101 116.8L52.6201 114.78C52.8401 114.85 53.0601 114.91 53.2801 114.97L52.7001 117ZM82.9201 116.43L82.2601 114.42C82.4801 114.35 82.7001 114.28 82.9201 114.2L83.6001 116.2C83.3701 116.28 83.1501 116.35 82.9201 116.43ZM49.2801 115.89C49.0501 115.81 48.8301 115.72 48.6001 115.64L49.3501 113.67C49.5701 113.75 49.7801 113.83 50.0001 113.91L49.2801 115.9V115.89ZM86.2901 115.2L85.5001 113.24C85.7101 113.15 85.9201 113.07 86.1301 112.98L86.9501 114.93C86.7301 115.02 86.5101 115.11 86.2901 115.2ZM45.9501 114.55C45.7301 114.45 45.5101 114.35 45.2901 114.25L46.1701 112.33C46.3801 112.43 46.5901 112.52 46.8001 112.61L45.9501 114.54V114.55ZM89.5701 113.74L88.6501 111.84C88.8601 111.74 89.0601 111.64 89.2601 111.54L90.2101 113.42C90.0001 113.53 89.7801 113.63 89.5701 113.74ZM42.7201 112.98C42.5101 112.87 42.3001 112.75 42.0901 112.64L43.1001 110.79C43.3001 110.9 43.5001 111.01 43.7101 111.12L42.7201 112.99V112.98ZM92.7401 112.06L91.6901 110.23C91.8901 110.12 92.0901 110 92.2801 109.88L93.3601 111.69C93.1501 111.81 92.9501 111.93 92.7401 112.05V112.06ZM39.6001 111.19C39.4001 111.06 39.1901 110.94 38.9901 110.81L40.1301 109.03C40.3201 109.15 40.5201 109.28 40.7101 109.4L39.6001 111.19ZM95.7801 110.16L94.6001 108.41C94.7901 108.28 94.9801 108.15 95.1701 108.02L96.3701 109.76C96.1701 109.9 95.9801 110.03 95.7801 110.16ZM36.6201 109.19C36.4301 109.05 36.2301 108.91 36.0401 108.77L37.3001 107.07C37.4901 107.21 37.6701 107.34 37.8601 107.48L36.6201 109.19ZM98.6901 108.06L97.3901 106.39C97.5701 106.25 97.7501 106.11 97.9301 105.96L99.2501 107.61C99.0601 107.76 98.8801 107.91 98.6901 108.05V108.06ZM33.7801 106.99C33.6001 106.84 33.4101 106.68 33.2301 106.53L34.6001 104.93C34.7701 105.08 34.9501 105.23 35.1301 105.37L33.7801 106.99ZM101.44 105.76L100.03 104.19C100.2 104.04 100.37 103.88 100.54 103.73L101.97 105.28C101.79 105.44 101.62 105.6 101.44 105.76ZM31.1001 104.6C30.9301 104.43 30.7501 104.27 30.5801 104.1L32.0601 102.59C32.2201 102.75 32.3901 102.91 32.5501 103.07L31.0901 104.6H31.1001ZM104.03 103.27L102.52 101.8C102.68 101.64 102.84 101.47 103 101.3L104.53 102.75C104.37 102.92 104.2 103.1 104.03 103.27ZM28.5901 102.03C28.4301 101.85 28.2701 101.68 28.1101 101.5L29.6901 100.1C29.8401 100.27 30.0001 100.44 30.1501 100.61L28.5901 102.03ZM106.45 100.61L104.84 99.24C104.99 99.07 105.14 98.89 105.28 98.71L106.91 100.05C106.76 100.23 106.6 100.42 106.45 100.6V100.61ZM26.2701 99.29C26.1201 99.1 25.9701 98.91 25.8301 98.73L27.5001 97.44C27.6401 97.62 27.7801 97.8 27.9201 97.98L26.2701 99.29ZM108.68 97.79L106.98 96.54C107.12 96.36 107.25 96.17 107.38 95.98L109.1 97.21C108.96 97.41 108.82 97.6 108.68 97.79ZM24.1401 96.41C24.0001 96.21 23.8701 96.02 23.7401 95.82L25.5001 94.65C25.6301 94.84 25.7601 95.03 25.8901 95.22L24.1501 96.42L24.1401 96.41ZM110.71 94.83L108.93 93.7C109.05 93.51 109.18 93.31 109.3 93.11L111.1 94.22C110.97 94.42 110.85 94.63 110.72 94.83H110.71ZM22.2101 93.39C22.0901 93.18 21.9701 92.98 21.8501 92.77L23.6801 91.72C23.7901 91.92 23.9101 92.12 24.0201 92.31L22.2001 93.38L22.2101 93.39ZM112.53 91.73L110.67 90.73C110.78 90.53 110.89 90.32 111 90.12L112.87 91.1C112.76 91.31 112.65 91.52 112.53 91.73ZM20.4901 90.24C20.3801 90.03 20.2801 89.81 20.1701 89.6L22.0701 88.68C22.1701 88.89 22.2701 89.09 22.3701 89.3L20.4801 90.24H20.4901ZM114.13 88.51L112.21 87.63C112.31 87.42 112.4 87.21 112.49 87L114.42 87.85C114.32 88.07 114.23 88.29 114.13 88.51ZM19.0001 86.98C18.9101 86.76 18.8201 86.54 18.7301 86.32L20.6901 85.54C20.7801 85.75 20.8601 85.96 20.9501 86.18L19.0001 86.99V86.98ZM115.51 85.19L113.53 84.45C113.61 84.23 113.69 84.02 113.77 83.8L115.76 84.51C115.68 84.74 115.6 84.96 115.51 85.19ZM17.7401 83.63C17.6601 83.4 17.5901 83.18 17.5101 82.95L19.5201 82.3C19.5901 82.52 19.6601 82.74 19.7401 82.95L17.7401 83.62V83.63ZM116.65 81.78L114.63 81.18C114.69 80.96 114.76 80.74 114.82 80.52L116.85 81.09C116.79 81.32 116.72 81.55 116.65 81.78ZM16.7101 80.19C16.6501 79.96 16.5901 79.73 16.5301 79.5L18.5801 78.99C18.6401 79.21 18.6901 79.44 18.7501 79.66L16.7101 80.19ZM117.55 78.31L115.49 77.86C115.54 77.64 115.59 77.41 115.63 77.19L117.7 77.62C117.65 77.85 117.6 78.09 117.55 78.32V78.31ZM15.9301 76.69C15.8901 76.45 15.8401 76.22 15.8001 75.98L17.8801 75.62C17.9201 75.85 17.9601 76.07 18.0001 76.3L15.9301 76.69ZM118.2 74.78L116.11 74.47C116.14 74.24 116.18 74.02 116.21 73.79L118.3 74.07C118.27 74.31 118.23 74.55 118.2 74.78ZM15.3901 73.14C15.3601 72.9 15.3401 72.66 15.3101 72.43L17.4101 72.22C17.4301 72.45 17.4601 72.68 17.4801 72.9L15.3801 73.14H15.3901ZM118.61 71.21L116.51 71.04C116.53 70.81 116.54 70.58 116.56 70.35L118.67 70.49C118.65 70.73 118.64 70.97 118.62 71.21H118.61ZM15.1001 69.56C15.0901 69.32 15.0801 69.08 15.0701 68.84L17.1801 68.77C17.1801 69 17.2001 69.23 17.2101 69.46L15.1001 69.56ZM118.77 67.62L116.66 67.6V66.91L118.77 66.9V67.62ZM17.1701 66.01L15.0601 65.96C15.0601 65.72 15.0701 65.48 15.0801 65.24L17.1901 65.31C17.1901 65.54 17.1801 65.77 17.1701 66V66.01ZM116.58 64.15C116.57 63.92 116.55 63.69 116.54 63.46L118.65 63.31C118.67 63.55 118.68 63.79 118.7 64.03L116.59 64.15H116.58ZM17.3701 62.57L15.2701 62.38C15.2901 62.14 15.3101 61.9 15.3401 61.67L17.4401 61.89C17.4201 62.12 17.3901 62.35 17.3701 62.58V62.57ZM116.26 60.72C116.23 60.49 116.2 60.26 116.17 60.04L118.26 59.74C118.29 59.98 118.33 60.21 118.36 60.45L116.27 60.72H116.26ZM17.8001 59.15L15.7201 58.81C15.7601 58.57 15.8001 58.34 15.8401 58.1L17.9201 58.47C17.8801 58.7 17.8401 58.92 17.8101 59.15H17.8001ZM115.71 57.32C115.67 57.09 115.62 56.87 115.57 56.65L117.63 56.21C117.68 56.44 117.73 56.68 117.78 56.91L115.71 57.32ZM18.4701 55.77L16.4101 55.29C16.4601 55.06 16.5201 54.82 16.5801 54.59L18.6301 55.1C18.5701 55.32 18.5201 55.55 18.4701 55.77ZM114.92 53.97C114.86 53.75 114.8 53.53 114.73 53.31L116.76 52.72C116.83 52.95 116.89 53.18 116.95 53.41L114.91 53.97H114.92ZM19.3701 52.45L17.3501 51.83C17.4201 51.6 17.4901 51.37 17.5701 51.14L19.5801 51.79C19.5101 52.01 19.4401 52.23 19.3701 52.45ZM113.9 50.69C113.82 50.47 113.75 50.26 113.67 50.04L115.65 49.31C115.73 49.53 115.81 49.76 115.89 49.99L113.9 50.69ZM20.5101 49.19L18.5401 48.43C18.6301 48.21 18.7101 47.98 18.8001 47.76L20.7601 48.55C20.6701 48.76 20.5901 48.98 20.5101 49.19ZM112.65 47.48C112.56 47.27 112.47 47.06 112.37 46.85L114.3 45.99C114.4 46.21 114.49 46.43 114.59 46.64L112.65 47.48ZM21.8601 46.01L19.9501 45.11C20.0501 44.89 20.1601 44.68 20.2601 44.46L22.1601 45.39C22.0601 45.6 21.9601 45.8 21.8601 46.01ZM111.18 44.37C111.07 44.17 110.97 43.96 110.86 43.76L112.72 42.77C112.83 42.98 112.94 43.19 113.05 43.4L111.17 44.37H111.18ZM23.4301 42.94L21.5901 41.91C21.7101 41.7 21.8301 41.49 21.9401 41.28L23.7701 42.33C23.6601 42.53 23.5401 42.73 23.4301 42.93V42.94ZM109.49 41.36C109.37 41.16 109.25 40.97 109.13 40.78L110.92 39.66C111.05 39.86 111.17 40.07 111.3 40.27L109.49 41.36ZM25.2101 39.98L23.4401 38.83C23.5701 38.63 23.7001 38.43 23.8401 38.23L25.5901 39.41C25.4601 39.6 25.3401 39.79 25.2101 39.98ZM107.61 38.48C107.48 38.29 107.34 38.11 107.21 37.92L108.92 36.68C109.06 36.87 109.2 37.07 109.34 37.26L107.61 38.48ZM27.1901 37.16L25.5101 35.89C25.6501 35.7 25.8001 35.51 25.9501 35.32L27.6201 36.61C27.4801 36.79 27.3401 36.97 27.2001 37.16H27.1901ZM105.53 35.73C105.39 35.55 105.24 35.37 105.09 35.2L106.71 33.85C106.86 34.03 107.02 34.22 107.17 34.4L105.53 35.73ZM29.3601 34.48L27.7701 33.09C27.9301 32.91 28.0901 32.73 28.2501 32.55L29.8201 33.96C29.6701 34.13 29.5101 34.3 29.3601 34.48ZM103.27 33.14C103.11 32.97 102.96 32.81 102.8 32.64L104.32 31.18C104.49 31.35 104.65 31.53 104.81 31.7L103.27 33.14ZM31.7101 31.96L30.2201 30.47C30.3901 30.3 30.5601 30.13 30.7301 29.97L32.2001 31.48C32.0401 31.64 31.8701 31.8 31.7101 31.96ZM100.83 30.7C100.66 30.54 100.49 30.39 100.32 30.23L101.74 28.67C101.92 28.83 102.09 28.99 102.27 29.16L100.83 30.7ZM34.2201 29.6L32.8301 28.01C33.0101 27.85 33.1901 27.7 33.3701 27.54L34.7401 29.15C34.5701 29.3 34.3901 29.45 34.2201 29.6ZM98.2301 28.43C98.0501 28.29 97.8701 28.14 97.6901 28L99.0001 26.34C99.1901 26.49 99.3801 26.64 99.5601 26.79L98.2301 28.43ZM36.8901 27.42L35.6101 25.74C35.8001 25.6 35.9901 25.45 36.1801 25.31L37.4301 27.01C37.2501 27.15 37.0601 27.28 36.8801 27.42H36.8901ZM95.4801 26.35C95.2901 26.22 95.1001 26.09 94.9101 25.96L96.1001 24.22C96.3001 24.36 96.4901 24.49 96.6901 24.63L95.4801 26.36V26.35ZM39.7001 25.43L38.5401 23.67C38.7401 23.54 38.9401 23.41 39.1401 23.28L40.2701 25.06C40.0801 25.18 39.8801 25.31 39.6901 25.43H39.7001ZM92.6001 24.46C92.4001 24.34 92.2101 24.22 92.0101 24.11L93.0801 22.29C93.2901 22.41 93.4901 22.53 93.7001 22.66L92.6101 24.47L92.6001 24.46ZM42.6401 23.64L41.6101 21.8C41.8201 21.68 42.0301 21.57 42.2401 21.45L43.2501 23.31C43.0501 23.42 42.8501 23.53 42.6501 23.64H42.6401ZM89.5901 22.78C89.3901 22.68 89.1801 22.57 88.9701 22.47L89.9101 20.58C90.1201 20.69 90.3401 20.79 90.5501 20.9L89.5901 22.78ZM45.7001 22.07L44.8001 20.16C45.0201 20.06 45.2301 19.96 45.4501 19.86L46.3301 21.78C46.1201 21.88 45.9101 21.97 45.7101 22.07H45.7001ZM86.4701 21.31C86.2601 21.22 86.0501 21.13 85.8301 21.04L86.6301 19.09C86.8501 19.18 87.0701 19.27 87.3001 19.37L86.4601 21.31H86.4701ZM48.8601 20.7L48.0901 18.73C48.3101 18.64 48.5401 18.56 48.7601 18.47L49.5001 20.45C49.2801 20.53 49.0701 20.61 48.8601 20.7ZM83.2601 20.06C83.0401 19.98 82.8201 19.91 82.6001 19.84L83.2701 17.84C83.5001 17.92 83.7301 17.99 83.9501 18.07L83.2601 20.06ZM52.1101 19.56L51.4801 17.55C51.7101 17.48 51.9401 17.41 52.1701 17.34L52.7701 19.36C52.5501 19.43 52.3301 19.49 52.1101 19.56ZM79.9701 19.04C79.7501 18.98 79.5301 18.92 79.3001 18.86L79.8301 16.82C80.0601 16.88 80.2901 16.94 80.5201 17L79.9701 19.04ZM55.4301 18.65L54.9401 16.6C55.1701 16.54 55.4101 16.49 55.6401 16.44L56.1001 18.5C55.8801 18.55 55.6501 18.6 55.4301 18.65ZM76.6201 18.26C76.4001 18.22 76.1701 18.17 75.9401 18.13L76.3201 16.05C76.5601 16.09 76.7901 16.14 77.0301 16.19L76.6201 18.26ZM58.8101 17.98L58.4701 15.9C58.7101 15.86 58.9401 15.82 59.1801 15.79L59.4901 17.88C59.2601 17.91 59.0401 17.95 58.8101 17.99V17.98ZM73.2201 17.71C72.9901 17.68 72.7701 17.65 72.5401 17.63L72.7801 15.53C73.0201 15.56 73.2601 15.59 73.4901 15.62L73.2201 17.71ZM62.2201 17.54L62.0201 15.44C62.2601 15.42 62.5001 15.4 62.7401 15.38L62.9101 17.48C62.6801 17.5 62.4501 17.52 62.2201 17.54ZM69.7901 17.4C69.5601 17.39 69.3301 17.38 69.1001 17.37L69.1901 15.26C69.4301 15.26 69.6701 15.28 69.9101 15.3L69.7901 17.41V17.4ZM65.6601 17.33L65.6101 15.22C65.8501 15.22 66.0901 15.21 66.3301 15.21L66.3501 17.32C66.1201 17.32 65.8901 17.32 65.6601 17.33Z" fill="#3364AD"/>
<path d="M6.41988 66.5599C6.74988 33.5099 33.7199 6.72994 66.8399 6.72994C67.0499 6.72994 67.2499 6.73994 67.4599 6.74994V0.959942C67.2499 0.959942 67.0499 0.939941 66.8399 0.939941C30.5299 0.939941 0.959883 30.3199 0.629883 66.5599H6.41988Z" fill="#3364AD"/>
<path d="M26.9397 28.1597L24.9297 26.1897C28.7797 22.2397 33.1597 18.8597 37.9397 16.1297C40.5797 14.6197 43.3597 13.3197 46.1897 12.2397L47.1897 14.8697C44.4897 15.8897 41.8497 17.1397 39.3297 18.5697C34.7797 21.1597 30.6097 24.3897 26.9397 28.1497V28.1597Z" fill="#80CCDD"/>
<path d="M69.3799 129.74L69.1899 124.82C69.4099 124.82 69.6399 124.8 69.8599 124.79L70.1099 129.71C69.8699 129.72 69.6199 129.73 69.3699 129.74H69.3799ZM73.0399 129.49L72.5599 124.59L73.2299 124.52L73.7599 129.42C73.5199 129.45 73.2799 129.47 73.0299 129.49H73.0399ZM76.6699 129.03L75.9099 124.16C76.1299 124.12 76.3499 124.09 76.5699 124.05L77.3899 128.91C77.1499 128.95 76.9099 128.99 76.6699 129.03ZM80.2699 128.35L79.2099 123.54L79.8699 123.39L80.9699 128.19L80.2599 128.35H80.2699ZM83.8199 127.46L82.4799 122.72L83.1299 122.53L84.5199 127.26C84.2899 127.33 84.0499 127.4 83.8199 127.46ZM87.3099 126.37L85.6999 121.71C85.9099 121.64 86.1299 121.56 86.3399 121.49L87.9999 126.13C87.7699 126.21 87.5399 126.29 87.3099 126.37ZM90.7299 125.08L88.8499 120.53C89.0599 120.45 89.2599 120.36 89.4699 120.27L91.4099 124.8C91.1899 124.9 90.9599 124.99 90.7299 125.08ZM94.0699 123.59L91.9299 119.16C92.1299 119.06 92.3299 118.96 92.5299 118.86L94.7199 123.27C94.4999 123.38 94.2799 123.49 94.0699 123.59ZM97.3099 121.9L94.9099 117.6L95.4999 117.27L97.9499 121.55C97.7399 121.67 97.5299 121.79 97.3199 121.91L97.3099 121.9ZM100.45 120.03L97.7999 115.87C97.9899 115.75 98.1799 115.63 98.3699 115.5L101.06 119.63C100.86 119.76 100.65 119.89 100.45 120.03ZM103.48 117.98L100.6 113.99C100.78 113.86 100.96 113.73 101.14 113.59L104.07 117.55C103.87 117.69 103.68 117.84 103.48 117.98ZM106.38 115.76L103.27 111.94C103.44 111.8 103.62 111.65 103.79 111.51L106.94 115.3C106.75 115.46 106.56 115.61 106.38 115.76ZM109.15 113.37L105.82 109.74L106.32 109.28L109.69 112.88C109.51 113.05 109.33 113.21 109.15 113.37ZM111.77 110.83L108.24 107.39C108.4 107.23 108.55 107.07 108.71 106.91L112.28 110.31C112.11 110.49 111.94 110.66 111.77 110.84V110.83ZM114.24 108.14L110.52 104.91C110.67 104.74 110.81 104.57 110.96 104.4L114.72 107.58C114.56 107.77 114.4 107.95 114.24 108.14ZM116.56 105.3L112.66 102.3C112.8 102.12 112.93 101.94 113.07 101.76L117.01 104.72C116.86 104.92 116.72 105.11 116.57 105.3H116.56ZM118.71 102.34L114.64 99.5601C114.77 99.3701 114.89 99.1901 115.02 99.0001L119.12 101.73C118.98 101.93 118.85 102.14 118.71 102.34ZM120.68 99.2501L116.46 96.7201C116.58 96.5301 116.69 96.3301 116.8 96.1401L121.05 98.6201C120.93 98.8301 120.8 99.0401 120.68 99.2501ZM122.47 96.0501L118.1 93.7801L118.41 93.1701L122.8 95.4001C122.69 95.6201 122.58 95.8301 122.47 96.0501ZM124.07 92.7501L119.58 90.7301C119.67 90.5301 119.76 90.3201 119.85 90.1101L124.37 92.0701C124.27 92.3001 124.17 92.5201 124.07 92.7401V92.7501ZM125.48 89.3601L120.88 87.6101C120.96 87.4001 121.04 87.1901 121.12 86.9701L125.74 88.6701C125.66 88.9001 125.57 89.1301 125.48 89.3601ZM126.68 85.8901L121.98 84.4101C122.05 84.1901 122.11 83.9801 122.18 83.7601L126.9 85.1801C126.83 85.4201 126.76 85.6501 126.68 85.8801V85.8901ZM127.68 82.3601L122.9 81.1701C122.95 80.9501 123.01 80.7301 123.06 80.5101L127.85 81.6501C127.79 81.8901 127.74 82.1201 127.68 82.3601ZM128.46 78.7801L123.62 77.8701C123.66 77.6501 123.7 77.4301 123.74 77.2001L128.59 78.0601C128.55 78.3001 128.5 78.5401 128.46 78.7801ZM129.03 75.1701L124.14 74.5401C124.17 74.3201 124.2 74.1001 124.22 73.8701L129.11 74.4401C129.08 74.6801 129.05 74.9301 129.02 75.1701H129.03ZM129.39 71.5301L124.48 71.1801C124.5 70.9601 124.51 70.7301 124.52 70.5101L129.44 70.7901C129.43 71.0401 129.41 71.2801 129.39 71.5201V71.5301ZM129.54 67.8701L124.61 67.8101C124.61 67.5901 124.61 67.3601 124.61 67.1401H129.54C129.54 67.3801 129.54 67.6301 129.54 67.8701Z" fill="#80CCDD"/>
<path d="M11.4799 96.1001C6.76993 87.2001 4.16992 76.5301 4.16992 66.0601H7.68993C7.68993 75.9701 10.1399 86.0501 14.5899 94.4501L11.4799 96.1001Z" fill="#3364AD"/>
<path d="M66.89 126.11C50.76 126.11 35.69 119.7 24.46 108.07L26.99 105.63C37.56 116.57 51.73 122.6 66.89 122.6C80.25 122.6 93.17 117.76 103.26 108.98L105.57 111.63C94.84 120.97 81.1 126.12 66.89 126.12V126.11Z" fill="#3364AD"/>
<path d="M114.81 101.5L111.95 99.4499C118.76 89.9799 122.36 78.7999 122.36 67.1299H125.88C125.88 79.5499 122.05 91.4399 114.8 101.51L114.81 101.5Z" fill="#3364AD"/>
<path d="M127.2 67.1201H126.5C126.5 57.8301 124.41 48.9301 120.3 40.6601L120.93 40.3501C125.09 48.7201 127.2 57.7201 127.2 67.1201Z" fill="#3364AD"/>
<path d="M88.2997 11.4901C81.4697 8.85006 74.2696 7.51006 66.8896 7.51006V6.81006C74.3496 6.81006 81.6397 8.16006 88.5497 10.8301L88.2997 11.4901Z" fill="#3364AD"/>
<path d="M115.08 43.0702C112.87 38.6302 110.06 34.5202 106.7 30.8402C101.12 24.7102 94.0999 19.9102 86.4199 16.9402L87.6899 13.6602C95.8799 16.8202 103.36 21.9502 109.3 28.4702C112.87 32.3902 115.87 36.7702 118.23 41.5002L115.08 43.0702Z" fill="#3364AD"/>
<path d="M67.0997 101.97C47.8297 101.97 32.1597 86.2898 32.1597 67.0298C32.1597 47.7698 47.8397 32.0898 67.0997 32.0898C86.3597 32.0898 102.04 47.7698 102.04 67.0298C102.04 86.2898 86.3597 101.97 67.0997 101.97ZM67.0997 32.5098C48.0697 32.5098 32.5797 47.9898 32.5797 67.0298C32.5797 86.0698 48.0597 101.55 67.0997 101.55C86.1397 101.55 101.62 86.0698 101.62 67.0298C101.62 47.9898 86.1397 32.5098 67.0997 32.5098ZM67.0997 98.9298C49.5097 98.9298 35.1897 84.6198 35.1897 67.0198C35.1897 49.4198 49.4997 35.1098 67.0997 35.1098C84.6997 35.1098 99.0097 49.4198 99.0097 67.0198C99.0097 84.6198 84.6997 98.9298 67.0997 98.9298ZM67.0997 35.5398C49.7397 35.5398 35.6197 49.6598 35.6197 67.0198C35.6197 84.3798 49.7397 98.4998 67.0997 98.4998C84.4597 98.4998 98.5797 84.3798 98.5797 67.0198C98.5797 49.6598 84.4597 35.5398 67.0997 35.5398Z" fill="#3364AD"/>
<path d="M67.0997 98.5C66.9497 98.5 66.8097 98.5 66.6597 98.5L66.6797 97.22C66.8197 97.22 66.9597 97.22 67.0997 97.22V98.5ZM68.2797 98.48L68.2297 97.2C68.3697 97.2 68.5097 97.19 68.6497 97.18L68.7197 98.46C68.5697 98.46 68.4297 98.47 68.2797 98.48ZM64.9297 98.43C64.7797 98.42 64.6397 98.41 64.4997 98.4L64.6097 97.12C64.7497 97.13 64.8897 97.14 65.0297 97.15L64.9397 98.43H64.9297ZM70.4597 98.33L70.3197 97.06C70.4597 97.05 70.5997 97.03 70.7397 97.01L70.8897 98.28C70.7497 98.3 70.5997 98.31 70.4597 98.33ZM62.7697 98.21C62.6297 98.19 62.4797 98.17 62.3397 98.15L62.5397 96.88C62.6797 96.9 62.8197 96.92 62.9497 96.94L62.7697 98.21ZM72.6197 98.03L72.3997 96.77C72.5397 96.75 72.6697 96.72 72.8097 96.69L73.0497 97.95C72.9097 97.98 72.7597 98 72.6197 98.03ZM60.6197 97.84C60.4797 97.81 60.3397 97.78 60.1897 97.75L60.4697 96.5C60.6097 96.53 60.7397 96.56 60.8797 96.59L60.6197 97.84ZM74.7497 97.58L74.4397 96.34C74.5797 96.31 74.7097 96.27 74.8397 96.24L75.1697 97.48C75.0297 97.52 74.8897 97.55 74.7497 97.59V97.58ZM58.5097 97.32C58.3697 97.28 58.2297 97.24 58.0897 97.2L58.4597 95.97C58.5897 96.01 58.7297 96.05 58.8597 96.09L58.5097 97.32ZM76.8497 96.98L76.4497 95.76C76.5797 95.72 76.7197 95.67 76.8497 95.63L77.2597 96.84C77.1197 96.89 76.9897 96.93 76.8497 96.98ZM56.4397 96.65C56.2997 96.6 56.1697 96.55 56.0297 96.5L56.4797 95.3C56.6097 95.35 56.7397 95.4 56.8697 95.45L56.4297 96.65H56.4397ZM78.8897 96.23L78.4097 95.04C78.5397 94.99 78.6697 94.94 78.7897 94.88L79.2897 96.06C79.1597 96.12 79.0197 96.17 78.8897 96.23ZM54.4097 95.83C54.2797 95.77 54.1397 95.71 54.0097 95.65L54.5497 94.49C54.6797 94.55 54.7997 94.61 54.9297 94.66L54.4097 95.83ZM80.8797 95.34L80.3197 94.19C80.4397 94.13 80.5697 94.07 80.6897 94.01L81.2697 95.15C81.1397 95.22 81.0097 95.28 80.8797 95.34ZM52.4497 94.88C52.3197 94.81 52.1897 94.74 52.0697 94.67L52.6797 93.55C52.7997 93.62 52.9297 93.68 53.0497 93.75L52.4497 94.88ZM82.7997 94.32L82.1597 93.21C82.2797 93.14 82.3997 93.07 82.5197 93L83.1797 94.1C83.0597 94.17 82.9297 94.25 82.7997 94.32ZM50.5597 93.79C50.4397 93.71 50.3097 93.64 50.1897 93.56L50.8797 92.48C50.9997 92.56 51.1197 92.63 51.2297 92.7L50.5497 93.79H50.5597ZM84.6497 93.16L83.9297 92.1C84.0497 92.02 84.1597 91.94 84.2797 91.86L85.0097 92.91C84.8897 92.99 84.7697 93.07 84.6497 93.16ZM48.7497 92.57C48.6297 92.49 48.5197 92.4 48.3997 92.31L49.1597 91.28C49.2697 91.36 49.3897 91.45 49.4997 91.53L48.7497 92.57ZM86.4097 91.88L85.6197 90.87C85.7297 90.78 85.8397 90.7 85.9497 90.61L86.7497 91.61C86.6397 91.7 86.5197 91.79 86.4097 91.88ZM47.0297 91.23C46.9197 91.14 46.8097 91.04 46.6997 90.95L47.5297 89.98C47.6397 90.07 47.7397 90.16 47.8497 90.25L47.0297 91.23ZM88.0897 90.48L87.2397 89.53C87.3397 89.44 87.4497 89.34 87.5497 89.25L88.4197 90.19C88.3097 90.29 88.2097 90.39 88.0997 90.48H88.0897ZM45.4097 89.78C45.2997 89.68 45.1997 89.58 45.0997 89.48L45.9997 88.57C46.0997 88.67 46.1997 88.76 46.2997 88.86L45.4197 89.79L45.4097 89.78ZM89.6597 88.97L88.7397 88.08C88.8397 87.98 88.9297 87.88 89.0297 87.78L89.9597 88.66C89.8597 88.77 89.7597 88.87 89.6597 88.97ZM43.8797 88.22C43.7797 88.11 43.6897 88.01 43.5897 87.9L44.5497 87.05C44.6397 87.15 44.7397 87.26 44.8297 87.36L43.8797 88.22ZM91.1197 87.36L90.1397 86.53C90.2297 86.42 90.3197 86.32 90.4097 86.21L91.3997 87.03C91.3097 87.14 91.2097 87.25 91.1197 87.36ZM42.4697 86.56C42.3797 86.45 42.2897 86.33 42.1997 86.22L43.2097 85.44C43.2997 85.55 43.3797 85.66 43.4697 85.77L42.4697 86.57V86.56ZM92.4797 85.65L91.4497 84.89C91.5297 84.78 91.6097 84.67 91.6997 84.55L92.7397 85.3C92.6597 85.42 92.5697 85.54 92.4797 85.65ZM41.1797 84.81C41.0997 84.69 41.0197 84.57 40.9397 84.45L42.0097 83.74C42.0897 83.86 42.1697 83.97 42.2397 84.09L41.1797 84.82V84.81ZM93.7097 83.85L92.6297 83.16C92.6997 83.04 92.7797 82.92 92.8497 82.8L93.9397 83.47C93.8597 83.59 93.7897 83.72 93.7097 83.84V83.85ZM40.0097 82.97C39.9397 82.85 39.8597 82.72 39.7897 82.59L40.8997 81.95C40.9697 82.07 41.0397 82.19 41.1097 82.31L40.0097 82.96V82.97ZM94.8197 81.96L93.6897 81.35C93.7597 81.23 93.8197 81.1 93.8897 80.98L95.0197 81.58C94.9497 81.71 94.8797 81.84 94.8197 81.96ZM38.9697 81.05C38.9097 80.92 38.8397 80.79 38.7797 80.66L39.9297 80.1C39.9897 80.23 40.0497 80.35 40.1097 80.47L38.9597 81.04L38.9697 81.05ZM95.7897 80L94.6197 79.47C94.6797 79.34 94.7297 79.22 94.7897 79.09L95.9597 79.6C95.8997 79.73 95.8397 79.87 95.7797 80H95.7897ZM38.0597 79.07C37.9997 78.94 37.9497 78.8 37.8997 78.67L39.0897 78.19C39.1397 78.32 39.1897 78.45 39.2497 78.58L38.0697 79.07H38.0597ZM96.6197 77.98L95.4197 77.53C95.4697 77.4 95.5197 77.27 95.5597 77.14L96.7697 77.57C96.7197 77.71 96.6697 77.84 96.6197 77.98ZM37.2897 77.03C37.2397 76.89 37.1997 76.75 37.1497 76.62L38.3697 76.23C38.4097 76.36 38.4597 76.49 38.4997 76.63L37.2897 77.04V77.03ZM97.3097 75.91L96.0797 75.55C96.1197 75.42 96.1597 75.28 96.1997 75.15L97.4297 75.49C97.3897 75.63 97.3497 75.77 97.3097 75.91ZM36.6697 74.94C36.6297 74.8 36.5997 74.66 36.5597 74.52L37.7997 74.21C37.8297 74.35 37.8697 74.48 37.8997 74.62L36.6597 74.94H36.6697ZM97.8597 73.8L96.6097 73.52C96.6397 73.38 96.6697 73.25 96.6997 73.11L97.9497 73.37C97.9197 73.51 97.8897 73.65 97.8597 73.8ZM36.1997 72.82C36.1697 72.68 36.1497 72.53 36.1197 72.39L37.3797 72.17C37.3997 72.31 37.4297 72.44 37.4497 72.58L36.1897 72.82H36.1997ZM98.2597 71.66L96.9897 71.47C97.0097 71.33 97.0297 71.19 97.0497 71.06L98.3197 71.23C98.2997 71.37 98.2797 71.52 98.2597 71.66ZM35.8697 70.67C35.8497 70.53 35.8397 70.38 35.8197 70.24L37.0897 70.11C37.0997 70.25 37.1197 70.39 37.1397 70.52L35.8697 70.67ZM98.4997 69.5L97.2197 69.4C97.2297 69.26 97.2397 69.12 97.2497 68.98L98.5297 69.06C98.5297 69.21 98.5097 69.35 98.4997 69.5ZM35.6897 68.5C35.6897 68.36 35.6797 68.21 35.6697 68.06L36.9497 68.02C36.9497 68.16 36.9597 68.3 36.9697 68.44L35.6897 68.5ZM98.5897 67.32H97.3097V66.89H98.5897V67.32ZM36.9397 66.34L35.6597 66.31C35.6597 66.16 35.6597 66.02 35.6697 65.87L36.9497 65.92C36.9497 66.06 36.9497 66.2 36.9397 66.34ZM97.2597 65.21C97.2597 65.07 97.2397 64.93 97.2297 64.79L98.5097 64.7C98.5197 64.84 98.5297 64.99 98.5397 65.13L97.2597 65.21ZM37.0597 64.25L35.7797 64.13C35.7897 63.99 35.8097 63.84 35.8197 63.7L37.0897 63.83C37.0797 63.97 37.0597 64.11 37.0497 64.25H37.0597ZM97.0697 63.13C97.0497 62.99 97.0297 62.85 97.0097 62.72L98.2797 62.54C98.2997 62.68 98.3197 62.83 98.3397 62.97L97.0697 63.13ZM37.3197 62.18L36.0597 61.98C36.0797 61.84 36.1097 61.69 36.1297 61.55L37.3897 61.77C37.3697 61.91 37.3397 62.04 37.3197 62.18ZM96.7297 61.07C96.6997 60.93 96.6697 60.8 96.6497 60.66L97.8997 60.39C97.9297 60.53 97.9597 60.67 97.9897 60.82L96.7297 61.07ZM37.7197 60.13L36.4697 59.84C36.4997 59.7 36.5397 59.56 36.5697 59.42L37.8097 59.73C37.7797 59.86 37.7397 60 37.7097 60.14L37.7197 60.13ZM96.2497 59.04C96.2097 58.91 96.1797 58.77 96.1397 58.64L97.3697 58.28C97.4097 58.42 97.4497 58.56 97.4897 58.7L96.2497 59.04ZM38.2697 58.12L37.0497 57.74C37.0897 57.6 37.1397 57.46 37.1797 57.32L38.3997 57.71C38.3597 57.84 38.3097 57.98 38.2697 58.11V58.12ZM95.6297 57.05C95.5797 56.92 95.5397 56.79 95.4897 56.66L96.6897 56.22C96.7397 56.36 96.7897 56.49 96.8397 56.63L95.6297 57.05ZM38.9597 56.14L37.7697 55.68C37.8197 55.54 37.8797 55.41 37.9297 55.27L39.1197 55.75C39.0697 55.88 39.0197 56.01 38.9697 56.14H38.9597ZM94.8697 55.1C94.8097 54.97 94.7597 54.84 94.6997 54.72L95.8697 54.2C95.9297 54.33 95.9897 54.46 96.0397 54.6L94.8597 55.11L94.8697 55.1ZM39.7797 54.21L38.6197 53.67C38.6797 53.54 38.7397 53.41 38.8097 53.28L39.9597 53.84C39.8997 53.97 39.8397 54.09 39.7797 54.22V54.21ZM93.9797 53.21C93.9197 53.09 93.8497 52.96 93.7897 52.84L94.9197 52.24C94.9897 52.37 95.0597 52.5 95.1197 52.62L93.9797 53.21ZM40.7397 52.34L39.6197 51.72C39.6897 51.59 39.7597 51.47 39.8397 51.34L40.9497 51.98C40.8797 52.1 40.8097 52.22 40.7397 52.34ZM92.9597 51.38C92.8897 51.26 92.8197 51.14 92.7397 51.03L93.8297 50.35C93.9097 50.47 93.9797 50.6 94.0597 50.72L92.9597 51.38ZM41.8197 50.54L40.7497 49.84C40.8297 49.72 40.9097 49.6 40.9897 49.48L42.0497 50.2C41.9697 50.32 41.8997 50.43 41.8197 50.55V50.54ZM91.8197 49.63C91.7397 49.52 91.6597 49.4 91.5797 49.29L92.6197 48.54C92.7097 48.66 92.7897 48.78 92.8697 48.89L91.8197 49.63ZM43.0197 48.83L41.9997 48.06C42.0897 47.94 42.1797 47.83 42.2597 47.71L43.2697 48.5C43.1797 48.61 43.0997 48.72 43.0197 48.83ZM90.5597 47.96C90.4697 47.85 90.3797 47.74 90.2897 47.64L91.2697 46.82C91.3597 46.93 91.4597 47.04 91.5497 47.16L90.5597 47.97V47.96ZM44.3397 47.2L43.3697 46.36C43.4697 46.25 43.5597 46.14 43.6597 46.03L44.6097 46.88C44.5197 46.98 44.4197 47.09 44.3297 47.19L44.3397 47.2ZM89.1897 46.38C89.0897 46.28 88.9997 46.18 88.8997 46.08L89.8197 45.19C89.9197 45.29 90.0197 45.4 90.1197 45.51L89.1797 46.38H89.1897ZM45.7697 45.66L44.8597 44.76C44.9597 44.66 45.0697 44.56 45.1697 44.45L46.0597 45.37C45.9597 45.47 45.8597 45.57 45.7597 45.66H45.7697ZM87.7097 44.9C87.6097 44.8 87.5097 44.71 87.3997 44.62L88.2597 43.67C88.3697 43.77 88.4697 43.87 88.5797 43.96L87.7097 44.9ZM47.2897 44.23L46.4497 43.27C46.5597 43.17 46.6697 43.08 46.7797 42.99L47.6097 43.97C47.4997 44.06 47.3997 44.15 47.2897 44.24V44.23ZM86.1297 43.52C86.0197 43.43 85.9097 43.35 85.7997 43.26L86.5897 42.25C86.6997 42.34 86.8197 42.43 86.9297 42.52L86.1197 43.51L86.1297 43.52ZM48.9097 42.91L48.1397 41.89C48.2597 41.8 48.3697 41.72 48.4897 41.63L49.2497 42.66C49.1397 42.74 49.0297 42.83 48.9197 42.91H48.9097ZM84.4597 42.26C84.3497 42.18 84.2297 42.1 84.1197 42.02L84.8397 40.96C84.9597 41.04 85.0797 41.12 85.1997 41.21L84.4597 42.26ZM50.6097 41.7L49.9097 40.63C50.0297 40.55 50.1497 40.47 50.2797 40.39L50.9697 41.47C50.8497 41.54 50.7397 41.62 50.6197 41.7H50.6097ZM82.7097 41.11C82.5897 41.04 82.4697 40.97 82.3497 40.9L82.9997 39.8C83.1297 39.87 83.2497 39.95 83.3697 40.02L82.7097 41.12V41.11ZM52.3997 40.61L51.7697 39.49C51.8997 39.42 52.0197 39.35 52.1497 39.28L52.7597 40.41C52.6397 40.48 52.5197 40.54 52.3997 40.61ZM80.8897 40.09C80.7697 40.03 80.6397 39.96 80.5197 39.9L81.0897 38.75C81.2197 38.81 81.3497 38.88 81.4797 38.95L80.8897 40.09ZM54.2597 39.66L53.7097 38.5C53.8397 38.44 53.9697 38.38 54.0997 38.32L54.6297 39.49C54.4997 39.55 54.3797 39.61 54.2497 39.67L54.2597 39.66ZM78.9997 39.2C78.8697 39.14 78.7397 39.09 78.6097 39.04L79.0997 37.86C79.2397 37.92 79.3697 37.97 79.4997 38.03L78.9897 39.21L78.9997 39.2ZM56.1797 38.83L55.7097 37.64C55.8497 37.59 55.9797 37.54 56.1197 37.48L56.5697 38.68C56.4397 38.73 56.3097 38.78 56.1797 38.83ZM77.0497 38.44C76.9197 38.39 76.7897 38.35 76.6497 38.3L77.0497 37.08C77.1897 37.13 77.3297 37.17 77.4597 37.22L77.0397 38.43L77.0497 38.44ZM58.1497 38.14L57.7697 36.92C57.9097 36.88 58.0497 36.83 58.1897 36.79L58.5597 38.02C58.4297 38.06 58.2897 38.1 58.1597 38.14H58.1497ZM75.0497 37.82C74.9197 37.78 74.7797 37.75 74.6497 37.71L74.9697 36.47C75.1097 36.51 75.2497 36.54 75.3897 36.58L75.0497 37.82ZM60.1597 37.58L59.8597 36.33C59.9997 36.3 60.1397 36.26 60.2797 36.23L60.5597 37.48C60.4197 37.51 60.2897 37.54 60.1497 37.57L60.1597 37.58ZM73.0197 37.34C72.8797 37.31 72.7497 37.29 72.6097 37.26L72.8397 36C72.9797 36.03 73.1297 36.05 73.2697 36.08L73.0197 37.34ZM62.2097 37.17L61.9997 35.91C62.1397 35.89 62.2897 35.86 62.4297 35.84L62.6197 37.11C62.4797 37.13 62.3397 37.15 62.2097 37.18V37.17ZM70.9597 37.01C70.8197 36.99 70.6797 36.98 70.5497 36.96L70.6897 35.69C70.8297 35.71 70.9797 35.72 71.1197 35.74L70.9597 37.01ZM64.2897 36.9L64.1697 35.62C64.3097 35.61 64.4597 35.59 64.5997 35.58L64.6997 36.86C64.5597 36.87 64.4197 36.88 64.2797 36.9H64.2897ZM68.8797 36.82C68.7397 36.82 68.5997 36.81 68.4597 36.8L68.5097 35.52C68.6597 35.52 68.7997 35.53 68.9497 35.54L68.8797 36.82ZM66.3697 36.78L66.3397 35.5C66.4897 35.5 66.6297 35.5 66.7797 35.5V36.78C66.6497 36.78 66.5197 36.78 66.3797 36.78H66.3697Z" fill="#3364AD"/>
</svg>
