<svg width="161" height="148" viewBox="0 0 161 148" fill="none" xmlns="http://www.w3.org/2000/svg">
<path d="M80.02 148.013C94.3083 148.013 105.891 136.458 105.891 122.203C105.891 107.949 94.3083 96.3934 80.02 96.3934C65.7316 96.3934 54.1486 107.949 54.1486 122.203C54.1486 136.458 65.7316 148.013 80.02 148.013Z" fill="url(#paint0_radial_0_1856)"/>
<path style="mix-blend-mode:lighten" d="M156.085 0.765747C139.235 40.2143 122.386 79.6628 105.537 119.111C98.9704 121.063 89.7382 123.042 78.5885 123.107C68.8572 123.173 60.623 121.758 54.49 120.225L1.11874 0.765747" fill="url(#paint1_linear_0_1856)"/>
<path style="mix-blend-mode:screen" d="M80.7373 125.157C84.2059 122.682 72.6664 100.662 54.9632 75.975C37.26 51.2881 20.0969 33.2821 16.6284 35.7576C13.1598 38.2331 24.6993 60.2527 42.4025 84.9396C60.1057 109.627 77.2688 127.633 80.7373 125.157Z" fill="url(#paint2_radial_0_1856)"/>
<path style="mix-blend-mode:screen" d="M112.809 81.5083C127.555 54.9576 136.485 31.7624 132.755 29.7003C129.024 27.6383 114.046 47.4903 99.2996 74.041C84.5533 100.592 75.6231 123.787 79.3535 125.849C83.0839 127.911 98.0623 108.059 112.809 81.5083Z" fill="url(#paint3_radial_0_1856)"/>
<path style="mix-blend-mode:screen" d="M120.582 90.497C142.645 69.595 158.972 51.0131 157.049 48.993C155.126 46.973 135.681 62.2798 113.618 83.1817C91.5551 104.084 75.2282 122.666 77.1511 124.686C79.074 126.706 98.5184 111.399 120.582 90.497Z" fill="url(#paint4_radial_0_1856)"/>
<path style="mix-blend-mode:screen" d="M83.823 125.37C85.7459 123.349 69.419 104.768 47.3558 83.8656C25.2927 62.9636 5.84819 47.6568 3.92532 49.6769C2.00246 51.6969 18.3294 70.2789 40.3925 91.1808C62.4556 112.083 81.9001 127.39 83.823 125.37Z" fill="url(#paint5_radial_0_1856)"/>
<path style="mix-blend-mode:color-dodge" d="M156.085 0.765747C139.235 40.2143 122.386 79.6628 105.537 119.111C98.9704 121.063 89.7382 123.042 78.5885 123.107C68.8572 123.173 60.623 121.758 54.49 120.225L1.11874 0.765747" fill="url(#paint6_linear_0_1856)"/>
<path style="mix-blend-mode:color-dodge" d="M156.085 0.765747C139.065 40.3584 122.045 79.951 105.025 119.544C98.432 121.352 89.3967 123.094 78.6016 123.12C68.9228 123.133 60.7018 121.745 54.5031 120.238L1.11874 0.765747" fill="url(#paint7_linear_0_1856)"/>
<path style="mix-blend-mode:color-dodge" d="M156.085 0.765747C139.235 40.2143 122.386 79.6628 105.537 119.111C100.428 120.67 94.2296 122.098 87.1248 122.78C73.6375 124.09 62.304 122.216 54.49 120.212L1.11874 0.765747" fill="url(#paint8_linear_0_1856)"/>
<path d="M54.1617 123.802C60.0714 126.147 70.5382 129.396 83.7496 128.688C93.1264 128.178 100.704 125.845 105.813 123.802L105.379 127.247C100.665 129.108 94.3477 131.007 86.7439 131.754C72.5212 133.13 61.0826 129.737 54.687 127.247L54.1617 123.802Z" fill="url(#paint9_radial_0_1856)"/>
<defs>
<radialGradient id="paint0_radial_0_1856" cx="0" cy="0" r="1" gradientUnits="userSpaceOnUse" gradientTransform="translate(87.8208 90.2488) scale(71.4025 71.2327)">
<stop offset="0.06" stop-color="white"/>
<stop offset="0.21" stop-color="#EAD6E7"/>
<stop offset="0.33" stop-color="#DBB8D7"/>
<stop offset="0.41" stop-color="#D6AED1"/>
<stop offset="0.8" stop-color="#2D3081"/>
</radialGradient>
<linearGradient id="paint1_linear_0_1856" x1="78.6016" y1="123.12" x2="78.6016" y2="0.765747" gradientUnits="userSpaceOnUse">
<stop offset="0.02" stop-color="#4897D2" stop-opacity="0.3"/>
<stop offset="0.03" stop-color="#4592CE" stop-opacity="0.28"/>
<stop offset="0.08" stop-color="#3A78BB" stop-opacity="0.18"/>
<stop offset="0.14" stop-color="#3164AD" stop-opacity="0.1"/>
<stop offset="0.22" stop-color="#2B56A3" stop-opacity="0.04"/>
<stop offset="0.33" stop-color="#274E9D" stop-opacity="0"/>
<stop offset="0.62" stop-color="#274C9C" stop-opacity="0"/>
</linearGradient>
<radialGradient id="paint2_radial_0_1856" cx="0" cy="0" r="1" gradientUnits="userSpaceOnUse" gradientTransform="translate(56.1568 79.5328) rotate(-125.645) scale(54.9586 7.6969)">
<stop offset="0.1" stop-color="#D198C2" stop-opacity="0.3"/>
<stop offset="0.11" stop-color="#D198C2" stop-opacity="0.28"/>
<stop offset="0.18" stop-color="#D198C2" stop-opacity="0.18"/>
<stop offset="0.26" stop-color="#D198C2" stop-opacity="0.1"/>
<stop offset="0.37" stop-color="#D198C2" stop-opacity="0.04"/>
<stop offset="0.51" stop-color="#D198C2" stop-opacity="0"/>
<stop offset="0.91" stop-color="#D198C2" stop-opacity="0"/>
</radialGradient>
<radialGradient id="paint3_radial_0_1856" cx="0" cy="0" r="1" gradientUnits="userSpaceOnUse" gradientTransform="translate(107.939 80.9185) rotate(-60.9521) scale(54.945 7.6988)">
<stop offset="0.08" stop-color="#CB9AC4" stop-opacity="0.4"/>
<stop offset="0.13" stop-color="#CB9AC4" stop-opacity="0.29"/>
<stop offset="0.2" stop-color="#CB9AC4" stop-opacity="0.18"/>
<stop offset="0.28" stop-color="#CB9AC4" stop-opacity="0.1"/>
<stop offset="0.38" stop-color="#CB9AC4" stop-opacity="0.04"/>
<stop offset="0.51" stop-color="#CB9AC4" stop-opacity="0"/>
<stop offset="0.9" stop-color="#CB9AC4" stop-opacity="0"/>
</radialGradient>
<radialGradient id="paint4_radial_0_1856" cx="0" cy="0" r="1" gradientUnits="userSpaceOnUse" gradientTransform="translate(122.899 95.5993) rotate(-43.4519) scale(54.9831 4.96869)">
<stop offset="0.08" stop-color="#CB9AC4" stop-opacity="0.4"/>
<stop offset="0.13" stop-color="#CB9AC4" stop-opacity="0.29"/>
<stop offset="0.2" stop-color="#CB9AC4" stop-opacity="0.18"/>
<stop offset="0.28" stop-color="#CB9AC4" stop-opacity="0.1"/>
<stop offset="0.38" stop-color="#CB9AC4" stop-opacity="0.04"/>
<stop offset="0.52" stop-color="#CB9AC4" stop-opacity="0"/>
<stop offset="0.91" stop-color="#CB9AC4" stop-opacity="0"/>
</radialGradient>
<radialGradient id="paint5_radial_0_1856" cx="0" cy="0" r="1" gradientUnits="userSpaceOnUse" gradientTransform="translate(73.9809 60.9434) rotate(-136.548) scale(54.9831 4.9687)">
<stop offset="0.09" stop-color="#CC99C4" stop-opacity="0.4"/>
<stop offset="0.15" stop-color="#CC99C4" stop-opacity="0.29"/>
<stop offset="0.22" stop-color="#CC99C4" stop-opacity="0.18"/>
<stop offset="0.31" stop-color="#CC99C4" stop-opacity="0.1"/>
<stop offset="0.41" stop-color="#CC99C4" stop-opacity="0.04"/>
<stop offset="0.56" stop-color="#CC99C4" stop-opacity="0"/>
<stop offset="0.98" stop-color="#CC99C4" stop-opacity="0"/>
</radialGradient>
<linearGradient id="paint6_linear_0_1856" x1="78.6016" y1="123.12" x2="78.6016" y2="0.765747" gradientUnits="userSpaceOnUse">
<stop offset="0.08" stop-color="#CA99C4" stop-opacity="0.29"/>
<stop offset="0.15" stop-color="#CA99C4" stop-opacity="0.18"/>
<stop offset="0.22" stop-color="#CA99C4" stop-opacity="0.1"/>
<stop offset="0.32" stop-color="#CA99C4" stop-opacity="0.04"/>
<stop offset="0.45" stop-color="#CA99C4" stop-opacity="0"/>
<stop offset="0.82" stop-color="#CA99C4" stop-opacity="0"/>
</linearGradient>
<linearGradient id="paint7_linear_0_1856" x1="78.6016" y1="123.12" x2="78.6016" y2="0.765747" gradientUnits="userSpaceOnUse">
<stop offset="0.03" stop-color="#CD99C3" stop-opacity="0.1"/>
<stop offset="0.6" stop-color="#CD99C3" stop-opacity="0"/>
</linearGradient>
<linearGradient id="paint8_linear_0_1856" x1="78.6016" y1="123.225" x2="78.6016" y2="0.765747" gradientUnits="userSpaceOnUse">
<stop offset="0.07" stop-color="#EAE3F1" stop-opacity="0.7"/>
<stop offset="0.08" stop-color="#E7DDED" stop-opacity="0.64"/>
<stop offset="0.12" stop-color="#E1CDE3" stop-opacity="0.49"/>
<stop offset="0.15" stop-color="#DBBEDA" stop-opacity="0.36"/>
<stop offset="0.19" stop-color="#D7B3D3" stop-opacity="0.25"/>
<stop offset="0.24" stop-color="#D3A9CD" stop-opacity="0.16"/>
<stop offset="0.3" stop-color="#D0A1C8" stop-opacity="0.09"/>
<stop offset="0.37" stop-color="#CE9CC5" stop-opacity="0.04"/>
<stop offset="0.46" stop-color="#CD99C3" stop-opacity="0"/>
<stop offset="0.73" stop-color="#CD99C3" stop-opacity="0"/>
</linearGradient>
<radialGradient id="paint9_radial_0_1856" cx="0" cy="0" r="1" gradientUnits="userSpaceOnUse" gradientTransform="translate(77.2096 123.147) scale(27.4211 27.3558)">
<stop offset="0.06" stop-color="white"/>
<stop offset="0.21" stop-color="#EAD6E7"/>
<stop offset="0.33" stop-color="#DBB8D7"/>
<stop offset="0.41" stop-color="#D6AED1"/>
<stop offset="0.8" stop-color="#866FB0"/>
</radialGradient>
</defs>
</svg>
