<svg width="19" height="7" viewBox="0 0 19 7" fill="none" xmlns="http://www.w3.org/2000/svg">
<path d="M4.22734 4.97021V1.53581H3.06634C2.96374 2.58341 2.72074 3.82001 2.07274 4.59221C1.78114 4.93781 1.37614 4.97021 1.16014 4.97021H1.05214V4.38161H1.16014C1.34374 4.38161 1.56514 4.34381 1.86214 3.86861C2.29414 3.17741 2.41294 2.36201 2.49934 1.53581H2.03494L1.78114 0.941814H4.81594V4.97021H4.22734ZM8.23907 2.17301H8.78987V4.97021H8.23907V2.95061L6.60827 4.97021H6.05747V2.17301H6.60827V4.18181L8.23907 2.17301ZM12.5272 5.59121V4.97021H10.216V5.59121H9.65438V4.40861H10.1944C10.7344 3.73901 10.7884 3.18281 10.8856 2.72921H10.4428L10.1944 2.17301H12.7378V4.40861H13.0888V5.59121H12.5272ZM12.187 4.40861V2.72921H11.4688C11.3392 3.31781 11.161 3.99821 10.8532 4.40861H12.187ZM14.6188 3.05321C14.8618 3.18281 14.9806 3.21521 15.4936 3.21521H15.6178C16.174 3.21521 16.6114 3.51221 16.6114 4.09541C16.6114 4.68401 16.174 4.97021 15.6178 4.97021H14.0626V2.17301H14.6188V3.05321ZM17.065 4.97021V2.17301H17.6158V4.97021H17.065ZM14.6188 4.40861H15.6178C15.8446 4.40861 16.0552 4.35461 16.0552 4.08461C16.0552 3.82001 15.8392 3.77141 15.6178 3.77141H15.4936C15.1696 3.77141 14.8618 3.74981 14.6188 3.60941V4.40861Z" fill="#C4E5EE"/>
<path d="M4.22734 4.97021V1.53581H3.06634C2.96374 2.58341 2.72074 3.82001 2.07274 4.59221C1.78114 4.93781 1.37614 4.97021 1.16014 4.97021H1.05214V4.38161H1.16014C1.34374 4.38161 1.56514 4.34381 1.86214 3.86861C2.29414 3.17741 2.41294 2.36201 2.49934 1.53581H2.03494L1.78114 0.941814H4.81594V4.97021H4.22734ZM8.23907 2.17301H8.78987V4.97021H8.23907V2.95061L6.60827 4.97021H6.05747V2.17301H6.60827V4.18181L8.23907 2.17301ZM12.5272 5.59121V4.97021H10.216V5.59121H9.65438V4.40861H10.1944C10.7344 3.73901 10.7884 3.18281 10.8856 2.72921H10.4428L10.1944 2.17301H12.7378V4.40861H13.0888V5.59121H12.5272ZM12.187 4.40861V2.72921H11.4688C11.3392 3.31781 11.161 3.99821 10.8532 4.40861H12.187ZM14.6188 3.05321C14.8618 3.18281 14.9806 3.21521 15.4936 3.21521H15.6178C16.174 3.21521 16.6114 3.51221 16.6114 4.09541C16.6114 4.68401 16.174 4.97021 15.6178 4.97021H14.0626V2.17301H14.6188V3.05321ZM17.065 4.97021V2.17301H17.6158V4.97021H17.065ZM14.6188 4.40861H15.6178C15.8446 4.40861 16.0552 4.35461 16.0552 4.08461C16.0552 3.82001 15.8392 3.77141 15.6178 3.77141H15.4936C15.1696 3.77141 14.8618 3.74981 14.6188 3.60941V4.40861Z" fill="#5CC4EA"/>
</svg>
