<svg width="50" height="50" viewBox="0 0 50 50" fill="none" xmlns="http://www.w3.org/2000/svg">
<g filter="url(#filter0_i_16_3)">
<path d="M4.71606 21.7919C4.71606 21.7919 8.00204 19.6369 12.6779 18.3698C12.6779 18.3698 12.0513 10.7345 18.3501 10.7345H49.9886V5.00406H16.695C16.695 5.00406 4.74017 4.63279 4.71606 21.7919Z" fill="url(#paint0_linear_16_3)"/>
</g>
<path d="M0.160722 0H49.9887V5.00407C45.1119 5.00407 31.9519 5.01214 17.4503 5.37534C15.98 5.41569 13.5135 5.50447 11.0872 7.02991C5.57575 10.5005 4.84465 18.4424 4.72413 21.7919C4.19388 22.1147 3.63952 22.4779 3.06909 22.8976C1.8961 23.7612 0.923968 24.6491 0.144653 25.4804C0.152687 16.9896 0.160722 8.49884 0.168756 0H0.160722Z" fill="url(#paint1_linear_16_3)"/>
<path d="M49.8602 19.8145C49.8602 23.2527 49.8602 26.6991 49.8602 30.1374C44.8951 25.2947 40.2192 23.0994 36.6841 22.0017C31.2209 20.3068 25.4122 20.2987 25.4283 19.992C25.4443 19.7499 29.1481 19.8145 29.2686 19.8145C33.8802 19.8871 40.5727 19.9355 49.8682 19.8145H49.8602Z" fill="url(#paint2_linear_16_3)"/>
<g filter="url(#filter1_i_16_3)">
<path d="M49.852 30.1371C48.3818 28.6359 46.1644 26.6423 43.1355 24.8183C35.3905 20.1532 27.7099 19.7981 24.1266 19.8949C10.9265 20.2581 2.19333 28.192 0 30.3147V50H50V44.8426H16.5986C15.8996 44.7942 10.8542 44.3826 8.30733 40.3067C6.45144 37.3284 6.6764 33.5996 7.65657 31.6303C10.4766 25.9805 24.2481 26.3513 41.2966 30.7178C44.221 30.7259 46.9276 30.7097 49.852 30.7178V30.1371Z" fill="url(#paint3_radial_16_3)"/>
</g>
<g filter="url(#filter2_i_16_3)">
<path d="M41.3552 30.8262H12.9062V34.4582C12.9062 34.4582 13.4284 39.9304 19.2451 39.9304H50V45.564H16.6742C16.6742 45.564 5.62326 44.861 6.49998 34.2967C7.80955 23.8205 28.2595 19.454 41.3552 30.8262Z" fill="url(#paint4_radial_16_3)"/>
</g>
<defs>
<filter id="filter0_i_16_3" x="4.71606" y="5.00342" width="47.2726" height="18.7886" filterUnits="userSpaceOnUse" color-interpolation-filters="sRGB">
<feFlood flood-opacity="0" result="BackgroundImageFix"/>
<feBlend mode="normal" in="SourceGraphic" in2="BackgroundImageFix" result="shape"/>
<feColorMatrix in="SourceAlpha" type="matrix" values="0 0 0 0 0 0 0 0 0 0 0 0 0 0 0 0 0 0 127 0" result="hardAlpha"/>
<feOffset dx="2" dy="2"/>
<feGaussianBlur stdDeviation="3"/>
<feComposite in2="hardAlpha" operator="arithmetic" k2="-1" k3="1"/>
<feColorMatrix type="matrix" values="0 0 0 0 0 0 0 0 0 0 0 0 0 0 0 0 0 0 0.6 0"/>
<feBlend mode="normal" in2="shape" result="effect1_innerShadow_16_3"/>
</filter>
<filter id="filter1_i_16_3" x="0" y="19.8823" width="50" height="34.1177" filterUnits="userSpaceOnUse" color-interpolation-filters="sRGB">
<feFlood flood-opacity="0" result="BackgroundImageFix"/>
<feBlend mode="normal" in="SourceGraphic" in2="BackgroundImageFix" result="shape"/>
<feColorMatrix in="SourceAlpha" type="matrix" values="0 0 0 0 0 0 0 0 0 0 0 0 0 0 0 0 0 0 127 0" result="hardAlpha"/>
<feOffset dy="4"/>
<feGaussianBlur stdDeviation="2"/>
<feComposite in2="hardAlpha" operator="arithmetic" k2="-1" k3="1"/>
<feColorMatrix type="matrix" values="0 0 0 0 0 0 0 0 0 0 0 0 0 0 0 0 0 0 0.2 0"/>
<feBlend mode="normal" in2="shape" result="effect1_innerShadow_16_3"/>
</filter>
<filter id="filter2_i_16_3" x="6.45044" y="24.1113" width="43.5496" height="25.4526" filterUnits="userSpaceOnUse" color-interpolation-filters="sRGB">
<feFlood flood-opacity="0" result="BackgroundImageFix"/>
<feBlend mode="normal" in="SourceGraphic" in2="BackgroundImageFix" result="shape"/>
<feColorMatrix in="SourceAlpha" type="matrix" values="0 0 0 0 0 0 0 0 0 0 0 0 0 0 0 0 0 0 127 0" result="hardAlpha"/>
<feOffset dy="4"/>
<feGaussianBlur stdDeviation="2"/>
<feComposite in2="hardAlpha" operator="arithmetic" k2="-1" k3="1"/>
<feColorMatrix type="matrix" values="0 0 0 0 0 0 0 0 0 0 0 0 0 0 0 0 0 0 0.25 0"/>
<feBlend mode="normal" in2="shape" result="effect1_innerShadow_16_3"/>
</filter>
<linearGradient id="paint0_linear_16_3" x1="9.10272" y1="22.6474" x2="41.7288" y2="1.65368" gradientUnits="userSpaceOnUse">
<stop offset="0.09" stop-color="#8A53AA"/>
<stop offset="0.27" stop-color="#8A59AE"/>
<stop offset="0.59" stop-color="#75449B"/>
<stop offset="1" stop-color="#622F8D"/>
</linearGradient>
<linearGradient id="paint1_linear_16_3" x1="0.36961" y1="23.5917" x2="33.9766" y2="-4.844" gradientUnits="userSpaceOnUse">
<stop offset="0.04" stop-color="#B088C8"/>
<stop offset="0.24" stop-color="#BF9ED4"/>
<stop offset="0.38" stop-color="#C7AADB"/>
<stop offset="0.77" stop-color="#B18ACB"/>
<stop offset="1" stop-color="#895BB2"/>
</linearGradient>
<linearGradient id="paint2_linear_16_3" x1="36.885" y1="19.3705" x2="50.4238" y2="28.9327" gradientUnits="userSpaceOnUse">
<stop offset="0.21" stop-color="#AA81C6"/>
<stop offset="0.77" stop-color="#9161B4"/>
<stop offset="1" stop-color="#7A4BA2"/>
</linearGradient>
<radialGradient id="paint3_radial_16_3" cx="0" cy="0" r="1" gradientUnits="userSpaceOnUse" gradientTransform="translate(25.2273 28.8135) scale(43.6175 43.8179)">
<stop offset="0.14" stop-color="#754299"/>
<stop offset="0.368152" stop-color="#613483"/>
<stop offset="0.634596" stop-color="#47215E"/>
</radialGradient>
<radialGradient id="paint4_radial_16_3" cx="0" cy="0" r="1" gradientUnits="userSpaceOnUse" gradientTransform="translate(21.575 44.3856) scale(45.0878 45.2949)">
<stop offset="0.14" stop-color="#9B5DC2"/>
<stop offset="0.461947" stop-color="#582C76"/>
<stop offset="0.695451" stop-color="#4A2865"/>
</radialGradient>
</defs>
</svg>
