<svg width="58" height="58" viewBox="0 0 58 58" fill="none" xmlns="http://www.w3.org/2000/svg">
<path d="M29.23 52.8198L26.4 57.7098H32.06L29.23 52.8198Z" fill="#C4E5EE"/>
<path d="M29.23 5.46983L32.06 0.569824H26.4L29.23 5.46983Z" fill="#C4E5EE"/>
<path d="M5.54999 29.1401L0.660004 26.3101V31.9701L5.54999 29.1401Z" fill="#C4E5EE"/>
<path d="M52.9 29.1401L57.8 31.9701V26.3101L52.9 29.1401Z" fill="#C4E5EE"/>
<path d="M41.6 41.5098L42.68 45.5498L45.63 42.5898L41.6 41.5098Z" fill="#C4E5EE"/>
<path d="M16.86 16.7697L15.78 12.7397L12.83 15.6898L16.86 16.7697Z" fill="#C4E5EE"/>
<path d="M16.86 41.5098L12.83 42.5898L15.78 45.5498L16.86 41.5098Z" fill="#C4E5EE"/>
<path d="M41.6 16.7697L45.63 15.6898L42.68 12.7397L41.6 16.7697Z" fill="#C4E5EE"/>
<path d="M2.88 23.6999C2.97 23.2599 3.07 22.8199 3.19 22.3799L5.67001 23.0199C5.57001 23.4099 5.48001 23.8099 5.39001 24.2099L2.88 23.6999ZM3.77 20.4399C3.92 20.0099 4.06999 19.5899 4.23999 19.1699L6.62 20.1199C6.47 20.4999 6.33001 20.8799 6.20001 21.2699L3.77 20.4399ZM5.06 17.3199C5.26 16.9199 5.46999 16.5199 5.67999 16.1299L7.92001 17.3699C7.72001 17.7299 7.53999 18.0899 7.35999 18.4499L5.06 17.3199ZM6.73001 14.3899C6.98001 14.0099 7.23 13.6399 7.5 13.2799L9.57001 14.7899C9.33001 15.1199 9.1 15.4499 8.87 15.7899L6.73001 14.3799V14.3899ZM8.76001 11.6899C9.05001 11.3499 9.35 11.0099 9.66 10.6799L11.53 12.4399C11.25 12.7399 10.98 13.0399 10.72 13.3499L8.76999 11.6899H8.76001ZM11.11 9.25994C11.44 8.95994 11.78 8.65994 12.13 8.36994L13.76 10.3499C13.45 10.6099 13.14 10.8799 12.84 11.1499L11.11 9.25994ZM13.74 7.13994C14.11 6.87994 14.48 6.62994 14.86 6.38994L16.23 8.55994C15.89 8.77994 15.55 9.00994 15.21 9.23994L13.73 7.13994H13.74ZM16.62 5.36994C17.02 5.15994 17.42 4.95994 17.83 4.75994L18.92 7.07994C18.55 7.24994 18.19 7.43994 17.83 7.62994L16.62 5.36994ZM19.7 3.96994C20.12 3.80994 20.55 3.65994 20.98 3.51994L21.77 5.95994C21.38 6.08994 21 6.21994 20.62 6.36994L19.71 3.96994H19.7ZM22.93 2.96994C23.37 2.85994 23.81 2.76994 24.25 2.68994L24.72 5.20994C24.32 5.28994 23.92 5.36994 23.52 5.46994L22.92 2.97994L22.93 2.96994ZM53.09 24.2099C53.01 23.8099 52.92 23.4099 52.81 23.0199L55.29 22.3799C55.4 22.8199 55.5 23.2499 55.6 23.6999L53.09 24.2099ZM52.29 21.2599C52.16 20.8699 52.02 20.4899 51.87 20.1099L54.25 19.1599C54.42 19.5799 54.57 19.9999 54.72 20.4299L52.29 21.2599ZM51.13 18.4399C50.95 18.0699 50.76 17.7099 50.57 17.3599L52.81 16.1199C53.03 16.5099 53.23 16.9099 53.43 17.3099L51.13 18.4399ZM49.62 15.7899C49.4 15.4499 49.16 15.1099 48.92 14.7899L50.99 13.2799C51.25 13.6399 51.51 14.0099 51.76 14.3899L49.62 15.7999V15.7899ZM47.79 13.3499C47.53 13.0399 47.25 12.7399 46.98 12.4399L48.85 10.6799C49.16 11.0099 49.46 11.3399 49.75 11.6899L47.8 13.3499H47.79ZM45.67 11.1499C45.37 10.8799 45.06 10.6099 44.75 10.3499L46.38 8.36994C46.73 8.65994 47.07 8.94994 47.4 9.25994L45.67 11.1499ZM43.29 9.23994C42.96 9.00994 42.62 8.77994 42.27 8.55994L43.64 6.38994C44.02 6.62994 44.4 6.87994 44.76 7.13994L43.28 9.23994H43.29ZM40.69 7.63994C40.33 7.44994 39.97 7.26994 39.6 7.08994L40.69 4.76994C41.1 4.95994 41.5 5.15994 41.9 5.37994L40.69 7.63994ZM37.91 6.37994C37.53 6.23994 37.14 6.09994 36.76 5.96994L37.55 3.52994C37.98 3.66994 38.41 3.81994 38.83 3.97994L37.92 6.37994H37.91ZM34.99 5.47994C34.59 5.37994 34.2 5.29994 33.79 5.21994L34.26 2.69994C34.7 2.77994 35.14 2.87994 35.58 2.97994L34.98 5.46994L34.99 5.47994ZM55.62 34.5799C55.53 35.0199 55.43 35.4599 55.31 35.8999L52.83 35.2599C52.93 34.8699 53.02 34.4699 53.11 34.0699L55.62 34.5799ZM54.73 37.8399C54.58 38.2699 54.43 38.6899 54.26 39.1099L51.88 38.1599C52.03 37.7799 52.17 37.3999 52.3 37.0099L54.73 37.8399ZM53.44 40.9599C53.24 41.3599 53.03 41.7599 52.82 42.1499L50.58 40.9099C50.78 40.5499 50.96 40.1899 51.14 39.8299L53.44 40.9599ZM51.77 43.8899C51.52 44.2699 51.27 44.6399 51 44.9999L48.93 43.4899C49.17 43.1599 49.4 42.8299 49.63 42.4899L51.77 43.8999V43.8899ZM49.74 46.5899C49.45 46.9299 49.15 47.2699 48.84 47.5999L46.97 45.8399C47.25 45.5399 47.52 45.2399 47.78 44.9299L49.73 46.5899H49.74ZM47.39 49.0199C47.06 49.3199 46.72 49.6199 46.37 49.9099L44.74 47.9299C45.05 47.6699 45.36 47.3999 45.66 47.1299L47.39 49.0199ZM44.76 51.1399C44.39 51.3999 44.02 51.6499 43.64 51.8899L42.27 49.7199C42.61 49.4999 42.95 49.2699 43.29 49.0399L44.77 51.1399H44.76ZM41.88 52.9099C41.48 53.1199 41.08 53.3199 40.67 53.5199L39.58 51.1999C39.95 51.0299 40.31 50.8399 40.67 50.6499L41.88 52.9099ZM38.8 54.3099C38.38 54.4699 37.95 54.6199 37.52 54.7599L36.73 52.3199C37.12 52.1899 37.5 52.0599 37.88 51.9099L38.79 54.3099H38.8ZM35.57 55.3099C35.13 55.4199 34.69 55.5099 34.25 55.5899L33.78 53.0699C34.18 52.9899 34.58 52.9099 34.98 52.8099L35.58 55.2999L35.57 55.3099ZM5.41 34.0699C5.49 34.4699 5.58 34.8699 5.69 35.2599L3.21001 35.8999C3.10001 35.4599 2.99999 35.0299 2.89999 34.5799L5.41 34.0699ZM6.20999 37.0199C6.33999 37.4099 6.48 37.7899 6.63 38.1699L4.25 39.1199C4.08 38.6999 3.93 38.2799 3.78 37.8499L6.20999 37.0199ZM7.37 39.8399C7.54999 40.2099 7.73999 40.5699 7.92999 40.9199L5.69 42.1599C5.47 41.7699 5.27001 41.3699 5.07001 40.9699L7.37 39.8399ZM8.88 42.4899C9.1 42.8299 9.33999 43.1699 9.57999 43.4899L7.51001 44.9999C7.25001 44.6399 6.98999 44.2699 6.73999 43.8899L8.88 42.4799V42.4899ZM10.71 44.9299C10.97 45.2399 11.25 45.5399 11.52 45.8399L9.64999 47.5999C9.33999 47.2699 9.04 46.9399 8.75 46.5899L10.7 44.9299H10.71ZM12.83 47.1299C13.13 47.3999 13.44 47.6699 13.75 47.9299L12.12 49.9099C11.77 49.6199 11.43 49.3299 11.1 49.0199L12.83 47.1299ZM15.21 49.0399C15.54 49.2699 15.88 49.4999 16.23 49.7199L14.86 51.8899C14.48 51.6499 14.1 51.3999 13.74 51.1399L15.22 49.0399H15.21ZM17.81 50.6399C18.17 50.8299 18.53 51.0099 18.9 51.1899L17.81 53.5099C17.4 53.3199 17 53.1199 16.6 52.8999L17.81 50.6399ZM20.59 51.8999C20.97 52.0399 21.36 52.1799 21.74 52.3099L20.95 54.7499C20.52 54.6099 20.09 54.4599 19.67 54.2999L20.58 51.8999H20.59ZM23.51 52.7999C23.91 52.8999 24.3 52.9799 24.71 53.0599L24.24 55.5799C23.8 55.4999 23.36 55.3999 22.92 55.2999L23.52 52.8099L23.51 52.7999Z" fill="#3364AD"/>
</svg>
