<svg width="31" height="31" viewBox="0 0 31 31" fill="none" xmlns="http://www.w3.org/2000/svg">
<path d="M15.6398 30.3602C7.46982 30.3602 0.819824 23.7102 0.819824 15.5402C0.819824 7.37021 7.46982 0.720215 15.6398 0.720215C23.8098 0.720215 30.4598 7.37021 30.4598 15.5402C30.4598 23.7102 23.8098 30.3602 15.6398 30.3602ZM15.6398 0.960213C7.59982 0.960213 1.06982 7.50021 1.06982 15.5302C1.06982 23.5602 7.60982 30.1002 15.6398 30.1002C23.6698 30.1002 30.2098 23.5602 30.2098 15.5302C30.2098 7.50021 23.6698 0.960213 15.6398 0.960213Z" fill="#80CCDD"/>
<path d="M30.8599 15.5401H29.3599C29.3599 7.97006 23.1999 1.81006 15.6299 1.81006V0.310059C24.0299 0.310059 30.8599 7.14006 30.8599 15.5401Z" fill="#80CCDD"/>
</svg>
