<svg fill="none" height="375" viewBox="0 0 392 375" width="392" xmlns="http://www.w3.org/2000/svg"><path d="m200.466 374.603c103.546 0 187.487-83.769 187.487-187.103s-83.941-187.102783-187.487-187.102783c-103.5462 0-187.487 83.768783-187.487 187.102783s83.9408 187.103 187.487 187.103z" fill="#312c6e"/><path d="m332.794 323.323 35.578-47.457 19.141-56.105.838-59.267-17.557-56.618-34.235-48.4329-47.554-35.5054-56.212-19.101792-59.388-.835908-56.735 17.521-48.5321 34.1646-35.5783 47.4564-12.017 35.224-7.1239 20.881-.2903 20.799-.5391 38.46 17.557 56.618 34.2348 48.433 47.5539 35.505 56.22 19.102 59.389.836 56.734-17.521 48.533-34.165z" fill="#29295b"/><path d="m84.0776 136.766-36.0842-.331-10.6154 14.748 5.1667 16.669 32.0288 30.713z" fill="#433d8a"/><path d="m42.6608 233.467 32.4103 17.479-.4976-52.381z" fill="#574c9a"/><path d="m56.3448 96.262-8.3514 40.173 36.0842.331z" fill="#57509d"/><path d="m42.5447 167.852-29.4247 8.194 21.9193 2.019 39.5342 20.5z" fill="#452f88"/><path d="m101.576 86.2227-45.2312 10.0391 27.7328 40.5042z" fill="#5d539f"/><path d="m151.27 74.2385-49.694 11.9841 61.52 26.1364z" fill="#635da5"/><path d="m104.313 156.671 58.783-44.312-61.52-26.1363-17.4984 50.5433z" fill="#5d4f9c"/><path d="m75.0711 250.946 27.2019 56.908 41.757-60.251z" fill="#635da5"/><path d="m228.182 233.401-3.102 54.259 62.681-10.387z" fill="#5d539f"/><path d="m225.08 287.66 56.246 40.976 12.672-4.469 38.796-.844-45.033-46.05z" fill="#57509d"/><path d="m169.482 221.789-25.452 25.814 36.001 51.727 45.05-11.67 3.101-54.26z" fill="#635da5"/><path d="m93.2168 201.578-18.6433-3.013.4976 52.381 57.0499-53.531z" fill="#635da5"/><path d="m169.482 221.789-37.361-24.374-57.0499 53.531 68.9589-3.343z" fill="#4fb1df"/><path d="m163.188 41.9444-40.165-4.4278-22.948 23.9186 1.501 24.7875 49.694-11.9841z" fill="#433d8a"/><path d="m102.273 307.854 34.169 19.524 18.859 5.396 24.73-33.444-36.001-51.727z" fill="#635da5"/><path d="m192.579 78.7243 7.937-26.9891-37.328-9.7909-11.918 32.2942z" fill="#363477"/><path d="m204.107 123.143-41.011-10.784 23.562 61.485z" fill="#57509d"/><path d="m93.2168 201.578 38.9042-4.163-27.808-40.744z" fill="#635da5"/><path d="m242.455 76.3821-49.876 2.3422-41.309-4.4858 11.826 38.1205 41.011 10.784z" fill="#423f8d"/><path d="m84.0776 136.766-9.5041 61.799 18.6433 3.013 11.0962-44.907z" fill="#57509d"/><path d="m47.4709 265.082 19 14.335 35.8021 28.437-27.2019-56.908z" fill="#452f88"/><path d="m359.805 219.115-72.044 58.158 45.033 46.05 18.121-62.18z" fill="#635da5"/><path d="m211.878 21.295-25.013-13.58968-30.976 17.97618 7.299 16.263 37.328 9.7908z" fill="#423f8d"/><path d="m76.2073 73.2952-19.8625 22.9667 45.2312-10.0391z" fill="#635da5"/><path d="m320.694 60.3427-44.618-22.404-33.621 38.4435z" fill="#2b6278"/><path d="m276.076 37.9387-32.75-9.5178-42.81 23.3144 41.939 24.6469z" fill="#29607d"/><path d="m242.455 76.3822-41.939-24.6468-7.937 26.989z" fill="#363477"/><path d="m267.169 96.2369 45.083 20.3021 8.442-56.1965-78.239 16.0395z" fill="#29607d"/><path d="m204.107 123.143 50.498 66.749 12.564-93.655-24.714-19.8549z" fill="#57509d"/><path d="m281.326 328.636-56.246-40.976-22.292 66.914 24.739 20.426 28.877-25.201z" fill="#5d539f"/><path d="m35.0393 178.065-22.4583 36.441 30.0798 18.961z" fill="#433d8a"/><path d="m35.0393 178.065-21.9193-2.019-.539 38.46z" fill="#423f8d"/><path d="m37.378 151.184 10.6154-14.749-27.4509-2.077-7.1322 20.889-.2903 20.799 29.4247-8.194z" fill="#412f88"/><path d="m32.5595 99.1421-12.017 35.2159 27.4509 2.077z" fill="#363477"/><path d="m123.023 37.5166c-.473-1.5394-6.353-19.9956-6.353-19.9956l-48.5321 34.1646 31.9371 9.7578 22.94-23.9185z" fill="#2d2d67"/><path d="m56.3448 96.262-23.7852 2.8801 15.4338 37.2929z" fill="#423f8d"/><path d="m101.576 86.2226-1.501-24.7875-31.9371-9.7496 8.0694 21.6095z" fill="#363477"/><path d="m75.0711 250.946-32.4103-17.479-12.5229 37.657 17.333-6.042z" fill="#5d539f"/><path d="m76.2073 73.295-8.0694-21.6095-35.5783 47.4565 23.7852-2.8802z" fill="#2d2d67"/><path d="m12.581 214.506 17.5569 56.618 12.5229-37.657z" fill="#433d8a"/><path d="m168.139 374.172 59.388.828-24.739-20.426z" fill="#5c55a1"/><path d="m332.794 323.323-38.796.844-12.672 4.469-24.922 21.163-28.877 25.201 56.735-17.521z" fill="#5d539f"/><path d="m225.08 287.66-45.049 11.67-24.73 33.444 11.701 18.829 1.137 22.569 34.649-19.598z" fill="#57509d"/><path d="m47.4709 265.082-17.333 6.042 34.2348 48.433 2.0982-40.14z" fill="#57509d"/><path d="m66.4709 279.417-2.0982 40.14 37.9003-11.703z" fill="#433d8a"/><path d="m102.273 307.854-37.9003 11.703 47.5453 35.505 24.524-27.684z" fill="#635da5"/><path d="m155.301 332.774-18.859-5.396-24.524 27.684 56.221 19.11-1.137-22.569z" fill="#5d539f"/><path d="m350.915 261.143 17.457 14.723 19.15-56.105-27.717-.646z" fill="#5d539f"/><path d="m163.188 41.9444-7.29-16.263-39.228-8.1604s5.872 18.4645 6.353 19.9956z" fill="#363477"/><path d="m312.251 116.539 42.081-12.994-17.773-48.1019-15.865 4.8996z" fill="#333587"/><path d="m341.767 173.629 32.236 2.954 14.348-16.089-17.557-56.618-3.118 26.41z" fill="#57509d"/><path d="m370.794 103.876-34.235-48.4329 17.773 48.1019z" fill="#35789b"/><path d="m387.522 219.761.829-59.267-14.347 16.09z" fill="#7f73b3"/><path d="m332.794 323.323 35.578-47.457-17.457-14.723z" fill="#635da5"/><path d="m267.169 96.2371-12.564 93.6549 57.647-73.353z" fill="#635da5"/><path d="m312.252 116.539-57.647 73.353 60.549 16.817 26.613-33.08z" fill="#57509d"/><path d="m387.522 219.761-13.519-43.177-32.236-2.955-26.613 33.08 44.651 12.407z" fill="#635da5"/><path d="m312.251 116.539 29.516 57.09 25.909-43.343 3.118-26.41-16.462-.331z" fill="#333587"/><path d="m276.076 37.9387 12.938-18.001-56.221-19.101762 10.533 27.584962z" fill="#2d2d67"/><path d="m200.516 51.7353 42.81-23.3144-10.533-27.584962-20.915 20.459062z" fill="#423f8d"/><path d="m186.865 7.70525 25.013 13.58975 20.915-20.459092-59.388-.835908-56.735 17.521 39.219 8.1604z" fill="#2d2d67"/><path d="m320.694 60.3427-31.68-40.405-12.938 18.001z" fill="#275d77"/><path d="m336.559 55.4431-47.545-35.5054 31.68 40.405z" fill="#24576e"/><path d="m35.0393 178.065 7.6215 55.402 31.9127-34.902z" fill="#57509d"/><path d="m163.096 112.359-58.783 44.312 27.808 40.744 54.537-23.571z" fill="#635da5"/><path d="m186.658 173.844 67.947 16.048-50.498-66.749z" fill="#5d539f"/><path d="m287.761 277.273 72.044-58.157-105.2-29.224-26.423 43.508z" fill="#5d539f"/><path d="m132.121 197.415 37.361 24.374 17.176-47.945z" fill="#bdc9e8"/><path d="m254.605 189.892-67.947-16.048-17.176 47.945 58.7 11.612z" fill="#57509d"/><g fill="#8e84be"><path d="m357.492 195.338 1.799-12.547 6.419-2.409-6.527-36.697-.041-24.605-5.051-10.851-4.329-14.6487 3.682-5.1314-9.33-30.0761-7.041 2.1767c.805 1.1421 9.239 29.7782 9.239 29.7782l-3.699 5.3465 4.404 14.2108 6.112 10.734.639 24.63 7.762 35.895-7.314 2.259-2.347 14.194 11.436 8.789 5.407-1.597-11.22-9.443z"/><path d="m376.301 197.97-.125.182 5.889 10.999 3.615-1.167-5.672-10.95z"/><path d="m366.656 188.187-2.945 1.374 8.708 9.799 3.625-1.167-5.673-10.941z"/></g><path d="m145.34 304.453-16.943.786-16.578-6.48-19.7384-15.858-22.6075-8.036-13.485-14.682-8.0611-3.303-9.8773-10.328-11.4365-14.269-4.0637-.29-14.4884-15.84 6.1288-.869 24.5067 7.01 20.1196 2.747 23.6276-7.299 9.2719-8.434 19.1573-23.844 22.425-9.187.208-8.499 6.079 5.975 15.774.116 12.075-3.253.953-2.127.042 1.647 5.565 3.278 9.379-2.491 10.483 17.686-1.269 12.928 4.727 12.753-.157 12.283-15.525 4.254-7.215 26.558.622 14.906 1.841 18.315-3.201 15.386-28.347-1.531zm29.707-150.803.265.165.448.662-.141 6.456-5.183 3.013zm135.305 4.99 2.812-10.179-23.727-12.729-11.271 3.087-19.912-11.579-25.859 5.678-1.99-1.813 1.128-2.301 14.347-6.166.995-20.425-8.194-4.7759.929-12.9773-9.636-18.0258-27.642.9104-9.62 13.9953.97 14.0118 15.426 11.7605-10.815 3.344-14.505-3.021 10.848 17.703v.091l-4.52 6.05-20.252 7.101-.481 11.819 4.818 2.938-5.855 1.804-.1-.124-.141-17.008c.324-4.237.921-9.278 1.402-10.916 1.393-.836 4.18-3.27 10.848-10.329l.829-.878-3.715-11.975 7.314-18.6304-7.306-5.4459-.523-2.2346 12.498-30.523 22.351-2.9712 8.534-11.9676 10.955-5.7769-2.687-5.752-14.281 1.5311-11.096 11.4213-.241-1.349.265-2.9629 13.676-11.86 25.253-.6786-.356-7.07629 11.569-.51313 18.162 15.20362 10.052 4.8251.282-5.901 6.999-3.7575 4.993 7.1838 30.652 33.2129 4.08 12.7538 2.546 8.6736 9.015 6.6045c-3.525 2.7395-7.19 5.3879-8.534 6.0583-1.418-.629-5.374-3.4512-8.675-6.05l-3.557-8.8474-7.954-.0662 5.009 16.1636-6.551 23.662 18.038-7.002 3.657 1.424 1.46 8.591 10.648-.348 2.173 10.643-4.528 1.664-9.662-4.097 2.521 27.933-3.201 1.043-2.388-10.007-7.614-8.59 2.978 20.608-8.269 1.663-5.357-3.517z" fill="#bda48b"/><path d="m252.664 11.0158 17.35 14.525.398.331.464.2235 6.991 3.3602 5.64 2.7146.298-6.2403.075-1.6056 4.337-2.3257 3.857 5.5534.166.2318.19.2069 30.246 32.7659 3.931 12.2655 2.347 8.0032.398 1.3408 1.128.8276 6.22 4.552c-2.023 1.5228-3.914 2.8884-5.108 3.6499-1.609-.9767-4.446-3.0292-6.925-4.9576l-2.837-7.0431-1.036-2.5739-2.779-.0249-3.732-.0331-5.672-.0496 1.675 5.4127 3.997 12.8779-5.291 19.1021-2.197 7.945 7.704-2.988 13.435-5.214 1.808.704.962 5.652.606 3.559 3.615-.116 7.083-.231 1.468 7.192-2.082.761-5.714-2.425-6.369-2.706.622 6.886 1.725 19.176-.912-3.807-.241-1.01-.688-.778-2.679-3.021-9.189-10.362 1.982 13.698 1.709 11.826-5.516 1.109-3.383-2.226 1.974-7.142.879-3.187-2.911-1.564-21.546-11.554-1.46-.786-1.601.439-9.628 2.64-18.461-10.735-1.402-.811-1.584.348-24.017 5.272-.05-.05.108-.223 12.448-5.355 2.372-1.018.125-2.574.87-17.885.125-2.508-2.173-1.2659-5.988-3.4926.796-11.0986.083-1.1917-.564-1.0511-8.749-16.3623-1.219-2.276-2.579.0827-25.312.836-2.098.0662-1.186 1.7214-8.617 12.5387-.821 1.1918.1 1.44.854 12.3566.133 1.8704 1.493 1.1339 11.486 8.7565-6.469 1.994-9.288-1.928-9.024-1.879-.223-.72 6.477-16.4862 1.152-2.938-2.529-1.887-5.432-4.0554-.199-.8608 11.793-28.8016 20.269-2.698 1.783-.2401 1.045-1.4649 7.721-10.8337 8.782-4.6264 3.492-1.8374-1.667-3.5671-1.227-2.6318-.921-1.9698 9.927-.2648 4.246-.1159-.215-4.2292-.15-2.8802 8.675-.3807m-31.747 8.1274-3.541.3807.34-.298zm-40.736 86.3966 4.312 7.043 7.647 12.489-3.334 4.461-18.329 6.431-.165.058c.282-3.054.671-6.233 1.003-7.855 1.849-1.357 4.885-4.212 10.524-10.188l1.659-1.754-.713-2.301-2.596-8.376m-11.801 66.956 3.823 2.251 1.493.877 1.675-.447 7.016-1.87 9.338 15.758-1.153 11.785-.091.944.332.894 4.429 11.951-.133 10.337-12.88 3.525-2.289.629-.622 2.285-6.825 25.11-.166.612.025.638.605 14.525v.124l.017.124 1.8 17.943-2.779 13.333-26.464-1.432h-.207-.207l-16.396.762-15.873-6.207-19.2161-15.436-.5473-.438-.6635-.232-21.7865-7.747-12.8298-13.97-.622-.679-.8542-.347-7.2235-2.963-9.5041-9.949-10.8145-13.49-1.1362-1.415-1.8079-.133-2.3305-.165-11.2789-12.332 1.808-.256 23.9345 6.844.282.083.2902.041 19.5225 2.665.9122.124.8791-.273 22.7486-7.026.8874-.273.68-.621 8.8075-8.012.2405-.215.1991-.248 18.7184-23.298 20.675-8.467 2.504-1.026.067-2.698.058-2.384 2.073 2.036 1.194 1.176h1.684l14.646.115h.564l.547-.14 10.856-2.922 1.344-.364m85.753-165.68353-14.456.63728.357 7.04315-23.877.6373-14.869 12.8945-.365 4.0637.995 5.6113 13.402-13.7884 12.067-1.2911 1.227 2.6319-9.653 5.0899-8.294 11.6366-22.649 3.0125-13.203 32.2363.846 3.6085 6.643 4.9575-7.008 17.8356 3.575 11.52s-9.554 10.122-10.724 10.122c-1.127 0-2.073 12.473-2.073 12.473l.149 17.827 1.46 1.755 4.072-1.258-5.739 12.803-10.856 2.922-14.646-.108-8.89-8.732-.299 11.918-21.67 8.873-19.3901 24.133-8.8075 8.012-22.7485 7.026-19.5225-2.665-24.7887-7.084-10.44956 1.481 17.68966 19.342 3.9808.282 10.9306 13.631 10.2422 10.709 8.0445 3.294 13.5264 14.724 22.7569 8.094 19.7128 15.841 17.284 6.762 17.275-.803 30.021 1.622 3.633-17.438-1.866-18.572-.606-14.525 6.826-25.111 15.89-4.353.182-14.219-4.694-12.671 1.286-13.126-11.636-19.623-10.06 2.673-3.831-2.251-.066-2.582 7.248-4.213.174-8.268-1.061-1.581-5.3-3.227.373-9.204 19.514-6.844 5.358-7.159-.083-1.366-8.617-14.061 10.334 2.152 12.796-3.957.315-2.3-15.815-12.0589-.854-12.3566 8.617-12.5386 25.311-.8359 8.749 16.3623-.978 13.6642 8.218 4.7915-.87 17.886-13.859 5.959-2.148 4.386 3.932 3.575 26.115-5.727 19.962 11.612 11.312-3.096 21.538 11.554-2.778 10.039 7.331 4.817 11.03-2.226-2.272-15.7 2.678 3.021 2.795 11.694 6.909-2.259-2.356-26.129 7.224 3.062 6.966-2.557-2.878-14.095-10.582.348-1.352-7.962-5.498-2.143-14.936 5.793 5.614-20.2686-4.354-14.0366 3.732.0331 3.243 8.0694s8.7 6.9273 10.449 6.9273h.042c1.65-.1159 11.859-8.2763 11.859-8.2763l-10.64-7.7963-2.364-8.0529-4.221-13.1841-30.859-33.4446-5.971-8.5909-9.662 5.1893-.191 3.9478-6.991-3.3602-18.585-15.55948z" fill="#c19c81"/><path d="m253.236 9.32748 17.848 14.93872.24.1987.282.1324 6.991 3.3602 3.384 1.6304.182-3.7409.125-2.5408 6.469-3.4761 4.702 6.7618.099.1407.116.1241 30.495 33.0391 4.047 12.6379 2.355 8.0198.241.8028.68.4966 8.003 5.8679c-3.218 2.4829-6.477 4.8416-7.854 5.5865-1.501-.7449-5.208-3.3933-8.326-5.8431l-3.002-7.457-.622-1.5476-1.667-.0166-3.732-.0331-3.401-.0248 1.004 3.2443 4.138 13.3414-5.424 19.5732-1.318 4.767 4.619-1.795 14.032-5.446 3.285 1.283 1.119 6.579.365 2.135 2.173-.074 8.484-.281 2.032 9.948-4.039 1.481-6.319-2.681-3.824-1.622.374 4.129 2.181 24.159-2.463.803-2.165-9.071-.141-.604-.415-.464-2.678-3.021-5.515-6.215 1.185 8.218 1.933 13.375-7.721 1.556-4.968-3.261 2.297-8.301.531-1.912-1.75-.935-21.546-11.554-.879-.472-.962.265-10.3 2.822-19.058-11.09-.838-.488-.945.207-24.855 5.454-1.601-1.457.921-1.887 13.012-5.595 1.426-.612.075-1.548.871-17.885.074-1.506-1.302-.762-6.883-4.0137.862-12.1248.05-.7117-.34-.629-8.749-16.3623-.73-1.3656-1.551.0496-25.311.8359-1.261.0414-.713 1.0346-8.617 12.5386-.489.7118.058.8607.854 12.3565.075 1.1173.895.6787 14.041 10.701-9.944 3.071-9.703-2.02-5.631-1.167 3.002 4.9 8.235 13.441-4.312 5.76-18.801 6.596-1.592.555-.067 1.68-.373 9.203-.058 1.457 1.252.761 2.994 1.829-2.222.687-2.322.72-.141-16.586c.315-4.071.887-8.921 1.343-10.651 1.509-.96 4.371-3.518 10.79-10.329l.995-1.051-.431-1.382-3.318-10.685 6.685-17.0243.688-1.7629-1.518-1.1338-5.913-4.4113-.456-1.9615 12.357-30.1755 21.223-2.8222 1.07-.1407.63-.8773 7.953-11.1482 9.131-4.8168 2.09-1.1007-1.004-2.1436-1.227-2.6319-.755-1.6139-1.766.1904-12.067 1.2911-.896.0993-.622.6456-10.01 10.304-.091-.5049.249-2.7394 13.443-11.6531 22.981-.6124 2.546-.0662-.132-2.5409-.233-4.54367 10.989-.48831m-78.057 145.03408.158.24-.133 6.092-3.873 2.251 2.629-5.868zm-41.275 14.376 4.801 4.718.722.703h1.012l14.646.108h.34l.323-.083 10.856-2.922 1.145-.306.282-.637v.05l1.185.703 3.832 2.251.896.53 1.003-.265 8.235-2.193 10.259 17.306-1.211 12.323-.058.571.199.538 4.537 12.241-.149 11.893-14.083 3.857-1.368.372-.373 1.366-6.825 25.11-.1.372.017.381.605 14.525v.074l.008.075 1.825 18.2-3.118 14.971-27.883-1.506h-.124-.124l-16.745.778-16.437-6.422-19.4146-15.601-.3317-.265-.3981-.141-22.1763-7.887-13.1034-14.268-.3732-.406-.5142-.207-7.5552-3.095-9.8027-10.254-10.8643-13.549-.68-.852-1.0864-.075-2.9939-.215-13.84158-15.137 5.26628-.745 24.2745 6.944.1742.049.1741.025 19.5225 2.665.5473.075.5308-.166 22.7486-7.027.5307-.165.4064-.373 8.8075-8.011.141-.132.1244-.149 18.9833-23.629 21.073-8.633 1.501-.612.042-1.622.158-6.199m120.195-161.93453-14.456.63728.357 7.04315-23.877.6373-14.869 12.8945-.365 4.0637.995 5.6113 13.402-13.7884 12.067-1.2911 1.227 2.6319-9.653 5.0899-8.294 11.6366-22.649 3.0125-13.203 32.2363.846 3.6085 6.643 4.9575-7.008 17.8356 3.575 11.52s-9.554 10.122-10.724 10.122c-1.127 0-2.073 12.473-2.073 12.473l.149 17.827 1.46 1.755 4.072-1.258-5.739 12.803-10.856 2.922-14.646-.108-8.89-8.732-.299 11.918-21.67 8.873-19.3901 24.133-8.8075 8.012-22.7485 7.026-19.5225-2.665-24.7887-7.084-10.44956 1.481 17.68966 19.342 3.9808.282 10.9306 13.631 10.2422 10.709 8.0445 3.294 13.5264 14.724 22.7569 8.094 19.7128 15.841 17.284 6.762 17.275-.803 30.021 1.622 3.633-17.438-1.866-18.572-.606-14.525 6.826-25.111 15.89-4.353.182-14.219-4.694-12.671 1.286-13.126-11.636-19.623-10.06 2.673-3.831-2.251-.066-2.582 7.248-4.213.174-8.268-1.061-1.581-5.3-3.227.373-9.204 19.514-6.844 5.358-7.159-.083-1.366-8.617-14.061 10.334 2.152 12.796-3.957.315-2.3-15.815-12.0589-.854-12.3566 8.617-12.5386 25.311-.8359 8.749 16.3623-.978 13.6642 8.218 4.7915-.87 17.886-13.859 5.959-2.148 4.386 3.932 3.575 26.115-5.727 19.962 11.612 11.312-3.096 21.538 11.554-2.778 10.039 7.331 4.817 11.03-2.226-2.272-15.7 2.678 3.021 2.795 11.694 6.909-2.259-2.356-26.129 7.224 3.062 6.966-2.557-2.878-14.095-10.582.348-1.352-7.962-5.498-2.143-14.936 5.793 5.614-20.2686-4.354-14.0366 3.732.0331 3.243 8.0694s8.7 6.9273 10.449 6.9273h.042c1.65-.1159 11.859-8.2763 11.859-8.2763l-10.64-7.7963-2.364-8.0529-4.221-13.1841-30.859-33.4446-5.971-8.5909-9.662 5.1893-.191 3.9478-6.991-3.3602-18.585-15.55948z" fill="#b89379"/><path d="m253.8 7.64738 18.337 15.35262.083.0662.091.0413 6.991 3.3602 1.128.5463.058-1.2498.166-3.476 8.6-4.6182 5.548 7.9784.034.0496.041.0414 30.743 33.3039 4.164 12.9938 2.363 8.0529.083.2648.224.1656 9.769 7.159c-4.602 3.6333-9.611 7.2666-10.532 7.4238-.97-.0662-5.789-3.4512-9.77-6.6127l-3.168-7.8625-.207-.5132h-.556l-3.732-.0331h-1.136l.332 1.0759 4.279 13.8049-5.548 20.0375-.439 1.589 1.542-.596 14.638-5.678 4.76 1.862 1.277 7.499.125.711.721-.024 9.886-.323 2.596 12.712-5.988 2.202-6.925-2.938-1.277-.538.124 1.374 2.298 25.474-5.424 1.771-2.58-10.817-.049-.199-.141-.157-2.679-3.021-1.841-2.069.398 2.74 2.156 14.922-9.927 2.003-6.543-4.296 2.612-9.46.174-.637-.58-.314-21.538-11.554-.29-.157-.324.091-10.972 3.004-19.663-11.438-.282-.165-.315.066-25.701 5.636-3.16-2.872 1.742-3.55 13.576-5.843.472-.207.025-.513.871-17.886.025-.504-.431-.257-7.771-4.5354.937-13.1511.017-.24-.116-.2069-8.75-16.3623-.24-.4552-.515.0165-25.311.8359-.423.0166-.24.3476-8.617 12.5386-.166.24.017.2897.854 12.3565.025.3725.298.2234 15.434 11.7606-.174 1.299-12.092 3.733-10.126-2.102-1.874-.389 1.003 1.63 8.509 13.888.05.852-5.026 6.713-19.282 6.761-.53.182-.025.563-.373 9.203-.017.489.415.256 5.142 3.137.821 1.217-.166 7.539-6.851 3.981-.423.249v.488l.075 2.582v.455l.406.232 3.832 2.251.299.174.331-.091 9.446-2.516 11.171 18.845-1.26 12.862-.017.19.067.182 4.644 12.53-.174 13.441-15.285 4.188-.456.124-.124.455-6.826 25.111-.033.124v.124l.605 14.525v.025.024l1.85 18.448-3.458 16.611-29.309-1.581h-.041-.042l-17.101.795-17.001-6.646-19.6137-15.758-.1078-.091-.1327-.05-22.5661-8.02-13.3854-14.574-.1244-.133-.1742-.066-7.8786-3.228-10.093-10.56-10.9057-13.607-.2239-.281-.3649-.025-3.6491-.256-16.40416-17.943 8.72456-1.234 24.6146 7.035.058.017h.0581l19.5224 2.673.1825.025.1741-.058 22.7486-7.027.1741-.058.1327-.124 8.8075-8.011.0498-.042.0415-.049 19.2572-23.968 21.471-8.79.498-.207.016-.538.249-10.014 7.531 7.391.24.231h.34l14.646.108h.116l.108-.025 10.856-2.921.381-.1.158-.356 5.739-12.803.746-1.672-1.75.538-3.541 1.093-.92-1.101-.15-17.505c.374-4.924 1.095-10.643 1.634-11.752.796-.331 3.094-1.978 10.947-10.304l.332-.348-.141-.463-3.483-11.239 6.9-17.5627.232-.5876-.506-.3807-6.402-4.7754-.713-3.0623 12.921-31.5493 22.176-2.9464.357-.0496.207-.2897 8.177-11.471 9.479-4.9989.697-.3641-.332-.7118-1.227-2.6319-.249-.5379-.589.0662-12.067 1.2911-.298.0331-.207.2152-12.275 12.6214-.696-3.9065.331-3.625 14.398-12.4807 23.578-.629.845-.0248-.041-.8442-.315-6.20722 13.302-.58762m.282-.84419-14.455.63728.357 7.04315-23.877.6373-14.87 12.8945-.365 4.0637.996 5.6113 13.402-13.7884 12.066-1.2911 1.228 2.6319-9.654 5.0899-8.293 11.6366-22.649 3.0125-13.203 32.2363.846 3.6085 6.643 4.9575-7.008 17.8356 3.575 11.52s-9.554 10.122-10.724 10.122c-1.128 0-2.073 12.473-2.073 12.473l.149 17.827 1.46 1.755 4.072-1.258-5.739 12.803-10.856 2.922-14.646-.108-8.89-8.732-.299 11.918-21.67 8.873-19.3902 24.133-8.8075 8.012-22.7486 7.026-19.5224-2.665-24.7888-7.084-10.44953 1.481 17.68963 19.342 3.9808.282 10.9306 13.631 10.2422 10.709 8.0445 3.294 13.5264 14.724 22.7569 8.094 19.713 15.841 17.283 6.762 17.275-.803 30.022 1.622 3.633-17.438-1.866-18.572-.606-14.525 6.826-25.111 15.89-4.353.182-14.219-4.694-12.671 1.286-13.126-11.636-19.623-10.06 2.673-3.831-2.251-.067-2.582 7.249-4.213.174-8.268-1.062-1.581-5.299-3.227.373-9.204 19.514-6.844 5.358-7.159-.083-1.366-8.617-14.061 10.334 2.152 12.796-3.957.315-2.3-15.815-12.0589-.854-12.3566 8.616-12.5386 25.312-.8359 8.749 16.3623-.979 13.6642 8.219 4.7915-.871 17.886-13.858 5.959-2.148 4.386 3.931 3.575 26.116-5.727 19.962 11.612 11.312-3.096 21.538 11.554-2.778 10.039 7.331 4.817 11.03-2.226-2.272-15.7 2.678 3.021 2.795 11.694 6.908-2.259-2.355-26.129 7.224 3.062 6.966-2.557-2.878-14.095-10.582.348-1.352-7.962-5.498-2.143-14.937 5.793 5.615-20.2686-4.354-14.0366 3.732.0331 3.243 8.0694s8.699 6.9273 10.449 6.9273h.042c1.65-.1159 11.859-8.2763 11.859-8.2763l-10.64-7.7963-2.364-8.0529-4.221-13.1841-30.859-33.4446-5.972-8.5909-9.661 5.1893-.191 3.9478-6.991-3.3602-18.586-15.55948z" fill="#a7896c"/><path d="m0 221.507 4.03884-6.372 25.59316 7.473 20.1445 2.847 23.4369-7.241 9.0563-8.318 19.9123-25.077 22.317-9.171 7.572-12.861 17.383 2.21 13.933 3.683 7.148-14.467-4.395 1.357-1.286-19.681s1.303-12.63 2.513-12.605c1.211.017 10.185-9.849 10.185-9.849l-3.575-11.52 9.454-18.6965-8.683-5.9921 13.013-34.3881 21.977-6.7866 9.156-11.9013 11.718-3.6168-1.211-3.8898-13.791 3.4015-13.436 13.6146-.945-5.6279 14.057-14.2022 20.385-1.5642 1.957-5.33824 24.59-4.83337 19.58 15.25321 7.423 3.2278.29-3.9809 8.335-1.8456 8.343 4.9161 32.344 32.9894.44 15.2119 6.153 6.0252-.257 11.5289s-.614 2.5574-2.38 2.7063c-1.767.149-10.118-4.7671-10.118-4.7671l-3.301-8.0529-3.997.0497 4.354 14.0366-6.477 20.5334 16.147-6.166 5.847 2.036 1.277 7.987 4.528.968 2.629 16.934-5.125 1.58-3.11-6.141-2.19 27.892-6.402 3.947-4.238-13.68-14.513-14.451 11.013 18.688s-.821 12.878-2.513 12.605c-1.691-.265-10.657-4.593-10.657-4.593l3.434-10.917-22.176-13.267-12.2 3.369-21.148-11.248-28.131 6.348-5.448-4.626 6.51-3.592 10.972-7.333v-18.1419l-8.318-6.1079 1.476-14.6574-11.055-12.3648-26.066 1.3491-6.51 12.6544.638 12.4228 13.842 14.8727-11.354 3.509-11.03-1.937 7.555 16.594-5.622 6.472-20.286 7.052-.265 9.153 6.294 5.124.042 7.903-7.862 4.403.016 3.94 15.393-.017 8.799 20.021-3.102 14.848 9.43 25.499-2.223 4.668-6.178 10.188-4.271 28.926-14.646 4.527 3.184 30.961-13.543 13.259-22.3-8.491-17.823.769-17.855-7.109-20.3936-16.578-23.5115-8.516-14.0074-15.394-8.3099-3.468-10.6072-11.206-11.3203-14.252-4.1052-.306z" fill="#529750"/><path d="m237.645 6.91895-1.957 5.33825 10.292 17.314z" fill="#105929"/><path d="m262.226 2.08569-24.581 4.83337 19.506 9.74124z" fill="#105929"/><path d="m281.807 17.3389-19.581-15.25321-5.075 14.57461z" fill="#045c2b"/><path d="m209.754 36.0435-21.977 6.7865 19.738 12.9277z" fill="#417237"/><path d="m235.688 12.2573-20.385 1.5642 14.115 2.814z" fill="#105929"/><path d="m207.515 55.7577-19.738-12.9276 5.598 22.8592z" fill="#107536"/><path d="m229.907 26.5423-4.909-4.2789-6.096 1.8788-9.148 11.9013 16.911 17.5954z" fill="#417237"/><path d="m196.999 79.0225-13.551 4.1878 14.19 8.2349z" fill="#529750"/><path d="m289.229 20.5666-7.422-3.2277-.373 17.554z" fill="#045c2b"/><path d="m329.435 89.3926-4.354-14.0366-21.861 14.3925z" fill="#5e955a"/><path d="m174.765 77.2182 8.683 5.992 4.329-40.3801z" fill="#1a6636"/><path d="m318.637 92.5542-15.417-2.8057 8.492 31.4585z" fill="#529750"/><path d="m306.206 19.6647-8.352-4.9162 2.497 10.6599z" fill="#1b894f"/><path d="m338.981 67.8659-.44-15.2118-12.315 4.5271z" fill="#b2b4b7"/><path d="m170.486 147.161.066 7.052 6.228-1.929z" fill="#529750"/><path d="m201.246 28.0237.945 5.6196 13.112-19.8218z" fill="#105929"/><path d="m179.55 189.52-20.534-.952 26.87 44.502z" fill="#55a352"/><path d="m176.822 160.188-6.27-5.975-7.149 14.458 5.557-4.08z" fill="#67b768"/><path d="m165.418 144.24 5.068 2.921.257-9.153-5.333 6.141z" fill="#529750"/><path d="m160.567 269.725 8.89-22.106-25.187-9.617z" fill="#17763d"/><path d="m99.7354 235.817 17.1836 25.499-2.222-42.515z" fill="#67b768"/><path d="m62.3408 232.167 4.1052 21.386 20.7748-17.289z" fill="#3b8e4d"/><path d="m196.651 124.484-4.453-9.782-8.12 3.525z" fill="#417237"/><path d="m170.743 138.008 20.285-7.052-21.164.919z" fill="#67b768"/><path d="m167.376 123.276c-1.211-.017-2.513 12.605-2.513 12.605l.539 8.202 4.462-12.208-2.48-8.607z" fill="#00803e"/><path d="m184.004 97.3875-.556-14.1773-9.454 18.6958 10.084 16.321z" fill="#105929"/><path d="m197.779 91.743-.1.1821.979 11.6609 12.821 2.732-13.841-14.8729.033.3393z" fill="#529750"/><path d="m297.73 28.0569-16.296 6.8362 15.931 31.2017z" fill="#3f9346"/><path d="m322.958 109.934 6.477-20.5414-10.798 3.1615z" fill="#6f986e"/><path d="m303.22 89.7486 10.085-21.2123 2.455-2.1601-18.254-1.1669 28.72-8.0281-25.875-31.7728-2.986 40.6864z" fill="#2a8335"/><path d="m281.434 34.8931-13.958 1.2249 19.124 19.8135z" fill="#0e5829"/><path d="m256.736 45.8923-30.071 7.7467 9.18 8.5246z" fill="#67b768"/><path d="m207.515 55.7577 22.06 9.2612-2.91-11.38z" fill="#55a352"/><path d="m257.151 16.6604-.415 29.232 10.74-9.7744z" fill="#105929"/><path d="m268.861 78.8983-33.016-16.7347 4.785 15.2201 7.348 6.9107z" fill="#67b768"/><path d="m268.861 78.8982-10.798 25.0028 32.385.869z" fill="#147633"/><path d="m297.763 24.2827-.033 3.774 2.621-2.6484z" fill="#105929"/><path d="m169.457 247.619 16.429-14.55-28.33-4.783z" fill="#529750"/><path d="m262.143 113.344 8.003 8.293 15.136 2.053 5.166-18.92z" fill="#417237"/><path d="m268.861 78.8982 34.359 10.8502-13.999-12.5138z" fill="#105929"/><path d="m291.626 126.024 9.828 3.608 10.258-8.425-21.264-16.437z" fill="#529750"/><path d="m267.476 36.1179-10.74 9.7744 12.125 33.0059z" fill="#147633"/><path d="m336.559 158.972 6.403-3.948 2.189-27.891-4.022 15.501z" fill="#6e976d"/><path d="m235.447 131.834 28.123-6.357-33.572 1.73z" fill="#67b768"/><path d="m345.151 127.133 5.598-12.373-4.52-.969-12.78 12.911z" fill="#8eaf7b"/><path d="m348.261 133.274 5.125-1.581-2.637-16.933-5.598 12.373z" fill="#b2b4b7"/><path d="m342.497 88.1264c1.767-.149 2.38-2.7064 2.38-2.7064l.257-11.5289-16.055 1.4153 3.3 8.0528s8.343 4.9162 10.118 4.7672z" fill="#b2b4b7"/><path d="m346.229 113.791-1.277-7.986-6.494-1.697-5.009 22.594z" fill="#6f986e"/><path d="m333.449 126.702-10.491-16.768-11.246 11.273z" fill="#417237"/><path d="m315.652 157.54s8.965 4.328 10.657 4.593c1.691.265 2.513-12.605 2.513-12.605l-7.224 3.551z" fill="#67b768"/><path d="m247.481 116.282-10.972 7.333-6.511 3.592 26.896-7.374z" fill="#1a6636"/><path d="m256.894 119.833 6.676 5.644 21.148 11.248-14.572-15.088z" fill="#67b768"/><path d="m341.129 142.634-7.68-15.932-1.128 18.597z" fill="#688068"/><path d="m245.98 29.5714-15.351-9.046-.722 6.0169 26.829 19.35z" fill="#157232"/><path d="m319.085 146.623 2.513 6.456 7.224-3.551-11.014-18.679-1.111 4.386z" fill="#529750"/><path d="m297.854 14.7485-8.334 1.8457-.291 3.9726 8.534 3.7161z" fill="#045c2b"/><path d="m171.174 172.892-3.583 1.192 1.385-5.553-.016-3.94-5.557 4.08 16.147 20.848z" fill="#529750"/><path d="m124.507 175.648-22.317 9.17-19.9121 25.078 26.3811-17.356s15.832-16.254 15.848-16.892z" fill="#417237"/><path d="m140.48 208.803-6.095-12.629-9.878-20.526-4.909 26.989z" fill="#147633"/><path d="m132.088 162.787-7.58 12.861 20.675 8.21z" fill="#105929"/><path d="m172.169 277.182 14.646-4.527-17.358-25.036z" fill="#67b768"/><path d="m191.086 243.729 6.187-10.188 2.214-4.668-13.601 4.196z" fill="#67b768"/><path d="m193.16 188.535-8.8-20.029-4.81 21.013z" fill="#529750"/><path d="m190.058 203.374 3.102-14.839-13.61.985z" fill="#67b768"/><path d="m184.36 168.506-15.384.025 2.198 4.361z" fill="#105929"/><path d="m175.346 308.144-3.177-30.962-17.034 27.602z" fill="#529750"/><path d="m96.0697 282.909-12.6307 7.085 20.393 16.577 12.681-6.695z" fill="#17763d"/><path d="m59.9358 281.478 23.5032 8.516-2.9192-22.76z" fill="#0f7333"/><path d="m45.9284 266.084 14.0074 15.394 20.584-14.244z" fill="#55a352"/><path d="m46.003 237.497-8.3845 25.119 8.3099 3.468 20.5176-12.531z" fill="#3b8e4d"/><path d="m149.246 311.612-9.744 1.291 22.301 8.5z" fill="#67b768"/><path d="m82.278 209.896-9.0563 8.317 13.7337 2.914z" fill="#417237"/><path d="m103.832 306.572 17.856 7.101-5.175-13.797z" fill="#3b8e4d"/><path d="m30.9672 229.296 2.6788 13.391 12.357-5.19-12.4731-8.491z" fill="#0f7333"/><path d="m17.4325 230.818-1.7416 6.348 11.3287 14.252 10.5989 11.198-3.9725-19.929z" fill="#1a6636"/><path d="m73.2217 218.214-23.4369 7.241 12.556 6.712z" fill="#417237"/><path d="m46.003 237.497 3.7818-12.042-20.1445-2.847 3.8896 6.398z" fill="#17763d"/><path d="m0 221.507 11.5858 15.353 5.8467-6.042z" fill="#336f43"/><path d="m161.803 321.403 13.542-13.259-17.905 2.384z" fill="#67b768"/><path d="m116.919 261.317-20.559 8.036-.2903 13.556 20.6253-3.285z" fill="#17763d"/><path d="m116.513 299.876 21.421 2.921-21.239-23.173z" fill="#67b768"/><path d="m87.2208 236.264-6.701 30.97 36.3992-5.917z" fill="#3b8e4d"/><path d="m163.403 168.671-9.048-2.383-4.885-1.291.241.562 9.305 23.009z" fill="#336f43"/><path d="m149.711 165.559-.241-.562-4.287 18.861 13.833 4.71z" fill="#3b8e4d"/><path d="m149.47 164.997-17.382-2.21 13.095 21.071z" fill="#336f43"/><path d="m179.55 189.519-16.147-20.848-4.387 19.897z" fill="#67b768"/><path d="m171.174 172.892-2.198-4.361-1.385 5.553z" fill="#529750"/><path d="m179.55 189.519 4.81-21.013-13.186 4.386z" fill="#417237"/><path d="m185.886 233.07 13.601-4.197-9.429-25.499-10.508-13.854z" fill="#529750"/><path d="m189.718 253.015 1.368-9.286-5.2-10.66-16.429 14.55 17.358 25.036z" fill="#55a352"/><path d="m189.718 253.015-2.903 19.64z" fill="#529750"/><path d="m172.169 277.182-2.712-29.563-8.89 22.106-7.315 19.93z" fill="#55a352"/><path d="m137.934 302.797-16.246 10.876 17.814-.77 9.744-1.291z" fill="#529750"/><path d="m157.44 310.528-2.305-5.744-1.883-15.129-15.318 13.142 11.312 8.815 12.557 9.791z" fill="#55a352"/><path d="m157.44 310.528 17.906-2.384-20.211-3.36z" fill="#529750"/><path d="m155.135 304.784 17.034-27.602-18.917 12.473z" fill="#67b768"/><path d="m116.513 299.876 5.175 13.797 16.246-10.875z" fill="#55a352"/><path d="m96.0697 282.909 20.4433 16.967.182-20.252z" fill="#3b8e4d"/><path d="m160.567 269.725-43.872 9.899 21.239 23.174 15.318-13.143z" fill="#3b8e4d"/><path d="m116.919 261.317-.224 18.307 43.872-9.899-16.297-31.723z" fill="#147633"/><path d="m144.27 238.002 25.187 9.617-11.901-19.333z" fill="#3b8e4d"/><path d="m96.36 269.353-15.8402-2.119 2.9192 22.76 12.6307-7.085z" fill="#336f43"/><path d="m66.446 253.553-20.5176 12.531 34.5914 1.15z" fill="#0f7333"/><path d="m80.5198 267.234 15.8402 2.119 20.559-8.036z" fill="#55a352"/><path d="m4.03884 215.126-4.03884 6.382 17.4325 9.31z" fill="#1a6636"/><path d="m11.5858 236.86 4.1051.306 1.7416-6.348z" fill="#17763d"/><path d="m33.646 242.687 3.9725 19.929 8.3845-25.119z" fill="#67b768"/><path d="m17.4325 230.818 16.2135 11.869-2.6788-13.392z" fill="#17763d"/><path d="m29.6403 222.608-25.60145-7.482 13.39365 15.692 13.5347-1.522 2.5627-.29z" fill="#0f7333"/><path d="m89.0453 219.943 30.5527-17.306-37.3201 7.259 4.6775 11.231z" fill="#529750"/><path d="m99.7354 235.817-12.5146.447 29.6982 25.053z" fill="#529750"/><path d="m87.2208 236.264-.2654-15.137-13.7337-2.913-10.8809 13.953z" fill="#17763d"/><path d="m66.446 253.553-4.1052-21.386-12.556-6.712-3.7818 12.042z" fill="#0f7333"/><path d="m114.697 218.801 2.222 42.515 12.291-27.394z" fill="#55a352"/><path d="m140.48 208.803-20.882-6.166-30.5527 17.306-2.0899 1.184 27.7416-2.326z" fill="#336f43"/><path d="m114.697 218.801-27.7416 2.326.2654 15.137 12.5146-.447z" fill="#3b8e4d"/><path d="m66.446 253.553 14.0738 13.681 6.701-30.97z" fill="#336f43"/><path d="m185.886 233.07-26.87-44.502-1.46 39.718z" fill="#67b768"/><path d="m108.667 192.54 10.931 10.089 4.918-26.989c-.017.646-15.849 16.892-15.849 16.892z" fill="#67b768"/><path d="m145.183 183.858-20.675-8.21 9.877 20.526z" fill="#3b8e4d"/><path d="m108.667 192.54-26.3891 17.356 37.3201-7.259z" fill="#55a352"/><path d="m159.016 188.568-13.833-4.709-10.798 12.315 9.993 11.123z" fill="#0f7333"/><path d="m144.27 238.002 13.286-9.716-10.383-11.844-6.693-7.639-11.27 25.119-12.291 27.395z" fill="#17763d"/><path d="m149.006 214.663-4.628-7.366-9.993-11.123 6.095 12.629 6.693 7.639 10.383 11.844z" fill="#336f43"/><path d="m129.21 233.922 11.27-25.119-25.783 9.998z" fill="#67b768"/><path d="m159.016 188.568-14.638 18.729 4.628 7.366 8.55 13.623z" fill="#55a352"/><path d="m176.78 152.284-6.228 1.929 6.27 5.975z" fill="#529750"/><path d="m165.36 144.207.059.124v-.091z" fill="#529750"/><path d="m170.486 147.161-5.068-2.921v.091l.739 11.239 4.395-1.357z" fill="#417237"/><path d="m165.402 144.083-.042.124.05-.058z" fill="#529750"/><path d="m170.743 138.008-.879-6.133-4.462 12.208.008.066z" fill="#529750"/><path d="m169.864 131.875 21.164-.919 5.623-6.472-12.573-6.257z" fill="#529750"/><path d="m184.078 118.227-10.084-16.321 3.574 11.513 6.038 4.461z" fill="#045c2b"/><path d="m197.671 91.7845-.033-.3394-14.19-8.2349.556 14.1773z" fill="#417237"/><path d="m169.864 131.875 14.214-13.648-.19-.14-.282-.207-6.038-4.461s-8.982 9.873-10.184 9.849z" fill="#417237"/><path d="m198.658 103.586-.979-11.661-8.583 15.965z" fill="#105929"/><path d="m184.377 117.615 4.719-9.725-5.092-10.5025.074 20.8395z" fill="#529750"/><path d="m198.658 103.586-9.562 4.304 22.383-1.572z" fill="#55a352"/><path d="m192.198 114.702 19.281-8.384-22.383 1.572-4.719 9.725-.299.612z" fill="#67b768"/><path d="m197.779 91.7432-.108.0413.008.1407z" fill="#529750"/><path d="m197.679 91.9251-.008-.1407-13.667 5.6031 5.092 10.5025z" fill="#1a6636"/><path d="m229.998 127.207 33.572-1.73-6.676-5.644z" fill="#107536"/><path d="m319.085 146.623-2.388-11.388-19.78-1.879z" fill="#147633"/><path d="m319.085 146.623-3.433 10.917 5.946-4.461z" fill="#529750"/><path d="m270.146 121.637 14.572 15.088.564-13.035z" fill="#529750"/><path d="m255.699 106.665 2.364-2.764-10.591-5.7604.009 18.1414z" fill="#529750"/><path d="m270.146 121.637-8.003-8.293-14.662 2.938 9.413 3.551z" fill="#107536"/><path d="m203.51 66.3679-20.062 16.8423 13.551-4.1878z" fill="#55a352"/><path d="m247.978 84.2943-7.348-6.9108-1.476 14.6491 8.318 6.108 10.591 5.7604z" fill="#107536"/><path d="m193.375 65.6891 10.135.6787 26.065-1.349-22.06-9.2612z" fill="#67b768"/><path d="m187.777 42.8301-4.329 40.3801 9.927-17.5209z" fill="#3f9346"/><path d="m226.665 53.6389 2.91 11.38 11.055 12.3648-4.785-15.2202z" fill="#417237"/><path d="m193.375 65.6892-9.927 17.521 20.062-16.8423z" fill="#068e4a"/><path d="m226.665 53.6389-16.911-17.5954-2.239 19.7142z" fill="#105929"/><path d="m290.448 104.77-5.166 18.92 6.344 2.334z" fill="#529750"/><path d="m317.808 130.849-6.096-9.642-10.258 8.425-4.537 3.724 19.78 1.879z" fill="#147633"/><path d="m301.454 129.632-9.828-3.608-6.344-2.334 11.635 9.666z" fill="#529750"/><path d="m311.712 121.207-8.492-31.4585-12.772 15.0215z" fill="#068e4a"/><path d="m247.978 84.2944 10.085 19.6066 10.798-25.0028z" fill="#045c2b"/><path d="m258.063 103.901-2.364 2.764-8.218 9.617 14.662-2.938 28.305-8.574z" fill="#67b768"/><path d="m202.191 33.6433 13.435-13.6145-.323-6.2073z" fill="#137734"/><path d="m229.418 16.6355-8.484 2.0856 4.064 3.5423 5.631-1.738z" fill="#107536"/><path d="m230.629 20.5254 15.351 9.046-10.292-17.3141-6.27 4.3782z" fill="#045c2b"/><path d="m230.629 20.5254-5.631 1.738 4.909 4.2789z" fill="#157232"/><path d="m215.303 13.8215.323 6.2073 5.308-1.3077 8.484-2.0856z" fill="#3f9346"/><path d="m290.448 104.77 12.772-15.0216-34.359-10.8502z" fill="#0e5829"/><path d="m268.861 78.8983-12.125-33.006-20.891 16.2713z" fill="#068e4a"/><path d="m229.907 26.5422-3.242 27.0967 30.071-7.7466z" fill="#107536"/><path d="m267.476 36.118 13.958-1.2249.373-17.554-24.656-.6787z" fill="#137734"/><path d="m256.736 45.8921.415-29.2319-19.506-9.74125 8.335 22.65225z" fill="#107536"/><path d="m289.221 77.2347-2.621-21.3033-19.124-19.8135 1.385 42.7803z" fill="#0a7032"/><path d="m326.226 57.1811 12.315-4.5271-32.335-32.9894-5.855 5.7437z" fill="#688068"/><path d="m300.351 25.4084-2.497-10.6599-.091 9.5344z" fill="#137734"/><path d="m297.73 28.0567.033-3.774-8.534-3.716-7.795 14.3263z" fill="#105929"/><path d="m300.351 25.4084-2.621 2.6485-.365 38.0379z" fill="#147633"/><path d="m289.221 77.2347 13.999 12.5137-5.855-23.6537z" fill="#00803e"/><path d="m297.365 66.0948-15.931-31.2017 5.166 21.0384z" fill="#0a7032"/><path d="m286.6 55.9314 2.621 21.3032 8.144-11.1399z" fill="#3f9346"/><path d="m315.76 66.3761 10.466-9.1949-28.72 8.028z" fill="#6f986e"/><path d="m325.604 67.0051 13.377.8608-12.755-10.6847z" fill="#6e976d"/><path d="m303.22 89.7483 21.861-14.3925-11.776-6.8197z" fill="#688068"/><path d="m313.305 68.5363 11.776 6.8197.523-8.3508-9.844-.629z" fill="#6e976d"/><path d="m315.76 66.3761 9.844.629.622-9.8239z" fill="#8eaf7b"/><path d="m318.637 92.5541 10.798-3.1615-26.215.3559z" fill="#6e976d"/><path d="m311.712 121.207 11.246-11.273-4.321-17.3798z" fill="#529750"/><path d="m338.458 104.108-15.5 5.826 10.491 16.768z" fill="#688068"/><path d="m318.53 131.561 18.029 27.411-4.238-13.673z" fill="#67b768"/><path d="m332.321 145.299 4.238 13.672 4.57-16.337z" fill="#5e955a"/><path d="m333.449 126.702-21.737-5.495 6.096 9.642.722.711 13.791 13.739z" fill="#529750"/><path d="m341.129 142.634 4.022-15.501-11.702-.431z" fill="#6f986e"/><path d="m338.981 67.866-9.902 7.4404 16.055-1.4153z" fill="#6e976d"/><path d="m325.604 67.0051-.523 8.3508 3.998-.0496 9.902-7.4404z" fill="#8ca68b"/><path d="m284.718 136.725 9.827-2.715-9.263-10.32z" fill="#67b768"/><path d="m296.917 133.356-11.635-9.666 9.263 10.32z" fill="#67b768"/><path d="m373.746 104.985-14.604 14.095 20.236 8.119z" fill="#fff"/><path d="m349.762 93.572 4.329 14.657 5.051 10.851 14.604-14.095z" fill="#fff"/><path d="m349.281 64.1497-5.167-5.7852 9.322 30.0761-3.674 5.1314 23.984 11.413z" fill="#bdc9e8"/><path d="m379.378 127.199-20.236-8.119.041 24.605 6.535 36.697 24.648-36.763z" fill="#bdc9e8"/><path d="m371.474 187.74-13.982 7.598 11.113 9.567 4.967-9.394z" fill="#fff"/><path d="m385.614 207.976 5.855-3.683.531-41.821-1.634-18.853-10.425 53.407z" fill="#fff"/><path d="m365.718 180.382-6.427 2.4-1.799 12.556 13.982-7.598z" fill="#bdc9e8"/><path d="m373.572 195.511 2.538 2.632 3.832-1.117 10.424-53.407-24.647 36.763 5.755 7.358z" fill="#fff"/></svg>