<svg fill="none" height="175" viewBox="0 0 170 175" width="170" xmlns="http://www.w3.org/2000/svg" xmlns:xlink="http://www.w3.org/1999/xlink"><linearGradient id="a" gradientUnits="userSpaceOnUse" x1="118.708" x2="120.805" y1="11.8795" y2="21.2002"><stop offset="0" stop-color="#a6aab4"/><stop offset="1" stop-color="#afafb5"/></linearGradient><linearGradient id="b"><stop offset="0" stop-color="#5c76b9"/><stop offset="1" stop-color="#383e90"/></linearGradient><linearGradient id="c" gradientUnits="userSpaceOnUse" x1="150.657" x2="170.683" xlink:href="#b" y1="123.043" y2="150.969"/><linearGradient id="d"><stop offset="0" stop-color="#87a7d8"/><stop offset="1" stop-color="#6988c5"/></linearGradient><linearGradient id="e" gradientUnits="userSpaceOnUse" x1="145.763" x2="159.988" xlink:href="#d" y1="115.323" y2="154.896"/><linearGradient id="f" gradientUnits="userSpaceOnUse" x1="8.47753" x2="33.6156" y1="83.3325" y2="111.613"><stop offset="0" stop-color="#110f0f"/><stop offset="1" stop-color="#424349"/></linearGradient><linearGradient id="g" gradientUnits="userSpaceOnUse" x1="130.466" x2="131.665" y1="156.951" y2="158.772"><stop offset="0" stop-color="#064e7f"/><stop offset="1" stop-color="#0e3e65"/></linearGradient><linearGradient id="h"><stop offset="0" stop-color="#4767af"/><stop offset="1" stop-color="#5572b6"/></linearGradient><linearGradient id="i" gradientUnits="userSpaceOnUse" x1="150.959" x2="162.297" xlink:href="#h" y1="120.404" y2="135.16"/><linearGradient id="j" gradientUnits="userSpaceOnUse" x1="152.492" x2="157.598" xlink:href="#b" y1="132.899" y2="137.069"/><linearGradient id="k" gradientUnits="userSpaceOnUse" x1="-.104584" x2="29.6424" y1="57.4219" y2="117.275"><stop offset="0" stop-color="#18223b"/><stop offset="1" stop-color="#31526f"/></linearGradient><linearGradient id="l" gradientUnits="userSpaceOnUse" x1="73.2884" x2="87.1302" y1="-5.41731" y2="16.5449"><stop offset="0" stop-color="#182e4d"/><stop offset="1" stop-color="#5e7b97"/></linearGradient><linearGradient id="m" gradientUnits="userSpaceOnUse" x1="152.2" x2="151.738" y1="120.133" y2="121.187"><stop offset="0" stop-color="#fff"/><stop offset="1" stop-color="#fff"/></linearGradient><linearGradient id="n" gradientUnits="userSpaceOnUse" x1="94.2099" x2="104.131" y1="152.49" y2="175.781"><stop offset="0" stop-color="#2e2d2d"/><stop offset="1" stop-color="#21384a"/></linearGradient><linearGradient id="o" gradientUnits="userSpaceOnUse" x1="126.524" x2="310.41" y1="-57.0523" y2="112.737"><stop offset="0" stop-color="#5f8fbb"/><stop offset="1" stop-color="#4d6985"/></linearGradient><linearGradient id="p" gradientUnits="userSpaceOnUse" x1="72.7593" x2="78.4013" y1="-4.44282" y2="22.4966"><stop offset="0" stop-color="#9498a2"/><stop offset="1" stop-color="#6381a2"/></linearGradient><linearGradient id="q" gradientUnits="userSpaceOnUse" x1="51.5681" x2="59.1193" y1="7.85454" y2="14.2704"><stop offset="0" stop-color="#8f8f95"/><stop offset="1" stop-color="#6d6c75"/></linearGradient><linearGradient id="r" gradientUnits="userSpaceOnUse" x1="63.4978" x2="65.1276" xlink:href="#h" y1="4.75248" y2="9.96345"/><linearGradient id="s"><stop offset="0" stop-color="#352d81"/><stop offset="1" stop-color="#403c8d"/></linearGradient><linearGradient id="t" gradientUnits="userSpaceOnUse" x1="99.4306" x2="146.625" xlink:href="#s" y1="25.8846" y2="66.016"/><linearGradient id="u" gradientUnits="userSpaceOnUse" x1="139.071" x2="183.21" xlink:href="#b" y1="29.7978" y2="97.8094"/><linearGradient id="v"><stop offset="0" stop-color="#201a4b"/><stop offset="1" stop-color="#241d57"/></linearGradient><linearGradient id="w" gradientUnits="userSpaceOnUse" x1="6.34433" x2="7.09754" xlink:href="#v" y1="58.9614" y2="59.1792"/><linearGradient id="x"><stop offset="0" stop-color="#2e2c71"/><stop offset="1" stop-color="#312d7d"/></linearGradient><linearGradient id="y" gradientUnits="userSpaceOnUse" x1="61.759" x2="67.0927" xlink:href="#x" y1="50.4804" y2="30.9048"/><linearGradient id="z" gradientUnits="userSpaceOnUse" x1="44.1125" x2="41.2841" xlink:href="#s" y1="13.3868" y2="62.0882"/><linearGradient id="A"><stop offset="0" stop-color="#4b6bb2"/><stop offset="1" stop-color="#85a8d9"/></linearGradient><linearGradient id="B" gradientUnits="userSpaceOnUse" x1="62.8313" x2="51.9079" xlink:href="#A" y1="12.1778" y2="17.3319"/><linearGradient id="C" gradientUnits="userSpaceOnUse" x1="12.9784" x2="22.8974" y1="115.315" y2="144.56"><stop offset="0" stop-color="#201c1c"/><stop offset="1" stop-color="#211e1e"/></linearGradient><linearGradient id="D" gradientUnits="userSpaceOnUse" x1="135.992" x2="131.477" xlink:href="#h" y1="87.582" y2="118.972"/><linearGradient id="E"><stop offset="0" stop-color="#97c3e9"/><stop offset="1" stop-color="#aed6f2"/></linearGradient><linearGradient id="F" gradientUnits="userSpaceOnUse" x1="141.582" x2="136.979" xlink:href="#E" y1="98.119" y2="118.418"/><linearGradient id="G" gradientUnits="userSpaceOnUse" x1="145.197" x2="150.139" xlink:href="#d" y1="86.7589" y2="123.518"/><linearGradient id="H"><stop offset="0" stop-color="#33487a"/><stop offset="1" stop-color="#4869b1"/></linearGradient><linearGradient id="I" gradientUnits="userSpaceOnUse" x1="146.574" x2="158.614" xlink:href="#H" y1="95.1968" y2="122.838"/><linearGradient id="J" gradientUnits="userSpaceOnUse" x1="156.494" x2="161.27" xlink:href="#d" y1="113.144" y2="116.667"/><linearGradient id="K" gradientUnits="userSpaceOnUse" x1="157.525" x2="158.414" xlink:href="#d" y1="122.075" y2="123.903"/><linearGradient id="L" gradientUnits="userSpaceOnUse" x1="153.947" x2="154.613" xlink:href="#b" y1="121.918" y2="126.036"/><linearGradient id="M" gradientUnits="userSpaceOnUse" x1="157.14" x2="157.139" xlink:href="#E" y1="122.985" y2="125.884"/><linearGradient id="N" gradientUnits="userSpaceOnUse" x1="152.102" x2="151.068" y1="119.709" y2="123.705"><stop offset="0" stop-color="#f7f4f7"/><stop offset="1" stop-color="#e0dee0"/></linearGradient><linearGradient id="O"><stop offset="0" stop-color="#201a4b"/><stop offset="1" stop-color="#312d7d"/></linearGradient><linearGradient id="P" gradientUnits="userSpaceOnUse" x1="3.77392" x2="2.98157" xlink:href="#O" y1="56.689" y2="64.3557"/><linearGradient id="Q" gradientUnits="userSpaceOnUse" x1="9.30381" x2="7.70039" xlink:href="#v" y1="60.3207" y2="61.2464"/><linearGradient id="R" gradientUnits="userSpaceOnUse" x1="4.00071" x2="6.32104" xlink:href="#O" y1="57.527" y2="63.0491"/><linearGradient id="S"><stop offset=".37" stop-color="#2f2d77"/><stop offset="1" stop-color="#403e91"/></linearGradient><linearGradient id="T" gradientUnits="userSpaceOnUse" x1="109.239" x2="129.089" xlink:href="#S" y1="29.9457" y2="65.9104"/><linearGradient id="U" gradientUnits="userSpaceOnUse" x1="40.7975" x2="43.6795" xlink:href="#A" y1="12.067" y2="22.2868"/><linearGradient id="V" gradientUnits="userSpaceOnUse" x1="55.2461" x2="63.5181" xlink:href="#d" y1=".324802" y2="11.4711"/><linearGradient id="W" gradientUnits="userSpaceOnUse" x1="18.4906" x2="19.4537" y1="19.6385" y2="48.1081"><stop offset="0" stop-color="#253c53"/><stop offset="1" stop-color="#607e97"/></linearGradient><linearGradient id="X" gradientUnits="userSpaceOnUse" x1="55.2262" x2="57.163" y1="6.5695" y2="11.4547"><stop offset="0" stop-color="#aed6f2"/><stop offset="1" stop-color="#afd7f2"/></linearGradient><linearGradient id="Y" gradientUnits="userSpaceOnUse" x1="36.4155" x2="45.1683" xlink:href="#h" y1="6.24213" y2="50.1657"/><linearGradient id="Z"><stop offset="0" stop-color="#332c7e"/><stop offset="1" stop-color="#2d2962"/></linearGradient><linearGradient id="aa" gradientUnits="userSpaceOnUse" x1="8.47043" x2="21.4288" xlink:href="#Z" y1="86.5073" y2="121.27"/><linearGradient id="ab" gradientUnits="userSpaceOnUse" x1="6.62608" x2="12.4865" y1="104.042" y2="129.364"><stop offset="0" stop-color="#211e1e"/><stop offset="1" stop-color="#4d4c4c"/></linearGradient><linearGradient id="ac" gradientUnits="userSpaceOnUse" x1="2.99901" x2="10.4994" y1="101.668" y2="131.389"><stop offset="0" stop-color="#343436"/><stop offset="1" stop-color="#898e96"/></linearGradient><linearGradient id="ad" gradientUnits="userSpaceOnUse" x1="69.9809" x2="37.7289" y1="67.8213" y2="93.0575"><stop offset=".25" stop-color="#2f2d77"/><stop offset="1" stop-color="#404193"/></linearGradient><linearGradient id="ae" gradientUnits="userSpaceOnUse" x1="54.4395" x2="81.3112" xlink:href="#S" y1="97.4686" y2="89.7925"/><linearGradient id="af"><stop offset=".56" stop-color="#2c2e73"/><stop offset="1" stop-color="#3c3188"/></linearGradient><linearGradient id="ag" gradientUnits="userSpaceOnUse" x1="69.4124" x2="55.8724" xlink:href="#af" y1="95.7241" y2="121.882"/><linearGradient id="ah" gradientUnits="userSpaceOnUse" x1="76.5198" x2="74.3088" xlink:href="#E" y1="79.6971" y2="84.4796"/><linearGradient id="ai" gradientUnits="userSpaceOnUse" x1="165.375" x2="224.127" y1="20.3301" y2="68.1348"><stop offset="0" stop-color="#384456"/><stop offset="1" stop-color="#27354c"/></linearGradient><linearGradient id="aj" gradientUnits="userSpaceOnUse" x1="141.033" x2="141.838" y1="37.0157" y2="48.1847"><stop offset="0" stop-color="#090d18"/><stop offset="1" stop-color="#0d1121"/></linearGradient><linearGradient id="ak" gradientUnits="userSpaceOnUse" x1="143.106" x2="179.113" y1="63.5453" y2="79.9338"><stop offset="0" stop-color="#272058"/><stop offset="1" stop-color="#4a4999"/></linearGradient><linearGradient id="al"><stop offset="0" stop-color="#93bee6"/><stop offset="1" stop-color="#74a4d8"/></linearGradient><linearGradient id="am" gradientUnits="userSpaceOnUse" x1="160.28" x2="159.315" xlink:href="#al" y1="102.889" y2="112.867"/><linearGradient id="an" gradientUnits="userSpaceOnUse" x1="159.803" x2="159.632" xlink:href="#E" y1="108.311" y2="119.416"/><linearGradient id="ao" gradientUnits="userSpaceOnUse" x1="162.694" x2="183.547" xlink:href="#S" y1="73.3985" y2="108.216"/><linearGradient id="ap" gradientUnits="userSpaceOnUse" x1="28.1211" x2="32.3632" y1="24.0047" y2="29.7886"><stop offset="0" stop-color="#77a5d9"/><stop offset="1" stop-color="#698bc7"/></linearGradient><linearGradient id="aq"><stop offset="0" stop-color="#332c7e"/><stop offset="1" stop-color="#4a519e"/></linearGradient><linearGradient id="ar" gradientUnits="userSpaceOnUse" x1="-28.9532" x2="-37.0146" xlink:href="#aq" y1="12.1207" y2="40.0065"/><linearGradient id="as" gradientUnits="userSpaceOnUse" x1="26.4051" x2="32.4274" xlink:href="#h" y1="19.201" y2="31.7612"/><linearGradient id="at" gradientUnits="userSpaceOnUse" x1="19.8801" x2="23.6263" y1="33.3627" y2="38.8423"><stop offset="0" stop-color="#4666ae"/><stop offset="1" stop-color="#5572b6"/></linearGradient><linearGradient id="au" gradientUnits="userSpaceOnUse" x1="16.8651" x2="36.2861" y1="115.264" y2="146.032"><stop offset="0" stop-color="#1a1718"/><stop offset="1" stop-color="#1a1918"/></linearGradient><linearGradient id="av" gradientUnits="userSpaceOnUse" x1="11.5523" x2="18.7835" y1="122.638" y2="136.141"><stop offset="0" stop-color="#1a1918"/><stop offset="1" stop-color="#1a1718"/></linearGradient><linearGradient id="aw" gradientUnits="userSpaceOnUse" x1="135.22" x2="137.309" y1="143.163" y2="158.265"><stop offset="0" stop-color="#151b31"/><stop offset="1" stop-color="#17223c"/></linearGradient><linearGradient id="ax" gradientUnits="userSpaceOnUse" x1="139.932" x2="140.898" y1="147.687" y2="154.134"><stop offset="0" stop-color="#161e35"/><stop offset="1" stop-color="#16243c"/></linearGradient><linearGradient id="ay"><stop offset="0" stop-color="#6b398e"/><stop offset="1" stop-color="#35296f"/></linearGradient><linearGradient id="az" gradientUnits="userSpaceOnUse" x1="140.603" x2="131.695" xlink:href="#ay" y1="41.8612" y2="31.286"/><linearGradient id="aA"><stop offset=".28" stop-color="#37286f"/><stop offset="1" stop-color="#8c529c"/></linearGradient><linearGradient id="aB" gradientUnits="userSpaceOnUse" x1="123.681" x2="148.029" xlink:href="#aA" y1="5.36321" y2="62.4555"/><linearGradient id="aC" gradientUnits="userSpaceOnUse" x1="114.237" x2="112.917" xlink:href="#aA" y1="2.80656" y2="17.2903"/><linearGradient id="aD" gradientUnits="userSpaceOnUse" x1="157.194" x2="160.79" xlink:href="#E" y1="103.062" y2="129.392"/><linearGradient id="aE" gradientUnits="userSpaceOnUse" x1="44.7285" x2="48.1638" xlink:href="#d" y1="5.23988" y2="25.5779"/><linearGradient id="aF" gradientUnits="userSpaceOnUse" x1="129.565" x2="132.314" y1="154.736" y2="162.421"><stop offset="0" stop-color="#134b78"/><stop offset="1" stop-color="#192541"/></linearGradient><linearGradient id="aG" gradientUnits="userSpaceOnUse" x1="125.995" x2="138.783" y1="124.846" y2="179.53"><stop offset="0" stop-color="#141b30"/><stop offset="1" stop-color="#182642"/></linearGradient><linearGradient id="aH" gradientUnits="userSpaceOnUse" x1="140.862" x2="142.425" y1="149.919" y2="153.283"><stop offset="0" stop-color="#162c48"/><stop offset="1" stop-color="#172742"/></linearGradient><linearGradient id="aI" gradientUnits="userSpaceOnUse" x1="139.274" x2="139.68" y1="153.198" y2="153.761"><stop offset="0" stop-color="#1a2d4c"/><stop offset="1" stop-color="#182540"/></linearGradient><linearGradient id="aJ" gradientUnits="userSpaceOnUse" x1="45.9089" x2="71.8386" y1="129.922" y2="157.55"><stop offset="0" stop-color="#272626"/><stop offset="1" stop-color="#231f1f"/></linearGradient><linearGradient id="aK" gradientUnits="userSpaceOnUse" x1="154.008" x2="176.339" xlink:href="#x" y1="44.2699" y2="85.5784"/><linearGradient id="aL"><stop offset="0" stop-color="#464999"/><stop offset="1" stop-color="#342c7e"/></linearGradient><linearGradient id="aM" gradientUnits="userSpaceOnUse" x1="113.451" x2="114.457" xlink:href="#aL" y1="25.2093" y2="77.6987"/><linearGradient id="aN" gradientUnits="userSpaceOnUse" x1="145.232" x2="150.853" xlink:href="#S" y1="87.8569" y2="58.4608"/><linearGradient id="aO" gradientUnits="userSpaceOnUse" x1="136.154" x2="154.36" xlink:href="#x" y1="13.918" y2="55.0525"/><linearGradient id="aP" gradientUnits="userSpaceOnUse" x1="33.8729" x2="49.3295" xlink:href="#x" y1="90.6753" y2="127.64"/><linearGradient id="aQ" gradientUnits="userSpaceOnUse" x1="47.8759" x2="26.8237" xlink:href="#Z" y1="98.6957" y2="108.225"/><linearGradient id="aR" gradientUnits="userSpaceOnUse" x1="49.8162" x2="56.9332" y1="136.692" y2="195.546"><stop offset="0" stop-color="#1b1919"/><stop offset="1" stop-color="#181516"/></linearGradient><linearGradient id="aS" gradientUnits="userSpaceOnUse" x1="59.555" x2="61.1128" y1="151.798" y2="175.616"><stop offset="0" stop-color="#1e1a1a"/><stop offset="1" stop-color="#171313"/></linearGradient><linearGradient id="aT" gradientUnits="userSpaceOnUse" x1="56.6734" x2="56.3395" y1="167.442" y2="170.76"><stop offset="0" stop-color="#191515"/><stop offset="1" stop-color="#181516"/></linearGradient><linearGradient id="aU" gradientUnits="userSpaceOnUse" x1="72.4422" x2="85.6637" y1="158.795" y2="172.931"><stop offset="0" stop-color="#141212"/><stop offset="1" stop-color="#171313"/></linearGradient><linearGradient id="aV" gradientUnits="userSpaceOnUse" x1="60.5942" x2="63.6626" y1="166.168" y2="173.475"><stop offset="0" stop-color="#171313"/><stop offset="1" stop-color="#171313"/></linearGradient><linearGradient id="aW" gradientUnits="userSpaceOnUse" x1="3.24311" x2="6.72953" y1="47.8907" y2="63.3849"><stop offset="0" stop-color="#14192e"/><stop offset="1" stop-color="#111427"/></linearGradient><linearGradient id="aX" gradientUnits="userSpaceOnUse" x1="125.34" x2="133.984" xlink:href="#Z" y1="4.62066" y2="29.3093"/><linearGradient id="aY" gradientUnits="userSpaceOnUse" x1="137.632" x2="130.923" y1="20.2977" y2="23.2522"><stop offset="0" stop-color="#231f54"/><stop offset="1" stop-color="#312d7d"/></linearGradient><linearGradient id="aZ" gradientUnits="userSpaceOnUse" x1="122.303" x2="118.471" xlink:href="#S" y1="6.39216" y2="70.1216"/><linearGradient id="a0" gradientUnits="userSpaceOnUse" x1="118.108" x2="134.357" xlink:href="#s" y1="-11.6264" y2="46.273"/><linearGradient id="a1"><stop offset="0" stop-color="#43398e"/><stop offset="1" stop-color="#312d7d"/></linearGradient><linearGradient id="a2" gradientUnits="userSpaceOnUse" x1="125.51" x2="136.412" xlink:href="#a1" y1="4.19093" y2="26.8091"/><linearGradient id="a3" gradientUnits="userSpaceOnUse" x1="135.406" x2="139.502" xlink:href="#a1" y1="21.7107" y2="46.8"/><linearGradient id="a4" gradientUnits="userSpaceOnUse" x1="54.1309" x2="49.7451" xlink:href="#x" y1="107.698" y2="173.021"/><linearGradient id="a5"><stop offset="0" stop-color="#3c378b"/><stop offset="1" stop-color="#4a4999"/></linearGradient><linearGradient id="a6" gradientUnits="userSpaceOnUse" x1="56.1577" x2="63.4327" xlink:href="#a5" y1="100.287" y2="152.408"/><linearGradient id="a7" gradientUnits="userSpaceOnUse" x1="39.706" x2="35.1251" xlink:href="#a5" y1="95.7719" y2="171.69"/><linearGradient id="a8" gradientUnits="userSpaceOnUse" x1="50.9623" x2="53.1798" y1="141.896" y2="184.384"><stop offset="0" stop-color="#211e1e"/><stop offset="1" stop-color="#201c1c"/></linearGradient><linearGradient id="a9" gradientUnits="userSpaceOnUse" x1="42.1957" x2="69.1904" y1="118.287" y2="168.764"><stop offset="0" stop-color="#292727"/><stop offset="1" stop-color="#262323"/></linearGradient><linearGradient id="ba" gradientUnits="userSpaceOnUse" x1="101.338" x2="120.549" y1="145.766" y2="167.139"><stop offset="0" stop-color="#6f96bb"/><stop offset="1" stop-color="#64778e"/></linearGradient><linearGradient id="bb" gradientUnits="userSpaceOnUse" x1="124.045" x2="125.883" xlink:href="#d" y1="158.41" y2="165.567"/><linearGradient id="bc" gradientUnits="userSpaceOnUse" x1="125.887" x2="126.812" xlink:href="#b" y1="161.72" y2="163.205"/><linearGradient id="bd"><stop offset="0" stop-color="#37286f"/><stop offset="1" stop-color="#8c529c"/></linearGradient><linearGradient id="be" gradientUnits="userSpaceOnUse" x1="64.777" x2="92.0491" xlink:href="#bd" y1="32.3217" y2="17.7275"/><linearGradient id="bf" gradientUnits="userSpaceOnUse" x1="52.1071" x2="67.6834" xlink:href="#bd" y1="9.387" y2="18.1895"/><linearGradient id="bg" gradientUnits="userSpaceOnUse" x1="91.611" x2="114.091" y1="-11.3419" y2="28.34"><stop offset="0" stop-color="#5e6cb1"/><stop offset="1" stop-color="#3e4695"/></linearGradient><linearGradient id="bh" gradientUnits="userSpaceOnUse" x1="65.6021" x2="66.7598" xlink:href="#H" y1="2.71101" y2="10.7534"/><linearGradient id="bi" gradientUnits="userSpaceOnUse" x1="90.3925" x2="100.219" xlink:href="#H" y1="-5.2627" y2="15.0326"/><linearGradient id="bj" gradientUnits="userSpaceOnUse" x1="32.1312" x2="34.8215" xlink:href="#A" y1="18.8864" y2="31.6195"/><linearGradient id="bk" gradientUnits="userSpaceOnUse" x1="20.6186" x2="25.6483" xlink:href="#h" y1="17.5026" y2="34.8027"/><linearGradient id="bl" gradientUnits="userSpaceOnUse" x1="157.009" x2="171.268" xlink:href="#aL" y1="67.3482" y2="104.3"/><linearGradient id="bm" gradientUnits="userSpaceOnUse" x1="152.146" x2="155.859" xlink:href="#d" y1="82.1952" y2="114.123"/><linearGradient id="bn" gradientUnits="userSpaceOnUse" x1="97.7292" x2="60.1409" xlink:href="#bd" y1="32.3516" y2="29.3931"/><linearGradient id="bo" gradientUnits="userSpaceOnUse" x1="124.312" x2="185.987" xlink:href="#ay" y1="-27.5655" y2="55.7746"/><linearGradient id="bp" gradientUnits="userSpaceOnUse" x1="5.66627" x2="17.8544" xlink:href="#x" y1="51.817" y2="73.5337"/><linearGradient id="bq" gradientUnits="userSpaceOnUse" x1="46.2585" x2="33.9773" xlink:href="#h" y1="20.1714" y2="35.3789"/><linearGradient id="br" gradientUnits="userSpaceOnUse" x1="26.4334" x2="37.824" xlink:href="#A" y1="31.8162" y2="21.7119"/><linearGradient id="bs" gradientUnits="userSpaceOnUse" x1="16.4358" x2="26.0935" xlink:href="#h" y1="33.2538" y2="33.2538"/><linearGradient id="bt" gradientUnits="userSpaceOnUse" x1="232.455" x2="353.837" xlink:href="#ay" y1="-353.054" y2="-288.974"/><linearGradient id="bu" gradientUnits="userSpaceOnUse" x1="68.9671" x2="63.3561" xlink:href="#s" y1="51.3645" y2="56.4337"/><linearGradient id="bv" gradientUnits="userSpaceOnUse" x1="63.6214" x2="79.5998" xlink:href="#s" y1="48.4304" y2="73.1035"/><linearGradient id="bw"><stop offset="0" stop-color="#322e81"/><stop offset="1" stop-color="#3c3188"/></linearGradient><linearGradient id="bx" gradientUnits="userSpaceOnUse" x1="55.213" x2="53.8852" xlink:href="#bw" y1="59.8215" y2="62.0349"/><linearGradient id="by" gradientUnits="userSpaceOnUse" x1="62.6497" x2="64.3341" xlink:href="#s" y1="76.8556" y2="71.2674"/><linearGradient id="bz" gradientUnits="userSpaceOnUse" x1="51.3159" x2="29.832" xlink:href="#bw" y1="129.251" y2="115.859"/><linearGradient id="bA" gradientUnits="userSpaceOnUse" x1="41.7345" x2="68.7737" xlink:href="#aL" y1="136.427" y2="136.427"/><linearGradient id="bB" gradientUnits="userSpaceOnUse" x1="46.3203" x2="85.3177" y1="112.635" y2="163.337"><stop offset="0" stop-color="#464445"/><stop offset="1" stop-color="#4e4d4e"/></linearGradient><linearGradient id="bC" gradientUnits="userSpaceOnUse" x1="27.8508" x2="46.8971" xlink:href="#x" y1="42.5304" y2="92.0293"/><linearGradient id="bD" gradientUnits="userSpaceOnUse" x1="33.2986" x2="70.404" xlink:href="#bw" y1="36.9434" y2="86.0514"/><linearGradient id="bE" gradientUnits="userSpaceOnUse" x1="33.3526" x2="65.5313" xlink:href="#x" y1="63.7262" y2="104.348"/><linearGradient id="bF" gradientUnits="userSpaceOnUse" x1="86.5916" x2="98.7543" xlink:href="#s" y1="4.59463" y2="28.9243"/><linearGradient id="bG" gradientUnits="userSpaceOnUse" x1="112.989" x2="127.697" xlink:href="#a5" y1="10.6439" y2="47.0375"/><linearGradient id="bH" gradientUnits="userSpaceOnUse" x1="118.006" x2="118.29" xlink:href="#a1" y1="24.2315" y2="57.4454"/><linearGradient id="bI" gradientUnits="userSpaceOnUse" x1="82.7504" x2="90.3921" xlink:href="#a1" y1="50.4923" y2="21.808"/><linearGradient id="bJ" gradientUnits="userSpaceOnUse" x1="85.7097" x2="108.301" xlink:href="#a5" y1="25.1363" y2="78.292"/><linearGradient id="bK" gradientUnits="userSpaceOnUse" x1="-8.11016" x2="-11.5319" y1="47.4977" y2="63.4203"><stop offset="0" stop-color="#13162a"/><stop offset="1" stop-color="#14192e"/></linearGradient><linearGradient id="bL" gradientUnits="userSpaceOnUse" x1="-10.6086" x2="-14.4912" xlink:href="#O" y1="49.6077" y2="67.4741"/><linearGradient id="bM"><stop offset="0" stop-color="#2c265d"/><stop offset="1" stop-color="#6d378c"/></linearGradient><linearGradient id="bN" gradientUnits="userSpaceOnUse" x1="30.1135" x2="35.2383" xlink:href="#bM" y1="132.024" y2="148.153"/><linearGradient id="bO" gradientUnits="userSpaceOnUse" x1="9.38889" x2="22.9708" y1="92.1663" y2="146.781"><stop offset="0" stop-color="#0d0c0d"/><stop offset="1" stop-color="#0e0d0d"/></linearGradient><linearGradient id="bP" gradientUnits="userSpaceOnUse" x1="167.03" x2="170.809" y1="101.864" y2="108.524"><stop offset="0" stop-color="#0e1222"/><stop offset="1" stop-color="#0f1324"/></linearGradient><linearGradient id="bQ" gradientUnits="userSpaceOnUse" x1="161.789" x2="160.467" xlink:href="#b" y1="100.958" y2="108.427"/><linearGradient id="bR" gradientUnits="userSpaceOnUse" x1="125.488" x2="121.224" xlink:href="#a5" y1="45.2513" y2="143.539"/><linearGradient id="bS" gradientUnits="userSpaceOnUse" x1="141.181" x2="148.647" xlink:href="#S" y1="53.8022" y2="132.165"/><linearGradient id="bT" gradientUnits="userSpaceOnUse" x1="42.3849" x2="35.8104" xlink:href="#x" y1="160.468" y2="155.217"/><linearGradient id="bU" gradientUnits="userSpaceOnUse" x1="58.1959" x2="33.9466" xlink:href="#ay" y1="158.002" y2="149.937"/><linearGradient id="bV" gradientUnits="userSpaceOnUse" x1="145.527" x2="161.918" xlink:href="#al" y1="75.2302" y2="154.175"/><linearGradient id="bW" gradientUnits="userSpaceOnUse" x1="128.424" x2="121.957" xlink:href="#al" y1="89.9432" y2="112.724"/><linearGradient id="bX" gradientUnits="userSpaceOnUse" x1="-73.491" x2="-75.9454" xlink:href="#E" y1="6.9206" y2="12.1176"/><linearGradient id="bY" gradientUnits="userSpaceOnUse" x1="156.953" x2="160.255" xlink:href="#E" y1="101.784" y2="120.44"/><linearGradient id="bZ" gradientUnits="userSpaceOnUse" x1="155.726" x2="170.926" xlink:href="#d" y1="89.9802" y2="138.271"/><linearGradient id="b0" gradientUnits="userSpaceOnUse" x1="97.7291" x2="107.792" xlink:href="#af" y1="164.965" y2="180.906"/><linearGradient id="b1" gradientUnits="userSpaceOnUse" x1="47.5223" x2="66.1741" xlink:href="#a5" y1="5.53744" y2="33.8608"/><linearGradient id="b2" gradientUnits="userSpaceOnUse" x1="43.9935" x2="57.8362" xlink:href="#s" y1="8.88013" y2="56.8414"/><linearGradient id="b3" gradientUnits="userSpaceOnUse" x1="106.218" x2="107.973" xlink:href="#af" y1="163.979" y2="171.458"/><linearGradient id="b4" gradientUnits="userSpaceOnUse" x1="121.339" x2="122.736" xlink:href="#af" y1="160.245" y2="169.645"/><linearGradient id="b5" gradientUnits="userSpaceOnUse" x1="110.642" x2="172.405" xlink:href="#af" y1="48.4286" y2="96.2288"/><linearGradient id="b6" gradientUnits="userSpaceOnUse" x1="134.356" x2="149.085" xlink:href="#d" y1="140.358" y2="154.627"/><linearGradient id="b7" gradientUnits="userSpaceOnUse" x1="141.962" x2="154.887" xlink:href="#b" y1="127.331" y2="137.634"/><linearGradient id="b8" gradientUnits="userSpaceOnUse" x1="148.129" x2="150.602" xlink:href="#h" y1="121.945" y2="132.356"/><linearGradient id="b9" gradientUnits="userSpaceOnUse" x1="6.5468" x2="18.2656" y1="106.601" y2="121.09"><stop offset="0" stop-color="#535762"/><stop offset="1" stop-color="#100e0f"/></linearGradient><linearGradient id="ca" gradientUnits="userSpaceOnUse" x1="12.2235" x2="27.0691" y1="123.188" y2="146.286"><stop offset="0" stop-color="#1b1919"/><stop offset="1" stop-color="#1a1718"/></linearGradient><linearGradient id="cb" gradientUnits="userSpaceOnUse" x1="105.328" x2="126.763" xlink:href="#a1" y1="-19.5675" y2="8.44202"/><linearGradient id="cc" gradientUnits="userSpaceOnUse" x1="77.0087" x2="72.4182" xlink:href="#a5" y1="-11.6933" y2="1.06412"/><linearGradient id="cd" gradientUnits="userSpaceOnUse" x1="101.194" x2="110.218" xlink:href="#a1" y1="2.28863" y2="25.4458"/><linearGradient id="ce" gradientUnits="userSpaceOnUse" x1="124.665" x2="152.287" xlink:href="#a5" y1="-7.15848" y2="15.4005"/><linearGradient id="cf" gradientUnits="userSpaceOnUse" x1="107.121" x2="110.044" xlink:href="#s" y1="11.3226" y2="40.0571"/><linearGradient id="cg" gradientUnits="userSpaceOnUse" x1="146.371" x2="163.833" xlink:href="#b" y1="111.044" y2="148.379"/><linearGradient id="ch" gradientUnits="userSpaceOnUse" x1="149.128" x2="155.571" xlink:href="#h" y1="126.284" y2="143.566"/><linearGradient id="ci" gradientUnits="userSpaceOnUse" x1="145.261" x2="155.799" xlink:href="#E" y1="116.146" y2="151.852"/><linearGradient id="cj" gradientUnits="userSpaceOnUse" x1="76.6381" x2="119.787" xlink:href="#a1" y1="144.036" y2="144.036"/><linearGradient id="ck" gradientUnits="userSpaceOnUse" x1="146.768" x2="115.169" xlink:href="#d" y1="135.982" y2="147.205"/><linearGradient id="cl" gradientUnits="userSpaceOnUse" x1="119.787" x2="146.446" xlink:href="#b" y1="143.963" y2="143.963"/><linearGradient id="cm" gradientUnits="userSpaceOnUse" x1="-1.37071" x2="-4.02131" xlink:href="#O" y1="43.3099" y2="55.2499"/><linearGradient id="cn" gradientUnits="userSpaceOnUse" x1="3.37528" x2="4.09673" y1="54.5602" y2="61.8594"><stop offset="0" stop-color="#201a4b"/><stop offset=".68" stop-color="#241d57"/></linearGradient><linearGradient id="co" gradientUnits="userSpaceOnUse" x1="5.00827" x2="6.11485" xlink:href="#v" y1="61.2352" y2="57.5456"/><linearGradient id="cp" gradientUnits="userSpaceOnUse" x1="-1.82345" x2="-3.36205" xlink:href="#v" y1="50.5828" y2="58.9911"/><linearGradient id="cq" gradientUnits="userSpaceOnUse" x1="-26.5011" x2="-32.7772" y1="27.1868" y2="47.836"><stop offset="0" stop-color="#37297b"/><stop offset="1" stop-color="#2c275c"/></linearGradient><linearGradient id="cr" gradientUnits="userSpaceOnUse" x1="-736.545" x2="-856.542" xlink:href="#O" y1="-409.883" y2="-72.6293"/><linearGradient id="cs" gradientUnits="userSpaceOnUse" x1="-8.54842" x2="-9.51985" y1="36.8395" y2="66.2786"><stop offset="0" stop-color="#28245f"/><stop offset="1" stop-color="#312d7d"/></linearGradient><linearGradient id="ct" gradientUnits="userSpaceOnUse" x1="4.08622" x2="7.46279" y1="48.6962" y2="57.7545"><stop offset="0" stop-color="#14182e"/><stop offset="1" stop-color="#14182e"/></linearGradient><linearGradient id="cu" gradientUnits="userSpaceOnUse" x1="6.3314" x2="8.58944" y1="52.8075" y2="55.5837"><stop offset="0" stop-color="#141a30"/><stop offset="1" stop-color="#13192e"/></linearGradient><linearGradient id="cv"><stop offset="0" stop-color="#2e2d77"/><stop offset="1" stop-color="#424194"/></linearGradient><linearGradient id="cw" gradientUnits="userSpaceOnUse" x1="5.34734" x2="8.32313" xlink:href="#cv" y1="51.2323" y2="60.2415"/><linearGradient id="cx" gradientUnits="userSpaceOnUse" x1="7.43698" x2="19.4631" y1="116.482" y2="151.862"><stop offset="0" stop-color="#191515"/><stop offset="1" stop-color="#191515"/></linearGradient><linearGradient id="cy" gradientUnits="userSpaceOnUse" x1="10.5403" x2="25.7039" xlink:href="#s" y1="53.1689" y2="32.6356"/><linearGradient id="cz" gradientUnits="userSpaceOnUse" x1="14.0798" x2="32.3873" xlink:href="#aq" y1="42.9438" y2="42.9438"/><linearGradient id="cA" gradientUnits="userSpaceOnUse" x1="6.84427" x2="8.0407" xlink:href="#x" y1="45.968" y2="59.0256"/><linearGradient id="cB" gradientUnits="userSpaceOnUse" x1="49.8158" x2="32.7637" xlink:href="#s" y1="43.1181" y2="49.4625"/><linearGradient id="cC" gradientUnits="userSpaceOnUse" x1="19.1022" x2="31.7902" xlink:href="#s" y1="71.7669" y2="59.5924"/><linearGradient id="cD" gradientUnits="userSpaceOnUse" x1="9.27308" x2="14.4982" xlink:href="#x" y1="50.4033" y2="61.9599"/><linearGradient id="cE"><stop offset="0" stop-color="#474596"/><stop offset="1" stop-color="#312d7d"/></linearGradient><linearGradient id="cF" gradientUnits="userSpaceOnUse" x1="8.97305" x2="9.75863" xlink:href="#cE" y1="55.542" y2="67.8084"/><linearGradient id="cG" gradientUnits="userSpaceOnUse" x1="12.5763" x2="21.7269" xlink:href="#bw" y1="56.6246" y2="76.8631"/><linearGradient id="cH" gradientUnits="userSpaceOnUse" x1="-2.68417" x2="-4.45085" xlink:href="#a5" y1="44.792" y2="64.2437"/><linearGradient id="cI" gradientUnits="userSpaceOnUse" x1="157.862" x2="180.416" xlink:href="#a1" y1="50.4895" y2="92.6984"/><linearGradient id="cJ" gradientUnits="userSpaceOnUse" x1="165.825" x2="187.092" xlink:href="#S" y1="79.3044" y2="107.145"/><linearGradient id="cK" gradientUnits="userSpaceOnUse" x1="155.909" x2="163.276" xlink:href="#h" y1="86.4267" y2="120.049"/><linearGradient id="cL" gradientUnits="userSpaceOnUse" x1="160.592" x2="159.1" xlink:href="#al" y1="97.3506" y2="115.17"/><linearGradient id="cM" gradientUnits="userSpaceOnUse" x1="196.217" x2="244.564" xlink:href="#S" y1="-43.2228" y2="-14.8653"/><linearGradient id="cN" gradientUnits="userSpaceOnUse" x1="163.725" x2="170.63" xlink:href="#al" y1="94.0141" y2="110.295"/><linearGradient id="cO" gradientUnits="userSpaceOnUse" x1="158.24" x2="157.262" xlink:href="#h" y1="107.259" y2="119.119"/><linearGradient id="cP" gradientUnits="userSpaceOnUse" x1="218.499" x2="271.935" xlink:href="#S" y1="-107.849" y2="-78.3847"/><linearGradient id="cQ" gradientUnits="userSpaceOnUse" x1="149.253" x2="170.812" xlink:href="#a5" y1="19.5955" y2="66.3403"/><linearGradient id="cR" gradientUnits="userSpaceOnUse" x1="171.668" x2="196.767" xlink:href="#S" y1="43.7066" y2="66.0342"/><linearGradient id="cS" gradientUnits="userSpaceOnUse" x1="165.136" x2="203.506" xlink:href="#aL" y1="61.9327" y2="107.445"/><linearGradient id="cT" gradientUnits="userSpaceOnUse" x1="155.93" x2="190.767" xlink:href="#x" y1="22.4065" y2="69.4733"/><linearGradient id="cU" gradientUnits="userSpaceOnUse" x1="97.3349" x2="117.038" xlink:href="#d" y1="135.977" y2="163.277"/><linearGradient id="cV" gradientUnits="userSpaceOnUse" x1="97.3755" x2="113.754" xlink:href="#af" y1="145.713" y2="169.007"/><linearGradient id="cW" gradientUnits="userSpaceOnUse" x1="1.72356" x2="5.40592" xlink:href="#Z" y1="109.48" y2="130.386"/><linearGradient id="cX" gradientUnits="userSpaceOnUse" x1="6.99525" x2="5.97157" xlink:href="#cv" y1="126.607" y2="129.692"/><linearGradient id="cY" gradientUnits="userSpaceOnUse" x1="12.1226" x2="17.713" xlink:href="#Z" y1="129.714" y2="136.967"/><linearGradient id="cZ" gradientUnits="userSpaceOnUse" x1="20.2269" x2="48.1238" xlink:href="#bM" y1="119.62" y2="161.132"/><linearGradient id="c0" gradientUnits="userSpaceOnUse" x1="15.2637" x2="27.5224" xlink:href="#bM" y1="120.969" y2="134.287"/><linearGradient id="c1" gradientUnits="userSpaceOnUse" x1="-11.6555" x2="24.8124" xlink:href="#x" y1="41.0989" y2="125.647"/><linearGradient id="c2" gradientUnits="userSpaceOnUse" x1="-4.9647" x2="20.2925" xlink:href="#cv" y1="74.111" y2="134.814"/><linearGradient id="c3" gradientUnits="userSpaceOnUse" x1="-2.14812" x2="5.64788" y1="67.2578" y2="98.6068"><stop offset="0" stop-color="#17233d"/><stop offset="1" stop-color="#183255"/></linearGradient><linearGradient id="c4"><stop offset="0" stop-color="#36286f"/><stop offset="1" stop-color="#6d378c"/></linearGradient><linearGradient id="c5" gradientUnits="userSpaceOnUse" x1="15.0175" x2="3.43023" xlink:href="#c4" y1="101.384" y2="111.826"/><linearGradient id="c6" gradientUnits="userSpaceOnUse" x1="5.3012" x2="17.1234" xlink:href="#c4" y1="85.3485" y2="112.083"/><linearGradient id="c7" gradientUnits="userSpaceOnUse" x1="143.703" x2="121.582" xlink:href="#d" y1="141.401" y2="151.374"/><linearGradient id="c8" gradientUnits="userSpaceOnUse" x1="131.229" x2="136.15" xlink:href="#d" y1="144.625" y2="154.257"/><linearGradient id="c9" gradientUnits="userSpaceOnUse" x1="131.623" x2="138.226" xlink:href="#b" y1="148.936" y2="158.475"/><linearGradient id="da" gradientUnits="userSpaceOnUse" x1="118.182" x2="145.057" xlink:href="#d" y1="153.419" y2="153.419"/><linearGradient id="db" gradientUnits="userSpaceOnUse" x1="146.092" x2="153.65" xlink:href="#d" y1="124.575" y2="153.185"/><linearGradient id="dc" gradientUnits="userSpaceOnUse" x1="71.8386" x2="101.105" xlink:href="#s" y1="71.5564" y2="84.65"/><linearGradient id="dd" gradientUnits="userSpaceOnUse" x1="85.3924" x2="109.164" xlink:href="#x" y1="66.405" y2="109.472"/><linearGradient id="de" gradientUnits="userSpaceOnUse" x1="82.8692" x2="86.4882" xlink:href="#a1" y1="91.2673" y2="129.041"/><linearGradient id="df" gradientUnits="userSpaceOnUse" x1="28.015" x2="71.919" y1="39.8936" y2="76.9491"><stop offset="0" stop-color="#3c2870"/><stop offset="1" stop-color="#653186"/></linearGradient><linearGradient id="dg" gradientUnits="userSpaceOnUse" x1="369.088" x2="685.557" xlink:href="#aL" y1="-685.45" y2="-499.402"/><linearGradient id="dh" gradientUnits="userSpaceOnUse" x1="28.6475" x2="52.5543" xlink:href="#c4" y1="108.815" y2="161.018"/><linearGradient id="di" gradientUnits="userSpaceOnUse" x1="26.9915" x2="35.5614" y1="110.675" y2="121.746"><stop offset="0" stop-color="#0c0b0b"/><stop offset="1" stop-color="#0d0c0d"/></linearGradient><linearGradient id="dj" gradientUnits="userSpaceOnUse" x1="130.78" x2="132.056" xlink:href="#h" y1="103.19" y2="166.665"/><linearGradient id="dk" gradientUnits="userSpaceOnUse" x1="133.736" x2="130.308" xlink:href="#E" y1="112.061" y2="136.576"/><linearGradient id="dl" gradientUnits="userSpaceOnUse" x1="142.531" x2="141.759" xlink:href="#b" y1="136.923" y2="142.047"/><linearGradient id="dm" gradientUnits="userSpaceOnUse" x1="150.733" x2="155.354" xlink:href="#d" y1="127.074" y2="138.52"/><linearGradient id="dn" gradientUnits="userSpaceOnUse" x1="39.3239" x2="65.8443" xlink:href="#bM" y1="130.42" y2="166.648"/><linearGradient id="do" gradientUnits="userSpaceOnUse" x1="42.508" x2="26.0048" xlink:href="#bM" y1="138.285" y2="138.759"/><linearGradient id="dp" gradientUnits="userSpaceOnUse" x1="86.7529" x2="71.4075" xlink:href="#a1" y1="145.858" y2="161.765"/><linearGradient id="dq" gradientUnits="userSpaceOnUse" x1="259.419" x2="687.374" xlink:href="#a5" y1="-511.05" y2="-228.083"/><linearGradient id="dr"><stop offset="0" stop-color="#37297b"/><stop offset="1" stop-color="#5f2a7a"/></linearGradient><linearGradient id="ds" gradientUnits="userSpaceOnUse" x1="35.9338" x2="93.0544" xlink:href="#dr" y1="82.3155" y2="157.478"/><linearGradient id="dt" gradientUnits="userSpaceOnUse" x1="121.011" x2="132.118" xlink:href="#a1" y1="79.7717" y2="128.176"/><linearGradient id="du" gradientUnits="userSpaceOnUse" x1="110.323" x2="131.519" xlink:href="#aL" y1="92.2054" y2="92.2054"/><linearGradient id="dv" gradientUnits="userSpaceOnUse" x1="103.686" x2="113.762" xlink:href="#x" y1="79.2661" y2="109.39"/><linearGradient id="dw" gradientUnits="userSpaceOnUse" x1="93.4586" x2="99.5623" xlink:href="#a1" y1="100.735" y2="151.427"/><linearGradient id="dx" gradientUnits="userSpaceOnUse" x1="-1.53759" x2="-3.77587" xlink:href="#bw" y1="62.4397" y2="82.7938"/><linearGradient id="dy" gradientUnits="userSpaceOnUse" x1="2.41449" x2="9.85431" xlink:href="#a5" y1="56.9025" y2="79.4205"/><linearGradient id="dz" gradientUnits="userSpaceOnUse" x1="5.11762" x2="14.6345" xlink:href="#cE" y1="61.9568" y2="74.2703"/><linearGradient id="dA" gradientUnits="userSpaceOnUse" x1="72.0572" x2="105.928" xlink:href="#x" y1="148.597" y2="190.24"/><linearGradient id="dB" gradientUnits="userSpaceOnUse" x1="76.6829" x2="92.8095" xlink:href="#af" y1="149.854" y2="174.201"/><linearGradient id="dC" gradientUnits="userSpaceOnUse" x1="61.0234" x2="63.4027" xlink:href="#x" y1="168.438" y2="176.59"/><linearGradient id="dD" gradientUnits="userSpaceOnUse" x1="61.126" x2="44.0206" y1="169.473" y2="162.535"><stop offset="0" stop-color="#211c4e"/><stop offset="1" stop-color="#312d7d"/></linearGradient><linearGradient id="dE" gradientUnits="userSpaceOnUse" x1="35.9972" x2="55.5959" xlink:href="#a1" y1="152.318" y2="163.848"/><linearGradient id="dF" gradientUnits="userSpaceOnUse" x1="78.5503" x2="124.175" xlink:href="#aL" y1="122.732" y2="169.732"/><linearGradient id="dG" gradientUnits="userSpaceOnUse" x1="17.5023" x2="26.3124" xlink:href="#dr" y1="147.26" y2="140.087"/><linearGradient id="dH" gradientUnits="userSpaceOnUse" x1="40.0829" x2="64.4901" xlink:href="#bd" y1="129.791" y2="163.331"/><linearGradient id="dI" gradientUnits="userSpaceOnUse" x1="11.1967" x2="27.6347" xlink:href="#bM" y1="140.216" y2="140.216"/><linearGradient id="dJ" gradientUnits="userSpaceOnUse" x1="51.9271" x2="94.3505" xlink:href="#x" y1="118.279" y2="149.772"/><linearGradient id="dK" gradientUnits="userSpaceOnUse" x1="35.5515" x2="81.1132" y1="60.4574" y2="97.7826"><stop offset="0" stop-color="#3b2770"/><stop offset="1" stop-color="#272352"/></linearGradient><linearGradient id="dL" gradientUnits="userSpaceOnUse" x1="4.55193" x2="7.64123" xlink:href="#O" y1="58.1481" y2="63.3061"/><linearGradient id="dM"><stop offset="0" stop-color="#201a4b"/><stop offset="1" stop-color="#1e1648"/></linearGradient><linearGradient id="dN" gradientUnits="userSpaceOnUse" x1=".576673" x2="1.67366" xlink:href="#dM" y1="50.6919" y2="63.6784"/><linearGradient id="dO" gradientUnits="userSpaceOnUse" x1="3.41028" x2="2.85915" xlink:href="#dM" y1="55.8266" y2="59.8054"/><linearGradient id="dP" gradientUnits="userSpaceOnUse" x1="118.384" x2="122.277" xlink:href="#b" y1="81.4659" y2="126.574"/><linearGradient id="dQ" gradientUnits="userSpaceOnUse" x1="131.661" x2="136.77" xlink:href="#d" y1="96.6682" y2="128.58"/><linearGradient id="dR" gradientUnits="userSpaceOnUse" x1="91.8337" x2="131.654" xlink:href="#a1" y1="118.208" y2="118.208"/><linearGradient id="dS" gradientUnits="userSpaceOnUse" x1="139.231" x2="153.551" xlink:href="#b" y1="126.19" y2="127.709"/><linearGradient id="dT" gradientUnits="userSpaceOnUse" x1="108.751" x2="123.003" xlink:href="#d" y1="115.405" y2="151.61"/><linearGradient id="dU" gradientUnits="userSpaceOnUse" x1="123.395" x2="130.385" xlink:href="#d" y1="123.428" y2="158.506"/><linearGradient id="dV" gradientUnits="userSpaceOnUse" x1="10.7712" x2="16.5704" xlink:href="#x" y1="67.9788" y2="86.0553"/><linearGradient id="dW" gradientUnits="userSpaceOnUse" x1="5.89751" x2="10.6395" xlink:href="#x" y1="66.3392" y2="91.905"/><linearGradient id="dX" gradientUnits="userSpaceOnUse" x1="15.0779" x2="24.0388" xlink:href="#bw" y1="79.3097" y2="106.317"/><linearGradient id="dY" gradientUnits="userSpaceOnUse" x1=".76618" x2="6.1104" xlink:href="#bw" y1="76.8099" y2="106.669"/><linearGradient id="dZ" gradientUnits="userSpaceOnUse" x1="7.03173" x2="12.4022" xlink:href="#x" y1="87.9919" y2="118.748"/><linearGradient id="d0" gradientUnits="userSpaceOnUse" x1="20.6239" x2="24.1545" y1="107.233" y2="119.707"><stop offset="0" stop-color="#302861"/><stop offset="1" stop-color="#5f2a7a"/></linearGradient><linearGradient id="d1" gradientUnits="userSpaceOnUse" x1="20.9951" x2="17.6255" xlink:href="#bM" y1="107.303" y2="123.262"/><linearGradient id="d2" gradientUnits="userSpaceOnUse" x1="36.715" x2="64.8499" xlink:href="#dr" y1="89.7361" y2="113.39"/><linearGradient id="d3" gradientUnits="userSpaceOnUse" x1="18.1352" x2="34.7373" xlink:href="#c4" y1="123.555" y2="134.83"/><linearGradient id="d4" gradientUnits="userSpaceOnUse" x1="16.7601" x2="22.8028" xlink:href="#c4" y1="114.312" y2="140.516"/><linearGradient id="d5" gradientUnits="userSpaceOnUse" x1="6.14508" x2="5.15627" xlink:href="#v" y1="63.0696" y2="63.9162"/><linearGradient id="d6" gradientUnits="userSpaceOnUse" x1="3.02903" x2="14.7226" y1="64.556" y2="85.902"><stop offset="0" stop-color="#332c7e"/><stop offset="1" stop-color="#2a255b"/></linearGradient><linearGradient id="d7" gradientUnits="userSpaceOnUse" x1="3.88314" x2="5.01886" xlink:href="#v" y1="64.8619" y2="63.2051"/><linearGradient id="d8" gradientUnits="userSpaceOnUse" x1="6.33853" x2="3.97509" xlink:href="#a5" y1="101.871" y2="76.5299"/><linearGradient id="d9" gradientUnits="userSpaceOnUse" x1="5.2433" x2="11.5727" y1="57.9259" y2="62.8374"><stop offset="0" stop-color="#2d285f"/><stop offset="1" stop-color="#39287b"/></linearGradient><linearGradient id="ea" gradientUnits="userSpaceOnUse" x1="3.91774" x2="27.0726" xlink:href="#O" y1="47.0775" y2="78.4005"/><linearGradient id="eb" gradientUnits="userSpaceOnUse" x1="-1.41147" x2="14.3766" y1="74.1184" y2="109.557"><stop offset=".49" stop-color="#3c378b"/><stop offset="1" stop-color="#4a4999"/></linearGradient><linearGradient id="ec" gradientUnits="userSpaceOnUse" x1="4.24642" x2="5.32041" xlink:href="#cv" y1="81.457" y2="98.8486"/><path d="m120.883 11.3115c1.846 2.3639 3.358 5.239 4.618 8.4389-2.737-1.7203-5.567-3.2902-8.474-4.6976 1.36-1.5699 2.631-2.8511 3.856-3.7413z" fill="url(#a)"/><path d="m160.223 122.941c-4.208 10.358-10.185 19.789-17.598 27.434.943-.722 1.887-1.588 2.842-2.562 5.942-6.436 10.8-15.128 14.762-24.872z" fill="url(#c)"/><path d="m160.223 122.942s-1.067 2.622-1.582 3.879c-.498 1.221-.985 2.394-1.454 3.513-.855 2.057-1.611 3.831-2.285 5.251-2.538 4.162-5.726 8.282-9.435 12.222 5.942-6.436 10.8-15.127 14.762-24.871z" fill="url(#e)"/><path d="m12.1636 125.925c-.8322.247-1.6468.283-2.30897.036-2.78362-5.401-5.00466-11.109-6.60451-16.968 1.99835 6.25 5.01638 12.024 8.91348 16.932z" fill="url(#f)"/><path d="m118.181 164.564c-.169.229-.334.457-.492.674 9.183-3.146 17.727-8.571 24.9-15.458-7.067 6.712-15.447 11.951-24.408 14.778z" fill="url(#g)"/><path d="m159.901 123.633c.123-.222.322-.691.322-.691-4.055 9.984-10.097 19.181-17.634 26.838 6.915-7.525 12.741-16.487 17.312-26.153z" fill="url(#i)"/><path d="m160.223 122.941c-4.208 10.358-10.185 19.789-17.598 27.434-.071-.12-.071-.331-.036-.595 7.543-7.657 13.579-16.854 17.634-26.839z" fill="url(#j)"/><path d="m6.88351 53.4937c-7.172948 16.1258-8.42118 36.3057-3.63335 55.4993-3.990837-11.3563-3.809169-25.1664-1.06071-38.784.53328-5.6059 2.40856-11.4824 4.69406-16.7153z" fill="url(#k)"/><path d="m57.0355 9.1702c4.0905.63758 8.0344 2.8571 11.3455 6.1412 7.8762-4.4931 15.8988-8.084 23.8981-9.92455-11.9198-1.05861-23.9802.29473-35.2436 3.78335z" fill="url(#l)"/><path d="m158.828 124.325c.024.397.656.096 1.073-.692-.393.722-.909.632-.721-.277-.135.331-.246.656-.352.969z" fill="url(#m)"/><path d="m76.6382 159.644c12.5644 7.458 27.9008 9.293 41.5488 4.92-11.146 5.967-23.3527 9.492-35.3897 9.51-3.9029-.722-6.0829-6.984-6.1591-14.43z" fill="url(#n)"/><path d="m118.181 164.564c-.169.229-.334.457-.492.674-10.982 5.636-23.0072 8.854-34.8976 8.836 12.0369-.012 24.2496-3.543 35.3896-9.51z" fill="url(#o)"/><path d="m92.2791 5.38696c-7.9992 1.84055-16.0219 5.43144-23.8981 9.92454 2.7016.1022 5.4207.3368 8.134.7037 5.3153-4.4871 10.5661-8.21628 15.7582-10.62824z" fill="url(#p)"/><path d="m42.8245 17.8559c4.7233-2.3578 9.687-4.3307 14.8264-5.8825-2.3207.2286-4.6179.6075-6.8799 1.1368-2.7075 1.4857-5.3563 3.0736-7.9407 4.7457z" fill="url(#q)"/><path d="m57.6509 11.9793c6.9796-5.52765 13.6017-9.91249 19.7608-11.127493-8.6732 1.365373-17.7038 6.147193-26.6407 12.264293 2.2621-.5353 4.5593-.9082 6.8799-1.1368z" fill="url(#r)"/><path d="m110.323 76.7833c-10.742-2.8691-21.9116-4.848-33.1516-6.4539-.6094-5.8224-1.1896-11.5305-1.8284-17.0762 12.0428 6.8329 23.7458 14.9168 34.98 23.5301z" fill="url(#t)"/><path d="m159.766 94.0159c-3.299-1.7443-8.21-1.1188-13.385.9864-4.331-5.9426-9.318-11.9274-14.867-17.8461 12.47 1.7444 23.499 7.5728 28.246 16.8597z" fill="url(#u)"/><path d="m7.34058 57.0426c.32231 1.5218.84973 3.1578 1.5471 4.9022-.5743-.5835-1.07242-1.203-1.47092-1.8466-.04102-1.0827-.06446-2.1052-.07618-3.0616z" fill="url(#w)"/><path d="m76.5151 16.0153c-2.7192-.3669-5.4325-.6015-8.1341-.7038-1.8811 5.4435-4.0494 11.6207-6.3993 18.4957-2.5551 7.4524-5.2157 15.4041-7.8997 23.7828 3.8795-7.9938 7.7824-15.6807 11.6971-22.9407 3.692-6.8449 7.2667-13.1004 10.736-18.628z" fill="url(#y)"/><path d="m76.5151 16.0151c.8087 10.2313-.1231 22.8385-1.1721 37.2381-7.2667 1.2691-14.3634 2.7848-21.261 4.3367 3.8795-7.9938 7.7824-15.6808 11.6971-22.9407 3.692-6.8449 7.2667-13.1004 10.736-18.628z" fill="url(#z)"/><path d="m57.0355 9.17041c4.0905.63758 8.0344 2.85709 11.3455 6.14119-14.4456 3.0134-27.6956 8.3306-38.8418 14.9108 8.2981-7.6388 17.4284-15.1695 27.4963-21.04597z" fill="url(#B)"/><path d="m25.8766 139.681c-5.2567-3.831-9.9156-8.481-13.713-13.762 1.6467-2.213 3.5689-5.317 5.9012-9.155 1.9281 8.012 4.4363 15.777 7.8118 22.917z" fill="url(#C)"/><path d="m163.464 103.219c-.458-3.5188-1.694-6.7547-3.698-9.1968-1.366 6.2258-2.514 12.1378-3.171 17.5338-.568 4.619-.797 8.414-.14 11.025 1.148-5.823 3.733-12.74 7.014-19.362z" fill="url(#D)"/><path d="m163.464 103.219c-1.741 4.782-3.194 9.425-4.079 13.581-.692 3.266-1.131 5.979-.205 6.563-.891.18-1.887-.127-2.731-.776 1.149-5.823 3.733-12.74 7.015-19.362z" fill="url(#F)"/><path d="m159.766 94.0161c-3.3-1.7443-8.21-1.1188-13.385.9864 1.459 6.8325 2.942 12.9565 4.759 18.1165 1.523 4.325 3.164 7.79 5.309 9.456-.656-2.611-.428-6.406.141-11.026.656-5.395 1.805-11.314 3.17-17.5329z" fill="url(#G)"/><path d="m146.387 95.0085c1.049 11.6445 2.262 21.3705 5.725 27.1635 1.583.144 3.03.282 4.343.409-2.145-1.666-3.792-5.131-5.31-9.456-1.816-5.16-3.299-11.29-4.758-18.1165z" fill="url(#I)"/><path d="m152.106 122.172c1.378.361 2.684.637 3.898.8.152-.133.304-.265.445-.391-1.319-.127-2.766-.265-4.343-.409z" fill="url(#J)"/><path d="m156.004 122.972c1.06.481 2.18.637 3.176.384-.891.181-1.887-.126-2.731-.775-.147.126-.299.252-.445.391z" fill="url(#K)"/><path d="m152.106 122.172c1.378.361 2.684.637 3.898.8.181 1.311.703 2.321 1.383 2.369-1.811.806-4.067-.613-5.281-3.169z" fill="url(#L)"/><path d="m156.004 122.972c1.06.481 2.18.637 3.176.385-.551.463-1.143 1.142-1.793 1.985-.68-.049-1.208-1.059-1.383-2.37z" fill="url(#M)"/><path d="m159.18 123.357c-.135.331-.246.655-.352.968-.463.391-.943.734-1.436 1.017.651-.842 1.243-1.516 1.794-1.985z" fill="url(#N)"/><path d="m7.34062 57.0425c.00586.9563.0293 1.9789.07619 3.0615-.77356.7158-1.43577 1.2692-2.01593 1.582.61533-1.5158 1.26581-3.0616 1.9456-4.6435z" fill="url(#P)"/><path d="m8.88187 61.9447c-.5743-.5834-1.07243-1.203-1.47092-1.8466-.77356.7158-1.43577 1.2692-2.01593 1.582.63291.6917 1.99249.6917 3.48685.2586z" fill="url(#Q)"/><path d="m5.27196 58.5222c-.31645 1.5398-.56258 3.1819-.73839 4.9081.26957-.5533.56258-1.1368.86146-1.7443-.22269-.9804-.25785-2.057-.12307-3.1638z" fill="url(#R)"/><path d="m131.519 77.1624c-6.651-.9083-13.783-.9203-21.196-.3789 3.862-9.8404 7.817-19.1393 11.761-27.7045 3.593-7.7953 6.968-14.562 10.109-20.0836 1.196 14.1469-.093 30.6698-.674 48.167z" fill="url(#T)"/><path d="m42.8245 17.8558c2.5902-1.6661 5.2391-3.254 7.9406-4.7457-5.8543.1985-11.7732 2.4481-17.1471 5.9427 3.0943-1.618 6.4522-2.2616 9.2006-1.203z" fill="url(#U)"/><path d="m50.771 13.1161c8.9369-6.12312 17.9617-10.89892 26.6407-12.264293-15.6527 1.630023-31.0359 8.144123-43.7878 18.206993 5.368-3.4946 11.2927-5.7502 17.1471-5.9427z" fill="url(#V)"/><path d="m16.4358 37.2836c.1992-.8661-.2403-.9924-.8087-.1564 5.0515-7.3261 11.0641-14.0507 17.9968-18.0686-6.4814 5.3713-12.2831 11.5545-17.1881 18.225z" fill="url(#W)"/><path d="m77.4117.851838c-6.458-.060149-13.502 3.440502-20.3761 8.324572-6.3466-2.77285-15.3714 2.41199-23.4117 9.88839 12.7461-10.06884 28.1292-16.58293 43.7878-18.212962z" fill="url(#X)"/><path d="m57.0355 9.17041c-10.0738 5.87649-19.1982 13.40709-27.4963 21.04599 3.8443-5.4434 7.6652-10.4719 11.5447-14.7123 5.0339-2.6466 10.3961-4.7638 15.9516-6.33369z" fill="url(#Y)"/><path d="m22.1378 106.737c-1.4885 3.537-2.8481 6.887-4.0729 10.027-3.6802-3.134-6.9034-6.73-9.48189-10.7 3.62749 1.714 8.41529 1.738 13.56059.673z" fill="url(#aa)"/><path d="m18.0649 116.77c-2.3324 3.832-4.2604 6.935-5.9013 9.155-1.7991-6.316-2.9008-13.016-3.58059-19.855 2.57849 3.97 5.80169 7.567 9.48189 10.7z" fill="url(#ab)"/><path d="m12.1636 125.925c-3.8971-4.908-6.91513-10.683-8.91348-16.932 1.06071.68 3.1411-.734 5.33283-2.923.67979 6.839 1.78155 13.539 3.58065 19.855z" fill="url(#ac)"/><path d="m77.1714 70.3234c-8.5735-.403-16.9713-.5654-25.0819-.7819-1.1017 9.3291-2.1272 18.8386-2.8539 28.4022 8.9017-8.9321 18.1492-18.3874 27.9358-27.6203z" fill="url(#ad)"/><path d="m77.1714 70.3235c1.1604 13.1725 2.3969 26.4233 4.5241 39.2465-11.2048-3.326-22.1459-7.145-32.4599-11.6263 8.9017-8.932 18.1492-18.3874 27.9358-27.6202z" fill="url(#ae)"/><path d="m81.6955 109.576c-10.947 4.427-21.5716 8.722-31.9032 11.777-.5157-7.632-.6447-15.464-.5568-23.4094 10.3141 4.4814 21.2552 8.3004 32.46 11.6264z" fill="url(#ag)"/><path d="m159.18 123.357c-.194.908.328.998.721.276-.176.265-.34-.162 0-1.095.498-1.341 1.101-2.893 1.881-3.049-.323-.553-1.717 1.648-2.602 3.868z" fill="url(#ah)"/><path d="m141.171 48.1706c9.67 6.6164 17.528 14.9951 22.269 24.4144 4.524 9.0102 6.2 19.2716 4.776 29.028 2.878-19.284-3.287-41.4668-16.332-59.6557-3.13.8601-6.687 3.1458-10.713 6.2133z" fill="url(#ai)"/><path d="m141.171 48.1708c1.846-4.3487 3.37-8.1983 4.524-11.5185 2.192 1.6421 4.267 3.4105 6.189 5.3052-3.13.8601-6.687 3.1457-10.713 6.2133z" fill="url(#aj)"/><path d="m168.216 101.613c1.032-6.1535 1.477-12.2526.522-17.5998.258-16.6912-5.345-32.9314-16.854-42.0559 13.045 18.1889 19.21 40.3657 16.332 59.6557z" fill="url(#ak)"/><path d="m166.816 108.265c.299-1.407.533-2.767.668-4.054-.827 2.821-1.917 5.865-3.188 9.095 1.102-2.382 1.945-4.133 2.52-5.041z" fill="url(#am)"/><path d="m166.816 108.265c-1.032 2.671-2.884 6.508-5.028 11.224.902-2.063 1.734-4.126 2.508-6.183 1.102-2.382 1.945-4.133 2.52-5.041z" fill="url(#an)"/><path d="m167.478 104.211c1.324-6.5259 1.828-13.4069 1.26-20.2037.281 10.0088-1.231 20.0117-4.442 29.2987 1.271-3.23 2.361-6.274 3.188-9.095z" fill="url(#ao)"/><path d="m15.6271 37.1274c6.6631-9.6478 15.5296-17.2686 25.4511-21.6174-10.6892 6.3156-19.7667 14.2613-26.2247 23.1151.3458-.7278.5919-1.233.7677-1.4977z" fill="url(#ap)"/><path d="m15.627 37.1274c-1.9632 2.8511-3.7388 5.9548-5.3094 8.9081 1.2541-2.2436 2.7778-4.7398 4.5417-7.4104.3458-.7278.5919-1.233.7677-1.4977z" fill="url(#ar)"/><path d="m41.084 15.51c-3.8853 4.2405-7.7004 9.2689-11.5447 14.7124-5.2449-.1143-10.6422 3.1999-14.6741 8.4087 6.458-8.8598 15.5356-16.7995 26.2247-23.1151z" fill="url(#as)"/><path d="m29.5334 30.2223c-8.427 4.0961-15.3597 9.4554-19.2158 15.8191 1.2541-2.2435 2.7778-4.7397 4.5417-7.4103 4.0377-5.2089 9.4292-8.5171 14.6741-8.4088z" fill="url(#at)"/><path d="m25.8766 139.681c-5.2567-3.832-9.9156-8.481-13.713-13.762 1.2658 3.651 2.7484 7.182 4.4655 10.52 2.6078 1.901 5.8309 2.989 9.2475 3.242z" fill="url(#au)"/><path d="m12.1636 125.925c-.8322.246-1.6468.283-2.30899.036 1.98079 3.675 4.25459 7.182 6.77449 10.484-1.7229-3.338-3.1997-6.869-4.4655-10.52z" fill="url(#av)"/><path d="m142.589 149.786c-.035.265-.035.475.036.595-1.354 1.432-2.737 2.785-4.167 4.036 1.36-1.251 2.719-2.833 4.131-4.625z" fill="url(#aw)"/><path d="m142.625 150.375c.943-.722 1.887-1.588 2.842-2.562-2.186 2.303-4.524 4.529-7.009 6.598 1.43-1.251 2.813-2.598 4.167-4.036z" fill="url(#ax)"/><path d="m141.171 48.1708c1.846-4.3488 3.37-8.1983 4.524-11.5185-8.538-6.8028-18.969-11.717-30.239-14.6462 9.799 7.0915 18.443 16.1259 25.709 26.1647z" fill="url(#az)"/><path d="m145.695 36.6523c-7.149-12.4568-16.83-22.8625-28.252-28.92549.996 2.70669-.187 7.72309-1.987 14.27929 11.27 2.9292 21.701 7.8434 30.239 14.6462z" fill="url(#aB)"/><path d="m109.754 5.3689c2.62.63757 5.193 1.42552 7.695 2.35782.996 2.70668-.188 7.72308-1.987 14.27928-.656-7.302-2.367-13.40111-5.708-16.63109z" fill="url(#aC)"/><path d="m164.296 113.306c-.774 2.057-1.606 4.126-2.508 6.183 1.564-3.783 2.736-7.753 3.457-11.771-.117 1.81-.451 3.693-.943 5.588z" fill="url(#aD)"/><path d="m42.8245 17.8559c4.7233-2.3578 9.687-4.3307 14.8264-5.8825-1.6936 3.7533-3.733 8.096-6.0829 12.962-2.3031-3.7533-5.4266-6.3757-8.7377-7.0795z" fill="url(#aE)"/><path d="m117.689 165.238c9.183-3.146 17.727-8.571 24.9-15.458-1.898 2.309-3.756 4.336-5.643 5.894-6.054 4.83-12.652 8.517-19.251 9.558z" fill="url(#aF)"/><path d="m142.589 149.786c-1.418 1.792-2.771 3.38-4.131 4.625-.498.433-1.002.854-1.512 1.269 1.887-1.557 3.745-3.584 5.643-5.894z" fill="url(#aG)"/><path d="m138.458 154.411c2.485-2.075 4.823-4.294 7.009-6.598-2.62 2.773-5.468 5.413-8.521 7.867.51-.415 1.014-.836 1.512-1.269z" fill="url(#aH)"/><path d="m132.574 158.844c4.741-3.254 9.072-6.965 12.893-11.031-2.62 2.773-5.468 5.413-8.521 7.867-1.424 1.161-2.883 2.22-4.372 3.158z" fill="url(#aI)"/><path d="m57.1352 168.041c-9.5112-2.803-18.5067-7.519-26.2598-13.864 7.7531 6.682 16.7427 11.909 26.3653 15.277-.2345 0-.252-.643-.1055-1.413z" fill="url(#aJ)"/><path d="m161.776 64.9822c-.176 9.4313-1.19 19.2836-2.004 29.0337-.844-15.7348-2.514-32.3118-7.273-47.7339 3.85 5.8043 6.986 12.1079 9.277 18.7002z" fill="url(#aK)"/><path d="m132.193 28.9953c1.196 14.1469-.093 30.6698-.674 48.167 3.862-7.1396 7.695-13.6237 11.51-19.2536 3.352-4.9382 6.458-8.9621 9.47-11.6267-5.55-6.9712-12.506-12.8357-20.3-17.2927z" fill="url(#aM)"/><path d="m159.766 94.0161c-4.747-9.287-15.776-15.1154-28.247-16.8597 3.862-7.1396 7.695-13.6236 11.51-19.2535 3.352-4.9382 6.458-8.9622 9.47-11.6268 4.759 15.4161 6.423 31.9991 7.273 47.734z" fill="url(#aN)"/><path d="m149.54 33.8554c-4.771-3.5127-10.941-5.1487-17.347-4.86 7.794 4.457 14.751 10.3215 20.3 17.2927-.644-4.5412-1.547-8.7516-2.959-12.4327z" fill="url(#aO)"/><path d="m49.2355 97.9436c-.0879 7.9394.0469 15.7774.5568 23.4094-8.2689-1.966-16.0571-4.685-22.9429-8.396 6.9619-3.772 14.3635-9.041 22.3861-15.0074z" fill="url(#aP)"/><path d="m49.2355 97.9438c-9.8569 4.2762-18.9228 7.7112-27.0978 8.7942 1.4885 2.099 3.0649 4.174 4.7058 6.213 6.962-3.771 14.3635-9.04 22.3861-15.0072z" fill="url(#aQ)"/><path d="m76.6382 159.644c-6.9386 4.62-13.5489 8.06-19.4971 8.397 1.0314.632 2.0863 1.215 3.1646 1.738 4.8347-.559 10.2906-4.769 16.3325-10.135z" fill="url(#aR)"/><path d="m76.6381 159.644c.0762 7.441 2.2503 13.708 6.1591 14.43-7.6711-.277-15.2835-1.72-22.4917-4.295 4.8348-.559 10.2907-4.769 16.3326-10.135z" fill="url(#aS)"/><path d="m57.1352 168.041c-.1465.77-.1289 1.407.1055 1.413.9142.379 1.9749.481 3.0591.331-1.0783-.529-2.139-1.107-3.1646-1.738z" fill="url(#aT)"/><path d="m82.7913 174.074c-5.4324-.084-10.859-.728-16.1743-1.913-2.2151-.505-4.3366-1.305-6.3115-2.376 7.2082 2.575 14.8206 4.018 22.4917 4.295z" fill="url(#aU)"/><path d="m57.2407 169.448c3.0708 1.095 6.2002 1.997 9.3764 2.707-2.2151-.505-4.3366-1.305-6.3115-2.376-1.0841.156-2.1448.054-3.059-.331z" fill="url(#aV)"/><path d="m5.03174 58.0532c.45124-1.3714 1.09001-2.8932 1.84598-4.5593.37505-.8481 1.14861-2.436 1.14861-2.436s-1.17791 2.4179-1.68775 3.6029c-.48641 1.1488-.93179 2.2796-1.30684 3.3924z" fill="url(#aW)"/><path d="m120.883 11.3115c1.846 2.3639 3.358 5.239 4.618 8.4389 4.465-.7158 8.849-.3429 12.547 1.3052-5.257-4.0059-11.053-7.284-17.165-9.7441z" fill="url(#aX)"/><path d="m125.501 19.7504c2.403 2.8631 4.635 5.9607 6.698 9.2388 2.28-3.7894 4.132-6.6464 5.855-7.9336-3.704-1.6481-8.082-2.027-12.547-1.3052z" fill="url(#aY)"/><path d="m145.695 36.6523c2.192 1.6421 4.267 3.4104 6.189 5.3051-2.315-9.8463-7.085-18.0506-13.842-20.8956 4.448.7639 7.255 7.4404 7.653 15.5905z" fill="url(#aZ)"/><path d="m145.695 36.652c-7.149-12.4567-16.83-22.8625-28.252-28.92544 7.853 2.52024 14.95 7.18174 20.599 13.33494 4.448.7639 7.255 7.4404 7.653 15.5905z" fill="url(#a0)"/><path d="m117.449 7.72692c1.617-.31277 3.065 1.2932 3.434 3.59088 6.112 2.4601 11.908 5.7382 17.165 9.7441-5.65-6.1532-12.746-10.8148-20.599-13.33498z" fill="url(#a2)"/><path d="m149.54 33.8551c-4.771-3.5126-10.941-5.1487-17.347-4.86 2.28-3.7893 4.132-6.6464 5.855-7.9336 4.243 3.8375 8.093 8.1381 11.492 12.7936z" fill="url(#a3)"/><path d="m81.6955 109.576c3.0884 6.737 6.417 13.095 10.1383 18.851-8.1223 8.313-15.7172 16.264-23.0601 23.079 2.6547-12.457 7.2257-26.628 12.9218-41.93z" fill="url(#a4)"/><path d="m81.6955 109.576c-10.947 4.427-21.5716 8.722-31.9033 11.778 5.1571 11.386 11.3045 21.888 18.9814 30.152 2.6547-12.457 7.2257-26.628 12.9219-41.93z" fill="url(#a6)"/><path d="m91.8338 128.421c-6.1123 11.597-11.2283 22.171-15.1957 31.223-2.807-2.37-5.4324-5.107-7.8586-8.138 7.3429-6.815 14.9378-14.767 23.0601-23.079z" fill="url(#a7)"/><path d="m76.6382 159.644c-6.9386 4.62-13.5489 8.06-19.4971 8.397 1.342-1.275 2.8247-3.314 4.6062-5.883 2.1155-3.055 4.4479-6.634 7.0323-10.652 2.432 3.032 5.0574 5.774 7.8586 8.138z" fill="url(#a8)"/><path d="m25.8766 139.681c7.9992 12.216 18.7118 22.441 31.2586 28.354 1.342-1.275 2.8246-3.314 4.6061-5.883 2.1156-3.055 4.448-6.634 7.0324-10.652-15.6645-.222-30.9129-3.801-42.8971-11.819z" fill="url(#a9)"/><path d="m117.689 165.238c-10.982 5.636-23.0072 8.854-34.8976 8.836 10.5367.277 21.1206-1.516 30.9656-5.221 1.213-.686 2.491-1.991 3.932-3.615z" fill="url(#ba)"/><path d="m117.689 165.238c6.599-1.041 13.197-4.728 19.251-9.558-6.909 5.564-14.774 10.093-23.183 13.173 1.213-.686 2.491-1.991 3.932-3.615z" fill="url(#bb)"/><path d="m137.526 155.163c-.99 1.215-3.457 2.743-4.952 3.675-5.848 4.193-12.189 7.663-18.811 10.015 8.409-3.08 16.86-8.126 23.763-13.69z" fill="url(#bc)"/><path d="m51.568 24.9354c20.4992-5.9667 43.0787-7.7291 63.894-2.9352-12.13-8.1863-25.8317-13.35303-39.4626-14.26729-8.1165 4.59539-16.2212 10.67639-24.4314 17.19649z" fill="url(#be)"/><path d="m51.568 24.9354c2.35-4.86 4.3893-9.2027 6.0829-12.962 5.9541-1.9609 12.1073-3.39841 18.3485-4.24049-8.1165 4.59539-16.2212 10.67639-24.4314 17.19649z" fill="url(#bf)"/><path d="m115.462 21.9998c-.656-7.302-2.367-13.40109-5.708-16.63107-10.5773-1.99694-22.2158-.86013-33.7546 2.36985 13.6309.91426 27.3326 6.08102 39.4626 14.26722z" fill="url(#bg)"/><path d="m57.6509 11.9791c6.9795-5.5277 13.6016-9.91253 19.7608-11.127537.668.854107-.2813 3.428467-1.4124 6.887017-6.2353.84208-12.3885 2.27962-18.3484 4.24052z" fill="url(#bh)"/><path d="m109.754 5.36897c-10.3663-3.81944-21.4715-5.3532267-32.3423-4.517161.6681.854111-.2813 3.428471-1.4123 6.887021 11.5447-3.22998 23.1773-4.36078 33.7546-2.36986z" fill="url(#bi)"/><path d="m42.8244 17.8558c-2.7484-1.0646-6.1122-.415-9.2006 1.203-2.3968 2.8811-4.8874 6.3697-7.548 10.1651 5.0515-4.2585 10.6832-8.078 16.7486-11.3681z" fill="url(#bj)"/><path d="m16.4358 37.2839c4.905-6.6705 10.7008-12.8538 17.1881-18.2251-2.3968 2.8812-4.8874 6.3698-7.548 10.1652-3.4751 1.648-6.7158 4.5231-9.6401 8.0599z" fill="url(#bk)"/><path d="m161.776 64.9822c-.176 9.4313-1.19 19.2836-2.004 29.0337 2.309.6496 4.09 2.7127 4.864 5.251.75-11.3019-.17-22.9708-2.86-34.2847z" fill="url(#bl)"/><path d="m163.464 103.219c-.457-3.519-1.694-6.755-3.698-9.197 2.309.6496 4.09 2.7127 4.864 5.2509-.399 1.3111-.785 2.6281-1.166 3.9461z" fill="url(#bm)"/><path d="m51.568 24.9353c20.4992-5.9667 43.0787-7.7291 63.894-2.9352 6.113 7.4343 11.199 16.3544 15.489 26.0143-4.671-2.827-11.187-6.5683-19.192-10.508-3.546-1.7443-12.1135-5.9607-19.3568-8.511-7.9113-2.7849-21.5481-6.1472-40.8342-4.0601z" fill="url(#bn)"/><path d="m141.171 48.1708c-7.272-10.0388-15.916-19.0732-25.709-26.1647 6.113 7.4344 11.199 16.3544 15.489 26.0143 3.563-.2045 6.979-.1744 10.22.1504z" fill="url(#bo)"/><path d="m8.88187 61.9447c-1.49436.433-2.85394.433-3.48685-.2587.60947 1.5398 2.44373 2.4842 4.6003 2.6285-.40436-.806-.77941-1.5939-1.11345-2.3698z" fill="url(#bp)"/><path d="m51.5679 24.9352c-2.3031-3.7533-5.4266-6.3757-8.7376-7.0795-6.1299 5.8104-11.9315 11.9997-17.4753 17.8942 7.589-4.4089 16.4673-8.0599 26.2129-10.8147z" fill="url(#bq)"/><path d="m26.0759 29.2238c5.0516-4.2585 10.6833-8.078 16.7486-11.3681-6.1298 5.8104-11.9315 11.9997-17.4753 17.8942.5157-2.6405.8088-4.8359.7267-6.5261z" fill="url(#br)"/><path d="m26.0759 29.2239c-3.4751 1.648-6.7158 4.5232-9.6401 8.0599 3.0063-3.2901 7.2257-4.2465 8.9134-1.5338.5157-2.6405.8088-4.8359.7267-6.5261z" fill="url(#bs)"/><path d="m130.951 48.0202c-18.753-22.9888-52.8653-26.0985-79.383-23.085-9.7456 2.7548-18.6239 6.4058-26.2129 10.8147 13.6603-6.7246 31.4227-8.7817 50.0407-6.7366 19.5733 2.1593 38.9942 8.6854 55.5552 19.0009z" fill="url(#bt)"/><path d="m75.343 53.2532c-7.2667 1.2691-14.3634 2.7849-21.261 4.3367.0469 2.3999.0879 4.8359.129 7.302 6.8565-3.9277 13.8946-7.8975 21.132-11.6387z" fill="url(#bu)"/><path d="m75.343 53.2532c.6388 5.5457 1.219 11.2538 1.8284 17.0762-7.8117-2.009-15.5004-3.7894-22.9605-5.4375 6.8565-3.9277 13.8947-7.8975 21.1321-11.6387z" fill="url(#bv)"/><path d="m54.0761 57.584c-.6622 3.9157-1.3303 7.9035-1.9925 11.9575.7032-1.5518 1.4123-3.1036 2.1214-4.6555-.041-2.4721-.082-4.9081-.1289-7.302z" fill="url(#bx)"/><path d="m77.1714 70.3234c-8.5736-.403-16.9713-.5654-25.0819-.7819.7032-1.5518 1.4123-3.1037 2.1214-4.6555 7.4601 1.6481 15.1487 3.4285 22.9605 5.4374z" fill="url(#by)"/><path d="m49.7923 121.354c-8.2689-1.967-16.0571-4.686-22.9429-8.397 4.4362 5.967 9.4115 11.657 14.8909 16.902 2.5961-2.641 5.2801-5.492 8.0578-8.505z" fill="url(#bz)"/><path d="m49.7923 121.354c5.1571 11.386 11.3045 21.888 18.9814 30.152-9.9683-5.498-19.0517-13.01-27.0392-21.647 2.5961-2.641 5.2801-5.492 8.0578-8.505z" fill="url(#bA)"/><path d="m68.7737 151.506c-15.6645-.222-30.9129-3.801-42.8971-11.819 4.8347-1.6 10.0855-5.221 15.8637-9.828 7.9875 8.637 17.0709 16.15 27.0392 21.647z" fill="url(#bB)"/><path d="m54.0762 57.584c-.6622 3.9157-1.3303 7.9035-1.9925 11.9575-12.9218 4.1924-24.3376 7.9397-34.0188 8.6193 10.443-4.463 22.2749-12.2883 36.0113-20.5768z" fill="url(#bC)"/><path d="m52.0896 69.5415c-1.1017 9.3291-2.1273 18.8386-2.854 28.4022-12.1659-5.9006-22.9253-12.3966-31.1707-19.7829 9.687-.6737 21.097-4.4269 34.0188-8.6193z" fill="url(#bD)"/><path d="m49.2356 97.9438c-9.8569 4.2762-18.9227 7.7112-27.0978 8.7942-1.8753-9.8408-3.0825-19.4706-4.0729-28.5771 8.2454 7.3923 19.0048 13.8883 31.1707 19.7829z" fill="url(#bE)"/><path d="m92.2791 5.38696c-5.198 2.41196-10.443 6.14114-15.7582 10.62824 9.3588 1.7864 18.6121 5.2751 27.3561 10.0809-2.796-8.6914-6.4292-16.17393-11.5979-20.70312z" fill="url(#bF)"/><path d="m125.501 19.7505c2.403 2.8631 4.635 5.9607 6.698 9.2388-8.72-2.8811-18.424-3.663-28.317-2.8991 7.408-3.6029 14.745-5.9969 21.625-6.3397z" fill="url(#bG)"/><path d="m132.193 28.9952c-3.147 5.5157-6.516 12.2884-10.109 20.0837-3.944 8.5651-7.899 17.8641-11.761 27.7044-1.881-18.1528-3.047-35.5839-6.446-50.6872 9.892-.7639 19.596.018 28.316 2.8991z" fill="url(#bH)"/><path d="m76.5151 16.0151c.8087 10.2313-.1231 22.8385-1.1721 37.2381 9.4819-10.4839 18.9169-19.9393 28.534-27.1572-8.7439-4.8058-18.0031-8.2884-27.3561-10.0809z" fill="url(#bI)"/><path d="m75.343 53.2533c12.0428 6.8329 23.7458 14.9169 34.98 23.5302-1.881-18.1529-3.047-35.584-6.446-50.6873-9.6171 7.2178-19.0521 16.6732-28.534 27.1571z" fill="url(#bJ)"/><path d="m8.02631 51.0576s-.77355 1.5879-1.14861 2.436c-2.16243 5.0285-4.6882 10.6343-3.00045 13.2267-.70909-1.4856-.07032-4.0901.76769-6.9772.45124-1.5639.99625-3.1217 1.59399-4.6435.57431-1.4736 1.78738-4.036 1.78738-4.036z" fill="url(#bK)"/><path d="m6.88352 53.4939c-2.2855 5.2329-4.15492 11.1095-4.69407 16.7153.48054-.9022 1.03727-2.0811 1.68776-3.4886-1.68776-2.5864.83801-8.1983 3.00045-13.2267z" fill="url(#bL)"/><path d="m37.8608 136.036c-2.391-3.579-4.6237-7.308-6.7276-11.122-2.0042 5.738-3.7798 10.707-5.2215 14.869 3.6861-.277 7.7297-1.63 11.9491-3.747z" fill="url(#bN)"/><path d="m20.8954 115.194c3.0883 3.471 6.5225 6.719 10.2379 9.714-2.0043 5.738-3.7799 10.707-5.2215 14.869-2.3324-7.476-3.8444-15.807-5.0164-24.589z" fill="url(#bO)"/><path d="m166.816 108.265c.598-2.171 1.066-4.397 1.406-6.658-.07.571-.181 1.185-.334 1.84-.316 1.654-.674 3.26-1.066 4.818z" fill="url(#bP)"/><path d="m166.816 108.265c.299-1.407.533-2.767.668-4.054.17-.355.305-.613.404-.764-.316 1.654-.674 3.26-1.066 4.818z" fill="url(#bQ)"/><path d="m168.216 101.613c1.032-6.1535 1.477-12.2526.522-17.5998.826 6.2975.322 12.9921-.856 19.4398.153-.655.27-1.269.334-1.84z" fill="url(#bR)"/><path d="m167.478 104.211c1.324-6.5259 1.828-13.4069 1.26-20.2037.826 6.2976.322 12.9921-.856 19.4397-.099.151-.234.409-.404.764z" fill="url(#bS)"/><path d="m30.8812 154.177c7.7531 6.682 16.7428 11.909 26.3653 15.278-8.5911-3.074-16.7076-7.706-23.8688-13.63-.9611-.229-1.8343-.824-2.4965-1.642z" fill="url(#bT)"/><path d="m25.9117 139.783c8.2278 7.982 18.1492 14.321 28.9087 18.688-7.8879 1.492-15.5414.71-21.4427-2.646-3.3989-3.904-5.743-9.546-7.466-16.036z" fill="url(#bU)"/><path d="m164.636 99.2668c-.399 1.3112-.786 2.6282-1.167 3.9462 1.09 4.457.282 9.96-1.582 15.482 2.274-6.544 3.341-13.257 2.749-19.4282z" fill="url(#bV)"/><path d="m163.464 103.219c-1.741 4.782-3.194 9.425-4.079 13.581-.692 3.266-1.131 5.979-.205 6.563.744-2.04 1.611-4.103 2.701-4.662 1.864-5.522 2.679-11.025 1.583-15.482z" fill="url(#bW)"/><path d="m161.782 119.489c-.323-.553-1.717 1.648-2.602 3.868.744-2.039 1.611-4.103 2.701-4.662 0 .241-.029.511-.099.794z" fill="url(#bX)"/><path d="m161.782 119.489c1.564-3.783 2.736-7.753 3.457-11.771-.926 3.723-2.045 7.392-3.358 10.977 0 .241-.029.511-.099.794z" fill="url(#bY)"/><path d="m165.239 107.718c.369-3.128.287-6.087-.609-8.4509.586 6.1709-.475 12.8839-2.749 19.4279 1.313-3.585 2.432-7.254 3.358-10.977z" fill="url(#bZ)"/><path d="m82.7914 174.074c10.5367.277 21.1206-1.516 30.9656-5.221-5.884 2.412-12.072 3.525-17.95 2.809-4.5065 1.877-8.9838 2.821-13.0215 2.406z" fill="url(#b0)"/><path d="m68.3811 15.3115c-14.4456 3.0135-27.6956 8.3306-38.8418 14.9109 1.0607.8601 2.0042 2.0992 2.8481 3.5908 10.7067-6.8328 22.7612-13.5274 35.9937-18.4957z" fill="url(#b1)"/><path d="m68.381 15.3115c-1.8811 5.4435-4.0494 11.6207-6.3994 18.4957-2.5551 7.4524-5.2156 15.4041-7.8996 23.7828-7.0382-10.9591-13.9181-20.1438-21.6888-23.7768 10.7067-6.8328 22.7612-13.5274 35.9937-18.4957z" fill="url(#b2)"/><path d="m113.763 168.853c-5.884 2.412-12.072 3.525-17.9501 2.809 8.2341-1.871 16.2741-4.998 23.8861-8.944-2.356 3.446-4.319 5.991-5.936 6.129z" fill="url(#b3)"/><path d="m113.763 168.853c6.622-2.352 12.969-5.823 18.811-10.015-4.102 2.556-8.573 4.03-12.881 3.88-2.355 3.446-4.319 5.991-5.936 6.129z" fill="url(#b4)"/><path d="m95.8129 171.668c-14.0001.24-28.4398-4.614-40.9925-13.197 20.8977 9.395 44.7079 10.917 64.8786 4.253-7.606 3.945-15.652 7.067-23.8861 8.944z" fill="url(#b5)"/><path d="m132.574 158.844c4.741-3.254 9.072-6.965 12.893-11.031-7.068 7.591-16.098 12.968-25.768 14.911 4.308.15 8.779-1.329 12.881-3.88z" fill="url(#b6)"/><path d="m145.467 147.813c3.709-3.94 6.897-8.06 9.435-12.222-7.279 12.421-20.124 22.165-35.203 27.133 9.717-1.823 18.941-6.695 25.768-14.911z" fill="url(#b7)"/><path d="m152.106 122.172c1.214 2.556 3.47 3.969 5.281 3.169-3.265 2.485-7.25 4.8-11.791 6.984 2.15-3.681 4.319-7.11 6.505-10.153z" fill="url(#b8)"/><path d="m3.25012 108.993c1.60571 5.865 3.82089 11.567 6.60451 16.968-.04688.62-.04688 1.167.02344 1.618-2.89497-5.9-5.09842-12.168-6.62795-18.586z" fill="url(#b9)"/><path d="m16.6291 136.445c-2.5199-3.302-4.7936-6.809-6.7744-10.484-.04689.619-.04689 1.167.02344 1.618 1.88696 3.32 4.15496 6.322 6.75096 8.866z" fill="url(#ca)"/><path d="m120.883 11.3116c-9.025-3.69312-18.782-5.63592-28.6038-5.92464 7.9288 1.97288 15.5998 5.37734 22.6618 9.90644 2.068-1.8044 4.049-3.1999 5.942-3.9818z" fill="url(#cb)"/><path d="m120.883 11.3118c-1.225.8902-2.496 2.1713-3.856 3.7412-.691.0662-1.389.1444-2.086.2406 2.068-1.8045 4.049-3.1999 5.942-3.9818z" fill="url(#cc)"/><path d="m92.2792 5.38696c5.1687 4.5292 8.8018 12.01164 11.5978 20.70314 3.803-4.3547 7.471-8.0539 11.064-10.7967-7.062-4.5291-14.733-7.93356-22.6618-9.90644z" fill="url(#cd)"/><path d="m125.501 19.7506c-2.737-1.7203-5.567-3.2901-8.474-4.6976-.692.0661-1.389.1443-2.086.2406 3.621 1.245 7.155 2.7307 10.56 4.457z" fill="url(#ce)"/><path d="m125.501 19.7505c-6.88.3488-14.217 2.7428-21.624 6.3396 3.803-4.3547 7.471-8.0539 11.064-10.7966 3.621 1.245 7.155 2.7307 10.56 4.457z" fill="url(#cf)"/><path d="m157.393 125.341c.492-.282.972-.625 1.435-1.016-3.92 3.825-8.901 8.372-14.809 13.425 5.181-4.866 9.635-9.119 13.368-12.409z" fill="url(#cg)"/><path d="m157.392 125.341c-3.264 2.484-7.249 4.8-11.79 6.984-.616 1.888-1.149 3.705-1.583 5.425 5.181-4.866 9.635-9.119 13.368-12.409z" fill="url(#ch)"/><path d="m158.828 124.325c-3.451 3.542-7.571 8.415-12.388 14.056-.844.025-1.688-.186-2.421-.631 5.908-5.053 10.889-9.6 14.809-13.425z" fill="url(#ci)"/><path d="m91.8337 128.421c-6.1122 11.597-11.2282 22.171-15.1956 31.223 14.8205-.487 29.5419-4.006 43.1489-9.467-10.378-2.123-20.0888-10.634-27.9533-21.756z" fill="url(#cj)"/><path d="m145.602 132.325c-.616 1.888-1.149 3.705-1.583 5.425-7.173 4.89-15.365 9.077-24.238 12.427 9.494-6.183 18.091-12.415 25.815-17.852z" fill="url(#ck)"/><path d="m144.025 137.75c.733.445 1.577.656 2.421.632-7.642 5.93-16.878 9.924-26.659 11.795 8.873-3.351 17.059-7.537 24.238-12.427z" fill="url(#cl)"/><path d="m10.3176 46.0354c.9611.9263-1.31853 5.0525-2.97699 11.0072-.56258-.1624-.9728-.6255-1.0607-1.1849 1.58813-4.1623 2.98287-7.5126 4.03769-9.8163z" fill="url(#cm)"/><path d="m7.34062 57.0425c-.67392 1.5819-1.33027 3.1277-1.9456 4.6435.24613-2.1714.53914-4.1202.8849-5.8344.08204.5654.49812 1.0225 1.0607 1.1849z" fill="url(#cn)"/><path d="m5.39505 61.6863c-.22269-.9804-.25785-2.0571-.12307-3.1638.33404-.8962.67393-1.7864 1.00797-2.6646-.34576 1.7082-.63877 3.6631-.8849 5.8344z" fill="url(#co)"/><path d="m5.27191 58.5224c-.11721-.403.00586-1.0165.24613-1.7563-.01758.0842.32231-.2286.76769-.9143-.33403.8842-.67979 1.7744-1.00796 2.6646z" fill="url(#cp)"/><path d="m10.3176 46.0353c-1.05485 2.3037-2.44959 5.66-4.03772 9.8163-.28715.1985.05274-1.4616 1.23651-3.8014-.27543.5173-.32817.403 0-.3308.60947-1.3895 1.55883-3.3323 2.80711-5.6901z" fill="url(#cq)"/><path d="m10.3177 46.0354c-1.38892 2.6225-2.39103 4.6675-2.93017 5.9788-.18167.4391.63877-.9564.63877-.9564s-.35748.6977-.50984.9985c-.27544.5173-.32818.403 0-.3308.60946-1.3895 1.55882-3.3323 2.80704-5.6901z" fill="url(#cr)"/><path d="m6.27994 55.8515c-.44538.6857-.78527.9985-.76769.9143.46296-1.4376 1.14275-3.0074 2.00421-4.7096-1.18378 2.3397-1.52367 3.9998-1.23652 3.8013z" fill="url(#cs)"/><path d="m5.51216 56.766c-.16995.4512-.33403.9143-.49812 1.3774.66807-2.0691 1.50608-4.1081 2.50233-6.087-.8556 1.7022-1.54125 3.2781-2.00421 4.7096z" fill="url(#ct)"/><path d="m5.01404 58.1434s0-.0541.01758-.0902c.72081-2.1112 1.54125-4.1202 2.48475-5.9968-.99039 1.9849-1.8284 4.0179-2.50233 6.087z" fill="url(#cu)"/><path d="m5.03174 58.0532c.37505-1.1128.82043-2.2436 1.30684-3.3924.50984-1.185 1.68775-3.6029 1.68775-3.6029s-.35748.6977-.50984.9984c-.93764 1.8767-1.76394 3.8856-2.48475 5.9969z" fill="url(#cw)"/><path d="m16.6291 136.445c-2.5961-2.545-4.864-5.546-6.75105-8.866.39265.956.83215 1.864 1.31855 2.719 1.4065 2.58 3.2466 4.739 5.4383 6.141z" fill="url(#cx)"/><path d="m29.5334 30.2222c-8.427 4.0961-15.3597 9.4553-19.2158 15.8191.7912-1.1729 2.0218-1.1128 2.4731.1082.7735 2.0872 1.0314 5.3533 1.2833 9.5276 4.7703-8.3727 9.9215-17.0822 15.4594-25.4549z" fill="url(#cy)"/><path d="m29.5333 30.2224c1.0607.8601 2.0042 2.0992 2.8481 3.5909-6.9503 7.9276-12.9922 15.4522-18.3074 21.864 4.7702-8.3727 9.9214-17.0822 15.4593-25.4549z" fill="url(#cz)"/><path d="m10.3176 46.0356c.9611.9263-1.31857 5.0525-2.97702 11.0072 1.5178.4451 3.86772-.2767 6.73932-1.3714-.2579-4.1743-.5099-7.4404-1.2834-9.5275-.4513-1.221-1.6878-1.2812-2.4731-.1083z" fill="url(#cA)"/><path d="m32.3874 33.8071c7.7707 3.633 14.6506 12.8177 21.6888 23.7768-8.4446-.3729-16.3384-.5474-23.5465-.794-6.417-.2225-11.9549-.4631-16.4497-1.1187 5.3152-6.4119 11.3571-13.9365 18.3074-21.8641z" fill="url(#cB)"/><path d="m54.0762 57.5839c-13.7364 8.2885-25.5683 16.1138-36.0113 20.5768-1.5412-8.6915-2.6957-16.2942-3.9849-22.4896 4.5006.6557 10.0327.8963 16.4497 1.1188 7.2081.2466 15.1019.415 23.5465.794z" fill="url(#cC)"/><path d="m7.34058 57.0425c.32231 1.5218.84973 3.1578 1.5471 4.9021 1.57052-1.8164 3.29342-3.9277 5.19802-6.2735-2.8715 1.0947-5.22732 1.8165-6.73926 1.3714z" fill="url(#cD)"/><path d="m13.1892 67.0153c-1.1838-.8602-2.2562-1.7564-3.19384-2.6947 1.30684-2.821 2.66644-5.7141 4.08464-8.6434-.252 3.4706-.5685 7.26-.8908 11.3381z" fill="url(#cF)"/><path d="m13.1892 67.0152c1.4241 3.4886 3.0473 7.2178 4.8757 11.1455-1.5412-8.6915-2.6957-16.2942-3.9849-22.4896-.252 3.4706-.5685 7.26-.8908 11.3381z" fill="url(#cG)"/><path d="m8.88184 61.9449c.33403.7759.70909 1.5639 1.11344 2.3698 1.30682-2.8209 2.66642-5.7141 4.08462-8.6433-1.8987 2.3458-3.6217 4.457-5.19806 6.2735z" fill="url(#cH)"/><path d="m161.776 64.9822c2.69 11.3139 3.61 22.9828 2.86 34.2847.914-.6737 1.887-.9624 2.438-.5714 1.189-11.6568-.557-23.5241-5.298-33.7133z" fill="url(#cI)"/><path d="m164.296 113.306c3.211-9.287 4.723-19.2899 4.442-29.2987-.164 4.7939-.756 9.72-1.664 14.6883-.293 4.9384-1.266 9.8824-2.778 14.6044z" fill="url(#cJ)"/><path d="m164.296 113.306c.498-1.895.826-3.778.943-5.588.739-2.984 1.354-5.991 1.829-9.0224-.293 4.9384-1.266 9.8824-2.778 14.6044z" fill="url(#cK)"/><path d="m165.239 107.718c.37-3.128.288-6.087-.609-8.4511.914-.6737 1.887-.9624 2.438-.5714-.475 3.0315-1.09 6.0385-1.829 9.0225z" fill="url(#cL)"/><path d="m141.171 48.1707c9.67 6.6163 17.528 14.995 22.269 24.4143 4.524 9.0102 6.2 19.2716 4.776 29.028-.48 3.067-1.113 5.978-1.887 8.697 2.942-9.894 2.151-21.2503-2.027-31.7282-4.483-11.2117-12.658-21.7197-23.137-30.4111z" fill="url(#cM)"/><path d="m166.816 108.265c.597-2.171 1.066-4.397 1.406-6.658-.48 3.067-1.113 5.978-1.887 8.697.17-.686.334-1.365.481-2.039z" fill="url(#cN)"/><path d="m166.816 108.265c-1.032 2.671-2.884 6.508-5.028 11.224 2.027-4.385 3.639-7.639 4.547-9.185.17-.686.334-1.365.481-2.039z" fill="url(#cO)"/><path d="m130.951 48.0202c3.563-.2045 6.979-.1744 10.22.1504 10.484 8.6915 18.653 19.1934 23.136 30.4112 4.179 10.4778 4.964 21.8342 2.028 31.7282 3.194-10.7123 1.553-23.0308-4.354-33.5147-6.446-11.4342-17.569-21.3046-31.036-28.7691z" fill="url(#cP)"/><path d="m161.776 64.9822c-2.291-6.5923-5.427-12.8899-9.277-18.7002 5.55 4.6555 9.828 11.0312 12.559 18.1769-.909-.3368-2.092-.0842-3.282.5233z" fill="url(#cQ)"/><path d="m168.738 84.0073c-.164 4.7938-.756 9.72-1.664 14.6883 1.529-11.3982.843-23.1211-2.016-34.2366 2.115 6.2554 3.328 12.8718 3.68 19.5483z" fill="url(#cR)"/><path d="m167.074 98.7014c1.189-11.6568-.557-23.5241-5.298-33.7133 1.19-.6075 2.373-.8541 3.282-.5233 2.859 11.1155 3.545 22.8445 2.016 34.2366z" fill="url(#cS)"/><path d="m149.54 33.8552c1.412 3.6811 2.314 7.8915 2.959 12.4327 5.55 4.6556 9.828 11.0313 12.559 18.177-3.054-11.1335-8.381-21.6415-15.518-30.6097z" fill="url(#cT)"/><path d="m119.787 150.177c-13.607 5.461-28.3341 8.98-43.1488 9.467 13.9532 5.023 29.3008 5.564 43.0258.987-.621-2.719-.451-6.292.129-10.454z" fill="url(#cU)"/><path d="m76.6382 159.644c12.5644 7.458 27.9008 9.293 41.5488 4.92.387-1.143.879-2.46 1.477-3.928-13.725 4.572-29.0726 4.036-43.0258-.986z" fill="url(#cV)"/><path d="m3.25012 108.993c1.52953 6.418 3.73298 12.691 6.62795 18.586.23443 1.034 1.03723 1.702 1.86353 1.473-4.4772-5.106-7.09674-12.312-8.49148-20.065z" fill="url(#cW)"/><path d="m9.87805 127.579c.39265.956.83215 1.864 1.31855 2.719.0821-.151.2579-.572.545-1.246-.8204.223-1.6291-.439-1.86355-1.473z" fill="url(#cX)"/><path d="m11.1967 130.298c5.532 9.936 13.1211 18.736 22.181 25.521-8.8079-7.248-16.2094-16.439-21.636-26.76-.2931.673-.463 1.094-.545 1.245z" fill="url(#cY)"/><path d="m33.3719 155.819c-3.3989-3.904-5.743-9.546-7.466-16.036-5.6199-2.231-10.5074-5.997-14.1701-10.724 5.4266 10.327 12.8281 19.518 21.6361 26.76z" fill="url(#cZ)"/><path d="m25.9118 139.783c-2.3324-7.476-3.8443-15.807-5.0164-24.589-2.0159 3.669-3.8619 6.821-5.5672 9.396-1.3889 2.087-2.5317 3.663-3.5865 4.463 3.6627 4.727 8.5501 8.493 14.1701 10.724z" fill="url(#c0)"/><path d="m3.25016 108.993c-3.990837-11.356-3.809169-25.1661-1.06071-38.7838-1.07829 6.454-1.289256 12.956-.47468 19.1935-.744253 7.9937-.966943 15.1693 1.52953 19.5903z" fill="url(#c1)"/><path d="m3.25022 108.993c1.39474 7.753 4.01428 14.959 8.49148 20.066-6.06533-12.199-9.45256-25.912-10.02687-39.6564-.744247 7.9937-.966937 15.1694 1.52953 19.5904z" fill="url(#c2)"/><path d="m2.18939 70.2093c.48054-.9022 1.03727-2.0811 1.68776-3.4886-1.31856 7.2118-2.09211 14.8687-2.16244 22.6821-.820433-6.2375-.6036-12.7455.47468-19.1935z" fill="url(#c3)"/><path d="m11.7416 129.059c1.0549-.8 2.1976-2.376 3.5865-4.463 1.6995-2.575 3.5513-5.727 5.5672-9.396-10.2964-4.39-17.3639-14.507-19.17472-25.7913.57431 13.7443 3.96153 27.4583 10.02102 39.6563z" fill="url(#c5)"/><path d="m3.87715 66.7205c-2.18587 17.1904 4.30729 35.4815 17.01815 48.4795-10.2964-4.391-17.3639-14.508-19.17472-25.7915.07032-7.8133.84388-15.4702 2.16244-22.682z" fill="url(#c6)"/><path d="m119.787 150.177c9.781-1.871 19.017-5.865 26.659-11.795-.528 1.353-.997 2.652-1.389 3.891-7.378 5.793-16.503 8.74-25.27 7.904z" fill="url(#c7)"/><path d="m119.787 150.177c-.574 4.162-.75 7.735-.129 10.453 9.394-4.86 17.997-11.109 25.393-18.363-7.378 5.792-16.503 8.74-25.27 7.904z" fill="url(#c8)"/><path d="m119.658 160.63c-.592 1.468-1.09 2.785-1.476 3.928 9.868-5.949 18.875-13.756 26.869-22.291-7.396 7.254-15.999 13.503-25.393 18.363z" fill="url(#c9)"/><path d="m118.182 164.564c8.96-2.827 17.34-8.066 24.407-14.778.088-1.714 1.108-4.295 2.468-7.513-7.994 8.535-17.001 16.343-26.87 22.291z" fill="url(#da)"/><path d="m159.901 123.633c-4.571 9.66-10.397 18.628-17.312 26.153.088-1.715 1.108-4.295 2.468-7.513 6.094-4.282 11.181-10.953 14.849-18.64z" fill="url(#db)"/><path d="m110.323 76.7833c-10.742-2.8691-21.9116-4.848-33.1516-6.454 8.8021 9.7501 17.4225 19.7769 26.3766 29.0879 2.093-7.5907 4.372-15.1574 6.775-22.6339z" fill="url(#dc)"/><path d="m77.1714 70.3235c1.1603 13.1725 2.3968 26.4233 4.5241 39.2465 7.3195-3.506 14.5979-6.989 21.8525-10.1586-8.9599-9.3171-17.5745-19.3378-26.3766-29.0879z" fill="url(#dd)"/><path d="m81.6956 109.576c3.0883 6.737 6.4169 13.095 10.1382 18.851 3.4458-9.473 7.3898-19.206 11.7142-29.0098-7.2546 3.1698-14.533 6.6468-21.8524 10.1588z" fill="url(#de)"/><path d="m3.87718 66.7205c-2.18588 17.1904 4.30728 35.4815 17.01822 48.4795 3.7271 2.442 7.9172 4.409 12.4237 5.925-10.2496-6.021-18.7177-14.165-23.85124-23.7047-4.97536-9.2568-6.89166-20.1377-5.58482-30.6998z" fill="url(#df)"/><path d="m119.693 162.724c15.079-4.968 27.924-14.707 35.203-27.133-5.016 8.643-12.693 15.644-21.788 19.735-9.436 4.234-20.617 5.557-31.997 4.144-24.6194-3.08-49.2559-17.913-67.7978-38.345 23.025 28.865 57.5653 48.347 86.3798 41.599z" fill="url(#dg)"/><path d="m37.8609 136.036c-2.391-3.579-4.6238-7.308-6.7276-11.122.7208-1.221 1.4475-2.484 2.1859-3.789 1.383 5.125 2.8656 10.117 4.5475 14.911z" fill="url(#dh)"/><path d="m20.8954 115.194c3.0883 3.471 6.5225 6.719 10.2379 9.714.7208-1.221 1.4474-2.484 2.1858-3.789-4.5006-1.516-8.6966-3.489-12.4237-5.925z" fill="url(#di)"/><path d="m158.828 124.325c-3.452 3.543-7.571 8.415-12.388 14.057.457.451 1.06.691 1.664.703 3.956-5.99 7.519-11.235 10.724-14.76z" fill="url(#dj)"/><path d="m158.828 124.325c.024.397.656.096 1.073-.692-3.018 6.316-7.021 11.832-11.797 15.452 3.956-5.99 7.519-11.235 10.724-14.76z" fill="url(#dk)"/><path d="m146.446 138.382c-.528 1.353-.997 2.652-1.389 3.891 1.043-1.046 2.062-2.111 3.053-3.187-.604-.006-1.207-.253-1.664-.704z" fill="url(#dl)"/><path d="m145.057 142.273c6.094-4.282 11.181-10.953 14.85-18.64-3.019 6.316-7.021 11.831-11.797 15.452-.991 1.077-2.01 2.142-3.053 3.188z" fill="url(#dm)"/><path d="m25.9117 139.783c8.2278 7.982 18.1492 14.321 28.9087 18.688-4.196-5.287-7.841-11.566-11.0935-18.465-6.4052 1.202-12.5175 1.233-17.8093-.223z" fill="url(#dn)"/><path d="m25.9117 139.783c3.6861-.277 7.7297-1.63 11.9491-3.747 1.8987 1.389 3.8561 2.712 5.8603 3.969-6.4053 1.203-12.5175 1.234-17.8094-.222z" fill="url(#do)"/><path d="m54.8145 158.471c20.8977 9.395 44.7079 10.917 64.8785 4.253-24.2845 6.406-53.5916-3.375-75.9719-22.718 3.2524 6.899 6.8975 13.178 11.0934 18.465z" fill="url(#dp)"/><path d="m119.693 162.724c-28.8145 6.748-63.3548-12.734-86.3798-41.599 3.1587 6.574 6.587 12.932 10.4078 18.881 22.3804 19.349 51.6875 29.124 75.972 22.718z" fill="url(#dq)"/><path d="m37.8608 136.036c-1.6819-4.794-3.1645-9.786-4.5476-14.911 3.1587 6.574 6.587 12.932 10.4078 18.881-2.0042-1.257-3.9615-2.581-5.8602-3.97z" fill="url(#ds)"/><path d="m131.519 77.1624c5.55 5.9186 10.537 11.8974 14.868 17.8461-8.738 1.5217-18.524 6.5445-29.085 12.9865 4.413-10.6768 9.189-21.0585 14.217-30.8266z" fill="url(#dt)"/><path d="m131.519 77.1622c-6.651-.9082-13.783-.9202-21.196-.3789 2.051 10.941 4.178 21.4851 6.979 31.2107 4.413-10.6759 9.189-21.0576 14.217-30.8257z" fill="url(#du)"/><path d="m110.323 76.7834c-2.403 7.4825-4.683 15.0492-6.775 22.634 4.648 3.0076 9.236 5.8826 13.749 8.5776-2.802-9.7204-4.929-20.2705-6.98-31.2116z" fill="url(#dv)"/><path d="m103.548 99.4175c-4.3245 9.8045-8.2684 19.5305-11.7143 29.0095 8.5323-7.115 16.9773-14.141 25.4683-20.432-4.518-2.689-9.101-5.57-13.748-8.5775z" fill="url(#dw)"/><path d="m13.1892 67.0152c-1.1838-.8601-2.2562-1.7563-3.19389-2.6946-1.31855 5.2148-2.61367 10.6042-3.75642 16.1017 2.05109-4.0239 4.36591-8.517 6.95031-13.4011z" fill="url(#dx)"/><path d="m9.99527 64.3145c-2.15657-.1443-3.99669-1.0887-4.6003-2.6285-.35161 5.4615-.04688 11.7771.84388 18.7303 1.14275-5.4916 2.43787-10.8869 3.75642-16.1018z" fill="url(#dy)"/><path d="m5.39508 61.686c-.30473.6075-.59188 1.191-.86145 1.7443-.34576 5.2631.28715 11.0133 1.70533 16.986-.8849-6.9472-1.19549-13.2688-.84388-18.7303z" fill="url(#dz)"/><path d="m82.7914 174.074c-5.4325-.084-10.8591-.728-16.1743-1.913-1.7698-.385-3.44-1.293-4.8289-2.622 6.5811 3.091 13.7892 4.613 21.0032 4.535z" fill="url(#dA)"/><path d="m82.7914 174.074c4.0377.415 8.5091-.53 13.0214-2.406-11.3278 1.492-22.978.806-34.0246-2.129 6.5811 3.091 13.7892 4.613 21.0032 4.535z" fill="url(#dB)"/><path d="m57.2407 169.448c3.0708 1.095 6.2002 1.997 9.3764 2.707-1.7698-.385-3.4399-1.293-4.8288-2.623-1.6116.331-3.1763.325-4.5476-.084z" fill="url(#dC)"/><path d="m57.2406 169.449c-8.5911-3.074-16.7075-7.706-23.8688-13.63 8.4271 6.352 18.1551 11.013 28.4105 13.714-1.6115.331-3.1762.325-4.5475-.084z" fill="url(#dD)"/><path d="m33.3718 155.819c5.9013 3.362 13.5548 4.138 21.4427 2.646 1.7698 4.686 4.0553 8.602 6.9737 11.068-10.2613-2.701-19.9893-7.362-28.4105-13.714z" fill="url(#dE)"/><path d="m95.8129 171.668c-14.0001.24-28.4398-4.614-40.9925-13.197 1.7698 4.686 4.0553 8.601 6.9737 11.068 11.0408 2.935 22.6909 3.62 34.0247 2.129z" fill="url(#dF)"/><path d="m25.8766 139.681c-3.4165-.253-6.6338-1.341-9.2474-3.242 3.2231 4.914 6.9092 9.515 11.0055 13.684-1.172-2.791-1.6584-6.376-1.7639-10.442z" fill="url(#dG)"/><path d="m25.8766 139.681c7.9992 12.216 18.7118 22.441 31.2586 28.354-10.8766-3.837-20.9973-9.979-29.5005-17.912-1.1721-2.791-1.6585-6.376-1.764-10.442z" fill="url(#dH)"/><path d="m16.6291 136.445c-2.1917-1.402-4.026-3.561-5.4383-6.141 4.2604 7.699 9.8511 14.49 16.4439 19.825-4.0963-4.169-7.7883-8.77-11.0056-13.684z" fill="url(#dI)"/><path d="m57.1352 168.041c-9.5112-2.803-18.5067-7.519-26.2598-13.864-1.1897-1.197-2.2738-2.563-3.2408-4.048 8.4974 7.933 18.6239 14.074 29.5006 17.912z" fill="url(#dJ)"/><path d="m30.8813 154.176c-8.1517-6.405-14.8675-14.556-19.6846-23.873 4.2604 7.699 9.851 14.49 16.4438 19.825.967 1.486 2.0511 2.852 3.2408 4.048z" fill="url(#dK)"/><path d="m5.27199 58.5223c-.31645 1.5398-.56258 3.1819-.73839 4.9082-.04688-1.606.13478-3.2721.52742-4.9503.02344.0662.11721.0842.21097.0361z" fill="url(#dL)"/><path d="m5.272 58.5222c-.1172-.403.00586-1.0165.24613-1.7563-.19924.6015-.35161 1.1729-.45124 1.7142.02345.0662.11721.0842.21097.0361z" fill="url(#dN)"/><path d="m5.51219 56.7661c-.16995.4511-.33404.9143-.49812 1.3774-.05274.2166-.02344.3729.04102.3368.10548-.5413.25199-1.1187.45124-1.7142z" fill="url(#dO)"/><path d="m146.387 95.0085c-8.738 1.5218-18.524 6.5445-29.085 12.9865 4.589 6.52 9.301 12.204 14.352 16.396 4.431-10.279 9.394-20.258 14.727-29.3825z" fill="url(#dP)"/><path d="m146.387 95.0085c1.049 11.6445 2.262 21.3705 5.725 27.1635-5.713.222-12.582 1.118-20.452 2.213 4.43-10.279 9.394-20.258 14.727-29.3826z" fill="url(#dQ)"/><path d="m117.302 107.989c-8.491 6.291-16.936 13.316-25.4683 20.432 14.1873-.878 27.5963-2.586 39.8203-4.036-5.051-4.192-9.769-9.876-14.352-16.396z" fill="url(#dR)"/><path d="m152.106 122.172c-2.185 3.037-4.36 6.472-6.504 10.153-4.765-.169-9.705-3.296-13.948-7.94 7.87-1.095 14.739-1.991 20.452-2.213z" fill="url(#dS)"/><path d="m91.8337 128.421c7.8645 11.121 17.5753 19.626 27.9533 21.756 3.188-8.12 7.22-16.854 11.867-25.792-12.23 1.45-25.633 3.158-39.8203 4.036z" fill="url(#dT)"/><path d="m145.602 132.325c-7.73 5.437-16.321 11.674-25.815 17.852 3.188-8.12 7.22-16.854 11.867-25.792 4.243 4.643 9.183 7.771 13.948 7.94z" fill="url(#dU)"/><path d="m13.1892 67.0153c1.4241 3.4886 3.0473 7.2178 4.8757 11.1455-1.1662 2.833-2.2972 5.6179-3.3696 8.3427-.6798-6.9653-1.1135-13.5034-1.5061-19.4942z" fill="url(#dV)"/><path d="m13.1892 67.0153c-2.5844 4.8841-4.90508 9.3772-6.95031 13.4011 2.01593 2.6465 4.99881 4.6976 8.46221 6.0871-.6798-6.9653-1.1134-13.5034-1.5061-19.4942z" fill="url(#dW)"/><path d="m18.0648 78.1606c.9904 9.1065 2.1976 18.7364 4.0729 28.5764-2.9477-6.8507-5.3914-13.6475-7.4425-20.2337 1.0724-2.7248 2.2034-5.5097 3.3696-8.3427z" fill="url(#dX)"/><path d="m6.23889 80.4165c.22855 8.1742.89662 16.8296 2.3441 25.6535 1.56471-5.949 3.66271-12.505 6.11221-19.5604-3.4634-1.3955-6.44038-3.4405-8.46217-6.0871z" fill="url(#dY)"/><path d="m22.1378 106.737c-5.1395 1.065-9.9273 1.041-13.56065-.673 1.56465-5.949 3.66265-12.5051 6.11225-19.5606 2.0511 6.5863 4.5007 13.3831 7.4425 20.2336z" fill="url(#dZ)"/><path d="m22.1378 106.737c1.4885 2.099 3.0649 4.175 4.7058 6.214-2.221.92-4.3717 1.666-6.4404 2.189.5098-2.737 1.09-5.54 1.7288-8.403z" fill="url(#d0)"/><path d="m22.1378 106.737c-1.4885 3.537-2.8481 6.887-4.0729 10.027.7677-.499 1.5471-1.04 2.3441-1.624.5099-2.737 1.0901-5.54 1.7288-8.403z" fill="url(#d1)"/><path d="m26.8494 112.957c4.4362 5.967 9.4115 11.657 14.8909 16.902-7.9583-3.97-15.2308-8.884-21.3255-14.713 2.0687-.523 4.2135-1.269 6.4404-2.189z" fill="url(#d2)"/><path d="m41.7344 129.859c-5.7723 4.607-11.029 8.228-15.8637 9.828-2.6957-7.555-4.3659-15.879-5.4676-24.541 6.0946 5.829 13.3672 10.743 21.3254 14.713z" fill="url(#d3)"/><path d="m18.8854 118.346c1.928 8.012 3.6861 14.159 7.0616 21.299-2.6957-7.555-4.3659-15.88-5.4676-24.541-.797.583-1.5589 2.43-1.594 3.242z" fill="url(#d4)"/><path d="m4.52765 63.4305c-.04689-1.606.13478-3.2721.52742-4.9503-1.09001 3.9217-1.93975 8.4449-2.54335 13.4432.62705-2.9472 1.3127-5.7863 2.01007-8.4929z" fill="url(#d5)"/><path d="m4.52777 63.4304c-.34576 5.263.28715 11.0132 1.70533 16.986-2.20931-1.9609-3.49271-5.0645-3.72126-8.487.62705-2.9473 1.3127-5.7863 2.01007-8.493z" fill="url(#d6)"/><path d="m5.06105 58.4801c-.06446.0361-.09376-.1203-.04102-.3368-1.41818 4.3247-2.23862 8.9802-2.49647 13.7861.60361-4.9984 1.44748-9.5216 2.54335-13.4432z" fill="url(#d7)"/><path d="m6.23891 80.4164c.22854 8.1742.89661 16.8296 2.3441 25.6536-4.49482-11.3623-6.68655-23.1514-6.06537-34.1406.22855 3.4225 1.51195 6.5262 3.72127 8.487z" fill="url(#d8)"/><path d="m5.01405 58.1434s0-.0541.01758-.0902c-1.54125 4.5112-2.39099 9.2028-2.51405 13.8763.25785-4.8059 1.08415-9.4614 2.49647-13.7861z" fill="url(#d9)"/><path d="m5.03167 58.0532c.45124-1.3714 1.09001-2.8932 1.84598-4.5593-2.9184 6.5021-4.60616 12.8538-4.36589 18.4356.12893-4.6676.97867-9.3652 2.51405-13.8763z" fill="url(#ea)"/><path d="m8.58303 106.064c-2.19174 2.189-4.27213 3.603-5.33283 2.923-2.46717-12.5228-2.2269-25.3825-.73253-37.0634-.62119 10.9891 1.56468 22.7723 6.06536 34.1404z" fill="url(#eb)"/><path d="m6.88353 53.4939c-7.172949 16.1258-8.42118 36.3057-3.63336 55.4991-2.467163-12.5229-2.22689-25.3827-.73253-37.0635-.24613-5.5818 1.44749-11.9335 4.36589-18.4356z" fill="url(#ec)"/></svg>