<svg width="336" height="216" viewBox="0 0 336 216" fill="none" xmlns="http://www.w3.org/2000/svg">
<path d="M125.247 26.216L155.911 0H305.335L336 26.216V197.885L315.789 215.165H20.2112L0 197.885V43.3396L20.0274 26.216H125.247Z" fill="url(#paint0_linear_340_28)"/>
<line x1="21.0123" y1="68.9377" x2="309.932" y2="68.9377" stroke="#434494"/>
<path d="M33.5 40.618L35.8309 47.7918L35.9432 48.1373H36.3064H43.8494L37.747 52.5709L37.4531 52.7844L37.5654 53.1299L39.8963 60.3037L33.7939 55.8701L33.5 55.6565L33.2061 55.8701L27.1037 60.3037L29.4346 53.1299L29.5469 52.7844L29.253 52.5709L23.1506 48.1373H30.6936H31.0568L31.1691 47.7918L33.5 40.618Z" fill="#453DB2" stroke="white"/>
<path d="M58.5 40.618L60.8309 47.7918L60.9432 48.1373H61.3064H68.8494L62.747 52.5709L62.4531 52.7844L62.5654 53.1299L64.8963 60.3037L58.7939 55.8701L58.5 55.6565L58.2061 55.8701L52.1037 60.3037L54.4346 53.1299L54.5469 52.7844L54.253 52.5709L48.1506 48.1373H55.6936H56.0568L56.1691 47.7918L58.5 40.618Z" fill="#453DB2" stroke="white"/>
<path d="M83.5 40.618L85.8309 47.7918L85.9432 48.1373H86.3064H93.8494L87.747 52.5709L87.4531 52.7844L87.5654 53.1299L89.8963 60.3037L83.7939 55.8701L83.5 55.6565L83.2061 55.8701L77.1037 60.3037L79.4346 53.1299L79.5469 52.7844L79.253 52.5709L73.1506 48.1373H80.6936H81.0568L81.1691 47.7918L83.5 40.618Z" fill="#453DB2" stroke="white"/>
<path d="M108.5 40.618L110.831 47.7918L110.943 48.1373H111.306H118.849L112.747 52.5709L112.453 52.7844L112.565 53.1299L114.896 60.3037L108.794 55.8701L108.5 55.6565L108.206 55.8701L102.104 60.3037L104.435 53.1299L104.547 52.7844L104.253 52.5709L98.1506 48.1373H105.694H106.057L106.169 47.7918L108.5 40.618Z" fill="#453DB2" stroke="white"/>
<path d="M133.5 40.618L135.831 47.7918L135.943 48.1373H136.306H143.849L137.747 52.5709L137.453 52.7844L137.565 53.1299L139.896 60.3037L133.794 55.8701L133.5 55.6565L133.206 55.8701L127.104 60.3037L129.435 53.1299L129.547 52.7844L129.253 52.5709L123.151 48.1373H130.694H131.057L131.169 47.7918L133.5 40.618Z" fill="#453DB2" stroke="white"/>
<defs>
<linearGradient id="paint0_linear_340_28" x1="168.007" y1="302.002" x2="168.007" y2="-119.813" gradientUnits="userSpaceOnUse">
<stop offset="0.06" stop-color="white"/>
<stop offset="0.45" stop-color="#EAD6E7"/>
<stop offset="0.8" stop-color="#DBB8D7"/>
<stop offset="1" stop-color="#D6AED1"/>
</linearGradient>
</defs>
</svg>
