<svg width="29" height="6" viewBox="0 0 29 6" fill="none" xmlns="http://www.w3.org/2000/svg">
<path d="M3.46168 4.83984V1.40544H1.30708V4.83984H0.723883V0.811443H4.05028V4.83984H3.46168ZM5.29195 4.83984V2.04264H7.06855C7.60855 2.04264 7.98115 2.38824 7.98115 2.92824C7.98115 3.47904 7.59775 3.83004 6.97135 3.83004H6.72295C6.20995 3.83004 6.08575 3.86244 5.84275 3.99204V4.83984H5.29195ZM5.84275 3.43584C6.08575 3.29544 6.39895 3.27384 6.72295 3.27384H6.97135C7.23595 3.27384 7.41415 3.21984 7.41415 2.92284C7.41415 2.65284 7.19815 2.59884 6.97135 2.59884H5.84275V3.43584ZM11.9865 3.41424C11.9865 4.36464 11.1765 4.92624 10.3287 4.92624C9.48091 4.92624 8.68171 4.37544 8.68171 3.43044C8.68171 2.48004 9.49711 1.95084 10.3341 1.95084C11.1765 1.95084 11.9865 2.44224 11.9865 3.41424ZM11.4033 3.41964C11.4033 2.79324 10.8633 2.52324 10.3341 2.52324C9.79411 2.52324 9.26491 2.80944 9.26491 3.44124C9.26491 4.07304 9.80491 4.35924 10.3395 4.35924C10.8687 4.35924 11.4033 4.02444 11.4033 3.41964ZM15.4531 5.46084V4.83984H13.1419V5.46084H12.5803V4.27824H13.1203C13.6603 3.60864 13.7143 3.05244 13.8115 2.59884H13.3687L13.1203 2.04264H15.6637V4.27824H16.0147V5.46084H15.4531ZM15.1129 4.27824V2.59884H14.3947C14.2651 3.18744 14.0869 3.86784 13.7791 4.27824H15.1129ZM17.7635 1.97784H18.3629L19.8749 4.83984H19.2647L19.0433 4.41864H18.7085C18.0173 4.41864 17.2991 4.68864 17.2073 4.80744L17.1911 4.83984H16.6079L17.9471 2.32884L17.7635 1.97784ZM18.7031 3.91104H18.7787L18.2333 2.87424L17.5691 4.15404C17.7473 4.06224 18.1253 3.91104 18.7031 3.91104ZM22.5468 2.04264H23.1354V3.17664C23.3298 3.17664 23.4756 3.14424 23.562 3.06324L24.3504 2.04264H25.0632L24.0372 3.35484L24.507 3.99204C24.6744 4.22424 24.8796 4.27284 25.02 4.27284H25.1604V4.83984H24.9714C24.6798 4.83984 24.4314 4.83984 24.1344 4.40784L23.643 3.69504C23.4972 3.74904 23.3406 3.76524 23.1354 3.76524V4.83984H22.5468V3.76524C22.3416 3.76524 22.185 3.74904 22.0392 3.69504L21.5478 4.40784C21.2508 4.83984 21.0024 4.83984 20.7108 4.83984H20.5218V4.27284H20.6622C20.8026 4.27284 21.0024 4.22424 21.1752 3.99204L21.645 3.35484L20.619 2.04264H21.3318L22.1202 3.06324C22.2066 3.14424 22.3524 3.17664 22.5468 3.17664V2.04264ZM28.4196 2.04264H28.9704V4.83984H28.4196V2.82024L26.7888 4.83984H26.238V2.04264H26.7888V4.05144L28.4196 2.04264Z" fill="#5CC4EA"/>
</svg>
