<svg width="205" height="76" viewBox="0 0 205 76" fill="none" xmlns="http://www.w3.org/2000/svg">
<path d="M11.3 64.1198L8.64001 60.8698V11.2498L11.3 8.00977H140.72L155.21 25.6498H181.02L184.85 30.3098V60.8698L182.19 64.1198H11.3Z" fill="url(#paint0_linear_0_588)"/>
<path d="M182.27 64.3698H11.21L8.42999 60.9798V11.1498L11.21 7.75977H140.8L155.29 25.3998H181.1L185.05 30.2098V60.9798L182.27 64.3698ZM11.38 63.8698H182.1L184.64 60.7698V30.4098L180.93 25.8998H155.12L140.63 8.25977H11.38L8.83999 11.3598V60.7798L11.38 63.8798V63.8698Z" fill="url(#paint1_linear_0_588)"/>
<path d="M43.74 64.08C28.29 64.08 15.72 51.51 15.72 36.06C15.72 20.61 28.29 8.04004 43.74 8.04004C59.19 8.04004 71.76 20.61 71.76 36.06C71.76 51.51 59.19 64.08 43.74 64.08ZM43.74 9.04004C28.84 9.04004 16.72 21.16 16.72 36.06C16.72 50.96 28.84 63.08 43.74 63.08C58.64 63.08 70.76 50.96 70.76 36.06C70.76 21.16 58.64 9.04004 43.74 9.04004Z" fill="#80CCDD"/>
<path d="M20.81 54.9596C16.43 49.6596 14.03 42.9496 14.03 36.0596H16.03C16.03 42.4796 18.28 48.7396 22.36 53.6896L20.82 54.9596H20.81Z" fill="#80CCDD"/>
<path d="M43.74 66.7096V63.7096C58.98 63.7096 71.39 51.3096 71.39 36.0596H74.39C74.39 52.9596 60.64 66.7096 43.74 66.7096Z" fill="#80CCDD"/>
<path d="M43.74 61.0698C29.95 61.0698 18.73 49.8498 18.73 36.0598C18.73 22.2698 29.95 11.0498 43.74 11.0498C57.53 11.0498 68.75 22.2698 68.75 36.0598C68.75 49.8498 57.53 61.0698 43.74 61.0698ZM43.74 12.0498C30.5 12.0498 19.73 22.8198 19.73 36.0598C19.73 49.2998 30.5 60.0698 43.74 60.0698C56.98 60.0698 67.75 49.2998 67.75 36.0598C67.75 22.8198 56.98 12.0498 43.74 12.0498Z" fill="#3364AD"/>
<path d="M68.16 36.0599H65.16C65.16 24.2399 55.55 14.6299 43.73 14.6299V11.6299C57.2 11.6299 68.16 22.5899 68.16 36.0599Z" fill="#3364AD"/>
<path d="M44.24 5.00977H43.24V8.53976H44.24V5.00977Z" fill="#80CCDD"/>
<path d="M44.24 63.5798H43.24V67.1098H44.24V63.5798Z" fill="#80CCDD"/>
<path d="M24.21 35.5596H10.68V36.5596H24.21V35.5596Z" fill="#80CCDD"/>
<path d="M76.79 35.5596H63.26V36.5596H76.79V35.5596Z" fill="#80CCDD"/>
<path d="M77.29 32.75H76.29V39.37H77.29V32.75Z" fill="#80CCDD"/>
<path d="M191.39 62.6897H190.37L193.37 54.9897H194.39L191.39 62.6897ZM197.87 54.9897H196.85L193.85 62.6897H194.87L197.87 54.9897ZM201.35 54.9897H200.33L197.33 62.6897H198.35L201.35 54.9897ZM204.83 54.9897H203.81L200.81 62.6897H201.83L204.83 54.9897Z" fill="#3364AD"/>
<path d="M124.17 0.549805H69.26V9.4698H124.17V0.549805Z" fill="#3364AD"/>
<path d="M184.2 67.62H9.55999L5.17999 62.33V9.81001L9.55999 4.52002H142.4L157.01 22.16H183.03L188.59 28.87V62.33L184.21 67.62H184.2ZM9.90999 66.62H183.86L187.76 61.91V29.28L182.69 23.15H156.67L142.06 5.51001H9.89999L5.99999 10.22V61.92L9.89999 66.63L9.90999 66.62Z" fill="#80CCDD"/>
<path d="M2.67999 35.0098H0.679993V34.3098H2.67999V35.0098ZM2.67999 32.3098H0.679993V31.6098H2.67999V32.3098ZM2.67999 29.6098H0.679993V28.9098H2.67999V29.6098ZM2.67999 26.9098H0.679993V26.2098H2.67999V26.9098ZM2.67999 24.2098H0.679993V23.5098H2.67999V24.2098ZM2.67999 21.5098H0.679993V20.8098H2.67999V21.5098ZM2.67999 18.8098H0.679993V18.1098H2.67999V18.8098ZM2.67999 16.1098H0.679993V15.4098H2.67999V16.1098ZM2.67999 13.4098H0.679993V12.7098H2.67999V13.4098ZM2.67999 10.7098H0.679993V10.0098H2.67999V10.7098Z" fill="#80CCDD"/>
<path d="M20.95 17.2297L18.64 15.3197C20.15 13.4897 21.87 11.8197 23.74 10.3597C25.57 8.93971 27.55 7.70971 29.64 6.69971L30.94 9.3997C29.05 10.3097 27.24 11.4297 25.59 12.7197C23.89 14.0397 22.33 15.5597 20.96 17.2197L20.95 17.2297Z" fill="#3364AD"/>
<path d="M17.45 75.5898H16.22V69.7698H17.45V75.5898ZM19.85 69.7698H18.62V75.5898H19.85V69.7698ZM22.25 69.7698H21.02V75.5898H22.25V69.7698ZM24.65 69.7698H23.42V75.5898H24.65V69.7698ZM27.05 69.7698H25.82V75.5898H27.05V69.7698ZM29.45 69.7698H28.22V75.5898H29.45V69.7698ZM31.85 69.7698H30.62V75.5898H31.85V69.7698ZM34.25 69.7698H33.02V75.5898H34.25V69.7698ZM36.65 69.7698H35.42V75.5898H36.65V69.7698ZM39.05 69.7698H37.82V75.5898H39.05V69.7698ZM41.45 69.7698H40.22V75.5898H41.45V69.7698ZM43.85 69.7698H42.62V75.5898H43.85V69.7698ZM46.25 69.7698H45.02V75.5898H46.25V69.7698ZM48.65 69.7698H47.42V75.5898H48.65V69.7698ZM51.05 69.7698H49.82V75.5898H51.05V69.7698ZM53.45 69.7698H52.22V75.5898H53.45V69.7698ZM55.85 69.7698H54.62V75.5898H55.85V69.7698ZM58.25 69.7698H57.02V75.5898H58.25V69.7698ZM60.65 69.7698H59.42V75.5898H60.65V69.7698ZM63.05 69.7698H61.82V75.5898H63.05V69.7698ZM65.45 69.7698H64.22V75.5898H65.45V69.7698ZM67.85 69.7698H66.62V75.5898H67.85V69.7698ZM70.25 69.7698H69.02V75.5898H70.25V69.7698ZM72.65 69.7698H71.42V75.5898H72.65V69.7698ZM75.05 69.7698H73.82V75.5898H75.05V69.7698ZM77.45 69.7698H76.22V75.5898H77.45V69.7698ZM79.85 69.7698H78.62V75.5898H79.85V69.7698ZM82.25 69.7698H81.02V75.5898H82.25V69.7698ZM84.65 69.7698H83.42V75.5898H84.65V69.7698ZM87.05 69.7698H85.82V75.5898H87.05V69.7698ZM89.45 69.7698H88.22V75.5898H89.45V69.7698ZM91.85 69.7698H90.62V75.5898H91.85V69.7698ZM94.25 69.7698H93.02V75.5898H94.25V69.7698ZM96.65 69.7698H95.42V75.5898H96.65V69.7698ZM99.05 69.7698H97.82V75.5898H99.05V69.7698ZM101.45 69.7698H100.22V75.5898H101.45V69.7698ZM103.85 69.7698H102.62V75.5898H103.85V69.7698ZM106.25 69.7698H105.02V75.5898H106.25V69.7698ZM108.65 69.7698H107.42V75.5898H108.65V69.7698ZM111.05 69.7698H109.82V75.5898H111.05V69.7698ZM113.45 69.7698H112.22V75.5898H113.45V69.7698Z" fill="#3364AD"/>
<path d="M178.41 69.7698H115.96V70.7698H178.41V69.7698Z" fill="#3364AD"/>
<path d="M44.07 59.4899V58.4899H44.45L44.48 59.4899H44.07ZM43.05 59.4899L42.65 59.4699L42.69 58.4699L43.09 58.4899L43.05 59.4899ZM45.5 59.4299L45.43 58.4299L45.82 58.3999L45.91 59.3999L45.5 59.4299ZM41.63 59.3999L41.23 59.3599L41.33 58.3699L41.72 58.4099L41.63 59.4099V59.3999ZM46.92 59.2799L46.79 58.2899L47.18 58.2399L47.33 59.2299L46.93 59.2899L46.92 59.2799ZM40.21 59.2299L39.8 59.1699L39.97 58.1799L40.35 58.2399L40.2 59.2299H40.21ZM48.33 59.0399L48.13 58.0599L48.52 57.9799L48.73 58.9599L48.33 59.0399ZM38.8 58.9699L38.4 58.8799L38.63 57.9099L39.01 57.9999L38.8 58.9799V58.9699ZM49.72 58.7199L49.46 57.7499L49.84 57.6499L50.1 58.6099L49.71 58.7199H49.72ZM37.42 58.6299L37.03 58.5199L37.32 57.5599L37.7 57.6699L37.43 58.6299H37.42ZM51.09 58.3199L50.78 57.3699L51.15 57.2399L51.48 58.1899L51.09 58.3199ZM36.05 58.2099L35.67 58.0699L36.01 57.1299L36.38 57.2599L36.05 58.1999V58.2099ZM52.43 57.8299L52.06 56.8999L52.43 56.7499L52.81 57.6799L52.44 57.8299H52.43ZM34.71 57.6999L34.34 57.5399L34.74 56.6199L35.1 56.7799L34.71 57.6999ZM53.74 57.2599L53.32 56.3599L53.67 56.1899L54.11 57.0899L53.74 57.2699V57.2599ZM33.42 57.1099L33.06 56.9299L33.52 56.0399L33.87 56.2199L33.43 57.1199L33.42 57.1099ZM55.02 56.6099L54.54 55.7299L54.88 55.5399L55.38 56.4099L55.02 56.6099ZM32.16 56.4499L31.81 56.2499L32.32 55.3899L32.66 55.5899L32.16 56.4599V56.4499ZM56.25 55.8899L55.72 55.0399L56.05 54.8299L56.6 55.6699L56.26 55.8899H56.25ZM30.94 55.7099L30.6 55.4899L31.16 54.6599L31.49 54.8799L30.94 55.7199V55.7099ZM57.43 55.0899L56.84 54.2799L57.16 54.0499L57.76 54.8499L57.43 55.0899ZM29.77 54.8999L29.45 54.6499L30.06 53.8599L30.37 54.0999L29.77 54.8999ZM58.56 54.2199L57.93 53.4399C58.03 53.3599 58.13 53.2799 58.23 53.1899L58.88 53.9499C58.78 54.0399 58.67 54.1299 58.56 54.2099V54.2199ZM28.65 54.0099C28.54 53.9199 28.44 53.8299 28.34 53.7399L29 52.9899C29.1 53.0699 29.19 53.1599 29.29 53.2399L28.65 54.0099ZM59.64 53.2799L58.96 52.5499L59.24 52.2799L59.94 52.9999L59.64 53.2799ZM27.59 53.0599C27.49 52.9699 27.39 52.8699 27.29 52.7699L27.99 52.0599C28.08 52.1499 28.17 52.2399 28.27 52.3299L27.59 53.0599ZM60.66 52.2799L59.94 51.5899L60.21 51.3099L60.94 51.9899L60.66 52.2899V52.2799ZM26.58 52.0499L26.31 51.7499L27.05 51.0799L27.31 51.3699L26.58 52.0499ZM61.61 51.2199L60.85 50.5699L61.1 50.2699L61.87 50.9099L61.61 51.2199ZM25.64 50.9699L25.38 50.6499L26.16 50.0299L26.41 50.3299L25.64 50.9699ZM62.5 50.0999L61.7 49.4999L61.93 49.1899L62.74 49.7799L62.5 50.1099V50.0999ZM24.76 49.8399L24.52 49.5099L25.34 48.9399L25.57 49.2599L24.76 49.8499V49.8399ZM63.32 48.9299L62.48 48.3799L62.69 48.0499L63.54 48.5799L63.32 48.9199V48.9299ZM23.96 48.6499L23.74 48.3099L24.59 47.7799L24.8 48.1099L23.96 48.6499ZM64.07 47.7099L63.2 47.2099L63.39 46.8699L64.26 47.3499L64.06 47.6999L64.07 47.7099ZM23.23 47.4199L23.03 47.0599L23.91 46.5899L24.1 46.9299L23.23 47.4199ZM64.74 46.4499L63.84 46.0099L64.01 45.6599L64.91 46.0899L64.73 46.4599L64.74 46.4499ZM22.57 46.1499L22.4 45.7799L23.31 45.3699L23.48 45.7199L22.58 46.1499H22.57ZM65.33 45.1599L64.41 44.7699L64.56 44.4099L65.49 44.7899L65.34 45.1599H65.33ZM22 44.8399L21.85 44.4599L22.78 44.0999L22.92 44.4599L21.99 44.8399H22ZM65.85 43.8299L64.91 43.4999L65.04 43.1299L65.99 43.4399L65.86 43.8299H65.85ZM21.51 43.4999L21.38 43.1099L22.33 42.8099L22.45 43.1799L21.5 43.4999H21.51ZM66.28 42.4699L65.32 42.1999L65.42 41.8199L66.39 42.0699L66.28 42.4599V42.4699ZM21.1 42.1299L21 41.7399L21.97 41.4999L22.07 41.8799L21.1 42.1399V42.1299ZM66.63 41.0899L65.65 40.8799L65.73 40.4999L66.71 40.6899L66.63 41.0899ZM20.77 40.7499L20.69 40.3499L21.67 40.1699L21.74 40.5499L20.76 40.7499H20.77ZM66.89 39.6899L65.9 39.5399L65.96 39.1499L66.95 39.2899L66.89 39.6899ZM20.53 39.3399L20.48 38.9299L21.47 38.8099L21.52 39.1999L20.53 39.3399ZM67.06 38.2699L66.06 38.1799L66.09 37.7899L67.09 37.8599L67.06 38.2699ZM20.37 37.9199L20.34 37.5099L21.34 37.4499L21.37 37.8399L20.37 37.9199ZM67.14 36.8499L66.14 36.8199V36.4299L67.15 36.4499V36.8599L67.14 36.8499ZM20.29 36.4999V36.0899L21.29 35.9999V36.4799L20.29 36.4999ZM66.13 35.4499V35.0599L67.11 35.0199L67.13 35.4299L66.13 35.4599V35.4499ZM21.31 35.0299L20.31 34.9799L20.33 34.5699L21.33 34.6299L21.31 35.0199V35.0299ZM66.05 34.0899L66.01 33.6999L67 33.5899L67.04 33.9999L66.04 34.0899H66.05ZM21.41 33.6699L20.41 33.5699L20.46 33.1599L21.45 33.2799L21.41 33.6599V33.6699ZM65.89 32.7399L65.83 32.3499L66.82 32.1799L66.88 32.5799L65.89 32.7299V32.7399ZM21.6 32.3199L20.61 32.1499L20.68 31.7499L21.66 31.9299L21.59 32.3199H21.6ZM65.65 31.3899L65.57 31.0099L66.54 30.7799L66.63 31.1799L65.65 31.3899ZM21.87 30.9799L20.9 30.7499L21 30.3499L21.97 30.5999L21.88 30.9799H21.87ZM65.32 30.0599L65.21 29.6799L66.17 29.3899L66.28 29.7799L65.32 30.0499V30.0599ZM22.22 29.6499L21.26 29.3599L21.38 28.9699L22.33 29.2699L22.21 29.6399L22.22 29.6499ZM64.91 28.7499L64.78 28.3799L65.72 28.0399L65.86 28.4199L64.92 28.7499H64.91ZM22.65 28.3499L21.71 27.9999L21.85 27.6199L22.78 27.9799L22.64 28.3499H22.65ZM64.42 27.4699L64.27 27.1099L65.18 26.7099L65.34 27.0899L64.42 27.4699ZM23.16 27.0899L22.24 26.6899L22.41 26.3199L23.32 26.7399L23.16 27.0999V27.0899ZM63.86 26.2199L63.68 25.8699L64.57 25.4199L64.75 25.7799L63.85 26.2199H63.86ZM23.75 25.8499L22.86 25.3899L23.05 25.0299L23.93 25.4999L23.75 25.8499ZM63.22 25.0099L63.02 24.6699L63.88 24.1599L64.09 24.5199L63.22 25.0099ZM24.41 24.6599L23.55 24.1499L23.76 23.7999L24.61 24.3299L24.41 24.6599ZM62.5 23.8399L62.28 23.5099L63.11 22.9499L63.34 23.2899L62.5 23.8399ZM25.14 23.4999L24.31 22.9399L24.54 22.5999L25.36 23.1799L25.14 23.4999ZM61.72 22.7099L61.48 22.3999L62.27 21.7899L62.52 22.1199L61.72 22.7199V22.7099ZM25.94 22.3899L25.15 21.7799L25.4 21.4599L26.18 22.0799L25.94 22.3899ZM60.87 21.6399L60.61 21.3399L61.37 20.6899L61.63 20.9999L60.87 21.6499V21.6399ZM26.81 21.3399L26.06 20.6799L26.33 20.3799L27.07 21.0499L26.81 21.3399ZM59.96 20.6199L59.69 20.3399L60.4 19.6399L60.68 19.9299L59.95 20.6199H59.96ZM27.75 20.3299L27.03 19.6299C27.13 19.5299 27.22 19.4299 27.32 19.3399L28.02 20.0599C27.93 20.1499 27.84 20.2399 27.75 20.3299ZM58.99 19.6599L58.7 19.3999L59.36 18.6499L59.66 18.9299L58.98 19.6599H58.99ZM28.74 19.3899L28.07 18.6499C28.17 18.5599 28.28 18.4699 28.38 18.3799L29.03 19.1399C28.93 19.2199 28.84 19.3099 28.74 19.3999V19.3899ZM57.96 18.7599C57.86 18.6799 57.76 18.5999 57.66 18.5199L58.28 17.7299C58.39 17.8099 58.49 17.8999 58.6 17.9899L57.96 18.7599ZM29.78 18.5099L29.16 17.7299L29.48 17.4799L30.09 18.2699L29.78 18.5099ZM56.88 17.9199L56.56 17.6899L57.13 16.8699L57.46 17.1099L56.87 17.9199H56.88ZM30.88 17.6899L30.3 16.8699L30.64 16.6399L31.2 17.4699L30.88 17.6899ZM55.75 17.1599L55.42 16.9499L55.94 16.0999L56.29 16.3199L55.75 17.1599ZM32.02 16.9499L31.49 16.0999C31.61 16.0299 31.72 15.9599 31.84 15.8899L32.34 16.7499L32.01 16.9499H32.02ZM54.58 16.4699L54.24 16.2799L54.71 15.3999L55.07 15.5899L54.58 16.4699ZM33.21 16.2699L32.74 15.3899L33.1 15.1999L33.55 16.0899L33.2 16.2699H33.21ZM53.36 15.8399L53.01 15.6799L53.43 14.7699L53.8 14.9399L53.37 15.8399H53.36ZM34.43 15.6699L34.02 14.7599L34.39 14.5899L34.79 15.5099L34.43 15.6699ZM52.11 15.2999L51.75 15.1599L52.11 14.2299L52.49 14.3799L52.12 15.3099L52.11 15.2999ZM35.69 15.1499L35.34 14.2099L35.72 14.0699L36.06 15.0099L35.69 15.1499ZM50.83 14.8299L50.46 14.7099L50.77 13.7599L51.15 13.8799L50.83 14.8299ZM36.99 14.6999L36.7 13.7399L37.09 13.6199L37.38 14.5799L37 14.6899L36.99 14.6999ZM49.52 14.4399L49.14 14.3399L49.39 13.3699L49.78 13.4699L49.52 14.4399ZM38.31 14.3299L38.07 13.3599L38.47 13.2699L38.69 14.2399L38.31 14.3299ZM48.19 14.1199L47.81 14.0399L47.99 13.0599L48.39 13.1399L48.19 14.1199ZM39.65 14.0399L39.47 13.0599L39.87 12.9899L40.03 13.9799L39.65 14.0499V14.0399ZM46.84 13.8899L46.45 13.8399L46.57 12.8499L46.97 12.8999L46.83 13.8899H46.84ZM40.99 13.8299L40.87 12.8399L41.27 12.7899L41.37 13.7799L40.98 13.8199L40.99 13.8299ZM45.47 13.7399L45.08 13.7099L45.15 12.7099L45.56 12.7399L45.48 13.7399H45.47ZM42.34 13.7099L42.29 12.7099L42.69 12.6899L42.73 13.6899L42.33 13.7099H42.34ZM44.1 13.6699H43.7V12.6699H44.1L44.09 13.6699H44.1Z" fill="#80CCDD"/>
<path d="M134.7 11.5298H84.53V61.6998H134.7V11.5298Z" fill="url(#paint2_linear_0_588)"/>
<path d="M102.27 53.4198C107.975 53.4198 112.6 48.7949 112.6 43.0898C112.6 37.3847 107.975 32.7598 102.27 32.7598C96.5648 32.7598 91.9399 37.3847 91.9399 43.0898C91.9399 48.7949 96.5648 53.4198 102.27 53.4198Z" fill="#4BAD38"/>
<path d="M117.19 37.6098C121.763 37.6098 125.47 33.9027 125.47 29.3298C125.47 24.7569 121.763 21.0498 117.19 21.0498C112.617 21.0498 108.91 24.7569 108.91 29.3298C108.91 33.9027 112.617 37.6098 117.19 37.6098Z" fill="#2B61AC"/>
<path d="M102.89 31.8299C105.149 31.8299 106.98 29.9988 106.98 27.7399C106.98 25.4811 105.149 23.6499 102.89 23.6499C100.631 23.6499 98.8 25.4811 98.8 27.7399C98.8 29.9988 100.631 31.8299 102.89 31.8299Z" fill="#904493"/>
<path d="M119.96 49.3898C122.964 49.3898 125.4 46.9542 125.4 43.9498C125.4 40.9453 122.964 38.5098 119.96 38.5098C116.956 38.5098 114.52 40.9453 114.52 43.9498C114.52 46.9542 116.956 49.3898 119.96 49.3898Z" fill="#DE3714"/>
<path d="M50.44 30.7499L49.43 29.0099C49.28 28.7399 48.93 28.6499 48.67 28.8099L47.31 29.5899C46.72 29.0399 46 28.6099 45.21 28.3699V26.8099C45.21 26.4999 44.96 26.2499 44.65 26.2499H42.64C42.33 26.2499 42.08 26.4999 42.08 26.8099V28.3699C41.28 28.6099 40.57 29.0399 39.98 29.5899L38.62 28.8099C38.35 28.6599 38.01 28.7499 37.86 29.0099L36.85 30.7499C36.7 31.0199 36.79 31.3599 37.05 31.5099L38.41 32.2899C38.32 32.6799 38.27 33.0799 38.27 33.4999C38.27 33.9199 38.32 34.3199 38.41 34.7199L37.05 35.4999C36.78 35.6499 36.69 35.9999 36.85 36.2599L37.86 37.9999C38.01 38.2699 38.36 38.3599 38.62 38.1999L39.98 37.4199C40.57 37.9699 41.28 38.3899 42.08 38.6399V40.1999C42.08 40.5099 42.33 40.7599 42.64 40.7599H44.65C44.96 40.7599 45.21 40.5099 45.21 40.1999V38.6399C46 38.3999 46.72 37.9799 47.31 37.4199L48.67 38.1999C48.94 38.3499 49.28 38.2599 49.43 37.9999L50.44 36.2599C50.59 35.9899 50.5 35.6499 50.24 35.4999L48.88 34.7199C48.97 34.3299 49.02 33.9199 49.02 33.4999C49.02 33.0799 48.97 32.6799 48.88 32.2899L50.24 31.5099C50.51 31.3599 50.6 31.0099 50.44 30.7499ZM43.65 36.0999C42.22 36.0999 41.06 34.9399 41.06 33.5099C41.06 32.0799 42.22 30.9199 43.65 30.9199C45.08 30.9199 46.24 32.0799 46.24 33.5099C46.24 34.9399 45.08 36.0999 43.65 36.0999ZM49.69 49.7399C49.48 49.7399 49.32 49.5699 49.32 49.3599V45.8699C49.34 45.1799 50.41 43.5899 52.26 41.0599L52.32 40.9799C52.62 40.5699 52.92 40.1599 53.19 39.7799C54.72 37.6299 55.84 33.7599 54.9 29.9499C54.16 26.9499 52.26 24.5899 49.4 23.1199C42.82 19.7599 37.33 22.2999 34.4 25.8099C32.57 27.9999 32.38 30.8899 32.43 32.4199C32.45 33.0099 32.24 33.5999 31.84 34.0599L29.92 36.2799C29.62 36.6299 29.48 37.0899 29.55 37.5499C29.61 38.0099 29.87 38.4099 30.26 38.6599L31.55 39.5199C31.65 39.5899 31.72 39.7099 31.72 39.8299V43.8599C31.72 45.2899 32.89 46.4599 34.32 46.4599L36.59 46.5099C36.79 46.5099 36.96 46.6799 36.96 46.8899V49.3699C36.96 49.5799 36.79 49.7499 36.58 49.7499C36.37 49.7499 36.2 49.5799 36.2 49.3699V47.2499L34.3 47.2099C32.46 47.2099 30.96 45.7099 30.96 43.8599V40.0299L29.84 39.2799C29.27 38.9099 28.89 38.3199 28.8 37.6499C28.7 36.9799 28.9 36.2999 29.34 35.7899L31.26 33.5699C31.54 33.2499 31.68 32.8499 31.67 32.4399C31.62 30.7999 31.82 27.6999 33.82 25.3299C36.94 21.6099 42.76 18.8999 49.74 22.4599C52.8 24.0199 54.83 26.5499 55.63 29.7699C56.62 33.8099 55.42 37.9199 53.8 40.2099C53.53 40.5899 53.23 40.9999 52.93 41.4199L52.87 41.4999C52.18 42.4399 50.09 45.2999 50.08 45.8799V49.3599C50.08 49.5699 49.91 49.7399 49.71 49.7399H49.69Z" fill="#C4E5EE"/>
<defs>
<linearGradient id="paint0_linear_0_588" x1="96.74" y1="104.85" x2="96.74" y2="-131.81" gradientUnits="userSpaceOnUse">
<stop offset="0.22" stop-color="#615B9A" stop-opacity="0.2"/>
<stop offset="0.54" stop-color="#605B99" stop-opacity="0.76"/>
<stop offset="0.56" stop-color="#605C99" stop-opacity="0.8"/>
<stop offset="0.72" stop-color="#56528E" stop-opacity="0.8"/>
<stop offset="0.96" stop-color="#3B3773" stop-opacity="0.8"/>
<stop offset="1" stop-color="#36326D" stop-opacity="0.8"/>
</linearGradient>
<linearGradient id="paint1_linear_0_588" x1="96.74" y1="104.85" x2="96.74" y2="-131.81" gradientUnits="userSpaceOnUse">
<stop offset="0.22" stop-color="#615B9A" stop-opacity="0.2"/>
<stop offset="0.54" stop-color="#605B99" stop-opacity="0.76"/>
<stop offset="0.56" stop-color="#605C99" stop-opacity="0.8"/>
<stop offset="0.72" stop-color="#56528E" stop-opacity="0.8"/>
<stop offset="0.96" stop-color="#3B3773" stop-opacity="0.8"/>
<stop offset="1" stop-color="#36326D" stop-opacity="0.8"/>
</linearGradient>
<linearGradient id="paint2_linear_0_588" x1="109.62" y1="78.0498" x2="109.62" y2="10.5098" gradientUnits="userSpaceOnUse">
<stop offset="0.401693" stop-color="white" stop-opacity="0.2"/>
<stop offset="0.647292" stop-color="white" stop-opacity="0.54"/>
<stop offset="0.874698" stop-color="white" stop-opacity="0.8"/>
</linearGradient>
</defs>
</svg>
