<svg width="227" height="76" viewBox="0 0 227 76" fill="none" xmlns="http://www.w3.org/2000/svg">
<path d="M12.18 64.09L8.94 60.85V11.23L12.18 7.97998H169.76L187.41 25.63H218.84L223.5 30.29V60.85L220.26 64.09H12.18Z" fill="url(#paint0_linear_0_235)"/>
<path d="M220.36 64.34H12.08L8.69 60.95V11.12L12.08 7.72998H169.87L187.51 25.37H218.94L223.75 30.18V60.95L220.36 64.34ZM12.29 63.84H220.16L223.26 60.74V30.38L218.75 25.87H187.32L169.68 8.22998H12.31L9.20999 11.33V60.75L12.31 63.85L12.29 63.84Z" fill="url(#paint1_linear_0_235)"/>
<path d="M44 64.06C36.52 64.06 29.48 61.15 24.19 55.85C18.9 50.55 15.98 43.52 15.98 36.04C15.98 28.56 18.89 21.52 24.19 16.23C29.48 10.94 36.52 8.02002 44 8.02002C51.48 8.02002 58.52 10.94 63.81 16.23C69.1 21.52 72.02 28.56 72.02 36.04C72.02 43.52 69.11 50.56 63.81 55.85C58.51 61.14 51.48 64.06 44 64.06ZM44 9.02002C36.78 9.02002 30 11.83 24.89 16.94C19.79 22.04 16.98 28.83 16.98 36.05C16.98 43.27 19.79 50.05 24.89 55.16C29.99 60.27 36.78 63.07 44 63.07C51.22 63.07 58 60.26 63.11 55.16C68.22 50.06 71.02 43.27 71.02 36.05C71.02 28.83 68.21 22.05 63.11 16.94C58.01 11.84 51.22 9.02002 44 9.02002Z" fill="#80CCDD"/>
<path d="M14.88 30.9397L11.92 30.4197C12.33 28.0797 13 25.7897 13.9 23.5897C14.78 21.4497 15.9 19.3997 17.22 17.4897L19.69 19.1997C18.49 20.9297 17.48 22.7897 16.68 24.7297C15.86 26.7297 15.25 28.8097 14.88 30.9397Z" fill="#3364AD"/>
<path d="M16.99 53.2997C16.86 53.0997 16.73 52.8897 16.61 52.6897L18.32 51.6497C18.44 51.8397 18.56 52.0297 18.68 52.2297L16.99 53.3097V53.2997ZM15.59 50.8897C15.48 50.6797 15.37 50.4597 15.26 50.2497L17.05 49.3597C17.15 49.5597 17.25 49.7697 17.36 49.9697L15.59 50.8897ZM14.41 48.3697C14.32 48.1497 14.23 47.9197 14.14 47.6997L16 46.9697C16.08 47.1797 16.17 47.3897 16.25 47.5897L14.41 48.3697ZM13.45 45.7497C13.38 45.5197 13.31 45.2897 13.24 45.0597L15.16 44.4897C15.22 44.7097 15.29 44.9197 15.36 45.1397L13.45 45.7497ZM12.72 43.0597C12.67 42.8297 12.62 42.5897 12.57 42.3497L14.53 41.9497C14.57 42.1697 14.62 42.3897 14.67 42.6097L12.72 43.0497V43.0597Z" fill="#80CCDD"/>
<path d="M16.41 33.3798L14.42 33.1898C15.08 26.3498 18.12 19.8998 22.99 15.0298L24.4 16.4398C19.86 20.9798 17.02 26.9998 16.41 33.3798Z" fill="#80CCDD"/>
<path d="M44 66.6699C36.15 66.6699 28.3 63.6799 22.33 57.7099L24.45 55.5898C35.23 66.3698 52.77 66.3698 63.55 55.5898L65.67 57.7099C59.7 63.6799 51.85 66.6699 44 66.6699Z" fill="#80CCDD"/>
<path d="M44 61.0396C37.6 61.0396 31.19 58.5996 26.32 53.7296C21.6 49.0096 18.99 42.7296 18.99 36.0496C18.99 29.3696 21.59 23.0896 26.32 18.3696C36.07 8.61963 51.94 8.61963 61.69 18.3696C71.44 28.1196 71.44 43.9896 61.69 53.7396C56.81 58.6196 50.41 61.0496 44.01 61.0496L44 61.0396ZM27.02 19.0696C22.49 23.6096 19.99 29.6296 19.99 36.0496C19.99 42.4696 22.49 48.4896 27.02 53.0296C36.38 62.3896 51.61 62.3896 60.97 53.0296C65.5 48.4896 68 42.4696 68 36.0496C68 29.6296 65.5 23.6096 60.97 19.0696C51.61 9.70964 36.38 9.70964 27.02 19.0696Z" fill="#3364AD"/>
<path d="M61.27 53.3098L59.15 51.1898C67.5 42.8298 67.5 29.2398 59.15 20.8798L61.27 18.7598C70.79 28.2798 70.79 43.7798 61.27 53.3098Z" fill="#3364AD"/>
<path d="M44.5 4.97998H43.5V8.50998H44.5V4.97998Z" fill="#80CCDD"/>
<path d="M44.5 63.5598H43.5V67.0898H44.5V63.5598Z" fill="#80CCDD"/>
<path d="M24.47 35.5396H10.94V36.5396H24.47V35.5396Z" fill="#80CCDD"/>
<path d="M77.05 35.5396H63.52V36.5396H77.05V35.5396Z" fill="#80CCDD"/>
<path d="M77.55 32.73H76.55V39.35H77.55V32.73Z" fill="#80CCDD"/>
<path d="M218.77 60.6797H166.92V63.6797H218.77V60.6797Z" fill="#3364AD"/>
<path d="M196.94 26.5096H195.92L198.92 18.8096H199.94L196.94 26.5096ZM203.42 18.8096H202.4L199.4 26.5096H200.42L203.42 18.8096ZM206.9 18.8096H205.88L202.88 26.5096H203.9L206.9 18.8096ZM210.38 18.8096H209.36L206.36 26.5096H207.38L210.38 18.8096Z" fill="#3364AD"/>
<path d="M124.44 0.529785H69.53V9.44978H124.44V0.529785Z" fill="#3364AD"/>
<path d="M221.71 67.5897H10.74L5.45001 62.2997V9.77974L10.74 4.48975H171.22L188.86 22.1297H220.29L227 28.8397V62.2997L221.71 67.5897ZM11.15 66.5897H221.29L226 61.8797V29.2497L219.87 23.1197H188.44L170.8 5.47974H11.15L6.44 10.1897V61.8898L11.15 66.5997V66.5897Z" fill="#80CCDD"/>
<path d="M2.94 34.98H0.940002V34.28H2.94V34.98ZM2.94 32.28H0.940002V31.58H2.94V32.28ZM2.94 29.58H0.940002V28.88H2.94V29.58ZM2.94 26.88H0.940002V26.18H2.94V26.88ZM2.94 24.18H0.940002V23.48H2.94V24.18ZM2.94 21.48H0.940002V20.78H2.94V21.48ZM2.94 18.78H0.940002V18.08H2.94V18.78ZM2.94 16.08H0.940002V15.38H2.94V16.08ZM2.94 13.38H0.940002V12.68H2.94V13.38ZM2.94 10.68H0.940002V9.97998H2.94V10.68Z" fill="#80CCDD"/>
<path d="M71.25 24.5798C70.44 22.6498 69.41 20.7898 68.2 19.0698C66.96 17.2998 65.52 15.6698 63.93 14.2198L65.95 12.0098C67.7 13.6098 69.28 15.4098 70.65 17.3498C71.98 19.2498 73.11 21.2898 74.01 23.4198L71.25 24.5898V24.5798Z" fill="#3364AD"/>
<path d="M17.71 75.5598H16.48V69.7397H17.71V75.5598ZM20.11 69.7397H18.88V75.5598H20.11V69.7397ZM22.51 69.7397H21.28V75.5598H22.51V69.7397ZM24.91 69.7397H23.68V75.5598H24.91V69.7397ZM27.31 69.7397H26.08V75.5598H27.31V69.7397ZM29.71 69.7397H28.48V75.5598H29.71V69.7397ZM32.11 69.7397H30.88V75.5598H32.11V69.7397ZM34.51 69.7397H33.28V75.5598H34.51V69.7397ZM36.91 69.7397H35.68V75.5598H36.91V69.7397ZM39.31 69.7397H38.08V75.5598H39.31V69.7397ZM41.71 69.7397H40.48V75.5598H41.71V69.7397ZM44.11 69.7397H42.88V75.5598H44.11V69.7397ZM46.51 69.7397H45.28V75.5598H46.51V69.7397ZM48.91 69.7397H47.68V75.5598H48.91V69.7397ZM51.31 69.7397H50.08V75.5598H51.31V69.7397ZM53.71 69.7397H52.48V75.5598H53.71V69.7397ZM56.11 69.7397H54.88V75.5598H56.11V69.7397ZM58.51 69.7397H57.28V75.5598H58.51V69.7397ZM60.91 69.7397H59.68V75.5598H60.91V69.7397ZM63.31 69.7397H62.08V75.5598H63.31V69.7397ZM65.71 69.7397H64.48V75.5598H65.71V69.7397ZM68.11 69.7397H66.88V75.5598H68.11V69.7397ZM70.51 69.7397H69.28V75.5598H70.51V69.7397ZM72.91 69.7397H71.68V75.5598H72.91V69.7397ZM75.31 69.7397H74.08V75.5598H75.31V69.7397ZM77.71 69.7397H76.48V75.5598H77.71V69.7397ZM80.11 69.7397H78.88V75.5598H80.11V69.7397ZM82.51 69.7397H81.28V75.5598H82.51V69.7397ZM84.91 69.7397H83.68V75.5598H84.91V69.7397ZM87.31 69.7397H86.08V75.5598H87.31V69.7397ZM89.71 69.7397H88.48V75.5598H89.71V69.7397ZM92.11 69.7397H90.88V75.5598H92.11V69.7397ZM94.51 69.7397H93.28V75.5598H94.51V69.7397ZM96.91 69.7397H95.68V75.5598H96.91V69.7397ZM99.31 69.7397H98.08V75.5598H99.31V69.7397ZM101.71 69.7397H100.48V75.5598H101.71V69.7397ZM104.11 69.7397H102.88V75.5598H104.11V69.7397ZM106.51 69.7397H105.28V75.5598H106.51V69.7397ZM108.91 69.7397H107.68V75.5598H108.91V69.7397ZM111.31 69.7397H110.08V75.5598H111.31V69.7397ZM113.71 69.7397H112.48V75.5598H113.71V69.7397Z" fill="#3364AD"/>
<path d="M178.67 69.7498H116.22V70.7498H178.67V69.7498Z" fill="#3364AD"/>
<path d="M43.5 59.4597H43.09L43.13 58.4497H43.52L43.5 59.4597ZM44.52 59.4597L44.5 58.4597H44.89L44.93 59.4497H44.52V59.4597ZM42.07 59.3997L41.66 59.3597L41.76 58.3697L42.15 58.4097L42.07 59.4097V59.3997ZM45.94 59.3997L45.86 58.3997C45.99 58.3897 46.12 58.3797 46.24 58.3597L46.35 59.3497C46.21 59.3597 46.08 59.3797 45.94 59.3897V59.3997ZM40.65 59.2397C40.51 59.2197 40.38 59.1997 40.24 59.1797L40.4 58.1897C40.53 58.2097 40.65 58.2297 40.78 58.2497L40.65 59.2397ZM47.35 59.2397L47.21 58.2497L47.59 58.1897L47.75 59.1797L47.34 59.2397H47.35ZM39.23 58.9997L38.83 58.9097L39.05 57.9397L39.43 58.0197L39.23 58.9997ZM48.76 58.9997L48.55 58.0197L48.93 57.9397L49.15 58.9097L48.75 58.9997H48.76ZM37.84 58.6697L37.45 58.5597L37.73 57.5997L38.11 57.7097L37.85 58.6697H37.84ZM50.15 58.6697L49.89 57.7097L50.23 57.6197L50.54 58.5697L50.15 58.6797V58.6697ZM36.48 58.2597L36.09 58.1297L36.43 57.1897L36.8 57.3197L36.48 58.2697V58.2597ZM51.52 58.2597L51.2 57.3097L51.57 57.1797L51.9 58.1197L51.52 58.2497V58.2597ZM35.14 57.7697L34.76 57.6097L35.16 56.6897L35.52 56.8397L35.15 57.7697H35.14ZM52.85 57.7697L52.48 56.8397L52.84 56.6897L53.23 57.6097L52.86 57.7697H52.85ZM33.83 57.1897L33.47 57.0097L33.92 56.1197L34.27 56.2897L33.83 57.1897ZM54.16 57.1897L53.73 56.2897L54.08 56.1197L54.53 57.0097L54.17 57.1897H54.16ZM32.56 56.5397L32.2 56.3397L32.7 55.4797L33.04 55.6697L32.55 56.5397H32.56ZM55.42 56.5397L54.93 55.6697L55.27 55.4797L55.77 56.3397L55.41 56.5397H55.42ZM31.33 55.8097L30.99 55.5897L31.54 54.7597L31.87 54.9797L31.33 55.8197V55.8097ZM56.64 55.8097L56.1 54.9697L56.43 54.7597L56.98 55.5897L56.64 55.8097ZM30.15 54.9997L29.82 54.7497L30.43 53.9597L30.74 54.1997L30.15 54.9997ZM57.82 54.9997L57.23 54.1897L57.54 53.9597L58.15 54.7597L57.82 54.9997ZM29.03 54.1197L28.72 53.8597L29.37 53.0997L29.67 53.3597L29.03 54.1297V54.1197ZM58.95 54.1197L58.31 53.3497L58.61 53.0997L59.26 53.8597L58.95 54.1197ZM27.96 53.1797L27.67 52.8997L28.37 52.1797L28.65 52.4497L27.96 53.1797ZM60.02 53.1797L59.34 52.4497L59.62 52.1797L60.32 52.8997L60.03 53.1797H60.02ZM26.95 52.1697L26.67 51.8697L27.41 51.1997L27.68 51.4897L26.95 52.1797V52.1697ZM61.03 52.1697L60.3 51.4797L60.56 51.1997L61.3 51.8697L61.02 52.1697H61.03ZM61.98 51.0997L61.21 50.4597L61.46 50.1597L62.24 50.7897L61.98 51.1097V51.0997ZM26 51.0997L25.74 50.7797L26.52 50.1497L26.77 50.4497L26 51.0897V51.0997ZM25.12 49.9797L24.88 49.6497L25.7 49.0697L25.93 49.3797L25.13 49.9697L25.12 49.9797ZM62.87 49.9797L62.07 49.3797L62.3 49.0597L63.12 49.6397L62.88 49.9697L62.87 49.9797ZM24.31 48.8097L24.09 48.4697L24.94 47.9397L25.15 48.2697L24.31 48.8097ZM63.68 48.8097L62.84 48.2697L63.05 47.9397L63.9 48.4597L63.68 48.8097ZM23.57 47.5997L23.37 47.2397L24.25 46.7697L24.44 47.1097L23.57 47.5997ZM64.42 47.5997L63.55 47.1097L63.74 46.7697L64.62 47.2497L64.42 47.6097V47.5997ZM22.91 46.3397L22.74 45.9697L23.65 45.5497L23.82 45.8997L22.92 46.3397H22.91ZM65.08 46.3297L64.18 45.8897L64.35 45.5397L65.26 45.9597L65.09 46.3297H65.08ZM22.32 45.0397L22.17 44.6597L23.1 44.2997L23.25 44.6597L22.33 45.0397H22.32ZM65.66 45.0297L64.74 44.6497L64.89 44.2897L65.82 44.6497L65.67 45.0297H65.66ZM21.82 43.6997L21.69 43.3097L22.64 43.0097L22.76 43.3797L21.81 43.6997H21.82ZM66.17 43.6897L65.22 43.3697L65.34 42.9997L66.29 43.2997L66.16 43.6897H66.17ZM21.4 42.3397L21.3 41.9497L22.27 41.6997L22.37 42.0797L21.41 42.3497L21.4 42.3397ZM66.59 42.3297L65.63 42.0697L65.73 41.6897L66.7 41.9397L66.6 42.3397L66.59 42.3297ZM21.07 40.9597L20.99 40.5597L21.97 40.3697L22.05 40.7497L21.07 40.9597ZM66.93 40.9397L65.95 40.7297L66.03 40.3497L67.01 40.5397L66.93 40.9397ZM20.82 39.5497L20.76 39.1497L21.75 39.0197L21.8 39.4097L20.81 39.5597L20.82 39.5497ZM67.18 39.5297L66.19 39.3797L66.24 38.9897L67.23 39.1197L67.17 39.5197L67.18 39.5297ZM20.66 38.1297L20.63 37.7197L21.63 37.6497L21.66 38.0397L20.66 38.1197V38.1297ZM67.35 38.1097L66.35 38.0297L66.38 37.6397L67.38 37.7097L67.35 38.1197V38.1097ZM20.58 36.6997V36.2897H21.57V36.6797L20.58 36.7097V36.6997ZM67.42 36.6797L66.42 36.6497V36.2597H67.43V36.6697L67.42 36.6797ZM21.58 35.3097L20.58 35.2697L20.6 34.8597L21.6 34.9097L21.58 35.2997V35.3097ZM66.41 35.2897L66.39 34.8997L67.39 34.8497L67.41 35.2597L66.41 35.2997V35.2897ZM21.67 33.9397L20.67 33.8397L20.71 33.4297L21.7 33.5397L21.66 33.9297L21.67 33.9397ZM66.32 33.9197L66.28 33.5297L67.27 33.4197L67.31 33.8297L66.31 33.9297L66.32 33.9197ZM21.85 32.5797L20.86 32.4197L20.93 32.0197L21.92 32.1897L21.86 32.5797H21.85ZM66.15 32.5597L66.09 32.1697L67.08 31.9997L67.15 32.3997L66.16 32.5597H66.15ZM22.1 31.2297L21.12 31.0097L21.21 30.6097L22.18 30.8397L22.09 31.2197L22.1 31.2297ZM65.89 31.2097L65.8 30.8297L66.77 30.5897L66.86 30.9897L65.88 31.2097H65.89ZM22.44 29.8997L21.48 29.6197L21.6 29.2297L22.56 29.5197L22.45 29.8997H22.44ZM65.56 29.8797L65.45 29.5097L66.41 29.2197L66.53 29.6097L65.57 29.8897L65.56 29.8797ZM22.86 28.5897L21.92 28.2597L22.06 27.8697L23 28.2197L22.87 28.5897H22.86ZM65.14 28.5797L65.01 28.2097L65.95 27.8597L66.09 28.2397L65.15 28.5697L65.14 28.5797ZM23.35 27.3197L22.43 26.9297L22.59 26.5497L23.5 26.9597L23.34 27.3197H23.35ZM64.64 27.3097L64.48 26.9497L65.39 26.5397L65.55 26.9097L64.63 27.2997L64.64 27.3097ZM23.92 26.0797L23.03 25.6297L23.22 25.2697L24.11 25.7297L23.93 26.0797H23.92ZM64.06 26.0797L63.88 25.7297L64.77 25.2697L64.96 25.6297L64.07 26.0797H64.06ZM24.56 24.8797L23.69 24.3797L23.9 24.0297L24.76 24.5497L24.56 24.8897V24.8797ZM63.41 24.8797L63.21 24.5497L64.06 24.0297L64.27 24.3797L63.4 24.8797H63.41ZM25.28 23.7297L24.45 23.1797L24.68 22.8397L25.5 23.4097L25.28 23.7397V23.7297ZM62.69 23.7297C62.62 23.6197 62.55 23.5197 62.47 23.4097L63.29 22.8397C63.37 22.9497 63.45 23.0697 63.52 23.1797L62.69 23.7297ZM26.07 22.6197L25.27 22.0197L25.52 21.6997L26.31 22.3197L26.07 22.6297V22.6197ZM61.9 22.6197L61.66 22.3097L62.45 21.6897L62.7 22.0097L61.9 22.6197ZM61.04 21.5597L60.78 21.2697L61.53 20.6097L61.8 20.9197L61.04 21.5697V21.5597ZM26.93 21.5597L26.17 20.9097L26.44 20.5997L27.19 21.2597L26.93 21.5597ZM60.12 20.5497L59.85 20.2697L60.56 19.5597L60.85 19.8497L60.13 20.5397L60.12 20.5497ZM27.85 20.5497L27.13 19.8497L27.41 19.5597L27.81 19.8597L28.12 20.2597L27.84 20.5397L27.85 20.5497ZM59.14 19.5997L58.85 19.3397L59.52 18.5897L59.82 18.8597L59.15 19.5997H59.14ZM28.88 19.5597L28.21 18.8197L28.51 18.5497L29.17 19.2997L28.88 19.5597ZM58.11 18.7097L57.8 18.4597L58.42 17.6797L58.74 17.9297L58.11 18.7097ZM29.92 18.6697L29.29 17.8897L29.61 17.6397L30.22 18.4297L29.92 18.6697ZM57.02 17.8797L56.7 17.6597L57.27 16.8397L57.61 17.0797L57.03 17.8897L57.02 17.8797ZM31.01 17.8397L30.43 17.0197L30.76 16.7897L31.33 17.6097L31.01 17.8297V17.8397ZM55.88 17.1097L55.55 16.9097L56.06 16.0497L56.41 16.2697L55.88 17.1197V17.1097ZM32.14 17.0797L31.62 16.2297L31.96 16.0197L32.47 16.8797L32.13 17.0897L32.14 17.0797ZM54.7 16.4197L54.35 16.2297L54.82 15.3497L55.18 15.5397L54.7 16.4197ZM33.33 16.3897L32.86 15.5097L33.22 15.3197L33.68 16.2097L33.33 16.3897ZM53.48 15.7997L53.13 15.6397L53.54 14.7297L53.91 14.8997L53.49 15.8097L53.48 15.7997ZM34.55 15.7797L34.13 14.8697L34.5 14.6997L34.9 15.6097L34.54 15.7697L34.55 15.7797ZM52.22 15.2597L51.85 15.1197L52.2 14.1797L52.58 14.3297L52.21 15.2597H52.22ZM35.8 15.2397L35.43 14.3097L35.81 14.1597L36.16 15.0997L35.8 15.2397ZM50.93 14.7997L50.55 14.6797L50.85 13.7297L51.24 13.8497L50.93 14.7997ZM37.09 14.7797L36.79 13.8297L37.18 13.7097L37.47 14.6697L37.1 14.7897L37.09 14.7797ZM49.62 14.4097L49.24 14.3197L49.47 13.3497L49.87 13.4497L49.62 14.4197V14.4097ZM38.4 14.3997L38.16 13.4297L38.56 13.3297L38.79 14.2997L38.41 14.3897L38.4 14.3997ZM48.28 14.1097L47.9 14.0397L48.07 13.0497L48.47 13.1197L48.28 14.0997V14.1097ZM39.74 14.1097L39.55 13.1297L39.95 13.0597L40.12 14.0497L39.74 14.1197V14.1097ZM46.93 13.8997L46.54 13.8497L46.65 12.8597L47.06 12.9097L46.93 13.8997ZM41.09 13.8997L40.96 12.9097L41.37 12.8597L41.48 13.8497L41.09 13.8997ZM45.57 13.7697L45.18 13.7497L45.23 12.7497L45.64 12.7697L45.57 13.7697ZM42.45 13.7697L42.38 12.7697L42.79 12.7497L42.84 13.7497L42.45 13.7697ZM44.2 13.7197H43.98H43.82L43.8 12.7197H43.98H44.21V13.7197H44.2Z" fill="#80CCDD"/>
<path d="M81.83 23.9896H80.81L83.81 16.2896H84.83L81.83 23.9896ZM88.31 16.2896H87.29L84.29 23.9896H85.31L88.31 16.2896ZM91.79 16.2896H90.77L87.77 23.9896H88.79L91.79 16.2896ZM95.27 16.2896H94.25L91.25 23.9896H92.27L95.27 16.2896Z" fill="#3364AD"/>
<g style="mix-blend-mode:screen">
<path d="M45.95 49.6897H42.05C41.31 49.6897 40.71 49.0897 40.71 48.3497C40.71 47.6097 41.31 47.0097 42.05 47.0097H45.95C46.69 47.0097 47.29 47.6097 47.29 48.3497C47.29 49.0897 46.69 49.6897 45.95 49.6897ZM42.05 47.7697C41.73 47.7697 41.46 48.0297 41.46 48.3597C41.46 48.6897 41.72 48.9497 42.05 48.9497H45.95C46.27 48.9497 46.54 48.6897 46.54 48.3597C46.54 48.0297 46.28 47.7697 45.95 47.7697H42.05ZM46.88 46.7797H41.12C39.49 46.7797 38.16 45.4497 38.16 43.8197C38.16 42.9397 38.56 42.1097 39.24 41.5497V39.7197C36.01 37.9697 34.01 34.6297 34.01 30.9397C34.01 25.4297 38.49 20.9497 43.99 20.9497C49.49 20.9497 53.97 25.4297 53.97 30.9397C53.97 34.6297 51.97 37.9697 48.74 39.7197V41.5497C49.42 42.1097 49.82 42.9497 49.82 43.8197C49.82 45.4497 48.49 46.7797 46.86 46.7797H46.88ZM44 21.6997C38.91 21.6997 34.77 25.8397 34.77 30.9397C34.77 34.4197 36.69 37.5697 39.79 39.1597C39.92 39.2197 39.99 39.3497 39.99 39.4897V41.7297C39.99 41.8497 39.93 41.9597 39.83 42.0297C39.24 42.4497 38.91 43.1097 38.91 43.8197C38.91 45.0397 39.9 46.0297 41.12 46.0297H46.88C48.1 46.0297 49.09 45.0397 49.09 43.8197C49.09 43.1097 48.75 42.4597 48.17 42.0297C48.07 41.9597 48.01 41.8497 48.01 41.7297V39.4897C48.01 39.3497 48.09 39.2197 48.21 39.1597C51.31 37.5697 53.23 34.4197 53.23 30.9397C53.23 25.8497 49.09 21.6997 44 21.6997ZM46.88 44.8597H41.12C40.91 44.8597 40.75 44.6897 40.75 44.4797C40.75 44.2697 40.92 44.0997 41.12 44.0997H46.88C47.09 44.0997 47.25 44.2697 47.25 44.4797C47.25 44.6897 47.08 44.8597 46.88 44.8597ZM44.96 41.6097C44.75 41.6097 44.59 41.4397 44.59 41.2297V34.9197C44.59 34.8197 44.63 34.7197 44.7 34.6497L47.6 31.7497C47.71 31.6397 47.77 31.4897 47.77 31.3397C47.77 31.1897 47.71 31.0397 47.6 30.9197C47.37 30.6897 47 30.6897 46.77 30.9197L44.26 33.4197C44.12 33.5597 43.87 33.5597 43.73 33.4197L41.22 30.9097C40.99 30.6797 40.62 30.6797 40.39 30.9097C40.28 31.0197 40.22 31.1697 40.22 31.3197C40.22 31.4697 40.28 31.6197 40.39 31.7297L43.29 34.6297C43.44 34.7797 43.44 35.0097 43.29 35.1597C43.14 35.3097 42.91 35.3097 42.76 35.1597L39.86 32.2597C39.61 32.0097 39.47 31.6697 39.47 31.3097C39.47 30.9497 39.61 30.6197 39.86 30.3697C40.38 29.8497 41.23 29.8497 41.75 30.3697L43.99 32.6097L46.23 30.3697C46.75 29.8497 47.6 29.8497 48.12 30.3697C48.37 30.6197 48.51 30.9597 48.51 31.3197C48.51 31.6797 48.37 32.0097 48.12 32.2697L45.33 35.0597V41.2097C45.33 41.4197 45.16 41.5897 44.96 41.5897V41.6097Z" fill="#C4E5EE"/>
</g>
<path d="M80.54 33.77H80V30.04H80.54V31.57C80.69 31.495 80.855 31.47 81.015 31.47C81.235 31.47 81.89 31.58 82.23 31.58C82.385 31.58 82.575 31.555 82.735 31.485V30.04H83.28V33.77H82.735V32.035C82.575 32.105 82.385 32.13 82.23 32.13C81.89 32.13 81.235 32.02 81.015 32.02C80.855 32.02 80.69 32.045 80.54 32.12V33.77ZM85.0499 31.12H85.6049L87.0049 33.77H86.4399L86.2349 33.38H85.9249C85.2849 33.38 84.6199 33.63 84.5349 33.74L84.5199 33.77H83.9799L85.2199 31.445L85.0499 31.12ZM85.9199 32.91H85.9899L85.4849 31.95L84.8699 33.135C85.0349 33.05 85.3849 32.91 85.9199 32.91ZM91.1289 31.18V33.77H87.8039V31.18H88.3089V33.225H89.1889V31.275H89.7239V33.225H90.6189V31.18H91.1289ZM92.9503 31.12H93.5053L94.9053 33.77H94.3403L94.1353 33.38H93.8253C93.1853 33.38 92.5203 33.63 92.4353 33.74L92.4203 33.77H91.8803L93.1203 31.445L92.9503 31.12ZM93.8203 32.91H93.8903L93.3853 31.95L92.7703 33.135C92.9353 33.05 93.2853 32.91 93.8203 32.91ZM97.6067 33.77H97.0617V31.18H97.6067V32.23H97.7767C97.9567 32.23 98.0717 32.205 98.1717 32.125L98.9017 31.18H99.5617L98.6117 32.395L99.0467 32.985C99.2017 33.2 99.3917 33.25 99.5217 33.25H99.7017V33.77H99.4767C99.2067 33.77 98.9767 33.755 98.7017 33.36L98.2467 32.71C98.1117 32.76 97.9667 32.775 97.8267 32.775H97.6067V33.77ZM103.509 32.45C103.509 33.33 102.759 33.85 101.974 33.85C101.189 33.85 100.449 33.34 100.449 32.465C100.449 31.585 101.204 31.095 101.979 31.095C102.759 31.095 103.509 31.55 103.509 32.45ZM102.969 32.455C102.969 31.875 102.469 31.625 101.979 31.625C101.479 31.625 100.989 31.89 100.989 32.475C100.989 33.06 101.489 33.325 101.984 33.325C102.474 33.325 102.969 33.015 102.969 32.455ZM107.349 31.595V33.77H106.784V32.255L105.869 33.475L104.954 32.255V33.77H104.389V31.595L104.134 31.18H104.764L105.869 32.645L106.974 31.18H107.604L107.349 31.595ZM109.195 31.12H109.75L111.15 33.77H110.585L110.38 33.38H110.07C109.43 33.38 108.765 33.63 108.68 33.74L108.665 33.77H108.125L109.365 31.445L109.195 31.12ZM110.065 32.91H110.135L109.63 31.95L109.015 33.135C109.18 33.05 109.53 32.91 110.065 32.91ZM112.415 33.77H111.905V31.18H112.415V32.215C112.51 32.17 112.615 32.15 112.72 32.15C112.935 32.15 113.24 32.225 113.5 32.225C113.61 32.225 113.72 32.21 113.825 32.16V31.18H114.335V33.77H113.825V32.685C113.725 32.735 113.625 32.75 113.52 32.75C113.25 32.75 112.995 32.68 112.74 32.68C112.625 32.68 112.52 32.695 112.415 32.74V33.77ZM117.793 34.345V33.77H115.653V34.345H115.133V33.25H115.633C116.133 32.63 116.183 32.115 116.273 31.695H115.863L115.633 31.18H117.988V33.25H118.313V34.345H117.793ZM117.478 33.25V31.695H116.813C116.693 32.24 116.528 32.87 116.243 33.25H117.478ZM119.933 31.12H120.488L121.888 33.77H121.323L121.118 33.38H120.808C120.168 33.38 119.503 33.63 119.418 33.74L119.403 33.77H118.863L120.103 31.445L119.933 31.12ZM120.803 32.91H120.873L120.368 31.95L119.753 33.135C119.918 33.05 120.268 32.91 120.803 32.91ZM126.384 33.48C126.099 33.725 125.714 33.85 125.319 33.85C124.534 33.85 123.794 33.34 123.794 32.465C123.794 31.585 124.549 31.095 125.324 31.095C125.704 31.095 126.044 31.185 126.329 31.4L125.984 31.8C125.789 31.665 125.569 31.615 125.324 31.615C124.824 31.615 124.339 31.89 124.339 32.475C124.339 33.06 124.834 33.33 125.329 33.33C125.599 33.33 125.884 33.23 126.084 33.05L126.384 33.48ZM129.206 33.77V31.695H127.796V33.77H127.286V31.18H129.716V33.77H129.206ZM131.424 33.25H133.049V33.77H130.914V31.18H132.954V31.695H131.424V32.325C131.649 32.195 131.934 32.175 132.234 32.175H132.614V32.69H132.234C131.759 32.69 131.649 32.72 131.424 32.84V33.25ZM136.955 33.225L136.355 34.555H135.825L136.175 33.77H134.025V31.18H134.53V33.225H135.94V31.18H136.45V33.225H136.955ZM139.873 31.18H140.383V33.77H139.873V31.9L138.363 33.77H137.853V31.18H138.363V33.04L139.873 31.18ZM142.203 31.12H142.758L144.158 33.77H143.593L143.388 33.38H143.078C142.438 33.38 141.773 33.63 141.688 33.74L141.673 33.77H141.133L142.373 31.445L142.203 31.12ZM143.073 32.91H143.143L142.638 31.95L142.023 33.135C142.188 33.05 142.538 32.91 143.073 32.91ZM145.144 31.695L144.924 31.18H147.379V33.77H146.834V31.695H146.109C146.049 32.32 145.904 33.09 145.519 33.545C145.344 33.75 145.104 33.77 144.974 33.77H144.709V33.25H144.844C144.949 33.25 145.079 33.195 145.224 32.965C145.484 32.55 145.519 32.19 145.564 31.695H145.144ZM150.6 31.18H151.11V33.77H150.6V31.9L149.09 33.77H148.58V31.18H149.09V33.04L150.6 31.18ZM152.231 31.355C152.576 31.145 152.976 31.095 153.211 31.095C153.906 31.095 154.301 31.365 154.301 31.89C154.301 32.04 154.251 32.24 154.126 32.355C154.331 32.47 154.431 32.725 154.431 32.96C154.431 33.635 153.806 33.855 153.211 33.855C152.766 33.855 152.246 33.675 151.961 33.39L152.256 32.945C152.551 33.235 152.901 33.33 153.211 33.33C153.611 33.33 153.916 33.25 153.916 32.95C153.916 32.705 153.716 32.65 153.511 32.65H152.966V32.135H153.511C153.691 32.135 153.771 32.01 153.771 31.89C153.771 31.695 153.561 31.615 153.211 31.615C153.076 31.615 152.761 31.665 152.521 31.8L152.231 31.355ZM157.402 31.18H157.912V33.77H157.402V31.9L155.892 33.77H155.382V31.18H155.892V33.04L157.402 31.18ZM159.113 33.77V31.18H160.758C161.258 31.18 161.603 31.5 161.603 32C161.603 32.51 161.248 32.835 160.668 32.835H160.438C159.963 32.835 159.848 32.865 159.623 32.985V33.77H159.113ZM159.623 32.47C159.848 32.34 160.138 32.32 160.438 32.32H160.668C160.913 32.32 161.078 32.27 161.078 31.995C161.078 31.745 160.878 31.695 160.668 31.695H159.623V32.47ZM162.534 33.08C162.669 33.185 162.854 33.31 163.009 33.31C163.209 33.31 163.309 33.205 163.404 33.075C162.919 32.83 162.369 32.01 162.149 31.18H162.724C162.879 31.8 163.214 32.355 163.709 32.67C163.904 32.345 164.189 31.77 164.379 31.18H164.934C164.674 31.955 164.249 32.89 163.789 33.44C163.524 33.755 163.349 33.805 162.999 33.805C162.789 33.805 162.469 33.69 162.249 33.525L162.534 33.08ZM166.244 33.25H167.869V33.77H165.734V31.18H167.774V31.695H166.244V32.325C166.469 32.195 166.754 32.175 167.054 32.175H167.434V32.69H167.054C166.579 32.69 166.469 32.72 166.244 32.84V33.25ZM169.899 31.695V33.77H169.384V31.695H168.444V31.18H170.874V31.695H169.899ZM174.016 33.48C173.731 33.725 173.346 33.85 172.951 33.85C172.166 33.85 171.426 33.34 171.426 32.465C171.426 31.585 172.181 31.095 172.956 31.095C173.336 31.095 173.676 31.185 173.961 31.4L173.616 31.8C173.421 31.665 173.201 31.615 172.956 31.615C172.456 31.615 171.971 31.89 171.971 32.475C171.971 33.06 172.466 33.33 172.961 33.33C173.231 33.33 173.516 33.23 173.716 33.05L174.016 33.48ZM175.668 33.36C175.448 33.745 175.213 33.77 174.893 33.77H174.668V33.245H174.933C175.028 33.245 175.133 33.21 175.273 32.985L175.378 32.82C174.943 32.725 174.718 32.43 174.718 32.02C174.718 31.53 175.088 31.18 175.608 31.18H177.193V33.77H176.668V33.01C176.448 32.895 176.328 32.86 175.963 32.845L175.668 33.36ZM176.668 31.7L175.793 31.695C175.573 31.695 175.318 31.72 175.318 32.005C175.318 32.285 175.573 32.31 175.793 32.31C176.158 32.31 176.443 32.33 176.668 32.46V31.7ZM180.262 33.77H179.752V31.18H180.262V32.215C180.357 32.17 180.462 32.15 180.567 32.15C180.782 32.15 181.087 32.225 181.347 32.225C181.457 32.225 181.567 32.21 181.672 32.16V31.18H182.182V33.77H181.672V32.685C181.572 32.735 181.472 32.75 181.367 32.75C181.097 32.75 180.842 32.68 180.587 32.68C180.472 32.68 180.367 32.695 180.262 32.74V33.77ZM184 31.12H184.555L185.955 33.77H185.39L185.185 33.38H184.875C184.235 33.38 183.57 33.63 183.485 33.74L183.47 33.77H182.93L184.17 31.445L184 31.12ZM184.87 32.91H184.94L184.435 31.95L183.82 33.135C183.985 33.05 184.335 32.91 184.87 32.91Z" fill="#C4E5EE"/>
<path d="M82.39 39.48C82.105 39.725 81.72 39.85 81.325 39.85C80.54 39.85 79.8 39.34 79.8 38.465C79.8 37.585 80.555 37.095 81.33 37.095C81.71 37.095 82.05 37.185 82.335 37.4L81.99 37.8C81.795 37.665 81.575 37.615 81.33 37.615C80.83 37.615 80.345 37.89 80.345 38.475C80.345 39.06 80.84 39.33 81.335 39.33C81.605 39.33 81.89 39.23 82.09 39.05L82.39 39.48ZM86.1022 38.45C86.1022 39.33 85.3522 39.85 84.5672 39.85C83.7822 39.85 83.0422 39.34 83.0422 38.465C83.0422 37.585 83.7972 37.095 84.5722 37.095C85.3522 37.095 86.1022 37.55 86.1022 38.45ZM85.5622 38.455C85.5622 37.875 85.0622 37.625 84.5722 37.625C84.0722 37.625 83.5822 37.89 83.5822 38.475C83.5822 39.06 84.0822 39.325 84.5772 39.325C85.0672 39.325 85.5622 39.015 85.5622 38.455ZM86.972 37.355C87.317 37.145 87.717 37.095 87.952 37.095C88.647 37.095 89.042 37.365 89.042 37.89C89.042 38.04 88.992 38.24 88.867 38.355C89.072 38.47 89.172 38.725 89.172 38.96C89.172 39.635 88.547 39.855 87.952 39.855C87.507 39.855 86.987 39.675 86.702 39.39L86.997 38.945C87.292 39.235 87.642 39.33 87.952 39.33C88.352 39.33 88.657 39.25 88.657 38.95C88.657 38.705 88.457 38.65 88.252 38.65H87.707V38.135H88.252C88.432 38.135 88.512 38.01 88.512 37.89C88.512 37.695 88.302 37.615 87.952 37.615C87.817 37.615 87.502 37.665 87.262 37.8L86.972 37.355ZM92.4321 40.345V39.77H90.2921V40.345H89.7721V39.25H90.2721C90.7721 38.63 90.8221 38.115 90.9121 37.695H90.5021L90.2721 37.18H92.6271V39.25H92.9521V40.345H92.4321ZM92.1171 39.25V37.695H91.4521C91.3321 38.24 91.1671 38.87 90.8821 39.25H92.1171ZM94.5714 37.12H95.1264L96.5264 39.77H95.9614L95.7564 39.38H95.4464C94.8064 39.38 94.1414 39.63 94.0564 39.74L94.0414 39.77H93.5014L94.7414 37.445L94.5714 37.12ZM95.4414 38.91H95.5114L95.0064 37.95L94.3914 39.135C94.5564 39.05 94.9064 38.91 95.4414 38.91ZM97.7915 39.77H97.2815V37.18H97.7915V38.215C97.8865 38.17 97.9915 38.15 98.0965 38.15C98.3115 38.15 98.6165 38.225 98.8765 38.225C98.9865 38.225 99.0965 38.21 99.2015 38.16V37.18H99.7115V39.77H99.2015V38.685C99.1015 38.735 99.0015 38.75 98.8965 38.75C98.6265 38.75 98.3715 38.68 98.1165 38.68C98.0015 38.68 97.8965 38.695 97.7915 38.74V39.77ZM102.929 37.18H103.439V39.77H102.929V37.9L101.419 39.77H100.909V37.18H101.419V39.04L102.929 37.18ZM106.66 37.18H107.17V39.77H106.66V37.9L105.15 39.77H104.64V37.18H105.15V39.04L106.66 37.18ZM112.618 37.595V39.77H112.053V38.255L111.138 39.475L110.223 38.255V39.77H109.658V37.595L109.403 37.18H110.033L111.138 38.645L112.243 37.18H112.873L112.618 37.595ZM114.464 37.12H115.019L116.419 39.77H115.854L115.649 39.38H115.339C114.699 39.38 114.034 39.63 113.949 39.74L113.934 39.77H113.394L114.634 37.445L114.464 37.12ZM115.334 38.91H115.404L114.899 37.95L114.284 39.135C114.449 39.05 114.799 38.91 115.334 38.91ZM117.763 39.77H117.218V37.18H117.763V38.23H117.933C118.113 38.23 118.228 38.205 118.328 38.125L119.058 37.18H119.718L118.768 38.395L119.203 38.985C119.358 39.2 119.548 39.25 119.678 39.25H119.858V39.77H119.633C119.363 39.77 119.133 39.755 118.858 39.36L118.403 38.71C118.268 38.76 118.123 38.775 117.983 38.775H117.763V39.77ZM123.196 39.48C122.911 39.725 122.526 39.85 122.131 39.85C121.346 39.85 120.606 39.34 120.606 38.465C120.606 37.585 121.361 37.095 122.136 37.095C122.516 37.095 122.856 37.185 123.141 37.4L122.796 37.8C122.601 37.665 122.381 37.615 122.136 37.615C121.636 37.615 121.151 37.89 121.151 38.475C121.151 39.06 121.646 39.33 122.141 39.33C122.411 39.33 122.696 39.23 122.896 39.05L123.196 39.48ZM126.118 37.18H126.628V39.77H126.118V37.9L124.608 39.77H124.098V37.18H124.608V39.04L126.118 37.18ZM130.718 37.595V39.77H130.153V38.255L129.238 39.475L128.323 38.255V39.77H127.758V37.595L127.503 37.18H128.133L129.238 38.645L130.343 37.18H130.973L130.718 37.595ZM132.565 37.12H133.12L134.52 39.77H133.955L133.75 39.38H133.44C132.8 39.38 132.135 39.63 132.05 39.74L132.035 39.77H131.495L132.735 37.445L132.565 37.12ZM133.435 38.91H133.505L133 37.95L132.385 39.135C132.55 39.05 132.9 38.91 133.435 38.91ZM135.505 37.695L135.285 37.18H137.74V39.77H137.195V37.695H136.47C136.41 38.32 136.265 39.09 135.88 39.545C135.705 39.75 135.465 39.77 135.335 39.77H135.07V39.25H135.205C135.31 39.25 135.44 39.195 135.585 38.965C135.845 38.55 135.88 38.19 135.925 37.695H135.505ZM139.457 37.995C139.682 38.115 139.792 38.145 140.267 38.145H140.532C141.047 38.145 141.452 38.42 141.452 38.96C141.452 39.505 141.047 39.77 140.532 39.77H138.942V37.18H139.457V37.995ZM140.532 39.25C140.742 39.25 140.937 39.2 140.937 38.95C140.937 38.705 140.737 38.66 140.532 38.66H140.267C139.967 38.66 139.682 38.64 139.457 38.51V39.25H140.532ZM142.791 39.77H142.281V37.18H142.791V38.215C142.886 38.17 142.991 38.15 143.096 38.15C143.311 38.15 143.616 38.225 143.876 38.225C143.986 38.225 144.096 38.21 144.201 38.16V37.18H144.711V39.77H144.201V38.685C144.101 38.735 144.001 38.75 143.896 38.75C143.626 38.75 143.371 38.68 143.116 38.68C143.001 38.68 142.896 38.695 142.791 38.74V39.77ZM148.719 38.45C148.719 39.33 147.969 39.85 147.184 39.85C146.399 39.85 145.659 39.34 145.659 38.465C145.659 37.585 146.414 37.095 147.189 37.095C147.969 37.095 148.719 37.55 148.719 38.45ZM148.179 38.455C148.179 37.875 147.679 37.625 147.189 37.625C146.689 37.625 146.199 37.89 146.199 38.475C146.199 39.06 146.699 39.325 147.194 39.325C147.684 39.325 148.179 39.015 148.179 38.455ZM151.027 39.05C151.227 39.23 151.512 39.33 151.782 39.33C152.177 39.33 152.567 39.16 152.712 38.795C152.537 38.715 152.402 38.69 152.002 38.69H151.537V38.175H152.002C152.277 38.175 152.537 38.195 152.752 38.3C152.667 37.835 152.232 37.615 151.787 37.615C151.542 37.615 151.287 37.685 151.092 37.82L150.747 37.42C151.032 37.205 151.407 37.095 151.787 37.095C152.562 37.095 153.317 37.585 153.317 38.465C153.317 39.34 152.577 39.85 151.792 39.85C151.397 39.85 151.012 39.725 150.727 39.48L151.027 39.05ZM155.053 39.31C154.508 39.31 154.068 38.875 154.068 38.335C154.068 37.79 154.508 37.35 155.053 37.35H155.673V37.095H156.183V37.35H156.798C157.343 37.35 157.783 37.79 157.783 38.335C157.783 38.875 157.343 39.31 156.798 39.31C156.588 39.31 156.343 39.315 156.183 39.46V39.77H155.673V39.46C155.513 39.315 155.268 39.31 155.058 39.31H155.053ZM155.673 37.835H155.148C154.868 37.835 154.643 38.06 154.643 38.345C154.643 38.625 154.868 38.84 155.148 38.84C155.318 38.84 155.573 38.885 155.673 38.975V37.835ZM156.708 38.84C156.988 38.83 157.213 38.625 157.213 38.345C157.213 38.06 156.988 37.835 156.708 37.835H156.183V38.975C156.283 38.88 156.538 38.845 156.708 38.84ZM159.467 39.31C158.922 39.31 158.482 38.875 158.482 38.335C158.482 37.79 158.922 37.35 159.467 37.35H160.087V37.095H160.597V37.35H161.212C161.757 37.35 162.197 37.79 162.197 38.335C162.197 38.875 161.757 39.31 161.212 39.31C161.002 39.31 160.757 39.315 160.597 39.46V39.77H160.087V39.46C159.927 39.315 159.682 39.31 159.472 39.31H159.467ZM160.087 37.835H159.562C159.282 37.835 159.057 38.06 159.057 38.345C159.057 38.625 159.282 38.84 159.562 38.84C159.732 38.84 159.987 38.885 160.087 38.975V37.835ZM161.122 38.84C161.402 38.83 161.627 38.625 161.627 38.345C161.627 38.06 161.402 37.835 161.122 37.835H160.597V38.975C160.697 38.88 160.952 38.845 161.122 38.84ZM163.656 39.25H165.281V39.77H163.146V37.18H165.186V37.695H163.656V38.325C163.881 38.195 164.166 38.175 164.466 38.175H164.846V38.69H164.466C163.991 38.69 163.881 38.72 163.656 38.84V39.25ZM166.801 39.77H166.256V37.18H166.801V38.23H166.971C167.151 38.23 167.266 38.205 167.366 38.125L168.096 37.18H168.756L167.806 38.395L168.241 38.985C168.396 39.2 168.586 39.25 168.716 39.25H168.896V39.77H168.671C168.401 39.77 168.171 39.755 167.896 39.36L167.441 38.71C167.306 38.76 167.161 38.775 167.021 38.775H166.801V39.77ZM170.949 37.695V39.77H170.434V37.695H169.494V37.18H171.924V37.695H170.949ZM174.746 37.18H175.256V39.77H174.746V37.9L173.236 39.77H172.726V37.18H173.236V39.04L174.746 37.18ZM178.966 38.96C178.966 39.47 178.616 39.77 178.046 39.77H176.456V37.18H178.046C178.471 37.18 178.831 37.475 178.831 37.91C178.831 38.08 178.786 38.24 178.661 38.355C178.856 38.47 178.966 38.705 178.966 38.96ZM176.971 38.285C177.196 38.155 177.481 38.135 177.781 38.135H178.046C178.226 38.135 178.306 38.06 178.306 37.91C178.306 37.77 178.201 37.695 178.046 37.695H176.971V38.285ZM176.971 39.25H178.046C178.256 39.25 178.451 39.2 178.451 38.95C178.451 38.76 178.331 38.66 178.046 38.66H177.781C177.306 38.66 177.196 38.69 176.971 38.81V39.25ZM180.477 39.77H179.967V37.18H180.477V38.215C180.572 38.17 180.677 38.15 180.782 38.15C180.997 38.15 181.302 38.225 181.562 38.225C181.672 38.225 181.782 38.21 181.887 38.16V37.18H182.397V39.77H181.887V38.685C181.787 38.735 181.687 38.75 181.582 38.75C181.312 38.75 181.057 38.68 180.802 38.68C180.687 38.68 180.582 38.695 180.477 38.74V39.77ZM184.11 37.995C184.335 38.115 184.445 38.145 184.92 38.145H185.035C185.55 38.145 185.955 38.42 185.955 38.96C185.955 39.505 185.55 39.77 185.035 39.77H183.595V37.18H184.11V37.995ZM186.375 39.77V37.18H186.885V39.77H186.375ZM184.11 39.25H185.035C185.245 39.25 185.44 39.2 185.44 38.95C185.44 38.705 185.24 38.66 185.035 38.66H184.92C184.62 38.66 184.335 38.64 184.11 38.51V39.25ZM188.442 39.77H187.737L188.837 38.4L187.882 37.18H188.587L189.197 37.96L189.822 37.18H190.507L189.537 38.395L190.617 39.77H189.917L189.182 38.84L188.442 39.77Z" fill="#C4E5EE"/>
<path d="M82.39 45.48C82.105 45.725 81.72 45.85 81.325 45.85C80.54 45.85 79.8 45.34 79.8 44.465C79.8 43.585 80.555 43.095 81.33 43.095C81.71 43.095 82.05 43.185 82.335 43.4L81.99 43.8C81.795 43.665 81.575 43.615 81.33 43.615C80.83 43.615 80.345 43.89 80.345 44.475C80.345 45.06 80.84 45.33 81.335 45.33C81.605 45.33 81.89 45.23 82.09 45.05L82.39 45.48ZM84.3472 43.695V45.77H83.8322V43.695H82.8922V43.18H85.3222V43.695H84.3472ZM86.1242 45.77V43.18H87.7692C88.2692 43.18 88.6142 43.5 88.6142 44C88.6142 44.51 88.2592 44.835 87.6792 44.835H87.4492C86.9742 44.835 86.8592 44.865 86.6342 44.985V45.77H86.1242ZM86.6342 44.47C86.8592 44.34 87.1492 44.32 87.4492 44.32H87.6792C87.9242 44.32 88.0892 44.27 88.0892 43.995C88.0892 43.745 87.8892 43.695 87.6792 43.695H86.6342V44.47ZM90.1329 43.12H90.6879L92.0879 45.77H91.5229L91.3179 45.38H91.0079C90.3679 45.38 89.7029 45.63 89.6179 45.74L89.6029 45.77H89.0629L90.3029 43.445L90.1329 43.12ZM91.0029 44.91H91.0729L90.5679 43.95L89.9529 45.135C90.1179 45.05 90.4679 44.91 91.0029 44.91ZM93.9419 43.695V45.77H93.4269V43.695H92.4869V43.18H94.9169V43.695H93.9419ZM96.229 45.25H97.854V45.77H95.719V43.18H97.759V43.695H96.229V44.325C96.454 44.195 96.739 44.175 97.039 44.175H97.419V44.69H97.039C96.564 44.69 96.454 44.72 96.229 44.84V45.25ZM99.3393 43.695V45.77H98.8293V43.18H100.719V43.695H99.3393ZM103.667 43.18H104.177V45.77H103.667V43.9L102.157 45.77H101.647V43.18H102.157V45.04L103.667 43.18ZM106.692 42.565C106.367 42.565 106.307 42.35 106.307 42.19H105.732C105.767 42.5 105.977 42.915 106.692 42.915C107.407 42.915 107.617 42.5 107.652 42.19H107.077C107.077 42.35 107.017 42.565 106.692 42.565ZM105.887 45.04L107.397 43.18H107.907V45.77H107.397V43.9L105.887 45.77H105.377V43.18H105.887V45.04ZM112.725 46.345V45.77H110.585V46.345H110.065V45.25H110.565C111.065 44.63 111.115 44.115 111.205 43.695H110.795L110.565 43.18H112.92V45.25H113.245V46.345H112.725ZM112.41 45.25V43.695H111.745C111.625 44.24 111.46 44.87 111.175 45.25H112.41ZM114.382 43.695L114.162 43.18H116.617V45.77H116.072V43.695H115.347C115.287 44.32 115.142 45.09 114.757 45.545C114.582 45.75 114.342 45.77 114.212 45.77H113.947V45.25H114.082C114.187 45.25 114.317 45.195 114.462 44.965C114.722 44.55 114.757 44.19 114.802 43.695H114.382ZM118.569 45.36C118.349 45.745 118.114 45.77 117.794 45.77H117.569V45.245H117.834C117.929 45.245 118.034 45.21 118.174 44.985L118.279 44.82C117.844 44.725 117.619 44.43 117.619 44.02C117.619 43.53 117.989 43.18 118.509 43.18H120.094V45.77H119.569V45.01C119.349 44.895 119.229 44.86 118.864 44.845L118.569 45.36ZM119.569 43.7L118.694 43.695C118.474 43.695 118.219 43.72 118.219 44.005C118.219 44.285 118.474 44.31 118.694 44.31C119.059 44.31 119.344 44.33 119.569 44.46V43.7ZM125.163 44.96C125.163 45.47 124.813 45.77 124.243 45.77H122.653V43.18H124.243C124.668 43.18 125.028 43.475 125.028 43.91C125.028 44.08 124.983 44.24 124.858 44.355C125.053 44.47 125.163 44.705 125.163 44.96ZM123.168 44.285C123.393 44.155 123.678 44.135 123.978 44.135H124.243C124.423 44.135 124.503 44.06 124.503 43.91C124.503 43.77 124.398 43.695 124.243 43.695H123.168V44.285ZM123.168 45.25H124.243C124.453 45.25 124.648 45.2 124.648 44.95C124.648 44.76 124.528 44.66 124.243 44.66H123.978C123.503 44.66 123.393 44.69 123.168 44.81V45.25ZM126.739 43.12H127.294L128.694 45.77H128.129L127.924 45.38H127.614C126.974 45.38 126.309 45.63 126.224 45.74L126.209 45.77H125.669L126.909 43.445L126.739 43.12ZM127.609 44.91H127.679L127.174 43.95L126.559 45.135C126.724 45.05 127.074 44.91 127.609 44.91ZM132.818 43.18V45.77H129.493V43.18H129.998V45.225H130.878V43.275H131.413V45.225H132.308V43.18H132.818ZM134.53 45.25H136.155V45.77H134.02V43.18H136.06V43.695H134.53V44.325C134.755 44.195 135.04 44.175 135.34 44.175H135.72V44.69H135.34C134.865 44.69 134.755 44.72 134.53 44.84V45.25ZM137.64 43.695V45.77H137.13V43.18H139.02V43.695H137.64ZM142.665 44.45C142.665 45.33 141.915 45.85 141.13 45.85C140.345 45.85 139.605 45.34 139.605 44.465C139.605 43.585 140.36 43.095 141.135 43.095C141.915 43.095 142.665 43.55 142.665 44.45ZM142.125 44.455C142.125 43.875 141.625 43.625 141.135 43.625C140.635 43.625 140.145 43.89 140.145 44.475C140.145 45.06 140.645 45.325 141.14 45.325C141.63 45.325 142.125 45.015 142.125 44.455ZM145.487 43.985C145.712 44.105 145.822 44.135 146.297 44.135H146.562C147.077 44.135 147.482 44.42 147.482 44.96C147.482 45.505 147.077 45.77 146.562 45.77H144.972V43.18H146.967V43.695H145.487V43.985ZM146.562 45.25C146.772 45.25 146.967 45.2 146.967 44.95C146.967 44.705 146.767 44.66 146.562 44.66H146.297C145.997 44.66 145.712 44.64 145.487 44.51V45.25H146.562ZM150.4 43.18H150.91V45.77H150.4V43.9L148.89 45.77H148.38V43.18H148.89V45.04L150.4 43.18ZM152.031 43.355C152.376 43.145 152.776 43.095 153.011 43.095C153.706 43.095 154.101 43.365 154.101 43.89C154.101 44.04 154.051 44.24 153.926 44.355C154.131 44.47 154.231 44.725 154.231 44.96C154.231 45.635 153.606 45.855 153.011 45.855C152.566 45.855 152.046 45.675 151.761 45.39L152.056 44.945C152.351 45.235 152.701 45.33 153.011 45.33C153.411 45.33 153.716 45.25 153.716 44.95C153.716 44.705 153.516 44.65 153.311 44.65H152.766V44.135H153.311C153.491 44.135 153.571 44.01 153.571 43.89C153.571 43.695 153.361 43.615 153.011 43.615C152.876 43.615 152.561 43.665 152.321 43.8L152.031 43.355ZM155.692 45.77H155.182V43.18H155.692V44.215C155.787 44.17 155.892 44.15 155.997 44.15C156.212 44.15 156.517 44.225 156.777 44.225C156.887 44.225 156.997 44.21 157.102 44.16V43.18H157.612V45.77H157.102V44.685C157.002 44.735 156.902 44.75 156.797 44.75C156.527 44.75 156.272 44.68 156.017 44.68C155.902 44.68 155.797 44.695 155.692 44.74V45.77ZM159.32 45.25H160.945V45.77H158.81V43.18H160.85V43.695H159.32V44.325C159.545 44.195 159.83 44.175 160.13 44.175H160.51V44.69H160.13C159.655 44.69 159.545 44.72 159.32 44.84V45.25ZM164.26 45.48C163.975 45.725 163.59 45.85 163.195 45.85C162.41 45.85 161.67 45.34 161.67 44.465C161.67 43.585 162.425 43.095 163.2 43.095C163.58 43.095 163.92 43.185 164.205 43.4L163.86 43.8C163.665 43.665 163.445 43.615 163.2 43.615C162.7 43.615 162.215 43.89 162.215 44.475C162.215 45.06 162.71 45.33 163.205 45.33C163.475 45.33 163.76 45.23 163.96 45.05L164.26 45.48ZM165.782 43.12H166.337L167.737 45.77H167.172L166.967 45.38H166.657C166.017 45.38 165.352 45.63 165.267 45.74L165.252 45.77H164.712L165.952 43.445L165.782 43.12ZM166.652 44.91H166.722L166.217 43.95L165.602 45.135C165.767 45.05 166.117 44.91 166.652 44.91Z" fill="#C4E5EE"/>
<path d="M82.07 49.18H82.58V51.77H82.07V49.9L80.56 51.77H80.05V49.18H80.56V51.04L82.07 49.18ZM86.1205 51.48C85.8355 51.725 85.4505 51.85 85.0555 51.85C84.2705 51.85 83.5305 51.34 83.5305 50.465C83.5305 49.585 84.2855 49.095 85.0605 49.095C85.4405 49.095 85.7805 49.185 86.0655 49.4L85.7205 49.8C85.5255 49.665 85.3055 49.615 85.0605 49.615C84.5605 49.615 84.0755 49.89 84.0755 50.475C84.0755 51.06 84.5705 51.33 85.0655 51.33C85.3355 51.33 85.6205 51.23 85.8205 51.05L86.1205 51.48ZM88.9427 51.77V49.695H87.5327V51.77H87.0227V49.18H89.4527V51.77H88.9427ZM93.4606 50.45C93.4606 51.33 92.7106 51.85 91.9256 51.85C91.1406 51.85 90.4006 51.34 90.4006 50.465C90.4006 49.585 91.1556 49.095 91.9306 49.095C92.7106 49.095 93.4606 49.55 93.4606 50.45ZM92.9206 50.455C92.9206 49.875 92.4206 49.625 91.9306 49.625C91.4306 49.625 90.9406 49.89 90.9406 50.475C90.9406 51.06 91.4406 51.325 91.9356 51.325C92.4256 51.325 92.9206 51.015 92.9206 50.455ZM94.4014 49.695L94.1814 49.18H96.6364V51.77H96.0914V49.695H95.3664C95.3064 50.32 95.1614 51.09 94.7764 51.545C94.6014 51.75 94.3614 51.77 94.2314 51.77H93.9664V51.25H94.1014C94.2064 51.25 94.3364 51.195 94.4814 50.965C94.7414 50.55 94.7764 50.19 94.8214 49.695H94.4014ZM98.3531 49.995C98.5781 50.115 98.6881 50.145 99.1631 50.145H99.4281C99.9431 50.145 100.348 50.42 100.348 50.96C100.348 51.505 99.9431 51.77 99.4281 51.77H97.8381V49.18H98.3531V49.995ZM99.4281 51.25C99.6381 51.25 99.8331 51.2 99.8331 50.95C99.8331 50.705 99.6331 50.66 99.4281 50.66H99.1631C98.8631 50.66 98.5781 50.64 98.3531 50.51V51.25H99.4281ZM101.142 49.355C101.487 49.145 101.887 49.095 102.122 49.095C102.817 49.095 103.212 49.365 103.212 49.89C103.212 50.04 103.162 50.24 103.037 50.355C103.242 50.47 103.342 50.725 103.342 50.96C103.342 51.635 102.717 51.855 102.122 51.855C101.677 51.855 101.157 51.675 100.872 51.39L101.167 50.945C101.462 51.235 101.812 51.33 102.122 51.33C102.522 51.33 102.827 51.25 102.827 50.95C102.827 50.705 102.627 50.65 102.422 50.65H101.877V50.135H102.422C102.602 50.135 102.682 50.01 102.682 49.89C102.682 49.695 102.472 49.615 102.122 49.615C101.987 49.615 101.672 49.665 101.432 49.8L101.142 49.355ZM104.38 51.08C104.515 51.185 104.7 51.31 104.855 51.31C105.055 51.31 105.155 51.205 105.25 51.075C104.765 50.83 104.215 50.01 103.995 49.18H104.57C104.725 49.8 105.06 50.355 105.555 50.67C105.75 50.345 106.035 49.77 106.225 49.18H106.78C106.52 49.955 106.095 50.89 105.635 51.44C105.37 51.755 105.195 51.805 104.845 51.805C104.635 51.805 104.315 51.69 104.095 51.525L104.38 51.08ZM108.329 51.36C108.109 51.745 107.874 51.77 107.554 51.77H107.329V51.245H107.594C107.689 51.245 107.794 51.21 107.934 50.985L108.039 50.82C107.604 50.725 107.379 50.43 107.379 50.02C107.379 49.53 107.749 49.18 108.269 49.18H109.854V51.77H109.329V51.01C109.109 50.895 108.989 50.86 108.624 50.845L108.329 51.36ZM109.329 49.7L108.454 49.695C108.234 49.695 107.979 49.72 107.979 50.005C107.979 50.285 108.234 50.31 108.454 50.31C108.819 50.31 109.104 50.33 109.329 50.46V49.7ZM114.433 49.18H114.943V51.77H114.433V49.9L112.923 51.77H112.413V49.18H112.923V51.04L114.433 49.18ZM116.654 51.77H116.144V49.18H116.654V50.215C116.749 50.17 116.854 50.15 116.959 50.15C117.174 50.15 117.479 50.225 117.739 50.225C117.849 50.225 117.959 50.21 118.064 50.16V49.18H118.574V51.77H118.064V50.685C117.964 50.735 117.864 50.75 117.759 50.75C117.489 50.75 117.234 50.68 116.979 50.68C116.864 50.68 116.759 50.695 116.654 50.74V51.77ZM120.282 51.77H119.772V49.18H120.282V50.215C120.377 50.17 120.482 50.15 120.587 50.15C120.802 50.15 121.107 50.225 121.367 50.225C121.477 50.225 121.587 50.21 121.692 50.16V49.18H122.202V51.77H121.692V50.685C121.592 50.735 121.492 50.75 121.387 50.75C121.117 50.75 120.862 50.68 120.607 50.68C120.492 50.68 120.387 50.695 120.282 50.74V51.77ZM126.21 50.45C126.21 51.33 125.46 51.85 124.675 51.85C123.89 51.85 123.15 51.34 123.15 50.465C123.15 49.585 123.905 49.095 124.68 49.095C125.46 49.095 126.21 49.55 126.21 50.45ZM125.67 50.455C125.67 49.875 125.17 49.625 124.68 49.625C124.18 49.625 123.69 49.89 123.69 50.475C123.69 51.06 124.19 51.325 124.685 51.325C125.175 51.325 125.67 51.015 125.67 50.455ZM129.669 50.96C129.669 51.47 129.319 51.77 128.749 51.77H127.159V49.18H128.749C129.174 49.18 129.534 49.475 129.534 49.91C129.534 50.08 129.489 50.24 129.364 50.355C129.559 50.47 129.669 50.705 129.669 50.96ZM127.674 50.285C127.899 50.155 128.184 50.135 128.484 50.135H128.749C128.929 50.135 129.009 50.06 129.009 49.91C129.009 49.77 128.904 49.695 128.749 49.695H127.674V50.285ZM127.674 51.25H128.749C128.959 51.25 129.154 51.2 129.154 50.95C129.154 50.76 129.034 50.66 128.749 50.66H128.484C128.009 50.66 127.899 50.69 127.674 50.81V51.25ZM131.246 49.12H131.801L133.201 51.77H132.636L132.431 51.38H132.121C131.481 51.38 130.816 51.63 130.731 51.74L130.716 51.77H130.176L131.416 49.445L131.246 49.12ZM132.116 50.91H132.186L131.681 49.95L131.066 51.135C131.231 51.05 131.581 50.91 132.116 50.91ZM136.784 51.225L136.184 52.555H135.654L136.004 51.77H133.854V49.18H134.359V51.225H135.769V49.18H136.279V51.225H136.784ZM139.702 49.18H140.212V51.77H139.702V49.9L138.192 51.77H137.682V49.18H138.192V51.04L139.702 49.18ZM144.222 50.45C144.222 51.33 143.472 51.85 142.687 51.85C141.902 51.85 141.162 51.34 141.162 50.465C141.162 49.585 141.917 49.095 142.692 49.095C143.472 49.095 144.222 49.55 144.222 50.45ZM143.682 50.455C143.682 49.875 143.182 49.625 142.692 49.625C142.192 49.625 141.702 49.89 141.702 50.475C141.702 51.06 142.202 51.325 142.697 51.325C143.187 51.325 143.682 51.015 143.682 50.455ZM145.682 51.77H145.172V49.18H145.682V50.215C145.777 50.17 145.882 50.15 145.987 50.15C146.202 50.15 146.507 50.225 146.767 50.225C146.877 50.225 146.987 50.21 147.092 50.16V49.18H147.602V51.77H147.092V50.685C146.992 50.735 146.892 50.75 146.787 50.75C146.517 50.75 146.262 50.68 146.007 50.68C145.892 50.68 145.787 50.695 145.682 50.74V51.77ZM149.31 51.77H148.8V49.18H149.31V50.215C149.405 50.17 149.51 50.15 149.615 50.15C149.83 50.15 150.135 50.225 150.395 50.225C150.505 50.225 150.615 50.21 150.72 50.16V49.18H151.23V51.77H150.72V50.685C150.62 50.735 150.52 50.75 150.415 50.75C150.145 50.75 149.89 50.68 149.635 50.68C149.52 50.68 149.415 50.695 149.31 50.74V51.77ZM152.943 49.995C153.168 50.115 153.278 50.145 153.753 50.145H153.868C154.383 50.145 154.788 50.42 154.788 50.96C154.788 51.505 154.383 51.77 153.868 51.77H152.428V49.18H152.943V49.995ZM155.208 51.77V49.18H155.718V51.77H155.208ZM152.943 51.25H153.868C154.078 51.25 154.273 51.2 154.273 50.95C154.273 50.705 154.073 50.66 153.868 50.66H153.753C153.453 50.66 153.168 50.64 152.943 50.51V51.25ZM157.43 51.25H159.055V51.77H156.92V49.18H158.96V49.695H157.43V50.325C157.655 50.195 157.94 50.175 158.24 50.175H158.62V50.69H158.24C157.765 50.69 157.655 50.72 157.43 50.84V51.25ZM164.278 49.595V51.77H163.713V50.255L162.798 51.475L161.883 50.255V51.77H161.318V49.595L161.063 49.18H161.693L162.798 50.645L163.903 49.18H164.533L164.278 49.595ZM165.916 51.25H167.541V51.77H165.406V49.18H167.446V49.695H165.916V50.325C166.141 50.195 166.426 50.175 166.726 50.175H167.106V50.69H166.726C166.251 50.69 166.141 50.72 165.916 50.84V51.25ZM169.572 49.695V51.77H169.057V49.695H168.117V49.18H170.547V49.695H169.572ZM174.159 50.45C174.159 51.33 173.409 51.85 172.624 51.85C171.839 51.85 171.099 51.34 171.099 50.465C171.099 49.585 171.854 49.095 172.629 49.095C173.409 49.095 174.159 49.55 174.159 50.45ZM173.619 50.455C173.619 49.875 173.119 49.625 172.629 49.625C172.129 49.625 171.639 49.89 171.639 50.475C171.639 51.06 172.139 51.325 172.634 51.325C173.124 51.325 173.619 51.015 173.619 50.455ZM177.369 52.345V51.77H175.229V52.345H174.709V51.25H175.209C175.709 50.63 175.759 50.115 175.849 49.695H175.439L175.209 49.18H177.564V51.25H177.889V52.345H177.369ZM177.054 51.25V49.695H176.389C176.269 50.24 176.104 50.87 175.819 51.25H177.054ZM179.305 49.995C179.53 50.115 179.64 50.145 180.115 50.145H180.23C180.745 50.145 181.15 50.42 181.15 50.96C181.15 51.505 180.745 51.77 180.23 51.77H178.79V49.18H179.305V49.995ZM181.57 51.77V49.18H182.08V51.77H181.57ZM179.305 51.25H180.23C180.44 51.25 180.635 51.2 180.635 50.95C180.635 50.705 180.435 50.66 180.23 50.66H180.115C179.815 50.66 179.53 50.64 179.305 50.51V51.25Z" fill="#C4E5EE"/>
<path d="M80.54 33.77H80V30.04H80.54V31.57C80.69 31.495 80.855 31.47 81.015 31.47C81.235 31.47 81.89 31.58 82.23 31.58C82.385 31.58 82.575 31.555 82.735 31.485V30.04H83.28V33.77H82.735V32.035C82.575 32.105 82.385 32.13 82.23 32.13C81.89 32.13 81.235 32.02 81.015 32.02C80.855 32.02 80.69 32.045 80.54 32.12V33.77ZM85.0499 31.12H85.6049L87.0049 33.77H86.4399L86.2349 33.38H85.9249C85.2849 33.38 84.6199 33.63 84.5349 33.74L84.5199 33.77H83.9799L85.2199 31.445L85.0499 31.12ZM85.9199 32.91H85.9899L85.4849 31.95L84.8699 33.135C85.0349 33.05 85.3849 32.91 85.9199 32.91ZM91.1289 31.18V33.77H87.8039V31.18H88.3089V33.225H89.1889V31.275H89.7239V33.225H90.6189V31.18H91.1289ZM92.9503 31.12H93.5053L94.9053 33.77H94.3403L94.1353 33.38H93.8253C93.1853 33.38 92.5203 33.63 92.4353 33.74L92.4203 33.77H91.8803L93.1203 31.445L92.9503 31.12ZM93.8203 32.91H93.8903L93.3853 31.95L92.7703 33.135C92.9353 33.05 93.2853 32.91 93.8203 32.91ZM97.6067 33.77H97.0617V31.18H97.6067V32.23H97.7767C97.9567 32.23 98.0717 32.205 98.1717 32.125L98.9017 31.18H99.5617L98.6117 32.395L99.0467 32.985C99.2017 33.2 99.3917 33.25 99.5217 33.25H99.7017V33.77H99.4767C99.2067 33.77 98.9767 33.755 98.7017 33.36L98.2467 32.71C98.1117 32.76 97.9667 32.775 97.8267 32.775H97.6067V33.77ZM103.509 32.45C103.509 33.33 102.759 33.85 101.974 33.85C101.189 33.85 100.449 33.34 100.449 32.465C100.449 31.585 101.204 31.095 101.979 31.095C102.759 31.095 103.509 31.55 103.509 32.45ZM102.969 32.455C102.969 31.875 102.469 31.625 101.979 31.625C101.479 31.625 100.989 31.89 100.989 32.475C100.989 33.06 101.489 33.325 101.984 33.325C102.474 33.325 102.969 33.015 102.969 32.455ZM107.349 31.595V33.77H106.784V32.255L105.869 33.475L104.954 32.255V33.77H104.389V31.595L104.134 31.18H104.764L105.869 32.645L106.974 31.18H107.604L107.349 31.595ZM109.195 31.12H109.75L111.15 33.77H110.585L110.38 33.38H110.07C109.43 33.38 108.765 33.63 108.68 33.74L108.665 33.77H108.125L109.365 31.445L109.195 31.12ZM110.065 32.91H110.135L109.63 31.95L109.015 33.135C109.18 33.05 109.53 32.91 110.065 32.91ZM112.415 33.77H111.905V31.18H112.415V32.215C112.51 32.17 112.615 32.15 112.72 32.15C112.935 32.15 113.24 32.225 113.5 32.225C113.61 32.225 113.72 32.21 113.825 32.16V31.18H114.335V33.77H113.825V32.685C113.725 32.735 113.625 32.75 113.52 32.75C113.25 32.75 112.995 32.68 112.74 32.68C112.625 32.68 112.52 32.695 112.415 32.74V33.77ZM117.793 34.345V33.77H115.653V34.345H115.133V33.25H115.633C116.133 32.63 116.183 32.115 116.273 31.695H115.863L115.633 31.18H117.988V33.25H118.313V34.345H117.793ZM117.478 33.25V31.695H116.813C116.693 32.24 116.528 32.87 116.243 33.25H117.478ZM119.933 31.12H120.488L121.888 33.77H121.323L121.118 33.38H120.808C120.168 33.38 119.503 33.63 119.418 33.74L119.403 33.77H118.863L120.103 31.445L119.933 31.12ZM120.803 32.91H120.873L120.368 31.95L119.753 33.135C119.918 33.05 120.268 32.91 120.803 32.91ZM126.384 33.48C126.099 33.725 125.714 33.85 125.319 33.85C124.534 33.85 123.794 33.34 123.794 32.465C123.794 31.585 124.549 31.095 125.324 31.095C125.704 31.095 126.044 31.185 126.329 31.4L125.984 31.8C125.789 31.665 125.569 31.615 125.324 31.615C124.824 31.615 124.339 31.89 124.339 32.475C124.339 33.06 124.834 33.33 125.329 33.33C125.599 33.33 125.884 33.23 126.084 33.05L126.384 33.48ZM129.206 33.77V31.695H127.796V33.77H127.286V31.18H129.716V33.77H129.206ZM131.424 33.25H133.049V33.77H130.914V31.18H132.954V31.695H131.424V32.325C131.649 32.195 131.934 32.175 132.234 32.175H132.614V32.69H132.234C131.759 32.69 131.649 32.72 131.424 32.84V33.25ZM136.955 33.225L136.355 34.555H135.825L136.175 33.77H134.025V31.18H134.53V33.225H135.94V31.18H136.45V33.225H136.955ZM139.873 31.18H140.383V33.77H139.873V31.9L138.363 33.77H137.853V31.18H138.363V33.04L139.873 31.18ZM142.203 31.12H142.758L144.158 33.77H143.593L143.388 33.38H143.078C142.438 33.38 141.773 33.63 141.688 33.74L141.673 33.77H141.133L142.373 31.445L142.203 31.12ZM143.073 32.91H143.143L142.638 31.95L142.023 33.135C142.188 33.05 142.538 32.91 143.073 32.91ZM145.144 31.695L144.924 31.18H147.379V33.77H146.834V31.695H146.109C146.049 32.32 145.904 33.09 145.519 33.545C145.344 33.75 145.104 33.77 144.974 33.77H144.709V33.25H144.844C144.949 33.25 145.079 33.195 145.224 32.965C145.484 32.55 145.519 32.19 145.564 31.695H145.144ZM150.6 31.18H151.11V33.77H150.6V31.9L149.09 33.77H148.58V31.18H149.09V33.04L150.6 31.18ZM152.231 31.355C152.576 31.145 152.976 31.095 153.211 31.095C153.906 31.095 154.301 31.365 154.301 31.89C154.301 32.04 154.251 32.24 154.126 32.355C154.331 32.47 154.431 32.725 154.431 32.96C154.431 33.635 153.806 33.855 153.211 33.855C152.766 33.855 152.246 33.675 151.961 33.39L152.256 32.945C152.551 33.235 152.901 33.33 153.211 33.33C153.611 33.33 153.916 33.25 153.916 32.95C153.916 32.705 153.716 32.65 153.511 32.65H152.966V32.135H153.511C153.691 32.135 153.771 32.01 153.771 31.89C153.771 31.695 153.561 31.615 153.211 31.615C153.076 31.615 152.761 31.665 152.521 31.8L152.231 31.355ZM157.402 31.18H157.912V33.77H157.402V31.9L155.892 33.77H155.382V31.18H155.892V33.04L157.402 31.18ZM159.113 33.77V31.18H160.758C161.258 31.18 161.603 31.5 161.603 32C161.603 32.51 161.248 32.835 160.668 32.835H160.438C159.963 32.835 159.848 32.865 159.623 32.985V33.77H159.113ZM159.623 32.47C159.848 32.34 160.138 32.32 160.438 32.32H160.668C160.913 32.32 161.078 32.27 161.078 31.995C161.078 31.745 160.878 31.695 160.668 31.695H159.623V32.47ZM162.534 33.08C162.669 33.185 162.854 33.31 163.009 33.31C163.209 33.31 163.309 33.205 163.404 33.075C162.919 32.83 162.369 32.01 162.149 31.18H162.724C162.879 31.8 163.214 32.355 163.709 32.67C163.904 32.345 164.189 31.77 164.379 31.18H164.934C164.674 31.955 164.249 32.89 163.789 33.44C163.524 33.755 163.349 33.805 162.999 33.805C162.789 33.805 162.469 33.69 162.249 33.525L162.534 33.08ZM166.244 33.25H167.869V33.77H165.734V31.18H167.774V31.695H166.244V32.325C166.469 32.195 166.754 32.175 167.054 32.175H167.434V32.69H167.054C166.579 32.69 166.469 32.72 166.244 32.84V33.25ZM169.899 31.695V33.77H169.384V31.695H168.444V31.18H170.874V31.695H169.899ZM174.016 33.48C173.731 33.725 173.346 33.85 172.951 33.85C172.166 33.85 171.426 33.34 171.426 32.465C171.426 31.585 172.181 31.095 172.956 31.095C173.336 31.095 173.676 31.185 173.961 31.4L173.616 31.8C173.421 31.665 173.201 31.615 172.956 31.615C172.456 31.615 171.971 31.89 171.971 32.475C171.971 33.06 172.466 33.33 172.961 33.33C173.231 33.33 173.516 33.23 173.716 33.05L174.016 33.48ZM175.668 33.36C175.448 33.745 175.213 33.77 174.893 33.77H174.668V33.245H174.933C175.028 33.245 175.133 33.21 175.273 32.985L175.378 32.82C174.943 32.725 174.718 32.43 174.718 32.02C174.718 31.53 175.088 31.18 175.608 31.18H177.193V33.77H176.668V33.01C176.448 32.895 176.328 32.86 175.963 32.845L175.668 33.36ZM176.668 31.7L175.793 31.695C175.573 31.695 175.318 31.72 175.318 32.005C175.318 32.285 175.573 32.31 175.793 32.31C176.158 32.31 176.443 32.33 176.668 32.46V31.7ZM180.262 33.77H179.752V31.18H180.262V32.215C180.357 32.17 180.462 32.15 180.567 32.15C180.782 32.15 181.087 32.225 181.347 32.225C181.457 32.225 181.567 32.21 181.672 32.16V31.18H182.182V33.77H181.672V32.685C181.572 32.735 181.472 32.75 181.367 32.75C181.097 32.75 180.842 32.68 180.587 32.68C180.472 32.68 180.367 32.695 180.262 32.74V33.77ZM184 31.12H184.555L185.955 33.77H185.39L185.185 33.38H184.875C184.235 33.38 183.57 33.63 183.485 33.74L183.47 33.77H182.93L184.17 31.445L184 31.12ZM184.87 32.91H184.94L184.435 31.95L183.82 33.135C183.985 33.05 184.335 32.91 184.87 32.91Z" fill="#C4E5EE"/>
<path d="M82.39 39.48C82.105 39.725 81.72 39.85 81.325 39.85C80.54 39.85 79.8 39.34 79.8 38.465C79.8 37.585 80.555 37.095 81.33 37.095C81.71 37.095 82.05 37.185 82.335 37.4L81.99 37.8C81.795 37.665 81.575 37.615 81.33 37.615C80.83 37.615 80.345 37.89 80.345 38.475C80.345 39.06 80.84 39.33 81.335 39.33C81.605 39.33 81.89 39.23 82.09 39.05L82.39 39.48ZM86.1022 38.45C86.1022 39.33 85.3522 39.85 84.5672 39.85C83.7822 39.85 83.0422 39.34 83.0422 38.465C83.0422 37.585 83.7972 37.095 84.5722 37.095C85.3522 37.095 86.1022 37.55 86.1022 38.45ZM85.5622 38.455C85.5622 37.875 85.0622 37.625 84.5722 37.625C84.0722 37.625 83.5822 37.89 83.5822 38.475C83.5822 39.06 84.0822 39.325 84.5772 39.325C85.0672 39.325 85.5622 39.015 85.5622 38.455ZM86.972 37.355C87.317 37.145 87.717 37.095 87.952 37.095C88.647 37.095 89.042 37.365 89.042 37.89C89.042 38.04 88.992 38.24 88.867 38.355C89.072 38.47 89.172 38.725 89.172 38.96C89.172 39.635 88.547 39.855 87.952 39.855C87.507 39.855 86.987 39.675 86.702 39.39L86.997 38.945C87.292 39.235 87.642 39.33 87.952 39.33C88.352 39.33 88.657 39.25 88.657 38.95C88.657 38.705 88.457 38.65 88.252 38.65H87.707V38.135H88.252C88.432 38.135 88.512 38.01 88.512 37.89C88.512 37.695 88.302 37.615 87.952 37.615C87.817 37.615 87.502 37.665 87.262 37.8L86.972 37.355ZM92.4321 40.345V39.77H90.2921V40.345H89.7721V39.25H90.2721C90.7721 38.63 90.8221 38.115 90.9121 37.695H90.5021L90.2721 37.18H92.6271V39.25H92.9521V40.345H92.4321ZM92.1171 39.25V37.695H91.4521C91.3321 38.24 91.1671 38.87 90.8821 39.25H92.1171ZM94.5714 37.12H95.1264L96.5264 39.77H95.9614L95.7564 39.38H95.4464C94.8064 39.38 94.1414 39.63 94.0564 39.74L94.0414 39.77H93.5014L94.7414 37.445L94.5714 37.12ZM95.4414 38.91H95.5114L95.0064 37.95L94.3914 39.135C94.5564 39.05 94.9064 38.91 95.4414 38.91ZM97.7915 39.77H97.2815V37.18H97.7915V38.215C97.8865 38.17 97.9915 38.15 98.0965 38.15C98.3115 38.15 98.6165 38.225 98.8765 38.225C98.9865 38.225 99.0965 38.21 99.2015 38.16V37.18H99.7115V39.77H99.2015V38.685C99.1015 38.735 99.0015 38.75 98.8965 38.75C98.6265 38.75 98.3715 38.68 98.1165 38.68C98.0015 38.68 97.8965 38.695 97.7915 38.74V39.77ZM102.929 37.18H103.439V39.77H102.929V37.9L101.419 39.77H100.909V37.18H101.419V39.04L102.929 37.18ZM106.66 37.18H107.17V39.77H106.66V37.9L105.15 39.77H104.64V37.18H105.15V39.04L106.66 37.18ZM112.618 37.595V39.77H112.053V38.255L111.138 39.475L110.223 38.255V39.77H109.658V37.595L109.403 37.18H110.033L111.138 38.645L112.243 37.18H112.873L112.618 37.595ZM114.464 37.12H115.019L116.419 39.77H115.854L115.649 39.38H115.339C114.699 39.38 114.034 39.63 113.949 39.74L113.934 39.77H113.394L114.634 37.445L114.464 37.12ZM115.334 38.91H115.404L114.899 37.95L114.284 39.135C114.449 39.05 114.799 38.91 115.334 38.91ZM117.763 39.77H117.218V37.18H117.763V38.23H117.933C118.113 38.23 118.228 38.205 118.328 38.125L119.058 37.18H119.718L118.768 38.395L119.203 38.985C119.358 39.2 119.548 39.25 119.678 39.25H119.858V39.77H119.633C119.363 39.77 119.133 39.755 118.858 39.36L118.403 38.71C118.268 38.76 118.123 38.775 117.983 38.775H117.763V39.77ZM123.196 39.48C122.911 39.725 122.526 39.85 122.131 39.85C121.346 39.85 120.606 39.34 120.606 38.465C120.606 37.585 121.361 37.095 122.136 37.095C122.516 37.095 122.856 37.185 123.141 37.4L122.796 37.8C122.601 37.665 122.381 37.615 122.136 37.615C121.636 37.615 121.151 37.89 121.151 38.475C121.151 39.06 121.646 39.33 122.141 39.33C122.411 39.33 122.696 39.23 122.896 39.05L123.196 39.48ZM126.118 37.18H126.628V39.77H126.118V37.9L124.608 39.77H124.098V37.18H124.608V39.04L126.118 37.18ZM130.718 37.595V39.77H130.153V38.255L129.238 39.475L128.323 38.255V39.77H127.758V37.595L127.503 37.18H128.133L129.238 38.645L130.343 37.18H130.973L130.718 37.595ZM132.565 37.12H133.12L134.52 39.77H133.955L133.75 39.38H133.44C132.8 39.38 132.135 39.63 132.05 39.74L132.035 39.77H131.495L132.735 37.445L132.565 37.12ZM133.435 38.91H133.505L133 37.95L132.385 39.135C132.55 39.05 132.9 38.91 133.435 38.91ZM135.505 37.695L135.285 37.18H137.74V39.77H137.195V37.695H136.47C136.41 38.32 136.265 39.09 135.88 39.545C135.705 39.75 135.465 39.77 135.335 39.77H135.07V39.25H135.205C135.31 39.25 135.44 39.195 135.585 38.965C135.845 38.55 135.88 38.19 135.925 37.695H135.505ZM139.457 37.995C139.682 38.115 139.792 38.145 140.267 38.145H140.532C141.047 38.145 141.452 38.42 141.452 38.96C141.452 39.505 141.047 39.77 140.532 39.77H138.942V37.18H139.457V37.995ZM140.532 39.25C140.742 39.25 140.937 39.2 140.937 38.95C140.937 38.705 140.737 38.66 140.532 38.66H140.267C139.967 38.66 139.682 38.64 139.457 38.51V39.25H140.532ZM142.791 39.77H142.281V37.18H142.791V38.215C142.886 38.17 142.991 38.15 143.096 38.15C143.311 38.15 143.616 38.225 143.876 38.225C143.986 38.225 144.096 38.21 144.201 38.16V37.18H144.711V39.77H144.201V38.685C144.101 38.735 144.001 38.75 143.896 38.75C143.626 38.75 143.371 38.68 143.116 38.68C143.001 38.68 142.896 38.695 142.791 38.74V39.77ZM148.719 38.45C148.719 39.33 147.969 39.85 147.184 39.85C146.399 39.85 145.659 39.34 145.659 38.465C145.659 37.585 146.414 37.095 147.189 37.095C147.969 37.095 148.719 37.55 148.719 38.45ZM148.179 38.455C148.179 37.875 147.679 37.625 147.189 37.625C146.689 37.625 146.199 37.89 146.199 38.475C146.199 39.06 146.699 39.325 147.194 39.325C147.684 39.325 148.179 39.015 148.179 38.455ZM151.027 39.05C151.227 39.23 151.512 39.33 151.782 39.33C152.177 39.33 152.567 39.16 152.712 38.795C152.537 38.715 152.402 38.69 152.002 38.69H151.537V38.175H152.002C152.277 38.175 152.537 38.195 152.752 38.3C152.667 37.835 152.232 37.615 151.787 37.615C151.542 37.615 151.287 37.685 151.092 37.82L150.747 37.42C151.032 37.205 151.407 37.095 151.787 37.095C152.562 37.095 153.317 37.585 153.317 38.465C153.317 39.34 152.577 39.85 151.792 39.85C151.397 39.85 151.012 39.725 150.727 39.48L151.027 39.05ZM155.053 39.31C154.508 39.31 154.068 38.875 154.068 38.335C154.068 37.79 154.508 37.35 155.053 37.35H155.673V37.095H156.183V37.35H156.798C157.343 37.35 157.783 37.79 157.783 38.335C157.783 38.875 157.343 39.31 156.798 39.31C156.588 39.31 156.343 39.315 156.183 39.46V39.77H155.673V39.46C155.513 39.315 155.268 39.31 155.058 39.31H155.053ZM155.673 37.835H155.148C154.868 37.835 154.643 38.06 154.643 38.345C154.643 38.625 154.868 38.84 155.148 38.84C155.318 38.84 155.573 38.885 155.673 38.975V37.835ZM156.708 38.84C156.988 38.83 157.213 38.625 157.213 38.345C157.213 38.06 156.988 37.835 156.708 37.835H156.183V38.975C156.283 38.88 156.538 38.845 156.708 38.84ZM159.467 39.31C158.922 39.31 158.482 38.875 158.482 38.335C158.482 37.79 158.922 37.35 159.467 37.35H160.087V37.095H160.597V37.35H161.212C161.757 37.35 162.197 37.79 162.197 38.335C162.197 38.875 161.757 39.31 161.212 39.31C161.002 39.31 160.757 39.315 160.597 39.46V39.77H160.087V39.46C159.927 39.315 159.682 39.31 159.472 39.31H159.467ZM160.087 37.835H159.562C159.282 37.835 159.057 38.06 159.057 38.345C159.057 38.625 159.282 38.84 159.562 38.84C159.732 38.84 159.987 38.885 160.087 38.975V37.835ZM161.122 38.84C161.402 38.83 161.627 38.625 161.627 38.345C161.627 38.06 161.402 37.835 161.122 37.835H160.597V38.975C160.697 38.88 160.952 38.845 161.122 38.84ZM163.656 39.25H165.281V39.77H163.146V37.18H165.186V37.695H163.656V38.325C163.881 38.195 164.166 38.175 164.466 38.175H164.846V38.69H164.466C163.991 38.69 163.881 38.72 163.656 38.84V39.25ZM166.801 39.77H166.256V37.18H166.801V38.23H166.971C167.151 38.23 167.266 38.205 167.366 38.125L168.096 37.18H168.756L167.806 38.395L168.241 38.985C168.396 39.2 168.586 39.25 168.716 39.25H168.896V39.77H168.671C168.401 39.77 168.171 39.755 167.896 39.36L167.441 38.71C167.306 38.76 167.161 38.775 167.021 38.775H166.801V39.77ZM170.949 37.695V39.77H170.434V37.695H169.494V37.18H171.924V37.695H170.949ZM174.746 37.18H175.256V39.77H174.746V37.9L173.236 39.77H172.726V37.18H173.236V39.04L174.746 37.18ZM178.966 38.96C178.966 39.47 178.616 39.77 178.046 39.77H176.456V37.18H178.046C178.471 37.18 178.831 37.475 178.831 37.91C178.831 38.08 178.786 38.24 178.661 38.355C178.856 38.47 178.966 38.705 178.966 38.96ZM176.971 38.285C177.196 38.155 177.481 38.135 177.781 38.135H178.046C178.226 38.135 178.306 38.06 178.306 37.91C178.306 37.77 178.201 37.695 178.046 37.695H176.971V38.285ZM176.971 39.25H178.046C178.256 39.25 178.451 39.2 178.451 38.95C178.451 38.76 178.331 38.66 178.046 38.66H177.781C177.306 38.66 177.196 38.69 176.971 38.81V39.25ZM180.477 39.77H179.967V37.18H180.477V38.215C180.572 38.17 180.677 38.15 180.782 38.15C180.997 38.15 181.302 38.225 181.562 38.225C181.672 38.225 181.782 38.21 181.887 38.16V37.18H182.397V39.77H181.887V38.685C181.787 38.735 181.687 38.75 181.582 38.75C181.312 38.75 181.057 38.68 180.802 38.68C180.687 38.68 180.582 38.695 180.477 38.74V39.77ZM184.11 37.995C184.335 38.115 184.445 38.145 184.92 38.145H185.035C185.55 38.145 185.955 38.42 185.955 38.96C185.955 39.505 185.55 39.77 185.035 39.77H183.595V37.18H184.11V37.995ZM186.375 39.77V37.18H186.885V39.77H186.375ZM184.11 39.25H185.035C185.245 39.25 185.44 39.2 185.44 38.95C185.44 38.705 185.24 38.66 185.035 38.66H184.92C184.62 38.66 184.335 38.64 184.11 38.51V39.25ZM188.442 39.77H187.737L188.837 38.4L187.882 37.18H188.587L189.197 37.96L189.822 37.18H190.507L189.537 38.395L190.617 39.77H189.917L189.182 38.84L188.442 39.77Z" fill="#C4E5EE"/>
<path d="M82.39 45.48C82.105 45.725 81.72 45.85 81.325 45.85C80.54 45.85 79.8 45.34 79.8 44.465C79.8 43.585 80.555 43.095 81.33 43.095C81.71 43.095 82.05 43.185 82.335 43.4L81.99 43.8C81.795 43.665 81.575 43.615 81.33 43.615C80.83 43.615 80.345 43.89 80.345 44.475C80.345 45.06 80.84 45.33 81.335 45.33C81.605 45.33 81.89 45.23 82.09 45.05L82.39 45.48ZM84.3472 43.695V45.77H83.8322V43.695H82.8922V43.18H85.3222V43.695H84.3472ZM86.1242 45.77V43.18H87.7692C88.2692 43.18 88.6142 43.5 88.6142 44C88.6142 44.51 88.2592 44.835 87.6792 44.835H87.4492C86.9742 44.835 86.8592 44.865 86.6342 44.985V45.77H86.1242ZM86.6342 44.47C86.8592 44.34 87.1492 44.32 87.4492 44.32H87.6792C87.9242 44.32 88.0892 44.27 88.0892 43.995C88.0892 43.745 87.8892 43.695 87.6792 43.695H86.6342V44.47ZM90.1329 43.12H90.6879L92.0879 45.77H91.5229L91.3179 45.38H91.0079C90.3679 45.38 89.7029 45.63 89.6179 45.74L89.6029 45.77H89.0629L90.3029 43.445L90.1329 43.12ZM91.0029 44.91H91.0729L90.5679 43.95L89.9529 45.135C90.1179 45.05 90.4679 44.91 91.0029 44.91ZM93.9419 43.695V45.77H93.4269V43.695H92.4869V43.18H94.9169V43.695H93.9419ZM96.229 45.25H97.854V45.77H95.719V43.18H97.759V43.695H96.229V44.325C96.454 44.195 96.739 44.175 97.039 44.175H97.419V44.69H97.039C96.564 44.69 96.454 44.72 96.229 44.84V45.25ZM99.3393 43.695V45.77H98.8293V43.18H100.719V43.695H99.3393ZM103.667 43.18H104.177V45.77H103.667V43.9L102.157 45.77H101.647V43.18H102.157V45.04L103.667 43.18ZM106.692 42.565C106.367 42.565 106.307 42.35 106.307 42.19H105.732C105.767 42.5 105.977 42.915 106.692 42.915C107.407 42.915 107.617 42.5 107.652 42.19H107.077C107.077 42.35 107.017 42.565 106.692 42.565ZM105.887 45.04L107.397 43.18H107.907V45.77H107.397V43.9L105.887 45.77H105.377V43.18H105.887V45.04ZM112.725 46.345V45.77H110.585V46.345H110.065V45.25H110.565C111.065 44.63 111.115 44.115 111.205 43.695H110.795L110.565 43.18H112.92V45.25H113.245V46.345H112.725ZM112.41 45.25V43.695H111.745C111.625 44.24 111.46 44.87 111.175 45.25H112.41ZM114.382 43.695L114.162 43.18H116.617V45.77H116.072V43.695H115.347C115.287 44.32 115.142 45.09 114.757 45.545C114.582 45.75 114.342 45.77 114.212 45.77H113.947V45.25H114.082C114.187 45.25 114.317 45.195 114.462 44.965C114.722 44.55 114.757 44.19 114.802 43.695H114.382ZM118.569 45.36C118.349 45.745 118.114 45.77 117.794 45.77H117.569V45.245H117.834C117.929 45.245 118.034 45.21 118.174 44.985L118.279 44.82C117.844 44.725 117.619 44.43 117.619 44.02C117.619 43.53 117.989 43.18 118.509 43.18H120.094V45.77H119.569V45.01C119.349 44.895 119.229 44.86 118.864 44.845L118.569 45.36ZM119.569 43.7L118.694 43.695C118.474 43.695 118.219 43.72 118.219 44.005C118.219 44.285 118.474 44.31 118.694 44.31C119.059 44.31 119.344 44.33 119.569 44.46V43.7ZM125.163 44.96C125.163 45.47 124.813 45.77 124.243 45.77H122.653V43.18H124.243C124.668 43.18 125.028 43.475 125.028 43.91C125.028 44.08 124.983 44.24 124.858 44.355C125.053 44.47 125.163 44.705 125.163 44.96ZM123.168 44.285C123.393 44.155 123.678 44.135 123.978 44.135H124.243C124.423 44.135 124.503 44.06 124.503 43.91C124.503 43.77 124.398 43.695 124.243 43.695H123.168V44.285ZM123.168 45.25H124.243C124.453 45.25 124.648 45.2 124.648 44.95C124.648 44.76 124.528 44.66 124.243 44.66H123.978C123.503 44.66 123.393 44.69 123.168 44.81V45.25ZM126.739 43.12H127.294L128.694 45.77H128.129L127.924 45.38H127.614C126.974 45.38 126.309 45.63 126.224 45.74L126.209 45.77H125.669L126.909 43.445L126.739 43.12ZM127.609 44.91H127.679L127.174 43.95L126.559 45.135C126.724 45.05 127.074 44.91 127.609 44.91ZM132.818 43.18V45.77H129.493V43.18H129.998V45.225H130.878V43.275H131.413V45.225H132.308V43.18H132.818ZM134.53 45.25H136.155V45.77H134.02V43.18H136.06V43.695H134.53V44.325C134.755 44.195 135.04 44.175 135.34 44.175H135.72V44.69H135.34C134.865 44.69 134.755 44.72 134.53 44.84V45.25ZM137.64 43.695V45.77H137.13V43.18H139.02V43.695H137.64ZM142.665 44.45C142.665 45.33 141.915 45.85 141.13 45.85C140.345 45.85 139.605 45.34 139.605 44.465C139.605 43.585 140.36 43.095 141.135 43.095C141.915 43.095 142.665 43.55 142.665 44.45ZM142.125 44.455C142.125 43.875 141.625 43.625 141.135 43.625C140.635 43.625 140.145 43.89 140.145 44.475C140.145 45.06 140.645 45.325 141.14 45.325C141.63 45.325 142.125 45.015 142.125 44.455ZM145.487 43.985C145.712 44.105 145.822 44.135 146.297 44.135H146.562C147.077 44.135 147.482 44.42 147.482 44.96C147.482 45.505 147.077 45.77 146.562 45.77H144.972V43.18H146.967V43.695H145.487V43.985ZM146.562 45.25C146.772 45.25 146.967 45.2 146.967 44.95C146.967 44.705 146.767 44.66 146.562 44.66H146.297C145.997 44.66 145.712 44.64 145.487 44.51V45.25H146.562ZM150.4 43.18H150.91V45.77H150.4V43.9L148.89 45.77H148.38V43.18H148.89V45.04L150.4 43.18ZM152.031 43.355C152.376 43.145 152.776 43.095 153.011 43.095C153.706 43.095 154.101 43.365 154.101 43.89C154.101 44.04 154.051 44.24 153.926 44.355C154.131 44.47 154.231 44.725 154.231 44.96C154.231 45.635 153.606 45.855 153.011 45.855C152.566 45.855 152.046 45.675 151.761 45.39L152.056 44.945C152.351 45.235 152.701 45.33 153.011 45.33C153.411 45.33 153.716 45.25 153.716 44.95C153.716 44.705 153.516 44.65 153.311 44.65H152.766V44.135H153.311C153.491 44.135 153.571 44.01 153.571 43.89C153.571 43.695 153.361 43.615 153.011 43.615C152.876 43.615 152.561 43.665 152.321 43.8L152.031 43.355ZM155.692 45.77H155.182V43.18H155.692V44.215C155.787 44.17 155.892 44.15 155.997 44.15C156.212 44.15 156.517 44.225 156.777 44.225C156.887 44.225 156.997 44.21 157.102 44.16V43.18H157.612V45.77H157.102V44.685C157.002 44.735 156.902 44.75 156.797 44.75C156.527 44.75 156.272 44.68 156.017 44.68C155.902 44.68 155.797 44.695 155.692 44.74V45.77ZM159.32 45.25H160.945V45.77H158.81V43.18H160.85V43.695H159.32V44.325C159.545 44.195 159.83 44.175 160.13 44.175H160.51V44.69H160.13C159.655 44.69 159.545 44.72 159.32 44.84V45.25ZM164.26 45.48C163.975 45.725 163.59 45.85 163.195 45.85C162.41 45.85 161.67 45.34 161.67 44.465C161.67 43.585 162.425 43.095 163.2 43.095C163.58 43.095 163.92 43.185 164.205 43.4L163.86 43.8C163.665 43.665 163.445 43.615 163.2 43.615C162.7 43.615 162.215 43.89 162.215 44.475C162.215 45.06 162.71 45.33 163.205 45.33C163.475 45.33 163.76 45.23 163.96 45.05L164.26 45.48ZM165.782 43.12H166.337L167.737 45.77H167.172L166.967 45.38H166.657C166.017 45.38 165.352 45.63 165.267 45.74L165.252 45.77H164.712L165.952 43.445L165.782 43.12ZM166.652 44.91H166.722L166.217 43.95L165.602 45.135C165.767 45.05 166.117 44.91 166.652 44.91Z" fill="#C4E5EE"/>
<path d="M82.07 49.18H82.58V51.77H82.07V49.9L80.56 51.77H80.05V49.18H80.56V51.04L82.07 49.18ZM86.1205 51.48C85.8355 51.725 85.4505 51.85 85.0555 51.85C84.2705 51.85 83.5305 51.34 83.5305 50.465C83.5305 49.585 84.2855 49.095 85.0605 49.095C85.4405 49.095 85.7805 49.185 86.0655 49.4L85.7205 49.8C85.5255 49.665 85.3055 49.615 85.0605 49.615C84.5605 49.615 84.0755 49.89 84.0755 50.475C84.0755 51.06 84.5705 51.33 85.0655 51.33C85.3355 51.33 85.6205 51.23 85.8205 51.05L86.1205 51.48ZM88.9427 51.77V49.695H87.5327V51.77H87.0227V49.18H89.4527V51.77H88.9427ZM93.4606 50.45C93.4606 51.33 92.7106 51.85 91.9256 51.85C91.1406 51.85 90.4006 51.34 90.4006 50.465C90.4006 49.585 91.1556 49.095 91.9306 49.095C92.7106 49.095 93.4606 49.55 93.4606 50.45ZM92.9206 50.455C92.9206 49.875 92.4206 49.625 91.9306 49.625C91.4306 49.625 90.9406 49.89 90.9406 50.475C90.9406 51.06 91.4406 51.325 91.9356 51.325C92.4256 51.325 92.9206 51.015 92.9206 50.455ZM94.4014 49.695L94.1814 49.18H96.6364V51.77H96.0914V49.695H95.3664C95.3064 50.32 95.1614 51.09 94.7764 51.545C94.6014 51.75 94.3614 51.77 94.2314 51.77H93.9664V51.25H94.1014C94.2064 51.25 94.3364 51.195 94.4814 50.965C94.7414 50.55 94.7764 50.19 94.8214 49.695H94.4014ZM98.3531 49.995C98.5781 50.115 98.6881 50.145 99.1631 50.145H99.4281C99.9431 50.145 100.348 50.42 100.348 50.96C100.348 51.505 99.9431 51.77 99.4281 51.77H97.8381V49.18H98.3531V49.995ZM99.4281 51.25C99.6381 51.25 99.8331 51.2 99.8331 50.95C99.8331 50.705 99.6331 50.66 99.4281 50.66H99.1631C98.8631 50.66 98.5781 50.64 98.3531 50.51V51.25H99.4281ZM101.142 49.355C101.487 49.145 101.887 49.095 102.122 49.095C102.817 49.095 103.212 49.365 103.212 49.89C103.212 50.04 103.162 50.24 103.037 50.355C103.242 50.47 103.342 50.725 103.342 50.96C103.342 51.635 102.717 51.855 102.122 51.855C101.677 51.855 101.157 51.675 100.872 51.39L101.167 50.945C101.462 51.235 101.812 51.33 102.122 51.33C102.522 51.33 102.827 51.25 102.827 50.95C102.827 50.705 102.627 50.65 102.422 50.65H101.877V50.135H102.422C102.602 50.135 102.682 50.01 102.682 49.89C102.682 49.695 102.472 49.615 102.122 49.615C101.987 49.615 101.672 49.665 101.432 49.8L101.142 49.355ZM104.38 51.08C104.515 51.185 104.7 51.31 104.855 51.31C105.055 51.31 105.155 51.205 105.25 51.075C104.765 50.83 104.215 50.01 103.995 49.18H104.57C104.725 49.8 105.06 50.355 105.555 50.67C105.75 50.345 106.035 49.77 106.225 49.18H106.78C106.52 49.955 106.095 50.89 105.635 51.44C105.37 51.755 105.195 51.805 104.845 51.805C104.635 51.805 104.315 51.69 104.095 51.525L104.38 51.08ZM108.329 51.36C108.109 51.745 107.874 51.77 107.554 51.77H107.329V51.245H107.594C107.689 51.245 107.794 51.21 107.934 50.985L108.039 50.82C107.604 50.725 107.379 50.43 107.379 50.02C107.379 49.53 107.749 49.18 108.269 49.18H109.854V51.77H109.329V51.01C109.109 50.895 108.989 50.86 108.624 50.845L108.329 51.36ZM109.329 49.7L108.454 49.695C108.234 49.695 107.979 49.72 107.979 50.005C107.979 50.285 108.234 50.31 108.454 50.31C108.819 50.31 109.104 50.33 109.329 50.46V49.7ZM114.433 49.18H114.943V51.77H114.433V49.9L112.923 51.77H112.413V49.18H112.923V51.04L114.433 49.18ZM116.654 51.77H116.144V49.18H116.654V50.215C116.749 50.17 116.854 50.15 116.959 50.15C117.174 50.15 117.479 50.225 117.739 50.225C117.849 50.225 117.959 50.21 118.064 50.16V49.18H118.574V51.77H118.064V50.685C117.964 50.735 117.864 50.75 117.759 50.75C117.489 50.75 117.234 50.68 116.979 50.68C116.864 50.68 116.759 50.695 116.654 50.74V51.77ZM120.282 51.77H119.772V49.18H120.282V50.215C120.377 50.17 120.482 50.15 120.587 50.15C120.802 50.15 121.107 50.225 121.367 50.225C121.477 50.225 121.587 50.21 121.692 50.16V49.18H122.202V51.77H121.692V50.685C121.592 50.735 121.492 50.75 121.387 50.75C121.117 50.75 120.862 50.68 120.607 50.68C120.492 50.68 120.387 50.695 120.282 50.74V51.77ZM126.21 50.45C126.21 51.33 125.46 51.85 124.675 51.85C123.89 51.85 123.15 51.34 123.15 50.465C123.15 49.585 123.905 49.095 124.68 49.095C125.46 49.095 126.21 49.55 126.21 50.45ZM125.67 50.455C125.67 49.875 125.17 49.625 124.68 49.625C124.18 49.625 123.69 49.89 123.69 50.475C123.69 51.06 124.19 51.325 124.685 51.325C125.175 51.325 125.67 51.015 125.67 50.455ZM129.669 50.96C129.669 51.47 129.319 51.77 128.749 51.77H127.159V49.18H128.749C129.174 49.18 129.534 49.475 129.534 49.91C129.534 50.08 129.489 50.24 129.364 50.355C129.559 50.47 129.669 50.705 129.669 50.96ZM127.674 50.285C127.899 50.155 128.184 50.135 128.484 50.135H128.749C128.929 50.135 129.009 50.06 129.009 49.91C129.009 49.77 128.904 49.695 128.749 49.695H127.674V50.285ZM127.674 51.25H128.749C128.959 51.25 129.154 51.2 129.154 50.95C129.154 50.76 129.034 50.66 128.749 50.66H128.484C128.009 50.66 127.899 50.69 127.674 50.81V51.25ZM131.246 49.12H131.801L133.201 51.77H132.636L132.431 51.38H132.121C131.481 51.38 130.816 51.63 130.731 51.74L130.716 51.77H130.176L131.416 49.445L131.246 49.12ZM132.116 50.91H132.186L131.681 49.95L131.066 51.135C131.231 51.05 131.581 50.91 132.116 50.91ZM136.784 51.225L136.184 52.555H135.654L136.004 51.77H133.854V49.18H134.359V51.225H135.769V49.18H136.279V51.225H136.784ZM139.702 49.18H140.212V51.77H139.702V49.9L138.192 51.77H137.682V49.18H138.192V51.04L139.702 49.18ZM144.222 50.45C144.222 51.33 143.472 51.85 142.687 51.85C141.902 51.85 141.162 51.34 141.162 50.465C141.162 49.585 141.917 49.095 142.692 49.095C143.472 49.095 144.222 49.55 144.222 50.45ZM143.682 50.455C143.682 49.875 143.182 49.625 142.692 49.625C142.192 49.625 141.702 49.89 141.702 50.475C141.702 51.06 142.202 51.325 142.697 51.325C143.187 51.325 143.682 51.015 143.682 50.455ZM145.682 51.77H145.172V49.18H145.682V50.215C145.777 50.17 145.882 50.15 145.987 50.15C146.202 50.15 146.507 50.225 146.767 50.225C146.877 50.225 146.987 50.21 147.092 50.16V49.18H147.602V51.77H147.092V50.685C146.992 50.735 146.892 50.75 146.787 50.75C146.517 50.75 146.262 50.68 146.007 50.68C145.892 50.68 145.787 50.695 145.682 50.74V51.77ZM149.31 51.77H148.8V49.18H149.31V50.215C149.405 50.17 149.51 50.15 149.615 50.15C149.83 50.15 150.135 50.225 150.395 50.225C150.505 50.225 150.615 50.21 150.72 50.16V49.18H151.23V51.77H150.72V50.685C150.62 50.735 150.52 50.75 150.415 50.75C150.145 50.75 149.89 50.68 149.635 50.68C149.52 50.68 149.415 50.695 149.31 50.74V51.77ZM152.943 49.995C153.168 50.115 153.278 50.145 153.753 50.145H153.868C154.383 50.145 154.788 50.42 154.788 50.96C154.788 51.505 154.383 51.77 153.868 51.77H152.428V49.18H152.943V49.995ZM155.208 51.77V49.18H155.718V51.77H155.208ZM152.943 51.25H153.868C154.078 51.25 154.273 51.2 154.273 50.95C154.273 50.705 154.073 50.66 153.868 50.66H153.753C153.453 50.66 153.168 50.64 152.943 50.51V51.25ZM157.43 51.25H159.055V51.77H156.92V49.18H158.96V49.695H157.43V50.325C157.655 50.195 157.94 50.175 158.24 50.175H158.62V50.69H158.24C157.765 50.69 157.655 50.72 157.43 50.84V51.25ZM164.278 49.595V51.77H163.713V50.255L162.798 51.475L161.883 50.255V51.77H161.318V49.595L161.063 49.18H161.693L162.798 50.645L163.903 49.18H164.533L164.278 49.595ZM165.916 51.25H167.541V51.77H165.406V49.18H167.446V49.695H165.916V50.325C166.141 50.195 166.426 50.175 166.726 50.175H167.106V50.69H166.726C166.251 50.69 166.141 50.72 165.916 50.84V51.25ZM169.572 49.695V51.77H169.057V49.695H168.117V49.18H170.547V49.695H169.572ZM174.159 50.45C174.159 51.33 173.409 51.85 172.624 51.85C171.839 51.85 171.099 51.34 171.099 50.465C171.099 49.585 171.854 49.095 172.629 49.095C173.409 49.095 174.159 49.55 174.159 50.45ZM173.619 50.455C173.619 49.875 173.119 49.625 172.629 49.625C172.129 49.625 171.639 49.89 171.639 50.475C171.639 51.06 172.139 51.325 172.634 51.325C173.124 51.325 173.619 51.015 173.619 50.455ZM177.369 52.345V51.77H175.229V52.345H174.709V51.25H175.209C175.709 50.63 175.759 50.115 175.849 49.695H175.439L175.209 49.18H177.564V51.25H177.889V52.345H177.369ZM177.054 51.25V49.695H176.389C176.269 50.24 176.104 50.87 175.819 51.25H177.054ZM179.305 49.995C179.53 50.115 179.64 50.145 180.115 50.145H180.23C180.745 50.145 181.15 50.42 181.15 50.96C181.15 51.505 180.745 51.77 180.23 51.77H178.79V49.18H179.305V49.995ZM181.57 51.77V49.18H182.08V51.77H181.57ZM179.305 51.25H180.23C180.44 51.25 180.635 51.2 180.635 50.95C180.635 50.705 180.435 50.66 180.23 50.66H180.115C179.815 50.66 179.53 50.64 179.305 50.51V51.25Z" fill="#C4E5EE"/>
<defs>
<linearGradient id="paint0_linear_0_235" x1="116.22" y1="109.07" x2="116.22" y2="-118.9" gradientUnits="userSpaceOnUse">
<stop offset="0.22" stop-color="#615B9A" stop-opacity="0.2"/>
<stop offset="0.54" stop-color="#605B99" stop-opacity="0.76"/>
<stop offset="0.56" stop-color="#605C99" stop-opacity="0.8"/>
<stop offset="0.72" stop-color="#56528E" stop-opacity="0.8"/>
<stop offset="0.96" stop-color="#3B3773" stop-opacity="0.8"/>
<stop offset="1" stop-color="#36326D" stop-opacity="0.8"/>
</linearGradient>
<linearGradient id="paint1_linear_0_235" x1="116.22" y1="-198" x2="116.22" y2="-118.9" gradientUnits="userSpaceOnUse">
<stop offset="0.22" stop-color="#615B9A" stop-opacity="0.2"/>
<stop offset="0.54" stop-color="#605B99" stop-opacity="0.76"/>
<stop offset="0.56" stop-color="#605C99" stop-opacity="0.8"/>
<stop offset="0.72" stop-color="#56528E" stop-opacity="0.8"/>
<stop offset="0.96" stop-color="#3B3773" stop-opacity="0.8"/>
<stop offset="1" stop-color="#36326D" stop-opacity="0.8"/>
</linearGradient>
</defs>
</svg>
