<svg width="819" height="599" viewBox="0 0 819 599" fill="none" xmlns="http://www.w3.org/2000/svg">
<path d="M595.832 241.088H362.502L355.852 237.518H300.682L193.552 106.438H402.642L412.002 111.458H489.882L595.822 241.078L595.832 241.088ZM362.271 240.478H594.692L489.752 112.088H412.242L402.882 107.068H194.692L300.822 236.918H355.622L362.271 240.488V240.478Z" fill="#80CCDD"/>
<path d="M361.672 238.948L355.032 235.378H301.172L197.542 108.588H403.462L412.831 113.608H489.401L591.842 238.948H361.672Z" fill="url(#paint0_linear_0_128)"/>
<path d="M592.122 239.098H361.732L355.081 235.528H301.132L197.252 108.428H403.402L412.762 113.448H489.422L592.111 239.088L592.122 239.098ZM361.611 238.788H591.551L489.361 113.758H412.882L403.521 108.738H197.822L301.202 235.228H354.972L361.622 238.798L361.611 238.788Z" fill="url(#paint1_linear_0_128)"/>
<path d="M527.561 150.768H523.721L499.732 121.418H503.572L527.561 150.768Z" fill="#80CCDD"/>
<path d="M532.712 157.068H528.871L526.832 154.568H530.671L532.712 157.068Z" fill="#80CCDD"/>
<path d="M535.772 160.808H531.931L529.882 158.308H533.721L535.772 160.808Z" fill="#80CCDD"/>
<path d="M538.822 164.548H534.981L532.941 162.048H536.782L538.822 164.548Z" fill="#80CCDD"/>
<path d="M541.882 168.288H538.041L536.001 165.788H539.842L541.882 168.288Z" fill="#80CCDD"/>
<path d="M362.912 244.058L356.432 240.578H301.581L301.081 239.968H356.192L363.012 243.618L362.912 244.058Z" fill="#80CCDD"/>
<path d="M489.492 109.018H411.662L402.132 103.908L402.232 103.478L411.422 108.408H488.992L489.492 109.018Z" fill="#80CCDD"/>
<path d="M203.042 114.928H198.562L197.572 113.708H202.042L203.042 114.928Z" fill="#80CCDD"/>
<path d="M256.822 180.718H252.342L250.352 178.278H254.832L256.822 180.718ZM252.342 175.238H247.862L245.872 172.798H250.352L252.342 175.238ZM247.862 169.758H243.382L241.392 167.318H245.872L247.862 169.758ZM243.382 164.278H238.902L236.912 161.838H241.392L243.382 164.278ZM238.902 158.798H234.422L232.432 156.358H236.912L238.902 158.798ZM234.422 153.318H229.942L227.952 150.878H232.432L234.422 153.318ZM229.942 147.838H225.462L223.472 145.398H227.952L229.942 147.838ZM225.462 142.358H220.982L218.992 139.918H223.472L225.462 142.358ZM220.982 136.878H216.502L214.512 134.438H218.992L220.982 136.878ZM216.502 131.398H212.022L210.032 128.958H214.512L216.502 131.398ZM212.022 125.918H207.542L205.552 123.478H210.032L212.022 125.918ZM207.542 120.438H203.062L201.072 117.998H205.552L207.542 120.438Z" fill="#80CCDD"/>
<path d="M260.312 184.988H255.832L254.832 183.768H259.312L260.312 184.988Z" fill="#80CCDD"/>
<path d="M223.172 103.338H315.081L327.801 110.168H228.752L223.172 103.338ZM220.332 103.338H216.232L221.812 110.168H225.912L220.332 103.338ZM211.182 103.338H206.752L212.332 110.168H216.762L211.182 103.338Z" fill="#3364AD"/>
<path d="M394.771 243.288H393.932L390.842 239.508H391.682L394.771 243.288ZM393.312 239.508H392.472L395.562 243.288H396.402L393.312 239.508ZM394.942 239.508H394.102L397.192 243.288H398.032L394.942 239.508ZM396.572 239.508H395.732L398.822 243.288H399.662L396.572 239.508ZM398.202 239.508H397.361L400.452 243.288H401.292L398.202 239.508ZM399.831 239.508H398.992L402.081 243.288H402.922L399.831 239.508ZM401.462 239.508H400.622L403.712 243.288H404.551L401.462 239.508ZM403.092 239.508H402.252L405.342 243.288H406.182L403.092 239.508ZM404.722 239.508H403.882L406.972 243.288H407.812L404.722 239.508ZM406.352 239.508H405.512L408.602 243.288H409.442L406.352 239.508ZM407.982 239.508H407.142L410.232 243.288H411.072L407.982 239.508ZM409.611 239.508H408.771L411.861 243.288H412.702L409.611 239.508ZM411.242 239.508H410.402L413.492 243.288H414.331L411.242 239.508ZM412.872 239.508H412.032L415.122 243.288H415.962L412.872 239.508ZM414.502 239.508H413.662L416.752 243.288H417.592L414.502 239.508ZM416.132 239.508H415.292L418.382 243.288H419.222L416.132 239.508ZM417.762 239.508H416.922L420.012 243.288H420.852L417.762 239.508ZM419.392 239.508H418.551L421.642 243.288H422.482L419.392 239.508ZM421.021 239.508H420.182L423.271 243.288H424.111L421.021 239.508ZM422.652 239.508H421.812L424.902 243.288H425.742L422.652 239.508ZM424.282 239.508H423.442L426.532 243.288H427.372L424.282 239.508Z" fill="#3364AD"/>
<path d="M420.442 175.628C400.682 175.628 372.051 162.468 356.611 146.298C341.171 130.128 344.692 116.968 364.452 116.968C384.212 116.968 412.841 130.128 428.282 146.298C443.722 162.468 440.202 175.628 420.442 175.628ZM364.792 117.328C345.272 117.328 341.801 130.328 357.051 146.298C372.301 162.268 400.582 175.268 420.102 175.268C439.622 175.268 443.091 162.268 427.841 146.298C412.591 130.328 384.312 117.328 364.792 117.328ZM418.012 173.078C399.972 173.078 373.832 161.068 359.732 146.298C345.632 131.528 348.852 119.518 366.892 119.518C384.932 119.518 411.072 131.528 425.172 146.298C439.262 161.068 436.052 173.078 418.012 173.078ZM367.232 119.878C349.432 119.878 346.262 131.728 360.172 146.298C374.082 160.868 399.872 172.718 417.672 172.718C435.472 172.718 438.642 160.868 424.732 146.298C410.822 131.728 385.032 119.878 367.232 119.878Z" fill="#3364AD"/>
<path d="M412.762 167.578C398.422 167.578 377.652 158.028 366.442 146.298C355.232 134.568 357.792 125.018 372.132 125.018C386.472 125.018 407.242 134.568 418.452 146.298C429.652 158.028 427.102 167.578 412.762 167.578ZM372.472 125.378C358.372 125.378 355.872 134.768 366.882 146.298C377.892 157.828 398.322 167.218 412.422 167.218C426.522 167.218 429.022 157.828 418.012 146.298C407.002 134.768 386.572 125.378 372.472 125.378Z" fill="#80CCDD"/>
<path d="M419.162 146.298H416.532C406.162 135.428 386.912 126.588 373.642 126.588L371.592 124.438C386.322 124.438 407.662 134.248 419.162 146.298Z" fill="#80CCDD"/>
<path d="M417.662 172.718C417.512 172.718 417.362 172.718 417.212 172.718L416.202 171.638C416.342 171.638 416.492 171.638 416.632 171.638L417.662 172.718ZM418.852 172.698L417.782 171.628C417.922 171.628 418.062 171.628 418.192 171.608L419.282 172.678C419.142 172.678 418.992 172.688 418.852 172.698ZM415.372 172.658C415.212 172.658 415.062 172.638 414.902 172.628L413.982 171.558C414.132 171.558 414.282 171.578 414.432 171.588L415.361 172.658H415.372ZM420.962 172.568L419.801 171.498C419.931 171.488 420.062 171.468 420.192 171.458L421.372 172.528C421.242 172.538 421.102 172.558 420.972 172.568H420.962ZM412.972 172.468C412.812 172.448 412.642 172.438 412.482 172.418L411.672 171.358C411.832 171.378 411.992 171.388 412.142 171.408L412.982 172.468H412.972ZM422.922 172.318L421.682 171.258C421.802 171.238 421.922 171.218 422.042 171.198L423.292 172.258C423.172 172.278 423.042 172.308 422.912 172.328L422.922 172.318ZM410.472 172.158C410.302 172.128 410.132 172.108 409.962 172.078L409.252 171.028C409.412 171.058 409.582 171.078 409.742 171.098L410.472 172.148V172.158ZM424.752 171.938L423.442 170.898C423.552 170.868 423.661 170.838 423.771 170.808L425.102 171.848C424.992 171.878 424.872 171.908 424.752 171.938ZM407.892 171.718C407.712 171.688 407.541 171.648 407.361 171.618L406.752 170.588C406.922 170.618 407.092 170.658 407.252 170.688L407.882 171.718H407.892ZM426.422 171.428L425.042 170.408C425.142 170.368 425.242 170.338 425.342 170.298L426.732 171.318C426.632 171.358 426.522 171.398 426.422 171.438V171.428ZM405.232 171.158C405.052 171.118 404.872 171.078 404.692 171.028L404.192 170.018C404.362 170.058 404.542 170.098 404.712 170.138L405.232 171.148V171.158ZM427.922 170.808L426.482 169.808C426.572 169.768 426.662 169.718 426.752 169.678L428.212 170.668C428.122 170.718 428.021 170.758 427.932 170.808H427.922ZM402.502 170.478C402.322 170.428 402.132 170.378 401.952 170.328L401.572 169.348C401.752 169.398 401.922 169.448 402.102 169.488L402.512 170.468L402.502 170.478ZM429.252 170.068L427.752 169.098C427.832 169.048 427.912 168.998 427.982 168.938L429.492 169.898C429.411 169.948 429.332 170.008 429.252 170.058V170.068ZM399.732 169.678C399.542 169.618 399.362 169.558 399.172 169.508L398.902 168.568C399.082 168.628 399.262 168.678 399.442 168.738L399.732 169.688V169.678ZM430.402 169.208L428.852 168.278C428.922 168.218 428.981 168.158 429.051 168.098L430.602 169.018C430.532 169.078 430.462 169.138 430.392 169.198L430.402 169.208ZM396.922 168.768C396.732 168.708 396.542 168.638 396.352 168.568L396.202 167.668C396.382 167.728 396.562 167.798 396.742 167.858L396.922 168.768ZM431.372 168.248L429.782 167.358C429.842 167.288 429.892 167.228 429.952 167.158L431.542 168.038C431.482 168.108 431.432 168.178 431.372 168.248ZM394.092 167.758C393.902 167.688 393.711 167.618 393.521 167.538L393.482 166.678C393.662 166.748 393.842 166.818 394.032 166.888L394.092 167.758ZM432.162 167.178L430.542 166.328C430.582 166.258 430.632 166.188 430.672 166.108L432.292 166.948C432.252 167.028 432.202 167.098 432.162 167.178ZM391.262 166.638C391.072 166.558 390.882 166.478 390.692 166.398L390.762 165.578C390.942 165.658 391.121 165.728 391.301 165.808L391.252 166.638H391.262ZM432.762 166.008L431.122 165.208C431.152 165.128 431.182 165.048 431.212 164.968L432.852 165.758C432.822 165.838 432.792 165.918 432.752 166.008H432.762ZM388.432 165.418C388.242 165.338 388.052 165.248 387.872 165.168L388.062 164.398C388.242 164.478 388.422 164.558 388.602 164.638L388.442 165.418H388.432ZM433.162 164.738L431.502 163.988C431.522 163.908 431.542 163.818 431.562 163.738L433.222 164.478C433.202 164.568 433.182 164.658 433.162 164.738ZM385.622 164.108C385.432 164.018 385.252 163.928 385.062 163.838L385.361 163.128C385.541 163.218 385.722 163.298 385.902 163.388L385.622 164.108ZM433.382 163.388L431.712 162.688C431.712 162.598 431.722 162.508 431.732 162.418L433.402 163.098C433.402 163.188 433.392 163.288 433.382 163.378V163.388ZM382.852 162.718C382.672 162.618 382.481 162.528 382.301 162.428L382.712 161.768C382.892 161.858 383.062 161.948 383.242 162.048L382.852 162.718ZM433.402 161.958L431.732 161.318C431.732 161.228 431.722 161.128 431.712 161.038L433.382 161.668C433.382 161.768 433.392 161.868 433.402 161.968V161.958ZM380.122 161.258C379.942 161.158 379.761 161.058 379.581 160.958L380.102 160.358C380.272 160.458 380.442 160.548 380.622 160.648L380.122 161.258ZM433.222 160.448L431.562 159.868C431.542 159.768 431.522 159.668 431.502 159.568L433.162 160.128C433.182 160.228 433.202 160.338 433.222 160.438V160.448ZM377.452 159.718C377.272 159.618 377.102 159.508 376.922 159.398L377.551 158.868C377.721 158.968 377.891 159.068 378.051 159.168L377.442 159.718H377.452ZM432.852 158.878L431.212 158.368C431.182 158.268 431.152 158.158 431.122 158.058L432.762 158.558C432.792 158.668 432.831 158.778 432.861 158.878H432.852ZM374.861 158.118C374.691 158.008 374.522 157.898 374.352 157.788L375.081 157.318C375.241 157.428 375.412 157.528 375.572 157.628L374.852 158.108L374.861 158.118ZM432.292 157.238L430.672 156.788C430.632 156.678 430.582 156.578 430.542 156.468L432.162 156.898C432.212 157.008 432.251 157.118 432.301 157.238H432.292ZM372.352 156.458C372.192 156.348 372.021 156.238 371.861 156.118L372.702 155.718C372.862 155.828 373.012 155.938 373.172 156.038L372.352 156.448V156.458ZM431.532 155.548L429.942 155.168C429.882 155.058 429.831 154.948 429.771 154.838L431.352 155.198C431.412 155.308 431.471 155.428 431.521 155.538L431.532 155.548ZM369.932 154.748C369.772 154.628 369.612 154.518 369.462 154.398L370.402 154.068C370.552 154.178 370.702 154.288 370.852 154.398L369.932 154.738V154.748ZM430.581 153.808L429.032 153.508C428.962 153.398 428.901 153.288 428.831 153.168L430.372 153.458C430.442 153.578 430.511 153.688 430.581 153.808ZM367.622 152.998C367.472 152.878 367.322 152.758 367.172 152.648L368.202 152.388C368.342 152.498 368.492 152.618 368.632 152.728L367.622 152.998ZM429.452 152.038L427.952 151.808C427.872 151.698 427.792 151.578 427.712 151.468L429.202 151.688C429.282 151.808 429.372 151.928 429.452 152.048V152.038ZM365.432 151.218C365.292 151.098 365.152 150.978 365.012 150.858L366.132 150.678C366.262 150.798 366.402 150.908 366.532 151.018L365.432 151.218ZM428.142 150.248L426.692 150.088C426.602 149.968 426.512 149.858 426.422 149.738L427.861 149.878C427.961 149.998 428.052 150.118 428.142 150.238V150.248ZM363.372 149.418C363.242 149.298 363.102 149.178 362.972 149.058L364.172 148.948C364.302 149.068 364.421 149.178 364.551 149.298L363.361 149.418H363.372ZM426.662 148.438L425.271 148.348C425.172 148.228 425.072 148.118 424.972 147.998L426.352 148.068C426.462 148.188 426.562 148.308 426.672 148.438H426.662ZM361.452 147.598C361.332 147.478 361.201 147.358 361.081 147.228L362.361 147.188C362.481 147.308 362.592 147.418 362.712 147.538L361.452 147.588V147.598ZM425.012 146.608H423.692L423.361 146.248H424.672L425.021 146.608H425.012ZM361.012 145.788L359.672 145.768C359.562 145.648 359.441 145.528 359.331 145.398L360.682 145.438C360.792 145.558 360.892 145.668 361.002 145.788H361.012ZM421.962 144.838C421.841 144.718 421.722 144.608 421.602 144.488L422.842 144.408C422.972 144.528 423.092 144.648 423.222 144.768L421.972 144.828L421.962 144.838ZM359.462 144.038L358.062 143.938C357.962 143.818 357.862 143.698 357.762 143.578L359.172 143.688C359.272 143.808 359.362 143.918 359.462 144.038ZM420.102 143.098C419.972 142.978 419.841 142.868 419.712 142.748L420.872 142.598C421.012 142.718 421.142 142.838 421.282 142.958L420.111 143.098H420.102ZM358.072 142.298L356.611 142.128C356.521 142.008 356.432 141.888 356.342 141.768L357.812 141.958C357.892 142.068 357.982 142.188 358.072 142.308V142.298ZM418.102 141.368C417.962 141.258 417.822 141.138 417.692 141.028L418.762 140.798C418.912 140.918 419.052 141.038 419.192 141.158L418.102 141.368ZM356.842 140.578L355.331 140.338C355.251 140.218 355.172 140.098 355.092 139.978L356.611 140.238C356.681 140.348 356.761 140.468 356.831 140.578H356.842ZM415.982 139.658C415.832 139.548 415.692 139.428 415.542 139.318L416.521 139.018C416.672 139.138 416.822 139.248 416.982 139.368L415.982 139.648V139.658ZM355.792 138.878L354.232 138.558C354.162 138.438 354.102 138.328 354.032 138.208L355.602 138.538C355.662 138.648 355.732 138.758 355.792 138.878ZM413.752 137.978C413.602 137.868 413.442 137.758 413.292 137.648L414.172 137.278C414.332 137.388 414.492 137.508 414.652 137.618L413.752 137.978ZM354.912 137.218L353.312 136.828C353.262 136.718 353.202 136.598 353.152 136.488L354.752 136.888C354.802 136.998 354.852 137.108 354.902 137.218H354.912ZM411.422 136.348C411.262 136.238 411.102 136.138 410.942 136.028L411.722 135.588C411.892 135.698 412.052 135.808 412.222 135.918L411.422 136.348ZM354.222 135.598L352.592 135.138C352.552 135.028 352.512 134.918 352.472 134.808L354.102 135.278C354.142 135.388 354.182 135.488 354.222 135.598ZM409.002 134.758C408.842 134.658 408.672 134.548 408.512 134.448L409.192 133.938C409.362 134.048 409.532 134.148 409.712 134.258L409.012 134.748L409.002 134.758ZM353.712 134.028L352.062 133.508C352.032 133.398 352.002 133.298 351.982 133.188L353.632 133.728C353.662 133.828 353.682 133.928 353.712 134.038V134.028ZM406.502 133.228C406.332 133.128 406.161 133.028 405.992 132.928L406.562 132.358C406.742 132.458 406.912 132.568 407.092 132.668L406.502 133.228ZM353.392 132.528L351.732 131.938C351.712 131.838 351.702 131.738 351.692 131.628L353.352 132.228C353.362 132.328 353.382 132.418 353.392 132.518V132.528ZM403.932 131.768C403.762 131.668 403.582 131.578 403.412 131.488L403.872 130.858C404.052 130.958 404.232 131.058 404.412 131.158L403.932 131.778V131.768ZM353.252 131.098L351.581 130.448C351.581 130.348 351.581 130.258 351.581 130.158L353.252 130.818C353.252 130.908 353.252 131.008 353.252 131.098ZM401.301 130.368C401.121 130.278 400.951 130.188 400.771 130.098L401.122 129.408C401.302 129.498 401.492 129.598 401.672 129.688L401.301 130.368ZM353.301 129.728L351.642 129.018C351.642 128.928 351.662 128.838 351.672 128.748L353.331 129.468C353.321 129.558 353.311 129.648 353.301 129.728ZM398.632 129.048C398.452 128.958 398.272 128.878 398.092 128.798L398.331 128.048C398.521 128.138 398.702 128.228 398.892 128.318L398.632 129.048ZM353.532 128.448L351.882 127.688C351.902 127.598 351.932 127.518 351.952 127.428L353.602 128.198C353.582 128.278 353.552 128.358 353.532 128.448ZM395.932 127.808C395.752 127.728 395.572 127.648 395.392 127.568L395.512 126.768C395.702 126.848 395.892 126.928 396.072 127.018L395.932 127.808ZM353.952 127.248L352.312 126.438C352.352 126.358 352.382 126.278 352.422 126.198L354.051 127.018C354.011 127.098 353.982 127.168 353.942 127.248H353.952ZM393.212 126.658C393.032 126.588 392.852 126.508 392.672 126.438V125.598C392.872 125.678 393.062 125.748 393.252 125.828L393.222 126.658H393.212ZM354.551 126.148L352.942 125.288C352.992 125.218 353.042 125.138 353.092 125.068L354.702 125.938C354.652 126.008 354.602 126.078 354.562 126.148H354.551ZM390.492 125.608C390.312 125.538 390.132 125.478 389.952 125.408L389.842 124.518C390.032 124.588 390.222 124.658 390.412 124.728L390.492 125.608ZM355.342 125.138L353.762 124.238C353.822 124.168 353.882 124.108 353.952 124.038L355.521 124.948C355.461 125.008 355.402 125.078 355.342 125.138ZM387.782 124.648C387.602 124.588 387.422 124.528 387.242 124.468L387.021 123.538C387.211 123.598 387.401 123.658 387.581 123.728L387.782 124.648ZM356.301 124.228L354.762 123.288C354.832 123.228 354.912 123.168 354.982 123.108L356.512 124.048C356.442 124.108 356.371 124.158 356.301 124.218V124.228ZM385.092 123.788C384.912 123.738 384.732 123.678 384.562 123.628L384.222 122.668C384.412 122.718 384.592 122.778 384.782 122.838L385.092 123.798V123.788ZM357.432 123.428L355.942 122.458C356.022 122.408 356.112 122.358 356.202 122.308L357.682 123.288C357.602 123.338 357.512 123.388 357.432 123.438V123.428ZM382.432 123.048C382.252 122.998 382.082 122.958 381.902 122.908L381.452 121.918C381.632 121.968 381.822 122.008 382.002 122.058L382.422 123.048H382.432ZM358.732 122.738L357.301 121.738C357.401 121.698 357.492 121.648 357.592 121.608L359.012 122.618C358.922 122.658 358.822 122.698 358.732 122.748V122.738ZM379.822 122.408C379.652 122.368 379.481 122.328 379.301 122.298L378.742 121.278C378.922 121.318 379.102 121.358 379.282 121.398L379.822 122.418V122.408ZM360.192 122.158L358.822 121.128C358.932 121.088 359.042 121.058 359.152 121.018L360.512 122.048C360.402 122.078 360.302 122.118 360.202 122.148L360.192 122.158ZM377.271 121.898C377.101 121.868 376.941 121.838 376.771 121.808L376.102 120.768C376.272 120.798 376.452 120.828 376.622 120.858L377.271 121.898ZM361.812 121.698L360.512 120.648C360.632 120.618 360.752 120.588 360.872 120.568L362.162 121.618C362.042 121.648 361.932 121.668 361.822 121.698H361.812ZM374.801 121.498C374.641 121.478 374.482 121.458 374.322 121.428L373.551 120.368C373.721 120.388 373.892 120.408 374.062 120.438L374.812 121.488L374.801 121.498ZM363.581 121.358L362.352 120.298C362.482 120.278 362.612 120.258 362.742 120.238L363.952 121.298C363.832 121.318 363.701 121.338 363.581 121.348V121.358ZM372.422 121.218C372.262 121.208 372.112 121.188 371.962 121.178L371.092 120.108C371.252 120.118 371.411 120.138 371.581 120.148L372.432 121.218H372.422ZM365.492 121.128L364.352 120.058C364.492 120.048 364.632 120.038 364.762 120.028L365.892 121.098C365.762 121.098 365.622 121.118 365.492 121.128ZM370.132 121.058C369.982 121.058 369.832 121.048 369.692 121.038L368.722 119.968C368.872 119.968 369.032 119.978 369.182 119.988L370.132 121.058ZM367.532 121.028L366.472 119.958C366.622 119.958 366.762 119.958 366.912 119.958L367.952 121.038C367.812 121.038 367.672 121.038 367.532 121.038V121.028Z" fill="#3364AD"/>
<path d="M354.552 146.018C338.692 129.188 342.452 115.548 363.062 115.548C363.192 115.548 363.322 115.548 363.452 115.548L360.632 112.598C360.502 112.598 360.372 112.598 360.242 112.598C337.642 112.598 333.532 127.558 350.942 146.018H354.542H354.552Z" fill="#3364AD"/>
<path d="M348.652 126.458L346.442 125.458C346.922 123.448 347.992 121.718 349.642 120.338C350.552 119.568 351.642 118.908 352.892 118.358L354.792 119.698C353.612 120.218 352.572 120.858 351.702 121.578C350.132 122.898 349.102 124.538 348.652 126.458Z" fill="#80CCDD"/>
<path d="M424.442 178.188L421.932 175.678C422.072 175.678 422.201 175.678 422.331 175.658L424.882 178.168C424.732 178.168 424.592 178.178 424.442 178.188ZM426.592 178.058L423.912 175.558L424.301 175.518L427.012 178.008C426.872 178.018 426.732 178.038 426.602 178.048L426.592 178.058ZM428.622 177.818L425.782 175.338C425.902 175.318 426.022 175.298 426.142 175.278L429.012 177.748C428.882 177.768 428.752 177.788 428.622 177.808V177.818ZM430.532 177.478L427.532 175.028L427.872 174.948L430.892 177.388L430.532 177.468V177.478ZM432.312 177.028L429.172 174.618L429.482 174.518L432.642 176.928C432.532 176.958 432.421 176.998 432.301 177.028H432.312ZM433.952 176.468L430.692 174.098C430.792 174.058 430.882 174.018 430.982 173.988L434.271 176.348C434.171 176.388 434.062 176.428 433.962 176.468H433.952ZM435.452 175.808L432.072 173.488C432.162 173.448 432.241 173.398 432.331 173.358L435.742 175.668C435.652 175.718 435.552 175.768 435.462 175.808H435.452ZM436.801 175.048L433.312 172.788C433.392 172.738 433.472 172.688 433.542 172.638L437.051 174.888C436.971 174.938 436.881 174.998 436.801 175.048ZM438.002 174.188L434.412 171.998L434.611 171.828L438.212 174.008C438.142 174.068 438.062 174.128 437.992 174.188H438.002ZM439.042 173.238L435.372 171.118C435.432 171.058 435.492 170.998 435.542 170.928L439.222 173.028C439.162 173.098 439.092 173.158 439.032 173.228L439.042 173.238ZM439.932 172.188L436.192 170.158C436.242 170.088 436.292 170.028 436.342 169.958L440.092 171.978C440.042 172.048 439.992 172.128 439.932 172.198V172.188ZM440.652 171.058L436.861 169.108C436.901 169.038 436.942 168.958 436.982 168.888L440.782 170.818C440.742 170.898 440.702 170.978 440.652 171.058ZM441.212 169.838L437.372 167.988L437.462 167.758L441.301 169.588C441.271 169.668 441.242 169.758 441.212 169.838ZM441.611 168.538L437.742 166.788C437.762 166.708 437.782 166.628 437.792 166.538L441.662 168.268C441.642 168.358 441.622 168.448 441.602 168.538H441.611ZM441.842 167.168L437.962 165.518C437.962 165.428 437.982 165.348 437.982 165.258L441.872 166.878C441.872 166.978 441.852 167.068 441.842 167.168ZM441.902 165.718L438.012 164.188C438.012 164.098 438.012 164.008 438.012 163.918L441.902 165.428C441.902 165.528 441.902 165.628 441.902 165.728V165.718ZM441.801 164.208L437.922 162.788C437.912 162.698 437.902 162.598 437.882 162.508L441.762 163.898C441.772 163.998 441.791 164.108 441.801 164.208ZM441.532 162.638L437.672 161.348C437.652 161.248 437.632 161.148 437.602 161.048L441.452 162.308C441.482 162.418 441.501 162.528 441.521 162.628L441.532 162.638ZM441.092 161.008L437.271 159.848L437.172 159.538L440.992 160.678C441.032 160.788 441.062 160.898 441.102 161.008H441.092ZM440.482 159.328L436.702 158.298C436.662 158.198 436.612 158.088 436.572 157.988L440.342 158.988C440.392 159.098 440.442 159.218 440.482 159.328ZM439.712 157.598L435.992 156.708C435.942 156.598 435.881 156.488 435.831 156.388L439.532 157.248C439.592 157.368 439.652 157.478 439.702 157.598H439.712ZM438.771 155.828L435.132 155.078C435.072 154.968 435.002 154.858 434.942 154.748L438.572 155.468C438.642 155.588 438.712 155.708 438.782 155.828H438.771ZM437.672 154.028L434.122 153.418C434.052 153.308 433.972 153.198 433.902 153.088L437.442 153.668C437.522 153.788 437.602 153.908 437.682 154.028H437.672ZM436.422 152.208L432.972 151.748C432.892 151.638 432.812 151.518 432.722 151.408L436.162 151.848C436.252 151.968 436.342 152.088 436.432 152.218L436.422 152.208ZM435.021 150.368L431.672 150.048C431.582 149.938 431.492 149.818 431.402 149.708L434.722 149.998C434.822 150.118 434.921 150.248 435.021 150.368ZM433.472 148.518L430.242 148.338C430.142 148.228 430.042 148.108 429.942 147.998L433.142 148.138C433.252 148.258 433.362 148.388 433.472 148.508V148.518ZM431.782 146.658L428.692 146.628C428.582 146.518 428.471 146.398 428.361 146.288H431.422C431.542 146.408 431.661 146.538 431.771 146.658H431.782Z" fill="#80CCDD"/>
<path d="M372.062 161.058C364.802 156.528 358.002 151.088 352.912 145.758H355.102C359.922 150.808 366.342 155.938 373.202 160.218L372.072 161.058H372.062Z" fill="#3364AD"/>
<path d="M421.132 176.348C411.092 176.348 398.602 173.088 385.962 167.158L386.352 165.918C398.242 171.488 409.992 174.558 419.432 174.558C427.742 174.558 433.432 172.098 435.442 167.618L438.172 168.968C436.032 173.728 429.982 176.348 421.142 176.348H421.132Z" fill="#3364AD"/>
<path d="M438.982 163.808L436.202 162.758C435.842 157.938 432.642 152.238 426.972 146.298H429.162C435.202 152.618 438.592 158.678 438.982 163.808Z" fill="#3364AD"/>
<path d="M429.972 146.298H429.532C425.022 141.568 419.392 137.038 412.812 132.828L413.051 132.668C419.711 136.928 425.402 141.518 429.972 146.298Z" fill="#3364AD"/>
<path d="M378.732 117.968C373.202 116.628 368.072 115.948 363.482 115.948L363.142 115.588C367.782 115.588 372.981 116.278 378.581 117.638L378.742 117.968H378.732Z" fill="#3364AD"/>
<path d="M410.742 134.058C407.212 131.798 403.461 129.708 399.581 127.828C393.131 124.708 386.432 122.258 380.202 120.748L379.392 119.078C386.022 120.688 393.172 123.298 400.042 126.618C404.172 128.618 408.172 130.848 411.932 133.258L410.732 134.058H410.742Z" fill="#3364AD"/>
<path d="M306.242 160.698L307.152 164.958H312.292L306.242 160.698Z" fill="#C4E5EE"/>
<path d="M272.602 119.548L271.702 115.288H266.551L272.602 119.548Z" fill="#C4E5EE"/>
<path d="M267.902 140.118L261.432 137.668L265.452 142.578L267.902 140.118Z" fill="#C4E5EE"/>
<path d="M310.952 140.118L317.412 142.578L313.392 137.668L310.952 140.118Z" fill="#C4E5EE"/>
<path d="M309.452 150.868L313.301 154.378L313.892 151.808L309.452 150.868Z" fill="#3364AD"/>
<path d="M269.392 129.368L265.542 125.858L264.952 128.428L269.392 129.368Z" fill="#3364AD"/>
<path d="M286.962 150.868L284.062 151.808L288.852 154.378L286.962 150.868Z" fill="#3364AD"/>
<path d="M291.882 129.368L294.782 128.428L290.002 125.858L291.882 129.368Z" fill="#3364AD"/>
<path d="M261.602 135.398C261.372 135.008 261.152 134.628 260.942 134.248L263.662 134.808C263.852 135.148 264.042 135.498 264.252 135.838L261.602 135.388V135.398ZM260.092 132.568C259.922 132.198 259.762 131.828 259.622 131.468L262.462 132.298C262.592 132.628 262.732 132.958 262.892 133.298L260.092 132.578V132.568ZM259.042 129.858C258.932 129.508 258.842 129.158 258.762 128.818L261.682 129.898C261.752 130.208 261.842 130.518 261.942 130.838L259.042 129.858ZM258.482 127.308C258.442 126.978 258.412 126.658 258.392 126.348L261.352 127.658C261.372 127.948 261.392 128.238 261.432 128.528L258.482 127.308ZM258.412 124.968C258.432 124.668 258.471 124.378 258.521 124.098L261.472 125.628C261.432 125.888 261.402 126.148 261.372 126.418L258.412 124.968ZM258.822 122.858C258.912 122.598 259.012 122.338 259.122 122.088L262.012 123.808C261.912 124.038 261.822 124.268 261.742 124.508L258.822 122.858ZM259.712 121.018C259.862 120.788 260.022 120.578 260.202 120.368L262.992 122.248C262.832 122.438 262.681 122.638 262.551 122.838L259.722 121.018H259.712ZM261.072 119.478C261.282 119.298 261.502 119.118 261.742 118.948L264.382 120.968C264.172 121.118 263.971 121.278 263.771 121.448L261.062 119.478H261.072ZM262.872 118.258C263.142 118.118 263.422 117.988 263.712 117.868L266.162 119.988C265.902 120.098 265.642 120.218 265.402 120.338L262.872 118.258ZM265.102 117.388C265.422 117.298 265.762 117.218 266.102 117.138L268.322 119.328C268.012 119.398 267.712 119.468 267.412 119.548L265.092 117.378L265.102 117.388ZM307.611 135.848C307.251 135.498 306.892 135.158 306.512 134.818L308.312 134.258C308.722 134.638 309.132 135.018 309.521 135.408L307.602 135.858L307.611 135.848ZM304.792 133.288C304.392 132.948 304.002 132.618 303.592 132.288L305.081 131.458C305.531 131.818 305.972 132.188 306.412 132.558L304.792 133.278V133.288ZM301.732 130.838C301.312 130.518 300.882 130.208 300.452 129.898L301.611 128.818C302.091 129.158 302.562 129.508 303.021 129.858L301.732 130.838ZM298.472 128.538C298.022 128.238 297.582 127.948 297.122 127.668L297.932 126.358C298.432 126.678 298.922 126.998 299.422 127.318L298.472 128.538ZM295.072 126.418C294.612 126.148 294.152 125.888 293.682 125.628L294.132 124.098C294.642 124.378 295.162 124.678 295.672 124.968L295.081 126.418H295.072ZM291.581 124.508C291.111 124.268 290.642 124.038 290.172 123.808L290.252 122.088C290.772 122.338 291.292 122.598 291.812 122.858L291.581 124.508ZM288.051 122.848C287.581 122.648 287.112 122.448 286.642 122.258L286.352 120.378C286.872 120.588 287.392 120.808 287.912 121.028L288.051 122.848ZM284.551 121.458C284.091 121.288 283.632 121.128 283.172 120.978L282.512 118.958C283.022 119.128 283.532 119.298 284.042 119.488L284.551 121.458ZM281.122 120.358C280.672 120.228 280.232 120.118 279.782 120.008L278.762 117.888C279.252 118.008 279.742 118.138 280.242 118.278L281.111 120.358H281.122ZM277.822 119.568C277.392 119.488 276.971 119.408 276.551 119.348L275.192 117.158C275.652 117.228 276.122 117.308 276.592 117.408L277.822 119.578V119.568ZM317.262 144.858C317.492 145.248 317.712 145.628 317.922 146.008L315.202 145.448C315.012 145.108 314.821 144.758 314.611 144.418L317.262 144.868V144.858ZM318.771 147.688C318.941 148.058 319.102 148.428 319.242 148.788L316.402 147.958C316.272 147.628 316.132 147.298 315.972 146.958L318.771 147.678V147.688ZM319.822 150.398C319.932 150.748 320.022 151.098 320.102 151.438L317.182 150.358C317.112 150.048 317.022 149.738 316.922 149.418L319.822 150.398ZM320.382 152.948C320.422 153.278 320.452 153.598 320.472 153.908L317.512 152.598C317.492 152.308 317.472 152.018 317.432 151.728L320.382 152.948ZM320.452 155.288C320.432 155.588 320.392 155.878 320.342 156.158L317.392 154.628C317.432 154.368 317.462 154.108 317.492 153.838L320.452 155.288ZM320.042 157.398C319.952 157.658 319.852 157.918 319.742 158.168L316.852 156.448C316.952 156.218 317.042 155.988 317.122 155.748L320.042 157.398ZM319.152 159.238C319.002 159.468 318.842 159.678 318.662 159.888L315.872 158.008C316.032 157.818 316.182 157.618 316.312 157.418L319.142 159.238H319.152ZM317.792 160.778C317.582 160.958 317.362 161.138 317.122 161.308L314.482 159.288C314.692 159.138 314.892 158.978 315.092 158.808L317.801 160.778H317.792ZM315.982 161.998C315.712 162.138 315.432 162.268 315.142 162.388L312.692 160.268C312.952 160.158 313.212 160.038 313.452 159.918L315.982 161.998ZM313.752 162.868C313.432 162.958 313.092 163.038 312.752 163.118L310.532 160.928C310.842 160.858 311.142 160.788 311.442 160.708L313.762 162.878L313.752 162.868ZM271.242 144.408C271.602 144.758 271.962 145.098 272.342 145.438L270.542 145.998C270.132 145.618 269.721 145.238 269.331 144.848L271.252 144.398L271.242 144.408ZM274.062 146.968C274.462 147.308 274.852 147.638 275.262 147.968L273.771 148.798C273.321 148.438 272.882 148.068 272.442 147.698L274.062 146.978V146.968ZM277.122 149.418C277.542 149.738 277.972 150.048 278.402 150.358L277.242 151.438C276.762 151.098 276.291 150.748 275.831 150.398L277.122 149.418ZM280.382 151.718C280.832 152.018 281.272 152.308 281.732 152.588L280.922 153.898C280.422 153.578 279.932 153.258 279.432 152.938L280.382 151.718ZM283.782 153.838C284.242 154.108 284.702 154.368 285.172 154.628L284.722 156.158C284.212 155.878 283.692 155.578 283.182 155.288L283.771 153.838H283.782ZM287.271 155.748C287.741 155.988 288.212 156.218 288.682 156.448L288.602 158.168C288.082 157.918 287.562 157.658 287.042 157.398L287.271 155.748ZM290.801 157.408C291.271 157.608 291.742 157.808 292.212 157.998L292.502 159.878C291.982 159.668 291.462 159.448 290.942 159.228L290.801 157.408ZM294.301 158.798C294.761 158.968 295.222 159.128 295.682 159.278L296.342 161.298C295.832 161.128 295.322 160.958 294.812 160.768L294.301 158.798ZM297.732 159.898C298.182 160.028 298.622 160.138 299.072 160.248L300.092 162.368C299.602 162.248 299.111 162.118 298.611 161.978L297.742 159.898H297.732ZM301.032 160.688C301.462 160.768 301.882 160.848 302.301 160.908L303.662 163.098C303.202 163.028 302.732 162.948 302.262 162.848L301.032 160.678V160.688Z" fill="#3364AD"/>
<path d="M493.242 157.708L493.952 161.058H498.002L493.242 157.708Z" fill="#C4E5EE"/>
<path d="M466.762 125.318L466.051 121.968H462.002L466.762 125.318Z" fill="#C4E5EE"/>
<path d="M463.062 141.508L457.972 139.578L461.132 143.448L463.062 141.508Z" fill="#C4E5EE"/>
<path d="M496.942 141.508L502.032 143.448L498.861 139.578L496.942 141.508Z" fill="#C4E5EE"/>
<path d="M495.771 149.968L498.801 152.728L499.262 150.708L495.771 149.968Z" fill="#3364AD"/>
<path d="M464.232 133.048L461.202 130.288L460.742 132.308L464.232 133.048Z" fill="#3364AD"/>
<path d="M478.062 149.968L475.782 150.708L479.551 152.728L478.062 149.968Z" fill="#3364AD"/>
<path d="M481.942 133.048L484.222 132.308L480.452 130.288L481.942 133.048Z" fill="#3364AD"/>
<path d="M458.102 137.788C457.922 137.488 457.741 137.188 457.581 136.888L459.722 137.328C459.872 137.598 460.022 137.868 460.192 138.138L458.102 137.788ZM456.912 135.558C456.782 135.268 456.652 134.978 456.542 134.688L458.782 135.338C458.882 135.598 459.002 135.858 459.122 136.118L456.922 135.548L456.912 135.558ZM456.092 133.418C456.012 133.138 455.932 132.868 455.872 132.598L458.172 133.448C458.232 133.688 458.302 133.938 458.372 134.188L456.092 133.418ZM455.652 131.418C455.622 131.158 455.591 130.908 455.581 130.658L457.912 131.688C457.922 131.908 457.942 132.138 457.972 132.378L455.652 131.418ZM455.592 129.568C455.612 129.338 455.632 129.108 455.672 128.878L457.992 130.078C457.962 130.278 457.932 130.488 457.912 130.698L455.581 129.558L455.592 129.568ZM455.912 127.908C455.982 127.698 456.062 127.498 456.152 127.298L458.432 128.648C458.352 128.828 458.282 129.008 458.222 129.198L455.922 127.898L455.912 127.908ZM456.611 126.458C456.731 126.278 456.862 126.108 456.992 125.948L459.182 127.428C459.062 127.578 458.941 127.728 458.831 127.898L456.602 126.468L456.611 126.458ZM457.682 125.248C457.852 125.098 458.022 124.968 458.212 124.838L460.292 126.428C460.122 126.548 459.962 126.668 459.812 126.798L457.682 125.248ZM459.102 124.288C459.312 124.178 459.532 124.078 459.762 123.978L461.692 125.648C461.482 125.738 461.282 125.828 461.092 125.928L459.102 124.288ZM460.852 123.608C461.102 123.538 461.372 123.468 461.642 123.418L463.392 125.138C463.142 125.188 462.912 125.248 462.682 125.318L460.861 123.608H460.852ZM494.301 138.138C494.021 137.868 493.732 137.588 493.442 137.328L494.861 136.888C495.181 137.188 495.502 137.488 495.822 137.788L494.312 138.138H494.301ZM492.081 136.118C491.771 135.858 491.452 135.588 491.142 135.338L492.312 134.688C492.662 134.978 493.012 135.258 493.352 135.558L492.081 136.128V136.118ZM489.672 134.188C489.342 133.938 489.002 133.688 488.662 133.448L489.572 132.598C489.942 132.868 490.322 133.138 490.682 133.418L489.662 134.188H489.672ZM487.102 132.378C486.752 132.148 486.402 131.918 486.042 131.688L486.682 130.658C487.072 130.908 487.462 131.158 487.852 131.418L487.102 132.378ZM484.422 130.708C484.062 130.498 483.691 130.288 483.331 130.088L483.682 128.888C484.082 129.108 484.492 129.338 484.892 129.578L484.422 130.718V130.708ZM481.672 129.208C481.302 129.018 480.932 128.838 480.562 128.658L480.622 127.308C481.032 127.508 481.442 127.708 481.852 127.918L481.672 129.218V129.208ZM478.902 127.898C478.532 127.738 478.162 127.578 477.792 127.428L477.562 125.948C477.972 126.118 478.382 126.288 478.782 126.458L478.892 127.888L478.902 127.898ZM476.142 126.798C475.782 126.668 475.411 126.538 475.051 126.428L474.532 124.838C474.932 124.968 475.332 125.108 475.742 125.248L476.142 126.798ZM473.442 125.938C473.092 125.838 472.742 125.748 472.392 125.658L471.592 123.988C471.982 124.088 472.362 124.188 472.762 124.298L473.452 125.938H473.442ZM470.852 125.318C470.512 125.248 470.182 125.198 469.852 125.138L468.782 123.418C469.142 123.478 469.512 123.538 469.882 123.608L470.852 125.318ZM501.892 145.228C502.072 145.528 502.252 145.828 502.412 146.128L500.271 145.688C500.121 145.418 499.971 145.148 499.801 144.878L501.892 145.228ZM503.081 147.458C503.211 147.748 503.342 148.038 503.452 148.328L501.212 147.678C501.112 147.418 500.992 147.158 500.872 146.898L503.072 147.468L503.081 147.458ZM503.902 149.598C503.982 149.878 504.062 150.148 504.122 150.418L501.822 149.568C501.762 149.328 501.692 149.078 501.622 148.828L503.902 149.598ZM504.342 151.598C504.372 151.858 504.402 152.108 504.412 152.358L502.081 151.328C502.071 151.108 502.051 150.878 502.021 150.638L504.342 151.598ZM504.402 153.448C504.382 153.678 504.362 153.908 504.322 154.138L502.002 152.938C502.032 152.738 502.061 152.528 502.081 152.318L504.412 153.458L504.402 153.448ZM504.081 155.108C504.011 155.318 503.932 155.518 503.842 155.718L501.562 154.368C501.642 154.188 501.711 154.008 501.771 153.818L504.072 155.118L504.081 155.108ZM503.382 156.558C503.262 156.738 503.132 156.908 503.002 157.068L500.812 155.588C500.932 155.438 501.052 155.288 501.162 155.118L503.392 156.548L503.382 156.558ZM502.312 157.768C502.142 157.918 501.972 158.048 501.782 158.178L499.702 156.588C499.872 156.468 500.032 156.348 500.182 156.218L502.312 157.768ZM500.892 158.728C500.682 158.838 500.462 158.938 500.232 159.038L498.301 157.368C498.511 157.278 498.712 157.188 498.902 157.088L500.892 158.728ZM499.142 159.408C498.892 159.478 498.622 159.548 498.352 159.598L496.602 157.878C496.852 157.828 497.082 157.768 497.312 157.698L499.132 159.408H499.142ZM465.692 144.878C465.972 145.148 466.261 145.428 466.551 145.688L465.132 146.128C464.812 145.828 464.492 145.528 464.172 145.228L465.682 144.878H465.692ZM467.912 146.898C468.222 147.158 468.542 147.428 468.852 147.678L467.682 148.328C467.332 148.038 466.982 147.758 466.642 147.458L467.912 146.888V146.898ZM470.322 148.828C470.652 149.078 470.991 149.328 471.331 149.568L470.422 150.418C470.052 150.148 469.672 149.878 469.312 149.598L470.331 148.828H470.322ZM472.892 150.638C473.242 150.868 473.592 151.098 473.952 151.328L473.312 152.358C472.922 152.108 472.532 151.858 472.142 151.598L472.892 150.638ZM475.572 152.308C475.932 152.518 476.302 152.728 476.662 152.928L476.312 154.128C475.912 153.908 475.502 153.678 475.102 153.438L475.572 152.298V152.308ZM478.322 153.808C478.692 153.998 479.062 154.178 479.432 154.358L479.372 155.708C478.962 155.508 478.552 155.308 478.142 155.098L478.322 153.798V153.808ZM481.092 155.118C481.462 155.278 481.832 155.438 482.202 155.588L482.432 157.068C482.022 156.898 481.612 156.728 481.212 156.558L481.102 155.128L481.092 155.118ZM483.852 156.218C484.212 156.348 484.582 156.478 484.942 156.588L485.462 158.178C485.062 158.048 484.662 157.908 484.262 157.768L483.861 156.218H483.852ZM486.551 157.078C486.901 157.178 487.252 157.268 487.602 157.358L488.402 159.028C488.012 158.928 487.632 158.828 487.232 158.718L486.542 157.078H486.551ZM489.142 157.698C489.482 157.768 489.812 157.818 490.142 157.878L491.212 159.598C490.852 159.538 490.481 159.478 490.111 159.408L489.142 157.698Z" fill="#3364AD"/>
<path d="M456.872 141.748H444.942L444.542 141.268H456.472L456.872 141.748Z" fill="#3364AD"/>
<path d="M299.762 152.838C291.662 151.598 280.712 144.708 275.342 137.488C269.972 130.268 272.192 125.398 280.292 126.638C288.392 127.878 299.342 134.768 304.712 141.988C310.082 149.218 307.862 154.078 299.762 152.838ZM280.452 126.848C272.492 125.628 270.311 130.418 275.581 137.518C280.851 144.618 291.632 151.388 299.592 152.608C307.552 153.828 309.732 149.038 304.462 141.938C299.182 134.838 288.412 128.068 280.452 126.848Z" fill="#80CCDD"/>
<path d="M305.111 142.038L303.632 141.808C298.662 135.118 288.512 128.738 281.012 127.588L280.032 126.268C288.352 127.538 299.601 134.618 305.111 142.038Z" fill="#80CCDD"/>
<path d="M421.012 136.018C421.012 136.018 412.122 109.958 394.342 100.768C394.342 100.768 384.842 95.248 404.152 118.238C404.152 118.238 385.762 125.898 391.582 135.708C397.402 145.518 402.922 145.518 404.762 147.048C406.602 148.578 409.052 152.868 409.052 152.868L421.012 136.008V136.018Z" fill="url(#paint2_linear_0_128)"/>
<path d="M535.392 20.2982C535.392 20.2982 531.192 72.2382 548.242 72.2382C548.242 72.2382 557.422 71.4482 557.952 64.8982C557.952 64.8982 560.312 65.9482 559.002 73.5582L593.362 70.9382C593.362 70.9382 589.432 70.1482 588.902 56.5082C588.902 56.5082 565.552 59.6582 565.032 55.7182C565.032 55.7182 572.112 14.5382 535.392 20.3082V20.2982Z" fill="url(#paint3_linear_0_128)"/>
<path d="M535.392 20.298C535.392 20.298 527.781 19.778 533.291 10.858C538.531 2.37795 576.191 -8.73205 593.101 11.118C605.341 25.4879 602.901 51.658 593.981 56.358C593.671 56.528 593.722 56.468 587.762 57.378C575.162 59.308 570.821 60.208 567.101 57.638C566.151 56.978 565.482 56.258 565.032 55.718C565.222 54.258 565.392 52.178 565.262 49.688C565.112 46.7579 564.471 34.628 554.801 26.638C547.131 20.298 538.192 20.218 535.382 20.308L535.392 20.298Z" fill="url(#paint4_linear_0_128)"/>
<path d="M552.702 34.988C552.702 34.988 567.652 25.548 560.572 50.988C560.572 50.988 557.682 54.658 553.492 52.558C553.492 52.558 559.522 42.068 552.702 34.978V34.988Z" fill="url(#paint5_radial_0_128)"/>
<path d="M518.661 453.328L523.592 545.938H563.052L568.532 454.428L518.661 453.328Z" fill="url(#paint6_linear_0_128)"/>
<path d="M594.252 455.008C597.732 485.498 601.222 515.998 604.702 546.488H637.582C639.452 514.328 641.332 482.178 643.202 450.018C626.882 451.678 610.562 453.338 594.252 454.998V455.008Z" fill="url(#paint7_linear_0_128)"/>
<path d="M549.982 83.948C549.982 83.948 521.102 84.0979 501.412 104.698C481.722 125.298 462.952 164.678 462.952 164.678L427.692 132.628C427.692 132.628 412.582 139.038 400.682 166.968C400.682 166.968 444.642 227.408 469.822 219.168C495.002 210.928 530.262 186.658 534.842 176.128C534.842 176.128 509.432 199.028 509.432 202.588C509.432 206.148 480.682 439.748 481.382 446.778C482.082 453.808 622.052 462.248 664.962 446.778C664.962 446.778 656.531 83.318 607.602 84.278C607.602 84.278 582.442 80.028 549.992 83.948H549.982Z" fill="url(#paint8_linear_0_128)"/>
<path d="M607.592 84.2778C607.592 84.2778 674.632 89.5378 660.192 202.228C660.192 202.228 655.982 213.228 649.072 216.678C649.072 216.678 636.132 89.7478 607.592 84.2778Z" fill="url(#paint9_linear_0_128)"/>
<path d="M646.922 198.788C646.922 198.788 662.822 175.668 660.982 151.038C660.982 151.038 674.982 204.938 649.072 216.688L646.922 198.798V198.788Z" fill="url(#paint10_linear_0_128)"/>
<path d="M592.952 124.478C596.612 147.968 599.752 172.328 602.232 197.528C611.532 291.968 609.662 378.638 602.172 455.098C597.902 455.248 593.622 455.398 589.352 455.548C593.032 414.578 595.701 371.438 596.971 326.288C598.991 254.188 597.182 186.678 592.942 124.468L592.952 124.478Z" fill="url(#paint11_linear_0_128)"/>
<path d="M534.792 177.108C534.872 172.878 535.752 128.458 534.842 123.958C534.822 123.848 534.772 123.578 534.572 123.498C532.322 122.558 517.722 151.378 472.092 196.658C468.392 198.728 463.102 201.018 456.482 201.858C438.322 204.168 424.542 193.768 421.172 191.078C430.822 203.388 440.582 210.558 447.002 214.538C454.892 219.438 459.632 220.698 463.652 221.068C468.112 221.478 473.652 220.948 481.442 217.478C502.752 207.968 531.022 180.768 534.782 177.118L534.792 177.108Z" fill="url(#paint12_linear_0_128)"/>
<path d="M465.332 200.798C463.772 198.468 462.102 195.498 460.742 191.898C457.812 184.128 457.722 177.138 458.042 172.778C457.102 175.098 456.232 177.878 455.692 181.078C454.142 190.348 456.282 198.078 457.892 202.398C459.282 202.318 460.932 202.108 462.732 201.638C463.682 201.388 464.552 201.098 465.332 200.798Z" fill="url(#paint13_linear_0_128)"/>
<path d="M451.132 202.238C450.052 199.338 449.032 195.938 448.302 192.068C446.882 184.528 447.092 177.948 447.672 173.048C446.802 175.968 446.002 179.308 445.462 183.028C444.412 190.308 444.672 196.698 445.282 201.668C445.912 201.918 446.742 202.168 447.722 202.308C449.122 202.498 450.302 202.378 451.122 202.228L451.132 202.238Z" fill="url(#paint14_linear_0_128)"/>
<path d="M509.882 198.918C499.952 281.898 490.032 364.878 480.102 447.858C481.772 448.498 483.902 449.128 486.422 449.438C487.712 449.598 488.902 449.648 489.972 449.638C498.132 364.848 506.302 280.068 514.462 195.278C512.932 196.488 511.412 197.708 509.882 198.918Z" fill="url(#paint15_linear_0_128)"/>
<path d="M549.982 83.948L556.602 72.688C556.602 72.688 586.402 71.028 603.292 70.698C603.292 70.698 609.582 75.998 607.592 84.278C607.592 84.278 588.392 79.978 549.982 83.948Z" fill="url(#paint16_linear_0_128)"/>
<path d="M557.952 64.888C557.952 64.888 559.512 63.198 560.242 60.408C560.242 60.408 562.782 67.778 561.152 72.418L559.142 72.528C559.142 72.528 560.112 66.548 557.952 64.888Z" fill="url(#paint17_linear_0_128)"/>
<path d="M10.9015 306.258H43.6915V546.128H9.26151L10.9015 306.258Z" fill="url(#paint18_linear_0_128)"/>
<path d="M321.802 305.508H354.592V550.158H320.162L321.802 305.508Z" fill="url(#paint19_linear_0_128)"/>
<path d="M632.942 306.388H665.732V546.258H631.302L632.942 306.388Z" fill="url(#paint20_linear_0_128)"/>
<path d="M9.27152 504.278C279.312 504.288 549.352 504.298 819.392 504.318C819.392 535.698 819.392 567.078 819.392 598.458C549.282 598.918 279.172 599.388 9.06152 599.848L9.26152 504.278H9.27152Z" fill="#17162C"/>
<path d="M819.152 378.518H10.3815V396.608H819.152V378.518Z" fill="url(#paint21_linear_0_128)"/>
<path d="M8.54151 272.308H819.482V306.258H10.9015C10.9015 306.258 -11.9685 291.998 8.54151 272.308Z" fill="url(#paint22_linear_0_128)"/>
<g style="mix-blend-mode:screen" opacity="0.1">
<path d="M293.562 189.588H283.182L312.772 227.468H323.152L293.562 189.588Z" fill="#3263AD"/>
<path d="M323.442 227.628H312.742L282.902 189.428H293.602L323.442 227.628ZM312.812 227.308H322.872L293.532 189.758H283.472L312.812 227.308Z" fill="#7FCBDD"/>
</g>
<path d="M338.712 227.788H327.682L287.652 176.548H298.682L338.712 227.788ZM327.822 227.148H337.562L298.532 177.198H288.792L327.822 227.148Z" fill="#7FCBDD"/>
<g style="mix-blend-mode:screen" opacity="0.1">
<path d="M345.532 202.308H335.152L354.802 227.468H365.182L345.532 202.308Z" fill="#3263AD"/>
<path d="M365.472 227.628H354.772L334.862 202.148H345.562L365.472 227.628ZM354.842 227.308H364.902L345.502 202.468H335.442L354.842 227.308Z" fill="#7FCBDD"/>
</g>
<path d="M380.752 227.788H369.722L336.712 185.538H347.742L380.752 227.788ZM369.862 227.148H379.602L347.602 186.188H337.862L369.862 227.148Z" fill="#7FCBDD"/>
<g style="mix-blend-mode:screen" opacity="0.1">
<path d="M369.672 179.408H359.292L396.832 227.468H407.222L369.672 179.408Z" fill="#3263AD"/>
<path d="M407.502 227.628H396.802L359.002 179.248H369.702L407.502 227.628ZM396.872 227.308H406.932L369.642 179.578H359.582L396.872 227.308Z" fill="#7FCBDD"/>
</g>
<path d="M422.782 227.788H411.752L362.812 165.148H373.842L422.782 227.788ZM411.892 227.148H421.632L373.702 165.798H363.962L411.892 227.148Z" fill="#7FCBDD"/>
<path d="M433.032 227.788H302.452L301.942 227.138H432.532L433.032 227.788Z" fill="#7FCBDD"/>
<defs>
<linearGradient id="paint0_linear_0_128" x1="390.752" y1="16.6479" x2="395.442" y2="203.948" gradientUnits="userSpaceOnUse">
<stop offset="0.22" stop-color="#615B9A" stop-opacity="0.2"/>
<stop offset="0.54" stop-color="#605B99" stop-opacity="0.76"/>
<stop offset="0.56" stop-color="#605C99" stop-opacity="0.8"/>
<stop offset="0.72" stop-color="#56528E" stop-opacity="0.8"/>
<stop offset="0.96" stop-color="#3B3773" stop-opacity="0.8"/>
<stop offset="1" stop-color="#36326D" stop-opacity="0.8"/>
</linearGradient>
<linearGradient id="paint1_linear_0_128" x1="390.751" y1="16.648" x2="395.442" y2="203.948" gradientUnits="userSpaceOnUse">
<stop offset="0.22" stop-color="#615B9A" stop-opacity="0.2"/>
<stop offset="0.54" stop-color="#605B99" stop-opacity="0.76"/>
<stop offset="0.56" stop-color="#605C99" stop-opacity="0.8"/>
<stop offset="0.72" stop-color="#56528E" stop-opacity="0.8"/>
<stop offset="0.96" stop-color="#3B3773" stop-opacity="0.8"/>
<stop offset="1" stop-color="#36326D" stop-opacity="0.8"/>
</linearGradient>
<linearGradient id="paint2_linear_0_128" x1="461.562" y1="165.048" x2="369.262" y2="105.978" gradientUnits="userSpaceOnUse">
<stop offset="0.34" stop-color="#6379AB"/>
<stop offset="0.56" stop-color="#2E2D66"/>
<stop offset="0.58" stop-color="#393267"/>
<stop offset="0.62" stop-color="#58406C"/>
<stop offset="0.67" stop-color="#895873"/>
<stop offset="0.73" stop-color="#CD777E"/>
<stop offset="0.76" stop-color="#EE8783"/>
</linearGradient>
<linearGradient id="paint3_linear_0_128" x1="623.492" y1="50.9982" x2="504.312" y2="43.8382" gradientUnits="userSpaceOnUse">
<stop offset="0.15" stop-color="#6379AB"/>
<stop offset="0.2" stop-color="#546498"/>
<stop offset="0.28" stop-color="#434C82"/>
<stop offset="0.36" stop-color="#373A72"/>
<stop offset="0.45" stop-color="#303069"/>
<stop offset="0.55" stop-color="#2E2D66"/>
<stop offset="0.57" stop-color="#343067"/>
<stop offset="0.6" stop-color="#473869"/>
<stop offset="0.63" stop-color="#66476E"/>
<stop offset="0.67" stop-color="#915B75"/>
<stop offset="0.71" stop-color="#C8757D"/>
<stop offset="0.73" stop-color="#EE8783"/>
</linearGradient>
<linearGradient id="paint4_linear_0_128" x1="523.261" y1="1.51795" x2="591.991" y2="40.0479" gradientUnits="userSpaceOnUse">
<stop offset="0.16" stop-color="#F39889"/>
<stop offset="0.42" stop-color="#EC7F7F"/>
<stop offset="0.49" stop-color="#EA777C"/>
<stop offset="0.7" stop-color="#935168"/>
<stop offset="0.91" stop-color="#463057"/>
<stop offset="1" stop-color="#282351"/>
</linearGradient>
<radialGradient id="paint5_radial_0_128" cx="0" cy="0" r="1" gradientUnits="userSpaceOnUse" gradientTransform="translate(544.292 41.118) scale(28.63 28.63)">
<stop offset="0.31" stop-color="#EE8783"/>
<stop offset="0.58" stop-color="#2E2D66"/>
<stop offset="0.64" stop-color="#32336C"/>
<stop offset="0.72" stop-color="#3F467D"/>
<stop offset="0.82" stop-color="#556599"/>
<stop offset="0.87" stop-color="#6379AB"/>
</radialGradient>
<linearGradient id="paint6_linear_0_128" x1="544.222" y1="398.208" x2="542.242" y2="574.718" gradientUnits="userSpaceOnUse">
<stop offset="0.23" stop-color="#321E48"/>
<stop offset="0.37" stop-color="#282453"/>
<stop offset="0.4" stop-color="#252859"/>
<stop offset="0.45" stop-color="#1E346A"/>
<stop offset="0.51" stop-color="#144684"/>
<stop offset="0.53" stop-color="#2A5181"/>
<stop offset="0.58" stop-color="#636D7C"/>
<stop offset="0.65" stop-color="#BD9A73"/>
<stop offset="0.69" stop-color="#EDB26F"/>
</linearGradient>
<linearGradient id="paint7_linear_0_128" x1="619.292" y1="402.138" x2="617.272" y2="581.728" gradientUnits="userSpaceOnUse">
<stop offset="0.23" stop-color="#321E48"/>
<stop offset="0.37" stop-color="#282453"/>
<stop offset="0.4" stop-color="#252859"/>
<stop offset="0.44" stop-color="#1E346A"/>
<stop offset="0.49" stop-color="#144684"/>
<stop offset="0.5" stop-color="#2A5181"/>
<stop offset="0.54" stop-color="#636D7C"/>
<stop offset="0.59" stop-color="#BD9A73"/>
<stop offset="0.62" stop-color="#EDB26F"/>
</linearGradient>
<linearGradient id="paint8_linear_0_128" x1="532.822" y1="476.398" x2="532.822" y2="32.9479" gradientUnits="userSpaceOnUse">
<stop offset="0.09" stop-color="#EDB26F"/>
<stop offset="0.12" stop-color="#CE9B6A"/>
<stop offset="0.18" stop-color="#937162"/>
<stop offset="0.24" stop-color="#65505B"/>
<stop offset="0.29" stop-color="#433856"/>
<stop offset="0.33" stop-color="#2F2954"/>
<stop offset="0.36" stop-color="#282453"/>
<stop offset="0.47" stop-color="#252859"/>
<stop offset="0.63" stop-color="#1E346A"/>
<stop offset="0.8" stop-color="#144684"/>
<stop offset="0.87" stop-color="#18589B"/>
<stop offset="0.94" stop-color="#1C69B1"/>
</linearGradient>
<linearGradient id="paint9_linear_0_128" x1="635.842" y1="36.4678" x2="633.612" y2="258.808" gradientUnits="userSpaceOnUse">
<stop offset="0.24" stop-color="#282453"/>
<stop offset="0.34" stop-color="#252859"/>
<stop offset="0.48" stop-color="#1E346A"/>
<stop offset="0.62" stop-color="#144684"/>
<stop offset="0.73" stop-color="#175799"/>
<stop offset="0.83" stop-color="#1C69B1"/>
</linearGradient>
<linearGradient id="paint10_linear_0_128" x1="640.972" y1="213.228" x2="671.532" y2="158.828" gradientUnits="userSpaceOnUse">
<stop offset="0.32" stop-color="#F39889"/>
<stop offset="0.45" stop-color="#EE8681"/>
<stop offset="0.59" stop-color="#EB7A7D"/>
<stop offset="0.74" stop-color="#EA777C"/>
</linearGradient>
<linearGradient id="paint11_linear_0_128" x1="600.552" y1="446.408" x2="594.162" y2="192.728" gradientUnits="userSpaceOnUse">
<stop offset="0.05" stop-color="#F7D08A"/>
<stop offset="0.13" stop-color="#F39889"/>
<stop offset="0.36" stop-color="#1C4884"/>
<stop offset="0.37" stop-color="#144684"/>
</linearGradient>
<linearGradient id="paint12_linear_0_128" x1="415.267" y1="174.613" x2="568.386" y2="170.567" gradientUnits="userSpaceOnUse">
<stop offset="0.32" stop-color="#F39889"/>
<stop offset="0.45" stop-color="#EE8681"/>
<stop offset="0.59" stop-color="#EB7A7D"/>
<stop offset="0.74" stop-color="#EA777C"/>
</linearGradient>
<linearGradient id="paint13_linear_0_128" x1="464.232" y1="211.608" x2="453.802" y2="172.318" gradientUnits="userSpaceOnUse">
<stop offset="0.32" stop-color="#F39889"/>
<stop offset="0.45" stop-color="#EE8681"/>
<stop offset="0.59" stop-color="#EB7A7D"/>
<stop offset="0.74" stop-color="#EA777C"/>
</linearGradient>
<linearGradient id="paint14_linear_0_128" x1="478.212" y1="187.728" x2="478.422" y2="187.728" gradientUnits="userSpaceOnUse">
<stop offset="0.32" stop-color="#F39889"/>
<stop offset="0.45" stop-color="#EE8681"/>
<stop offset="0.59" stop-color="#EB7A7D"/>
<stop offset="0.74" stop-color="#EA777C"/>
</linearGradient>
<linearGradient id="paint15_linear_0_128" x1="491.052" y1="489.688" x2="503.202" y2="161.648" gradientUnits="userSpaceOnUse">
<stop offset="0.29" stop-color="#F8DF84"/>
<stop offset="0.34" stop-color="#F7D884"/>
<stop offset="0.41" stop-color="#F5C786"/>
<stop offset="0.49" stop-color="#F3AA8A"/>
<stop offset="0.52" stop-color="#F29B8C"/>
<stop offset="0.61" stop-color="#EC9181"/>
<stop offset="0.74" stop-color="#E27D6A"/>
</linearGradient>
<linearGradient id="paint16_linear_0_128" x1="634.312" y1="95.228" x2="517.561" y2="58.988" gradientUnits="userSpaceOnUse">
<stop offset="0.05" stop-color="#321E48"/>
<stop offset="0.34" stop-color="#282453"/>
<stop offset="0.42" stop-color="#252859"/>
<stop offset="0.52" stop-color="#1E346A"/>
<stop offset="0.62" stop-color="#144684"/>
<stop offset="0.73" stop-color="#175799"/>
<stop offset="0.83" stop-color="#1C69B1"/>
</linearGradient>
<linearGradient id="paint17_linear_0_128" x1="559.522" y1="77.418" x2="560.142" y2="55.878" gradientUnits="userSpaceOnUse">
<stop offset="0.29" stop-color="#F8DF84"/>
<stop offset="0.34" stop-color="#F7D884"/>
<stop offset="0.41" stop-color="#F5C786"/>
<stop offset="0.49" stop-color="#F3AA8A"/>
<stop offset="0.52" stop-color="#F29B8C"/>
<stop offset="0.61" stop-color="#EC9181"/>
<stop offset="0.74" stop-color="#E27D6A"/>
</linearGradient>
<linearGradient id="paint18_linear_0_128" x1="-12.9185" y1="426.198" x2="83.6315" y2="426.198" gradientUnits="userSpaceOnUse">
<stop offset="0.36" stop-color="#17162C"/>
<stop offset="0.42" stop-color="#574540"/>
<stop offset="0.52" stop-color="#C29261"/>
<stop offset="0.57" stop-color="#EDB26F"/>
</linearGradient>
<linearGradient id="paint19_linear_0_128" x1="312.032" y1="427.838" x2="373.652" y2="427.838" gradientUnits="userSpaceOnUse">
<stop offset="0.36" stop-color="#17162C"/>
<stop offset="0.42" stop-color="#574540"/>
<stop offset="0.52" stop-color="#C29261"/>
<stop offset="0.57" stop-color="#EDB26F"/>
</linearGradient>
<linearGradient id="paint20_linear_0_128" x1="600.252" y1="426.318" x2="710.292" y2="426.318" gradientUnits="userSpaceOnUse">
<stop offset="0.36" stop-color="#17162C"/>
<stop offset="0.42" stop-color="#574540"/>
<stop offset="0.52" stop-color="#C29261"/>
<stop offset="0.57" stop-color="#EDB26F"/>
</linearGradient>
<linearGradient id="paint21_linear_0_128" x1="414.762" y1="359.978" x2="414.762" y2="422.468" gradientUnits="userSpaceOnUse">
<stop offset="0.36" stop-color="#17162C"/>
<stop offset="0.42" stop-color="#574540"/>
<stop offset="0.52" stop-color="#C29261"/>
<stop offset="0.57" stop-color="#EDB26F"/>
</linearGradient>
<linearGradient id="paint22_linear_0_128" x1="409.742" y1="259.338" x2="409.742" y2="334.348" gradientUnits="userSpaceOnUse">
<stop offset="0.32" stop-color="#17162C"/>
<stop offset="0.4" stop-color="#574540"/>
<stop offset="0.55" stop-color="#C29261"/>
<stop offset="0.61" stop-color="#EDB26F"/>
</linearGradient>
</defs>
</svg>
