<svg width="233" height="177" viewBox="0 0 233 177" fill="none" xmlns="http://www.w3.org/2000/svg">
<path d="M224.67 168.53H8.13V8.29004H224.67V168.53ZM9.26999 167.39H223.53V9.43004H9.26999V167.39Z" fill="#3364AD"/>
<path d="M220.68 12.2798H12.12V164.54H220.68V12.2798Z" fill="url(#paint0_linear_0_275)" stroke="url(#paint1_linear_0_275)" stroke-width="3" stroke-miterlimit="10"/>
<path d="M220.97 164.83H11.84V12H220.97V164.83ZM12.41 164.26H220.4V12.57H12.41V164.26Z" fill="url(#paint2_linear_0_275)" stroke="url(#paint3_linear_0_275)" stroke-width="3" stroke-miterlimit="10"/>
<g style="mix-blend-mode:screen" opacity="0.2">
<path d="M215.49 32.69H200.28V17.48H215.49V32.69ZM201.42 31.55H214.35V18.62H201.42V31.55Z" fill="#3364AD"/>
<path d="M201.42 32.69H186.21V17.48H201.42V32.69ZM187.35 31.55H200.28V18.62H187.35V31.55Z" fill="#3364AD"/>
<path d="M187.34 32.69H172.13V17.48H187.34V32.69ZM173.27 31.55H186.2V18.62H173.27V31.55Z" fill="#3364AD"/>
<path d="M173.27 32.69H158.06V17.48H173.27V32.69ZM159.2 31.55H172.13V18.62H159.2V31.55Z" fill="#3364AD"/>
<path d="M159.2 32.69H143.99V17.48H159.2V32.69ZM145.13 31.55H158.06V18.62H145.13V31.55Z" fill="#3364AD"/>
<path d="M145.12 32.69H129.91V17.48H145.12V32.69ZM131.05 31.55H143.98V18.62H131.05V31.55Z" fill="#3364AD"/>
<path d="M131.05 32.69H115.84V17.48H131.05V32.69ZM116.98 31.55H129.91V18.62H116.98V31.55Z" fill="#3364AD"/>
<path d="M116.97 32.69H101.76V17.48H116.97V32.69ZM102.9 31.55H115.83V18.62H102.9V31.55Z" fill="#3364AD"/>
<path d="M102.9 32.69H87.69V17.48H102.9V32.69ZM88.83 31.55H101.76V18.62H88.83V31.55Z" fill="#3364AD"/>
<path d="M88.82 32.69H73.61V17.48H88.82V32.69ZM74.75 31.55H87.68V18.62H74.75V31.55Z" fill="#3364AD"/>
<path d="M74.75 32.69H59.54V17.48H74.75V32.69ZM60.68 31.55H73.61V18.62H60.68V31.55Z" fill="#3364AD"/>
<path d="M60.67 32.69H45.46V17.48H60.67V32.69ZM46.6 31.55H59.53V18.62H46.6V31.55Z" fill="#3364AD"/>
<path d="M46.6 32.69H31.39V17.48H46.6V32.69ZM32.53 31.55H45.46V18.62H32.53V31.55Z" fill="#3364AD"/>
<path d="M32.52 32.69H17.31V17.48H32.52V32.69ZM18.45 31.55H31.38V18.62H18.45V31.55Z" fill="#3364AD"/>
<path d="M215.49 46.7598H200.28V31.5498H215.49V46.7598ZM201.42 45.6198H214.35V32.6898H201.42V45.6198Z" fill="#3364AD"/>
<path d="M201.42 46.7598H186.21V31.5498H201.42V46.7598ZM187.35 45.6198H200.28V32.6898H187.35V45.6198Z" fill="#3364AD"/>
<path d="M187.34 46.7598H172.13V31.5498H187.34V46.7598ZM173.27 45.6198H186.2V32.6898H173.27V45.6198Z" fill="#3364AD"/>
<path d="M173.27 46.7598H158.06V31.5498H173.27V46.7598ZM159.2 45.6198H172.13V32.6898H159.2V45.6198Z" fill="#3364AD"/>
<path d="M159.2 46.7598H143.99V31.5498H159.2V46.7598ZM145.13 45.6198H158.06V32.6898H145.13V45.6198Z" fill="#3364AD"/>
<path d="M145.12 46.7598H129.91V31.5498H145.12V46.7598ZM131.05 45.6198H143.98V32.6898H131.05V45.6198Z" fill="#3364AD"/>
<path d="M131.05 46.7598H115.84V31.5498H131.05V46.7598ZM116.98 45.6198H129.91V32.6898H116.98V45.6198Z" fill="#3364AD"/>
<path d="M116.97 46.7598H101.76V31.5498H116.97V46.7598ZM102.9 45.6198H115.83V32.6898H102.9V45.6198Z" fill="#3364AD"/>
<path d="M102.9 46.7598H87.69V31.5498H102.9V46.7598ZM88.83 45.6198H101.76V32.6898H88.83V45.6198Z" fill="#3364AD"/>
<path d="M88.82 46.7598H73.61V31.5498H88.82V46.7598ZM74.75 45.6198H87.68V32.6898H74.75V45.6198Z" fill="#3364AD"/>
<path d="M74.75 46.7598H59.54V31.5498H74.75V46.7598ZM60.68 45.6198H73.61V32.6898H60.68V45.6198Z" fill="#3364AD"/>
<path d="M60.67 46.7598H45.46V31.5498H60.67V46.7598ZM46.6 45.6198H59.53V32.6898H46.6V45.6198Z" fill="#3364AD"/>
<path d="M46.6 46.7598H31.39V31.5498H46.6V46.7598ZM32.53 45.6198H45.46V32.6898H32.53V45.6198Z" fill="#3364AD"/>
<path d="M32.52 46.7598H17.31V31.5498H32.52V46.7598ZM18.45 45.6198H31.38V32.6898H18.45V45.6198Z" fill="#3364AD"/>
<path d="M215.49 60.8301H200.28V45.6201H215.49V60.8301ZM201.42 59.6901H214.35V46.7601H201.42V59.6901Z" fill="#3364AD"/>
<path d="M201.42 60.8301H186.21V45.6201H201.42V60.8301ZM187.35 59.6901H200.28V46.7601H187.35V59.6901Z" fill="#3364AD"/>
<path d="M187.34 60.8301H172.13V45.6201H187.34V60.8301ZM173.27 59.6901H186.2V46.7601H173.27V59.6901Z" fill="#3364AD"/>
<path d="M173.27 60.8301H158.06V45.6201H173.27V60.8301ZM159.2 59.6901H172.13V46.7601H159.2V59.6901Z" fill="#3364AD"/>
<path d="M159.2 60.8301H143.99V45.6201H159.2V60.8301ZM145.13 59.6901H158.06V46.7601H145.13V59.6901Z" fill="#3364AD"/>
<path d="M145.12 60.8301H129.91V45.6201H145.12V60.8301ZM131.05 59.6901H143.98V46.7601H131.05V59.6901Z" fill="#3364AD"/>
<path d="M131.05 60.8301H115.84V45.6201H131.05V60.8301ZM116.98 59.6901H129.91V46.7601H116.98V59.6901Z" fill="#3364AD"/>
<path d="M116.97 60.8301H101.76V45.6201H116.97V60.8301ZM102.9 59.6901H115.83V46.7601H102.9V59.6901Z" fill="#3364AD"/>
<path d="M102.9 60.8301H87.69V45.6201H102.9V60.8301ZM88.83 59.6901H101.76V46.7601H88.83V59.6901Z" fill="#3364AD"/>
<path d="M88.82 60.8301H73.61V45.6201H88.82V60.8301ZM74.75 59.6901H87.68V46.7601H74.75V59.6901Z" fill="#3364AD"/>
<path d="M74.75 60.8301H59.54V45.6201H74.75V60.8301ZM60.68 59.6901H73.61V46.7601H60.68V59.6901Z" fill="#3364AD"/>
<path d="M60.67 60.8301H45.46V45.6201H60.67V60.8301ZM46.6 59.6901H59.53V46.7601H46.6V59.6901Z" fill="#3364AD"/>
<path d="M46.6 60.8301H31.39V45.6201H46.6V60.8301ZM32.53 59.6901H45.46V46.7601H32.53V59.6901Z" fill="#3364AD"/>
<path d="M32.52 60.8301H17.31V45.6201H32.52V60.8301ZM18.45 59.6901H31.38V46.7601H18.45V59.6901Z" fill="#3364AD"/>
<path d="M215.49 74.9102H200.28V59.7002H215.49V74.9102ZM201.42 73.7702H214.35V60.8402H201.42V73.7702Z" fill="#3364AD"/>
<path d="M201.42 74.9102H186.21V59.7002H201.42V74.9102ZM187.35 73.7702H200.28V60.8402H187.35V73.7702Z" fill="#3364AD"/>
<path d="M187.34 74.9102H172.13V59.7002H187.34V74.9102ZM173.27 73.7702H186.2V60.8402H173.27V73.7702Z" fill="#3364AD"/>
<path d="M173.27 74.9102H158.06V59.7002H173.27V74.9102ZM159.2 73.7702H172.13V60.8402H159.2V73.7702Z" fill="#3364AD"/>
<path d="M159.2 74.9102H143.99V59.7002H159.2V74.9102ZM145.13 73.7702H158.06V60.8402H145.13V73.7702Z" fill="#3364AD"/>
<path d="M145.12 74.9102H129.91V59.7002H145.12V74.9102ZM131.05 73.7702H143.98V60.8402H131.05V73.7702Z" fill="#3364AD"/>
<path d="M131.05 74.9102H115.84V59.7002H131.05V74.9102ZM116.98 73.7702H129.91V60.8402H116.98V73.7702Z" fill="#3364AD"/>
<path d="M116.97 74.9102H101.76V59.7002H116.97V74.9102ZM102.9 73.7702H115.83V60.8402H102.9V73.7702Z" fill="#3364AD"/>
<path d="M102.9 74.9102H87.69V59.7002H102.9V74.9102ZM88.83 73.7702H101.76V60.8402H88.83V73.7702Z" fill="#3364AD"/>
<path d="M88.82 74.9102H73.61V59.7002H88.82V74.9102ZM74.75 73.7702H87.68V60.8402H74.75V73.7702Z" fill="#3364AD"/>
<path d="M74.75 74.9102H59.54V59.7002H74.75V74.9102ZM60.68 73.7702H73.61V60.8402H60.68V73.7702Z" fill="#3364AD"/>
<path d="M60.67 74.9102H45.46V59.7002H60.67V74.9102ZM46.6 73.7702H59.53V60.8402H46.6V73.7702Z" fill="#3364AD"/>
<path d="M46.6 74.9102H31.39V59.7002H46.6V74.9102ZM32.53 73.7702H45.46V60.8402H32.53V73.7702Z" fill="#3364AD"/>
<path d="M32.52 74.9102H17.31V59.7002H32.52V74.9102ZM18.45 73.7702H31.38V60.8402H18.45V73.7702Z" fill="#3364AD"/>
<path d="M215.49 88.98H200.28V73.77H215.49V88.98ZM201.42 87.84H214.35V74.91H201.42V87.84Z" fill="#3364AD"/>
<path d="M201.42 88.98H186.21V73.77H201.42V88.98ZM187.35 87.84H200.28V74.91H187.35V87.84Z" fill="#3364AD"/>
<path d="M187.34 88.98H172.13V73.77H187.34V88.98ZM173.27 87.84H186.2V74.91H173.27V87.84Z" fill="#3364AD"/>
<path d="M173.27 88.98H158.06V73.77H173.27V88.98ZM159.2 87.84H172.13V74.91H159.2V87.84Z" fill="#3364AD"/>
<path d="M159.2 88.98H143.99V73.77H159.2V88.98ZM145.13 87.84H158.06V74.91H145.13V87.84Z" fill="#3364AD"/>
<path d="M145.12 88.98H129.91V73.77H145.12V88.98ZM131.05 87.84H143.98V74.91H131.05V87.84Z" fill="#3364AD"/>
<path d="M131.05 88.98H115.84V73.77H131.05V88.98ZM116.98 87.84H129.91V74.91H116.98V87.84Z" fill="#3364AD"/>
<path d="M116.97 88.98H101.76V73.77H116.97V88.98ZM102.9 87.84H115.83V74.91H102.9V87.84Z" fill="#3364AD"/>
<path d="M102.9 88.98H87.69V73.77H102.9V88.98ZM88.83 87.84H101.76V74.91H88.83V87.84Z" fill="#3364AD"/>
<path d="M88.82 88.98H73.61V73.77H88.82V88.98ZM74.75 87.84H87.68V74.91H74.75V87.84Z" fill="#3364AD"/>
<path d="M74.75 88.98H59.54V73.77H74.75V88.98ZM60.68 87.84H73.61V74.91H60.68V87.84Z" fill="#3364AD"/>
<path d="M60.67 88.98H45.46V73.77H60.67V88.98ZM46.6 87.84H59.53V74.91H46.6V87.84Z" fill="#3364AD"/>
<path d="M46.6 88.98H31.39V73.77H46.6V88.98ZM32.53 87.84H45.46V74.91H32.53V87.84Z" fill="#3364AD"/>
<path d="M32.52 88.98H17.31V73.77H32.52V88.98ZM18.45 87.84H31.38V74.91H18.45V87.84Z" fill="#3364AD"/>
<path d="M215.49 103.06H200.28V87.8501H215.49V103.06ZM201.42 101.92H214.35V88.9901H201.42V101.92Z" fill="#3364AD"/>
<path d="M201.42 103.06H186.21V87.8501H201.42V103.06ZM187.35 101.92H200.28V88.9901H187.35V101.92Z" fill="#3364AD"/>
<path d="M187.34 103.06H172.13V87.8501H187.34V103.06ZM173.27 101.92H186.2V88.9901H173.27V101.92Z" fill="#3364AD"/>
<path d="M173.27 103.06H158.06V87.8501H173.27V103.06ZM159.2 101.92H172.13V88.9901H159.2V101.92Z" fill="#3364AD"/>
<path d="M159.2 103.06H143.99V87.8501H159.2V103.06ZM145.13 101.92H158.06V88.9901H145.13V101.92Z" fill="#3364AD"/>
<path d="M145.12 103.06H129.91V87.8501H145.12V103.06ZM131.05 101.92H143.98V88.9901H131.05V101.92Z" fill="#3364AD"/>
<path d="M131.05 103.06H115.84V87.8501H131.05V103.06ZM116.98 101.92H129.91V88.9901H116.98V101.92Z" fill="#3364AD"/>
<path d="M116.97 103.06H101.76V87.8501H116.97V103.06ZM102.9 101.92H115.83V88.9901H102.9V101.92Z" fill="#3364AD"/>
<path d="M102.9 103.06H87.69V87.8501H102.9V103.06ZM88.83 101.92H101.76V88.9901H88.83V101.92Z" fill="#3364AD"/>
<path d="M88.82 103.06H73.61V87.8501H88.82V103.06ZM74.75 101.92H87.68V88.9901H74.75V101.92Z" fill="#3364AD"/>
<path d="M74.75 103.06H59.54V87.8501H74.75V103.06ZM60.68 101.92H73.61V88.9901H60.68V101.92Z" fill="#3364AD"/>
<path d="M60.67 103.06H45.46V87.8501H60.67V103.06ZM46.6 101.92H59.53V88.9901H46.6V101.92Z" fill="#3364AD"/>
<path d="M46.6 103.06H31.39V87.8501H46.6V103.06ZM32.53 101.92H45.46V88.9901H32.53V101.92Z" fill="#3364AD"/>
<path d="M32.52 103.06H17.31V87.8501H32.52V103.06ZM18.45 101.92H31.38V88.9901H18.45V101.92Z" fill="#3364AD"/>
<path d="M215.49 117.13H200.28V101.92H215.49V117.13ZM201.42 115.99H214.35V103.06H201.42V115.99Z" fill="#3364AD"/>
<path d="M201.42 117.13H186.21V101.92H201.42V117.13ZM187.35 115.99H200.28V103.06H187.35V115.99Z" fill="#3364AD"/>
<path d="M187.34 117.13H172.13V101.92H187.34V117.13ZM173.27 115.99H186.2V103.06H173.27V115.99Z" fill="#3364AD"/>
<path d="M173.27 117.13H158.06V101.92H173.27V117.13ZM159.2 115.99H172.13V103.06H159.2V115.99Z" fill="#3364AD"/>
<path d="M159.2 117.13H143.99V101.92H159.2V117.13ZM145.13 115.99H158.06V103.06H145.13V115.99Z" fill="#3364AD"/>
<path d="M145.12 117.13H129.91V101.92H145.12V117.13ZM131.05 115.99H143.98V103.06H131.05V115.99Z" fill="#3364AD"/>
<path d="M131.05 117.13H115.84V101.92H131.05V117.13ZM116.98 115.99H129.91V103.06H116.98V115.99Z" fill="#3364AD"/>
<path d="M116.97 117.13H101.76V101.92H116.97V117.13ZM102.9 115.99H115.83V103.06H102.9V115.99Z" fill="#3364AD"/>
<path d="M102.9 117.13H87.69V101.92H102.9V117.13ZM88.83 115.99H101.76V103.06H88.83V115.99Z" fill="#3364AD"/>
<path d="M88.82 117.13H73.61V101.92H88.82V117.13ZM74.75 115.99H87.68V103.06H74.75V115.99Z" fill="#3364AD"/>
<path d="M74.75 117.13H59.54V101.92H74.75V117.13ZM60.68 115.99H73.61V103.06H60.68V115.99Z" fill="#3364AD"/>
<path d="M60.67 117.13H45.46V101.92H60.67V117.13ZM46.6 115.99H59.53V103.06H46.6V115.99Z" fill="#3364AD"/>
<path d="M46.6 117.13H31.39V101.92H46.6V117.13ZM32.53 115.99H45.46V103.06H32.53V115.99Z" fill="#3364AD"/>
<path d="M32.52 117.13H17.31V101.92H32.52V117.13ZM18.45 115.99H31.38V103.06H18.45V115.99Z" fill="#3364AD"/>
<path d="M215.49 131.21H200.28V116H215.49V131.21ZM201.42 130.07H214.35V117.14H201.42V130.07Z" fill="#3364AD"/>
<path d="M201.42 131.21H186.21V116H201.42V131.21ZM187.35 130.07H200.28V117.14H187.35V130.07Z" fill="#3364AD"/>
<path d="M187.34 131.21H172.13V116H187.34V131.21ZM173.27 130.07H186.2V117.14H173.27V130.07Z" fill="#3364AD"/>
<path d="M173.27 131.21H158.06V116H173.27V131.21ZM159.2 130.07H172.13V117.14H159.2V130.07Z" fill="#3364AD"/>
<path d="M159.2 131.21H143.99V116H159.2V131.21ZM145.13 130.07H158.06V117.14H145.13V130.07Z" fill="#3364AD"/>
<path d="M145.12 131.21H129.91V116H145.12V131.21ZM131.05 130.07H143.98V117.14H131.05V130.07Z" fill="#3364AD"/>
<path d="M131.05 131.21H115.84V116H131.05V131.21ZM116.98 130.07H129.91V117.14H116.98V130.07Z" fill="#3364AD"/>
<path d="M116.97 131.21H101.76V116H116.97V131.21ZM102.9 130.07H115.83V117.14H102.9V130.07Z" fill="#3364AD"/>
<path d="M102.9 131.21H87.69V116H102.9V131.21ZM88.83 130.07H101.76V117.14H88.83V130.07Z" fill="#3364AD"/>
<path d="M88.82 131.21H73.61V116H88.82V131.21ZM74.75 130.07H87.68V117.14H74.75V130.07Z" fill="#3364AD"/>
<path d="M74.75 131.21H59.54V116H74.75V131.21ZM60.68 130.07H73.61V117.14H60.68V130.07Z" fill="#3364AD"/>
<path d="M60.67 131.21H45.46V116H60.67V131.21ZM46.6 130.07H59.53V117.14H46.6V130.07Z" fill="#3364AD"/>
<path d="M46.6 131.21H31.39V116H46.6V131.21ZM32.53 130.07H45.46V117.14H32.53V130.07Z" fill="#3364AD"/>
<path d="M32.52 131.21H17.31V116H32.52V131.21ZM18.45 130.07H31.38V117.14H18.45V130.07Z" fill="#3364AD"/>
<path d="M215.49 145.28H200.28V130.07H215.49V145.28ZM201.42 144.14H214.35V131.21H201.42V144.14Z" fill="#3364AD"/>
<path d="M201.42 145.28H186.21V130.07H201.42V145.28ZM187.35 144.14H200.28V131.21H187.35V144.14Z" fill="#3364AD"/>
<path d="M187.34 145.28H172.13V130.07H187.34V145.28ZM173.27 144.14H186.2V131.21H173.27V144.14Z" fill="#3364AD"/>
<path d="M173.27 145.28H158.06V130.07H173.27V145.28ZM159.2 144.14H172.13V131.21H159.2V144.14Z" fill="#3364AD"/>
<path d="M159.2 145.28H143.99V130.07H159.2V145.28ZM145.13 144.14H158.06V131.21H145.13V144.14Z" fill="#3364AD"/>
<path d="M145.12 145.28H129.91V130.07H145.12V145.28ZM131.05 144.14H143.98V131.21H131.05V144.14Z" fill="#3364AD"/>
<path d="M131.05 145.28H115.84V130.07H131.05V145.28ZM116.98 144.14H129.91V131.21H116.98V144.14Z" fill="#3364AD"/>
<path d="M116.97 145.28H101.76V130.07H116.97V145.28ZM102.9 144.14H115.83V131.21H102.9V144.14Z" fill="#3364AD"/>
<path d="M102.9 145.28H87.69V130.07H102.9V145.28ZM88.83 144.14H101.76V131.21H88.83V144.14Z" fill="#3364AD"/>
<path d="M88.82 145.28H73.61V130.07H88.82V145.28ZM74.75 144.14H87.68V131.21H74.75V144.14Z" fill="#3364AD"/>
<path d="M74.75 145.28H59.54V130.07H74.75V145.28ZM60.68 144.14H73.61V131.21H60.68V144.14Z" fill="#3364AD"/>
<path d="M60.67 145.28H45.46V130.07H60.67V145.28ZM46.6 144.14H59.53V131.21H46.6V144.14Z" fill="#3364AD"/>
<path d="M46.6 145.28H31.39V130.07H46.6V145.28ZM32.53 144.14H45.46V131.21H32.53V144.14Z" fill="#3364AD"/>
<path d="M32.52 145.28H17.31V130.07H32.52V145.28ZM18.45 144.14H31.38V131.21H18.45V144.14Z" fill="#3364AD"/>
<path d="M215.49 159.36H200.28V144.15H215.49V159.36ZM201.42 158.22H214.35V145.29H201.42V158.22Z" fill="#3364AD"/>
<path d="M201.42 159.36H186.21V144.15H201.42V159.36ZM187.35 158.22H200.28V145.29H187.35V158.22Z" fill="#3364AD"/>
<path d="M187.34 159.36H172.13V144.15H187.34V159.36ZM173.27 158.22H186.2V145.29H173.27V158.22Z" fill="#3364AD"/>
<path d="M173.27 159.36H158.06V144.15H173.27V159.36ZM159.2 158.22H172.13V145.29H159.2V158.22Z" fill="#3364AD"/>
<path d="M159.2 159.36H143.99V144.15H159.2V159.36ZM145.13 158.22H158.06V145.29H145.13V158.22Z" fill="#3364AD"/>
<path d="M145.12 159.36H129.91V144.15H145.12V159.36ZM131.05 158.22H143.98V145.29H131.05V158.22Z" fill="#3364AD"/>
<path d="M131.05 159.36H115.84V144.15H131.05V159.36ZM116.98 158.22H129.91V145.29H116.98V158.22Z" fill="#3364AD"/>
<path d="M116.97 159.36H101.76V144.15H116.97V159.36ZM102.9 158.22H115.83V145.29H102.9V158.22Z" fill="#3364AD"/>
<path d="M102.9 159.36H87.69V144.15H102.9V159.36ZM88.83 158.22H101.76V145.29H88.83V158.22Z" fill="#3364AD"/>
<path d="M88.82 159.36H73.61V144.15H88.82V159.36ZM74.75 158.22H87.68V145.29H74.75V158.22Z" fill="#3364AD"/>
<path d="M74.75 159.36H59.54V144.15H74.75V159.36ZM60.68 158.22H73.61V145.29H60.68V158.22Z" fill="#3364AD"/>
<path d="M60.67 159.36H45.46V144.15H60.67V159.36ZM46.6 158.22H59.53V145.29H46.6V158.22Z" fill="#3364AD"/>
<path d="M46.6 159.36H31.39V144.15H46.6V159.36ZM32.53 158.22H45.46V145.29H32.53V158.22Z" fill="#3364AD"/>
<path d="M32.52 159.36H17.31V144.15H32.52V159.36ZM18.45 158.22H31.38V145.29H18.45V158.22Z" fill="#3364AD"/>
</g>
<path d="M6.67999 176.64H0.0299988V169.99H1.17001V175.5H6.67999V176.64Z" fill="#3364AD"/>
<path d="M1.17001 6.84018H0.0299988V0.180176H6.67999V1.33018H1.17001V6.84018Z" fill="#3364AD"/>
<path d="M232.78 176.64H226.13V175.5H231.64V169.99H232.78V176.64Z" fill="#3364AD"/>
<path d="M232.78 6.84018H231.64V1.33018H226.13V0.180176H232.78V6.84018Z" fill="#3364AD"/>
<path d="M100.37 85.4198C108.7 75.2798 117.02 65.1498 125.35 55.0098C120.05 65.8798 114.76 76.7398 109.46 87.6098C106.43 86.8798 103.4 86.1498 100.37 85.4198Z" fill="url(#paint4_linear_0_275)"/>
<path d="M109.46 87.6098C114.76 76.7398 120.05 65.8798 125.35 55.0098C125.5 67.1398 125.64 79.2598 125.79 91.3898C120.35 90.1298 114.9 88.8698 109.46 87.6098Z" fill="url(#paint5_linear_0_275)"/>
<path d="M125.35 55.01C128.46 67.76 131.57 80.52 134.67 93.27C131.71 92.64 128.75 92.01 125.78 91.38C125.63 79.25 125.49 67.13 125.34 55L125.35 55.01Z" fill="url(#paint6_linear_0_275)"/>
<path d="M109.69 123.86C109.61 111.78 109.54 99.6899 109.46 87.6099C114.9 88.8699 120.35 90.1299 125.79 91.3899C120.5 102.24 115.2 113.08 109.91 123.93" fill="url(#paint7_linear_0_275)"/>
<path d="M109.69 123.86L100.37 85.4199L109.46 87.6099L109.69 123.86Z" fill="url(#paint8_linear_0_275)"/>
<path d="M109.48 90.6699L109.52 95.7399L119.86 103.38L122.19 98.7199L109.48 90.6699Z" fill="url(#paint9_linear_0_275)"/>
<path d="M125.35 55.0098L111.04 87.8898L116.4 89.1798L125.35 55.0098Z" fill="url(#paint10_linear_0_275)"/>
<path d="M109.91 123.92C118.17 113.7 126.42 103.49 134.68 93.2699C131.72 92.6399 128.76 92.0099 125.79 91.3799C120.5 102.23 115.2 113.07 109.91 123.92Z" fill="url(#paint11_linear_0_275)"/>
<path d="M89.06 138.1C88.99 138.1 88.92 138.08 88.85 138.04C88.64 137.92 88.57 137.66 88.69 137.46L144.18 39.4402C144.3 39.2302 144.56 39.1602 144.76 39.2802C144.97 39.4002 145.04 39.6602 144.92 39.8602L89.43 137.88C89.35 138.02 89.21 138.1 89.06 138.1Z" fill="#80CCDD"/>
<path d="M144.55 137.6C144.4 137.6 144.26 137.52 144.18 137.39L87.88 39.8802C87.76 39.6802 87.83 39.4102 88.04 39.3002C88.24 39.1902 88.5 39.2502 88.62 39.4602L144.92 136.97C145.04 137.17 144.97 137.44 144.76 137.55C144.69 137.59 144.62 137.61 144.55 137.61V137.6Z" fill="#80CCDD"/>
<path d="M172.7 88.84H60.1C59.86 88.84 59.67 88.65 59.67 88.41C59.67 88.17 59.86 87.98 60.1 87.98H172.7C172.94 87.98 173.13 88.17 173.13 88.41C173.13 88.65 172.94 88.84 172.7 88.84Z" fill="#80CCDD"/>
<path d="M144.55 137.6H88.25C88.1 137.6 87.96 137.52 87.88 137.39L59.73 88.63C59.65 88.5 59.65 88.33 59.73 88.2L87.88 39.44C87.96 39.31 88.1 39.23 88.25 39.23H144.55C144.7 39.23 144.84 39.31 144.92 39.44L173.07 88.2C173.15 88.33 173.15 88.5 173.07 88.63L144.92 137.39C144.84 137.52 144.7 137.6 144.55 137.6ZM88.5 136.74H144.3L172.2 88.41L144.3 40.08H88.5L60.6 88.41L88.5 136.74Z" fill="#80CCDD"/>
<path d="M73.203 137.692H75.255C76.3512 137.692 77.1558 138.599 77.1558 139.69C77.1558 140.235 76.929 140.791 76.5564 141.186C76.1892 141.58 75.8058 141.72 75.2712 141.72H73.7808V138.286H73.4622L73.203 137.692ZM74.3586 141.132H75.2712C76.0542 141.132 76.5618 140.484 76.5618 139.733C76.5618 138.955 76.092 138.286 75.2604 138.286H74.3586V141.132ZM78.7969 138.858H79.3963L80.9083 141.72H80.2981L80.0767 141.299H79.7419C79.0507 141.299 78.3325 141.569 78.2407 141.688L78.2245 141.72H77.6413L78.9805 139.209L78.7969 138.858ZM79.7365 140.791H79.8121L79.2667 139.755L78.6025 141.034C78.7807 140.943 79.1587 140.791 79.7365 140.791ZM82.5943 139.479V141.72H82.0381V139.479H81.0229V138.923H83.6473V139.479H82.5943ZM85.0249 138.858H85.6243L87.1363 141.72H86.5261L86.3047 141.299H85.9699C85.2787 141.299 84.5605 141.569 84.4687 141.688L84.4525 141.72H83.8693L85.2085 139.209L85.0249 138.858ZM85.9645 140.791H86.0401L85.4947 139.755L84.8305 141.034C85.0087 140.943 85.3867 140.791 85.9645 140.791ZM89.3384 141.812C88.8362 141.812 88.1072 141.531 87.7562 141.083L88.118 140.592C88.4852 141.051 88.9712 141.223 89.3384 141.223C89.8838 141.223 90.3482 140.91 90.3482 140.43C90.3482 139.998 89.981 139.663 89.4194 139.663C88.793 139.663 88.4582 139.938 88.4582 139.938L87.9614 139.857L88.3664 137.692H90.5804V138.286H88.8416L88.658 139.263C88.8092 139.155 89.117 139.08 89.4194 139.08C90.3266 139.08 90.9314 139.674 90.9314 140.43C90.9314 141.256 90.197 141.812 89.3384 141.812Z" fill="#C4E5EE"/>
<path d="M135.243 137.912H137.295C138.391 137.912 139.196 138.819 139.196 139.91C139.196 140.455 138.969 141.011 138.596 141.405C138.229 141.8 137.846 141.94 137.311 141.94H135.821V138.506H135.502L135.243 137.912ZM136.399 141.351H137.311C138.094 141.351 138.602 140.703 138.602 139.953C138.602 139.175 138.132 138.506 137.3 138.506H136.399V141.351ZM140.837 139.078H141.436L142.948 141.94H142.338L142.117 141.519H141.782C141.091 141.519 140.373 141.789 140.281 141.908L140.265 141.94H139.681L141.021 139.429L140.837 139.078ZM141.777 141.011H141.852L141.307 139.974L140.643 141.254C140.821 141.162 141.199 141.011 141.777 141.011ZM144.634 139.699V141.94H144.078V139.699H143.063V139.143H145.687V139.699H144.634ZM147.065 139.078H147.664L149.176 141.94H148.566L148.345 141.519H148.01C147.319 141.519 146.6 141.789 146.509 141.908L146.492 141.94H145.909L147.248 139.429L147.065 139.078ZM148.004 141.011H148.08L147.535 139.974L146.87 141.254C147.049 141.162 147.427 141.011 148.004 141.011ZM152.464 140.909V141.94H151.87V140.909H149.742V140.32L151.735 137.879H152.464V140.32H153.063L152.842 140.909H152.464ZM151.87 138.554L150.482 140.32H151.87V138.554Z" fill="#C4E5EE"/>
<path d="M36.873 84.6215H38.925C40.0212 84.6215 40.8258 85.5287 40.8258 86.6195C40.8258 87.1649 40.599 87.7211 40.2264 88.1153C39.8592 88.5095 39.4758 88.6499 38.9412 88.6499H37.4508V85.2155H37.1322L36.873 84.6215ZM38.0286 88.0613H38.9412C39.7242 88.0613 40.2318 87.4133 40.2318 86.6627C40.2318 85.8851 39.762 85.2155 38.9304 85.2155H38.0286V88.0613ZM42.4669 85.7879H43.0663L44.5783 88.6499H43.9681L43.7467 88.2287H43.4119C42.7207 88.2287 42.0025 88.4987 41.9107 88.6175L41.8945 88.6499H41.3113L42.6505 86.1389L42.4669 85.7879ZM43.4065 87.7211H43.4821L42.9367 86.6843L42.2725 87.9641C42.4507 87.8723 42.8287 87.7211 43.4065 87.7211ZM46.2643 86.4089V88.6499H45.7081V86.4089H44.6929V85.8527H47.3173V86.4089H46.2643ZM48.6949 85.7879H49.2943L50.8063 88.6499H50.1961L49.9747 88.2287H49.6399C48.9487 88.2287 48.2305 88.4987 48.1387 88.6175L48.1225 88.6499H47.5393L48.8785 86.1389L48.6949 85.7879ZM49.6345 87.7211H49.7101L49.1647 86.6843L48.5005 87.9641C48.6787 87.8723 49.0567 87.7211 49.6345 87.7211ZM53.9858 85.3235C53.7482 85.1885 53.4512 85.0967 53.1596 85.0967C52.5116 85.0967 52.0688 85.5719 51.9986 86.3603C52.2362 86.1281 52.5548 85.9499 52.9652 85.9499C53.8832 85.9499 54.5042 86.5331 54.5042 87.3755C54.5042 88.1369 53.813 88.7417 52.9652 88.7417C52.3226 88.7417 51.8366 88.3853 51.5882 87.9371C51.3992 87.5969 51.3992 87.1271 51.3992 86.7545C51.3992 85.5449 51.9014 84.5027 53.1596 84.5027C53.57 84.5027 53.9534 84.6161 54.2828 84.8105L53.9858 85.3235ZM53.9156 87.3755C53.9156 86.8841 53.5862 86.5277 52.9652 86.5277C52.3658 86.5277 52.0472 86.9003 52.0472 87.3755C52.0472 87.8237 52.4684 88.1531 52.9652 88.1531C53.489 88.1531 53.9156 87.8129 53.9156 87.3755Z" fill="#C4E5EE"/>
<path d="M174.383 84.5917H176.435C177.531 84.5917 178.336 85.4989 178.336 86.5897C178.336 87.1351 178.109 87.6913 177.736 88.0855C177.369 88.4797 176.986 88.6201 176.451 88.6201H174.961V85.1857H174.642L174.383 84.5917ZM175.539 88.0315H176.451C177.234 88.0315 177.742 87.3835 177.742 86.6329C177.742 85.8553 177.272 85.1857 176.44 85.1857H175.539V88.0315ZM179.977 85.7581H180.576L182.088 88.6201H181.478L181.257 88.1989H180.922C180.231 88.1989 179.513 88.4689 179.421 88.5877L179.405 88.6201H178.821L180.161 86.1091L179.977 85.7581ZM180.917 87.6913H180.992L180.447 86.6545L179.783 87.9343C179.961 87.8425 180.339 87.6913 180.917 87.6913ZM183.774 86.3791V88.6201H183.218V86.3791H182.203V85.8229H184.827V86.3791H183.774ZM186.205 85.7581H186.804L188.316 88.6201H187.706L187.485 88.1989H187.15C186.459 88.1989 185.74 88.4689 185.649 88.5877L185.632 88.6201H185.049L186.388 86.1091L186.205 85.7581ZM187.144 87.6913H187.22L186.675 86.6545L186.01 87.9343C186.189 87.8425 186.567 87.6913 187.144 87.6913ZM189.363 84.5917H191.885V85.1857L190.886 86.1415C191.647 86.2171 192.138 86.6491 192.138 87.3295C192.138 88.1557 191.404 88.7119 190.545 88.7119C190.043 88.7119 189.314 88.4311 188.963 87.9829L189.325 87.4807C189.692 87.9397 190.178 88.1233 190.545 88.1233C191.091 88.1233 191.555 87.8101 191.555 87.3295C191.555 86.8975 191.188 86.7085 190.626 86.7085H190.151V86.1253L191.118 85.1857H189.363V84.5917Z" fill="#C4E5EE"/>
<path d="M73.203 137.692H75.255C76.3512 137.692 77.1558 138.599 77.1558 139.69C77.1558 140.235 76.929 140.791 76.5564 141.186C76.1892 141.58 75.8058 141.72 75.2712 141.72H73.7808V138.286H73.4622L73.203 137.692ZM74.3586 141.132H75.2712C76.0542 141.132 76.5618 140.484 76.5618 139.733C76.5618 138.955 76.092 138.286 75.2604 138.286H74.3586V141.132ZM78.7969 138.858H79.3963L80.9083 141.72H80.2981L80.0767 141.299H79.7419C79.0507 141.299 78.3325 141.569 78.2407 141.688L78.2245 141.72H77.6413L78.9805 139.209L78.7969 138.858ZM79.7365 140.791H79.8121L79.2667 139.755L78.6025 141.034C78.7807 140.943 79.1587 140.791 79.7365 140.791ZM82.5943 139.479V141.72H82.0381V139.479H81.0229V138.923H83.6473V139.479H82.5943ZM85.0249 138.858H85.6243L87.1363 141.72H86.5261L86.3047 141.299H85.9699C85.2787 141.299 84.5605 141.569 84.4687 141.688L84.4525 141.72H83.8693L85.2085 139.209L85.0249 138.858ZM85.9645 140.791H86.0401L85.4947 139.755L84.8305 141.034C85.0087 140.943 85.3867 140.791 85.9645 140.791ZM89.3384 141.812C88.8362 141.812 88.1072 141.531 87.7562 141.083L88.118 140.592C88.4852 141.051 88.9712 141.223 89.3384 141.223C89.8838 141.223 90.3482 140.91 90.3482 140.43C90.3482 139.998 89.981 139.663 89.4194 139.663C88.793 139.663 88.4582 139.938 88.4582 139.938L87.9614 139.857L88.3664 137.692H90.5804V138.286H88.8416L88.658 139.263C88.8092 139.155 89.117 139.08 89.4194 139.08C90.3266 139.08 90.9314 139.674 90.9314 140.43C90.9314 141.256 90.197 141.812 89.3384 141.812Z" fill="#5CC4EA"/>
<path d="M135.243 137.912H137.295C138.391 137.912 139.196 138.819 139.196 139.91C139.196 140.455 138.969 141.011 138.596 141.405C138.229 141.8 137.846 141.94 137.311 141.94H135.821V138.506H135.502L135.243 137.912ZM136.399 141.351H137.311C138.094 141.351 138.602 140.703 138.602 139.953C138.602 139.175 138.132 138.506 137.3 138.506H136.399V141.351ZM140.837 139.078H141.436L142.948 141.94H142.338L142.117 141.519H141.782C141.091 141.519 140.373 141.789 140.281 141.908L140.265 141.94H139.681L141.021 139.429L140.837 139.078ZM141.777 141.011H141.852L141.307 139.974L140.643 141.254C140.821 141.162 141.199 141.011 141.777 141.011ZM144.634 139.699V141.94H144.078V139.699H143.063V139.143H145.687V139.699H144.634ZM147.065 139.078H147.664L149.176 141.94H148.566L148.345 141.519H148.01C147.319 141.519 146.6 141.789 146.509 141.908L146.492 141.94H145.909L147.248 139.429L147.065 139.078ZM148.004 141.011H148.08L147.535 139.974L146.87 141.254C147.049 141.162 147.427 141.011 148.004 141.011ZM152.464 140.909V141.94H151.87V140.909H149.742V140.32L151.735 137.879H152.464V140.32H153.063L152.842 140.909H152.464ZM151.87 138.554L150.482 140.32H151.87V138.554Z" fill="#5CC4EA"/>
<path d="M36.873 84.6215H38.925C40.0212 84.6215 40.8258 85.5287 40.8258 86.6195C40.8258 87.1649 40.599 87.7211 40.2264 88.1153C39.8592 88.5095 39.4758 88.6499 38.9412 88.6499H37.4508V85.2155H37.1322L36.873 84.6215ZM38.0286 88.0613H38.9412C39.7242 88.0613 40.2318 87.4133 40.2318 86.6627C40.2318 85.8851 39.762 85.2155 38.9304 85.2155H38.0286V88.0613ZM42.4669 85.7879H43.0663L44.5783 88.6499H43.9681L43.7467 88.2287H43.4119C42.7207 88.2287 42.0025 88.4987 41.9107 88.6175L41.8945 88.6499H41.3113L42.6505 86.1389L42.4669 85.7879ZM43.4065 87.7211H43.4821L42.9367 86.6843L42.2725 87.9641C42.4507 87.8723 42.8287 87.7211 43.4065 87.7211ZM46.2643 86.4089V88.6499H45.7081V86.4089H44.6929V85.8527H47.3173V86.4089H46.2643ZM48.6949 85.7879H49.2943L50.8063 88.6499H50.1961L49.9747 88.2287H49.6399C48.9487 88.2287 48.2305 88.4987 48.1387 88.6175L48.1225 88.6499H47.5393L48.8785 86.1389L48.6949 85.7879ZM49.6345 87.7211H49.7101L49.1647 86.6843L48.5005 87.9641C48.6787 87.8723 49.0567 87.7211 49.6345 87.7211ZM53.9858 85.3235C53.7482 85.1885 53.4512 85.0967 53.1596 85.0967C52.5116 85.0967 52.0688 85.5719 51.9986 86.3603C52.2362 86.1281 52.5548 85.9499 52.9652 85.9499C53.8832 85.9499 54.5042 86.5331 54.5042 87.3755C54.5042 88.1369 53.813 88.7417 52.9652 88.7417C52.3226 88.7417 51.8366 88.3853 51.5882 87.9371C51.3992 87.5969 51.3992 87.1271 51.3992 86.7545C51.3992 85.5449 51.9014 84.5027 53.1596 84.5027C53.57 84.5027 53.9534 84.6161 54.2828 84.8105L53.9858 85.3235ZM53.9156 87.3755C53.9156 86.8841 53.5862 86.5277 52.9652 86.5277C52.3658 86.5277 52.0472 86.9003 52.0472 87.3755C52.0472 87.8237 52.4684 88.1531 52.9652 88.1531C53.489 88.1531 53.9156 87.8129 53.9156 87.3755Z" fill="#5CC4EA"/>
<path d="M174.383 84.5917H176.435C177.531 84.5917 178.336 85.4989 178.336 86.5897C178.336 87.1351 178.109 87.6913 177.736 88.0855C177.369 88.4797 176.986 88.6201 176.451 88.6201H174.961V85.1857H174.642L174.383 84.5917ZM175.539 88.0315H176.451C177.234 88.0315 177.742 87.3835 177.742 86.6329C177.742 85.8553 177.272 85.1857 176.44 85.1857H175.539V88.0315ZM179.977 85.7581H180.576L182.088 88.6201H181.478L181.257 88.1989H180.922C180.231 88.1989 179.513 88.4689 179.421 88.5877L179.405 88.6201H178.821L180.161 86.1091L179.977 85.7581ZM180.917 87.6913H180.992L180.447 86.6545L179.783 87.9343C179.961 87.8425 180.339 87.6913 180.917 87.6913ZM183.774 86.3791V88.6201H183.218V86.3791H182.203V85.8229H184.827V86.3791H183.774ZM186.205 85.7581H186.804L188.316 88.6201H187.706L187.485 88.1989H187.15C186.459 88.1989 185.74 88.4689 185.649 88.5877L185.632 88.6201H185.049L186.388 86.1091L186.205 85.7581ZM187.144 87.6913H187.22L186.675 86.6545L186.01 87.9343C186.189 87.8425 186.567 87.6913 187.144 87.6913ZM189.363 84.5917H191.885V85.1857L190.886 86.1415C191.647 86.2171 192.138 86.6491 192.138 87.3295C192.138 88.1557 191.404 88.7119 190.545 88.7119C190.043 88.7119 189.314 88.4311 188.963 87.9829L189.325 87.4807C189.692 87.9397 190.178 88.1233 190.545 88.1233C191.091 88.1233 191.555 87.8101 191.555 87.3295C191.555 86.8975 191.188 86.7085 190.626 86.7085H190.151V86.1253L191.118 85.1857H189.363V84.5917Z" fill="#5CC4EA"/>
<path d="M75.593 29.4218H77.645C78.7412 29.4218 79.5458 30.329 79.5458 31.4198C79.5458 31.9652 79.319 32.5214 78.9464 32.9156C78.5792 33.3098 78.1958 33.4502 77.6612 33.4502H76.1708V30.0158H75.8522L75.593 29.4218ZM76.7486 32.8616H77.6612C78.4442 32.8616 78.9518 32.2136 78.9518 31.463C78.9518 30.6854 78.482 30.0158 77.6504 30.0158H76.7486V32.8616ZM81.1869 30.5882H81.7863L83.2983 33.4502H82.6881L82.4667 33.029H82.1319C81.4407 33.029 80.7225 33.299 80.6307 33.4178L80.6145 33.4502H80.0313L81.3705 30.9392L81.1869 30.5882ZM82.1265 32.5214H82.2021L81.6567 31.4846L80.9925 32.7644C81.1707 32.6726 81.5487 32.5214 82.1265 32.5214ZM84.9843 31.2092V33.4502H84.4281V31.2092H83.4129V30.653H86.0373V31.2092H84.9843ZM87.4149 30.5882H88.0143L89.5263 33.4502H88.9161L88.6947 33.029H88.3599C87.6687 33.029 86.9505 33.299 86.8587 33.4178L86.8425 33.4502H86.2593L87.5985 30.9392L87.4149 30.5882ZM88.3545 32.5214H88.4301L87.8847 31.4846L87.2205 32.7644C87.3987 32.6726 87.7767 32.5214 88.3545 32.5214ZM90.5674 33.4502V30.1508L90.0112 30.6098V29.87L90.5674 29.3894H91.1452V33.4502H90.5674Z" fill="#C4E5EE"/>
<path d="M137.633 29.642H139.685C140.781 29.642 141.586 30.5492 141.586 31.64C141.586 32.1854 141.359 32.7416 140.986 33.1358C140.619 33.53 140.236 33.6704 139.701 33.6704H138.211V30.236H137.892L137.633 29.642ZM138.789 33.0818H139.701C140.484 33.0818 140.992 32.4338 140.992 31.6832C140.992 30.9056 140.522 30.236 139.69 30.236H138.789V33.0818ZM143.227 30.8084H143.826L145.338 33.6704H144.728L144.507 33.2492H144.172C143.481 33.2492 142.763 33.5192 142.671 33.638L142.655 33.6704H142.071L143.411 31.1594L143.227 30.8084ZM144.167 32.7416H144.242L143.697 31.7048L143.033 32.9846C143.211 32.8928 143.589 32.7416 144.167 32.7416ZM147.024 31.4294V33.6704H146.468V31.4294H145.453V30.8732H148.077V31.4294H147.024ZM149.455 30.8084H150.054L151.566 33.6704H150.956L150.735 33.2492H150.4C149.709 33.2492 148.99 33.5192 148.899 33.638L148.882 33.6704H148.299L149.638 31.1594L149.455 30.8084ZM150.394 32.7416H150.47L149.925 31.7048L149.26 32.9846C149.439 32.8928 149.817 32.7416 150.394 32.7416ZM152.283 30.1604C152.634 29.831 153.212 29.5232 153.725 29.5232C155.043 29.5232 155.086 30.5492 155.086 30.7706C155.086 30.9812 155.037 31.6238 154.055 32.2016C153.396 32.585 153.077 32.7092 152.856 33.0818H155.124V33.6704H152.213V33.0818C152.483 32.3798 152.915 32.2016 153.752 31.7048C154.47 31.2836 154.503 30.9002 154.503 30.7706C154.503 30.6572 154.481 30.1172 153.725 30.1172C153.38 30.1172 152.937 30.317 152.661 30.6032L152.283 30.1604Z" fill="#C4E5EE"/>
<path d="M75.593 29.4218H77.645C78.7412 29.4218 79.5458 30.329 79.5458 31.4198C79.5458 31.9652 79.319 32.5214 78.9464 32.9156C78.5792 33.3098 78.1958 33.4502 77.6612 33.4502H76.1708V30.0158H75.8522L75.593 29.4218ZM76.7486 32.8616H77.6612C78.4442 32.8616 78.9518 32.2136 78.9518 31.463C78.9518 30.6854 78.482 30.0158 77.6504 30.0158H76.7486V32.8616ZM81.1869 30.5882H81.7863L83.2983 33.4502H82.6881L82.4667 33.029H82.1319C81.4407 33.029 80.7225 33.299 80.6307 33.4178L80.6145 33.4502H80.0313L81.3705 30.9392L81.1869 30.5882ZM82.1265 32.5214H82.2021L81.6567 31.4846L80.9925 32.7644C81.1707 32.6726 81.5487 32.5214 82.1265 32.5214ZM84.9843 31.2092V33.4502H84.4281V31.2092H83.4129V30.653H86.0373V31.2092H84.9843ZM87.4149 30.5882H88.0143L89.5263 33.4502H88.9161L88.6947 33.029H88.3599C87.6687 33.029 86.9505 33.299 86.8587 33.4178L86.8425 33.4502H86.2593L87.5985 30.9392L87.4149 30.5882ZM88.3545 32.5214H88.4301L87.8847 31.4846L87.2205 32.7644C87.3987 32.6726 87.7767 32.5214 88.3545 32.5214ZM90.5674 33.4502V30.1508L90.0112 30.6098V29.87L90.5674 29.3894H91.1452V33.4502H90.5674Z" fill="#5CC4EA"/>
<path d="M137.633 29.642H139.685C140.781 29.642 141.586 30.5492 141.586 31.64C141.586 32.1854 141.359 32.7416 140.986 33.1358C140.619 33.53 140.236 33.6704 139.701 33.6704H138.211V30.236H137.892L137.633 29.642ZM138.789 33.0818H139.701C140.484 33.0818 140.992 32.4338 140.992 31.6832C140.992 30.9056 140.522 30.236 139.69 30.236H138.789V33.0818ZM143.227 30.8084H143.826L145.338 33.6704H144.728L144.507 33.2492H144.172C143.481 33.2492 142.763 33.5192 142.671 33.638L142.655 33.6704H142.071L143.411 31.1594L143.227 30.8084ZM144.167 32.7416H144.242L143.697 31.7048L143.033 32.9846C143.211 32.8928 143.589 32.7416 144.167 32.7416ZM147.024 31.4294V33.6704H146.468V31.4294H145.453V30.8732H148.077V31.4294H147.024ZM149.455 30.8084H150.054L151.566 33.6704H150.956L150.735 33.2492H150.4C149.709 33.2492 148.99 33.5192 148.899 33.638L148.882 33.6704H148.299L149.638 31.1594L149.455 30.8084ZM150.394 32.7416H150.47L149.925 31.7048L149.26 32.9846C149.439 32.8928 149.817 32.7416 150.394 32.7416ZM152.283 30.1604C152.634 29.831 153.212 29.5232 153.725 29.5232C155.043 29.5232 155.086 30.5492 155.086 30.7706C155.086 30.9812 155.037 31.6238 154.055 32.2016C153.396 32.585 153.077 32.7092 152.856 33.0818H155.124V33.6704H152.213V33.0818C152.483 32.3798 152.915 32.2016 153.752 31.7048C154.47 31.2836 154.503 30.9002 154.503 30.7706C154.503 30.6572 154.481 30.1172 153.725 30.1172C153.38 30.1172 152.937 30.317 152.661 30.6032L152.283 30.1604Z" fill="#5CC4EA"/>
<defs>
<linearGradient id="paint0_linear_0_275" x1="116.1" y1="23.2398" x2="116.82" y2="178.77" gradientUnits="userSpaceOnUse">
<stop offset="0.22" stop-color="#615B9A" stop-opacity="0.2"/>
<stop offset="0.54" stop-color="#605B99" stop-opacity="0.76"/>
<stop offset="0.56" stop-color="#605C99" stop-opacity="0.8"/>
<stop offset="0.72" stop-color="#56528E" stop-opacity="0.8"/>
<stop offset="0.96" stop-color="#3B3773" stop-opacity="0.8"/>
<stop offset="1" stop-color="#36326D" stop-opacity="0.8"/>
</linearGradient>
<linearGradient id="paint1_linear_0_275" x1="10.62" y1="88.4098" x2="222.18" y2="88.4098" gradientUnits="userSpaceOnUse">
<stop offset="0.18" stop-color="#ADA7C6"/>
<stop offset="0.52" stop-color="#A6A5CE"/>
</linearGradient>
<linearGradient id="paint2_linear_0_275" x1="116.06" y1="13.73" x2="116.69" y2="150.69" gradientUnits="userSpaceOnUse">
<stop offset="0.16" stop-color="#615B9A" stop-opacity="0.2"/>
<stop offset="0.76" stop-color="#605B99" stop-opacity="0.76"/>
<stop offset="0.8" stop-color="#605C99" stop-opacity="0.8"/>
<stop offset="0.87" stop-color="#56528E" stop-opacity="0.8"/>
<stop offset="0.98" stop-color="#3B3773" stop-opacity="0.8"/>
<stop offset="1" stop-color="#36326D" stop-opacity="0.8"/>
</linearGradient>
<linearGradient id="paint3_linear_0_275" x1="10.34" y1="-13" x2="222.47" y2="-13" gradientUnits="userSpaceOnUse">
<stop offset="0.18" stop-color="#ADA7C6"/>
<stop offset="0.52" stop-color="#A6A5CE"/>
</linearGradient>
<linearGradient id="paint4_linear_0_275" x1="104.52" y1="68.1908" x2="121.214" y2="72.2049" gradientUnits="userSpaceOnUse">
<stop offset="0.38" stop-color="#F6F1F6"/>
<stop offset="0.62" stop-color="#DFDCED"/>
<stop offset="0.89" stop-color="#C2C1E2"/>
</linearGradient>
<linearGradient id="paint5_linear_0_275" x1="124.62" y1="57.6991" x2="116.151" y2="96.2164" gradientUnits="userSpaceOnUse">
<stop offset="0.38" stop-color="#F6F1F6"/>
<stop offset="0.62" stop-color="#DFDCED"/>
<stop offset="0.89" stop-color="#C2C1E2"/>
</linearGradient>
<linearGradient id="paint6_linear_0_275" x1="121.231" y1="72.1371" x2="138.751" y2="76.3499" gradientUnits="userSpaceOnUse">
<stop offset="0.38" stop-color="#C2C1E2"/>
<stop offset="0.89" stop-color="#C2C1E2"/>
</linearGradient>
<linearGradient id="paint7_linear_0_275" x1="106.58" y1="122.82" x2="119.88" y2="82.6799" gradientUnits="userSpaceOnUse">
<stop offset="0.38" stop-color="#F6F1F6"/>
<stop offset="0.62" stop-color="#DFDCED"/>
<stop offset="0.89" stop-color="#C2C1E2"/>
</linearGradient>
<linearGradient id="paint8_linear_0_275" x1="104.05" y1="84.4599" x2="110.25" y2="108.32" gradientUnits="userSpaceOnUse">
<stop offset="0.38" stop-color="#F6F1F6"/>
<stop offset="0.62" stop-color="#DFDCED"/>
<stop offset="0.89" stop-color="#C2C1E2"/>
</linearGradient>
<linearGradient id="paint9_linear_0_275" x1="125.42" y1="107.05" x2="108.67" y2="89.8499" gradientUnits="userSpaceOnUse">
<stop offset="0.44" stop-color="#C6C6E5"/>
<stop offset="0.75" stop-color="#D9D8ED" stop-opacity="0.3"/>
<stop offset="0.89" stop-color="#E2E0F1" stop-opacity="0"/>
</linearGradient>
<linearGradient id="paint10_linear_0_275" x1="124.07" y1="59.4285" x2="111.387" y2="95.1121" gradientUnits="userSpaceOnUse">
<stop offset="0.14" stop-color="white"/>
<stop offset="0.17" stop-color="#FDFDFE" stop-opacity="0.95"/>
<stop offset="0.68" stop-color="#E9E8F4" stop-opacity="0.27"/>
<stop offset="0.89" stop-color="#E2E0F1" stop-opacity="0"/>
</linearGradient>
<linearGradient id="paint11_linear_0_275" x1="113.169" y1="106.747" x2="131.441" y2="110.226" gradientUnits="userSpaceOnUse">
<stop offset="0.38" stop-color="#C2C1E2"/>
<stop offset="0.89" stop-color="#C2C1E2"/>
</linearGradient>
</defs>
</svg>
