<svg width="330" height="162" viewBox="0 0 330 162" fill="none" xmlns="http://www.w3.org/2000/svg">
<path d="M323.5 158.48H66.89L62.79 154.38H2.10999V3.57999H232.07L237.85 9.35999H323.5V158.48ZM67.18 157.78H322.8V10.06H237.56L231.78 4.27999H2.80999V153.68H63.08L67.18 157.78Z" fill="#3364AD"/>
<path d="M67.91 156.02L63.81 151.92H4.57001V6.03998H231.05L236.83 11.82H321.04V156.02H67.91Z" fill="url(#paint0_linear_267_3)" stroke="url(#paint1_linear_267_3)" stroke-width="3" stroke-miterlimit="10"/>
<path d="M321.22 156.2H67.84L63.74 152.1H4.40002V5.85999H231.12L236.9 11.64H321.21V156.2H321.22ZM67.99 155.85H320.87V12H236.76L230.98 6.21999H4.75002V151.74H63.88L67.98 155.84L67.99 155.85Z" fill="url(#paint2_linear_267_3)" stroke="url(#paint3_linear_267_3)" stroke-width="3" stroke-miterlimit="10"/>
<path d="M329.61 20.81H325.39V54.57H329.61V20.81Z" fill="#3364AD"/>
<path d="M329.61 58.95H325.39V61.83H329.61V58.95Z" fill="#3364AD"/>
<path d="M329.61 63.25H325.39V66.13H329.61V63.25Z" fill="#3364AD"/>
<path d="M329.61 67.55H325.39V70.43H329.61V67.55Z" fill="#3364AD"/>
<path d="M329.61 71.86H325.39V74.74H329.61V71.86Z" fill="#3364AD"/>
<path d="M64.68 161.9L60.68 157.9H0.349976V157.19H60.97L65.17 161.4L64.68 161.9Z" fill="#3364AD"/>
<path d="M325.26 6.54H239.67L233.79 0.660004L234.28 0.160004L239.96 5.84H325.26V6.54Z" fill="#3364AD"/>
<path d="M4.93 11.93H0V13.34H4.93V11.93Z" fill="#3364AD"/>
<path d="M4.93 89.03H0V86.23H4.93V89.03ZM4.93 82.72H0V79.92H4.93V82.72ZM4.93 76.41H0V73.61H4.93V76.41ZM4.93 70.1H0V67.3H4.93V70.1ZM4.93 63.79H0V60.99H4.93V63.79ZM4.93 57.48H0V54.68H4.93V57.48ZM4.93 51.17H0V48.37H4.93V51.17ZM4.93 44.86H0V42.06H4.93V44.86ZM4.93 38.55H0V35.75H4.93V38.55ZM4.93 32.24H0V29.44H4.93V32.24ZM4.93 25.93H0V23.13H4.93V25.93ZM4.93 19.62H0V16.82H4.93V19.62Z" fill="#3364AD"/>
<path d="M4.93 92.54H0V93.95H4.93V92.54Z" fill="#3364AD"/>
<path d="M37.49 0H138.57L146.43 7.85H37.49V0ZM34.37 0H29.86V7.85H34.37V0ZM24.3 0H19.43V7.85H24.3V0Z" fill="#3364AD"/>
<path d="M17.6666 24.9928C17.375 24.6904 16.9484 24.5068 16.4894 24.5068C15.593 24.5068 14.9018 25.1494 14.9018 26.0566C14.9018 26.926 15.6524 27.5632 16.4948 27.5632C17.0186 27.5632 17.483 27.3202 17.7746 26.9314L18.1364 27.4228C17.7314 27.8764 17.1374 28.1518 16.4894 28.1518C15.269 28.1518 14.324 27.2014 14.324 25.9864C14.324 24.7984 15.3392 23.9128 16.4948 23.9128C17.0996 23.9128 17.6504 24.1558 18.0446 24.55L17.6666 24.9928ZM22.0914 26.6344C22.0914 27.5848 21.2814 28.1464 20.4336 28.1464C19.5858 28.1464 18.7866 27.5956 18.7866 26.6506C18.7866 25.7002 19.602 25.171 20.439 25.171C21.2814 25.171 22.0914 25.6624 22.0914 26.6344ZM21.5082 26.6398C21.5082 26.0134 20.9682 25.7434 20.439 25.7434C19.899 25.7434 19.3698 26.0296 19.3698 26.6614C19.3698 27.2932 19.9098 27.5794 20.4444 27.5794C20.9736 27.5794 21.5082 27.2446 21.5082 26.6398ZM23.0307 25.4518C23.4033 25.225 23.8353 25.171 24.0891 25.171C24.8397 25.171 25.2663 25.4626 25.2663 26.0296C25.2663 26.1916 25.2123 26.4076 25.0773 26.5318C25.2987 26.656 25.4067 26.9314 25.4067 27.1852C25.4067 27.9142 24.7317 28.1518 24.0891 28.1518C23.6085 28.1518 23.0469 27.9574 22.7391 27.6496L23.0577 27.169C23.3763 27.4822 23.7543 27.5848 24.0891 27.5848C24.5211 27.5848 24.8505 27.4984 24.8505 27.1744C24.8505 26.9098 24.6345 26.8504 24.4131 26.8504H23.8245V26.2942H24.4131C24.6075 26.2942 24.6939 26.1592 24.6939 26.0296C24.6939 25.819 24.4671 25.7326 24.0891 25.7326C23.9433 25.7326 23.6031 25.7866 23.3439 25.9324L23.0307 25.4518ZM28.9277 28.681V28.06H26.6165V28.681H26.0549V27.4984H26.5949C27.1349 26.8288 27.1889 26.2726 27.2861 25.819H26.8433L26.5949 25.2628H29.1383V27.4984H29.4893V28.681H28.9277ZM28.5875 27.4984V25.819H27.8693C27.7397 26.4076 27.5615 27.088 27.2537 27.4984H28.5875ZM31.2381 25.198H31.8375L33.3495 28.06H32.7393L32.5179 27.6388H32.1831C31.4919 27.6388 30.7737 27.9088 30.6819 28.0276L30.6657 28.06H30.0825L31.4217 25.549L31.2381 25.198ZM32.1777 27.1312H32.2533L31.7079 26.0944L31.0437 27.3742C31.2219 27.2824 31.5999 27.1312 32.1777 27.1312ZM34.7633 27.4984H36.5183V28.06H34.2125V25.2628H36.4157V25.819H34.7633V26.4994C35.0063 26.359 35.3141 26.3374 35.6381 26.3374H36.0485V26.8936H35.6381C35.1251 26.8936 35.0063 26.926 34.7633 27.0556V27.4984ZM40.6928 25.711V28.06H40.0826V26.4238L39.0944 27.7414L38.1062 26.4238V28.06H37.496V25.711L37.2206 25.2628H37.901L39.0944 26.845L40.2878 25.2628H40.9682L40.6928 25.711ZM45.9049 27.7468C45.5971 28.0114 45.1813 28.1464 44.7547 28.1464C43.9069 28.1464 43.1077 27.5956 43.1077 26.6506C43.1077 25.7002 43.9231 25.171 44.7601 25.171C45.1705 25.171 45.5377 25.2682 45.8455 25.5004L45.4729 25.9324C45.2623 25.7866 45.0247 25.7326 44.7601 25.7326C44.2201 25.7326 43.6963 26.0296 43.6963 26.6614C43.6963 27.2932 44.2309 27.5848 44.7655 27.5848C45.0571 27.5848 45.3649 27.4768 45.5809 27.2824L45.9049 27.7468ZM47.5489 25.198H48.1483L49.6603 28.06H49.0501L48.8287 27.6388H48.4939C47.8027 27.6388 47.0845 27.9088 46.9927 28.0276L46.9765 28.06H46.3933L47.7325 25.549L47.5489 25.198ZM48.4885 27.1312H48.5641L48.0187 26.0944L47.3545 27.3742C47.5327 27.2824 47.9107 27.1312 48.4885 27.1312ZM51.9434 24.5986C51.5924 24.5986 51.5276 24.3664 51.5276 24.1936H50.9066C50.9444 24.5284 51.1712 24.9766 51.9434 24.9766C52.7156 24.9766 52.9424 24.5284 52.9802 24.1936H52.3592C52.3592 24.3664 52.2944 24.5986 51.9434 24.5986ZM51.074 27.2716L52.7048 25.2628H53.2556V28.06H52.7048V26.0404L51.074 28.06H50.5232V25.2628H51.074V27.2716ZM55.6915 25.819V28.06H55.1353V25.819H54.1201V25.2628H56.7445V25.819H55.6915ZM58.1669 26.143C58.4099 26.2726 58.5287 26.305 59.0417 26.305H59.1659C59.7221 26.305 60.1595 26.602 60.1595 27.1852C60.1595 27.7738 59.7221 28.06 59.1659 28.06H57.6107V25.2628H58.1669V26.143ZM60.6131 28.06V25.2628H61.1639V28.06H60.6131ZM58.1669 27.4984H59.1659C59.3927 27.4984 59.6033 27.4444 59.6033 27.1744C59.6033 26.9098 59.3873 26.8612 59.1659 26.8612H59.0417C58.7177 26.8612 58.4099 26.8396 58.1669 26.6992V27.4984ZM63.9661 25.819L63.7285 25.2628H66.3799V28.06H65.7913V25.819H65.0083C64.9435 26.494 64.7869 27.3256 64.3711 27.817C64.1821 28.0384 63.9229 28.06 63.7825 28.06H63.4963V27.4984H63.6421C63.7555 27.4984 63.8959 27.439 64.0525 27.1906C64.3333 26.7424 64.3711 26.3536 64.4197 25.819H63.9661ZM71.7331 26.6344C71.7331 27.5848 70.9987 28.1464 70.1941 28.1464C69.4597 28.1464 68.7955 27.6874 68.6767 26.8882H68.2285V28.06H67.6777V25.2628H68.2285V26.3212H68.6929C68.8495 25.5814 69.4975 25.171 70.1995 25.171C70.9987 25.171 71.7331 25.6624 71.7331 26.6344ZM71.2093 26.6344C71.2093 26.008 70.7017 25.738 70.2211 25.738C69.7243 25.738 69.2275 26.0242 69.2275 26.6614C69.2275 27.2932 69.7351 27.5794 70.2211 27.5794C70.7071 27.5794 71.2093 27.2446 71.2093 26.6344ZM73.3175 26.1322C73.5605 26.2618 73.6793 26.2942 74.1923 26.2942H74.4785C75.0347 26.2942 75.4721 26.602 75.4721 27.1852C75.4721 27.7738 75.0347 28.06 74.4785 28.06H72.7613V25.2628H74.9159V25.819H73.3175V26.1322ZM74.4785 27.4984C74.7053 27.4984 74.9159 27.4444 74.9159 27.1744C74.9159 26.9098 74.6999 26.8612 74.4785 26.8612H74.1923C73.8683 26.8612 73.5605 26.8396 73.3175 26.6992V27.4984H74.4785ZM79.4769 26.6344C79.4769 27.5848 78.6669 28.1464 77.8191 28.1464C76.9713 28.1464 76.1721 27.5956 76.1721 26.6506C76.1721 25.7002 76.9875 25.171 77.8245 25.171C78.6669 25.171 79.4769 25.6624 79.4769 26.6344ZM78.8937 26.6398C78.8937 26.0134 78.3537 25.7434 77.8245 25.7434C77.2845 25.7434 76.7553 26.0296 76.7553 26.6614C76.7553 27.2932 77.2953 27.5794 77.8299 27.5794C78.3591 27.5794 78.8937 27.2446 78.8937 26.6398ZM81.9229 24.5986C81.5719 24.5986 81.5071 24.3664 81.5071 24.1936H80.8861C80.9239 24.5284 81.1507 24.9766 81.9229 24.9766C82.6951 24.9766 82.9219 24.5284 82.9597 24.1936H82.3387C82.3387 24.3664 82.2739 24.5986 81.9229 24.5986ZM81.0535 27.2716L82.6843 25.2628H83.2351V28.06H82.6843V26.0404L81.0535 28.06H80.5027V25.2628H81.0535V27.2716Z" fill="#C4E5EE"/>
<path d="M17.1752 34.2268C16.8674 34.4914 16.4516 34.6264 16.025 34.6264C15.1772 34.6264 14.378 34.0756 14.378 33.1306C14.378 32.1802 15.1934 31.651 16.0304 31.651C16.4408 31.651 16.808 31.7482 17.1158 31.9804L16.7432 32.4124C16.5326 32.2666 16.295 32.2126 16.0304 32.2126C15.4904 32.2126 14.9666 32.5096 14.9666 33.1414C14.9666 33.7732 15.5012 34.0648 16.0358 34.0648C16.3274 34.0648 16.6352 33.9568 16.8512 33.7624L17.1752 34.2268ZM18.1874 32.299L17.9498 31.7428H20.6012V34.54H20.0126V32.299H19.2296C19.1648 32.974 19.0082 33.8056 18.5924 34.297C18.4034 34.5184 18.1442 34.54 18.0038 34.54H17.7176V33.9784H17.8634C17.9768 33.9784 18.1172 33.919 18.2738 33.6706C18.5546 33.2224 18.5924 32.8336 18.641 32.299H18.1874ZM24.9338 33.1144C24.9338 34.0648 24.1238 34.6264 23.276 34.6264C22.4282 34.6264 21.629 34.0756 21.629 33.1306C21.629 32.1802 22.4444 31.651 23.2814 31.651C24.1238 31.651 24.9338 32.1424 24.9338 33.1144ZM24.3506 33.1198C24.3506 32.4934 23.8106 32.2234 23.2814 32.2234C22.7414 32.2234 22.2122 32.5096 22.2122 33.1414C22.2122 33.7732 22.7522 34.0594 23.2868 34.0594C23.816 34.0594 24.3506 33.7246 24.3506 33.1198ZM27.6103 31.7428H28.1989V32.8768C28.3933 32.8768 28.5391 32.8444 28.6255 32.7634L29.4139 31.7428H30.1267L29.1007 33.055L29.5705 33.6922C29.7379 33.9244 29.9431 33.973 30.0835 33.973H30.2239V34.54H30.0349C29.7433 34.54 29.4949 34.54 29.1979 34.108L28.7065 33.3952C28.5607 33.4492 28.4041 33.4654 28.1989 33.4654V34.54H27.6103V33.4654C27.4051 33.4654 27.2485 33.4492 27.1027 33.3952L26.6113 34.108C26.3143 34.54 26.0659 34.54 25.7743 34.54H25.5853V33.973H25.7257C25.8661 33.973 26.0659 33.9244 26.2387 33.6922L26.7085 33.055L25.6825 31.7428H26.3953L27.1837 32.7634C27.2701 32.8444 27.4159 32.8768 27.6103 32.8768V31.7428ZM31.8523 34.54H31.3015V31.7428H31.8523V32.8606C31.9549 32.812 32.0683 32.7904 32.1817 32.7904C32.4139 32.7904 32.7433 32.8714 33.0241 32.8714C33.1429 32.8714 33.2617 32.8552 33.3751 32.8012V31.7428H33.9259V34.54H33.3751V33.3682C33.2671 33.4222 33.1591 33.4384 33.0457 33.4384C32.7541 33.4384 32.4787 33.3628 32.2033 33.3628C32.0791 33.3628 31.9657 33.379 31.8523 33.4276V34.54ZM38.2545 33.1144C38.2545 34.0648 37.4445 34.6264 36.5967 34.6264C35.7489 34.6264 34.9497 34.0756 34.9497 33.1306C34.9497 32.1802 35.7651 31.651 36.6021 31.651C37.4445 31.651 38.2545 32.1424 38.2545 33.1144ZM37.6713 33.1198C37.6713 32.4934 37.1313 32.2234 36.6021 32.2234C36.0621 32.2234 35.5329 32.5096 35.5329 33.1414C35.5329 33.7732 36.0729 34.0594 36.6075 34.0594C37.1367 34.0594 37.6713 33.7246 37.6713 33.1198ZM41.8074 34.2268C41.4996 34.4914 41.0838 34.6264 40.6572 34.6264C39.8094 34.6264 39.0102 34.0756 39.0102 33.1306C39.0102 32.1802 39.8256 31.651 40.6626 31.651C41.073 31.651 41.4402 31.7482 41.748 31.9804L41.3754 32.4124C41.1648 32.2666 40.9272 32.2126 40.6626 32.2126C40.1226 32.2126 39.5988 32.5096 39.5988 33.1414C39.5988 33.7732 40.1334 34.0648 40.668 34.0648C40.9596 34.0648 41.2674 33.9568 41.4834 33.7624L41.8074 34.2268ZM43.9212 32.299V34.54H43.365V32.299H42.3498V31.7428H44.9742V32.299H43.9212ZM48.022 31.7428H48.5728V34.54H48.022V32.5204L46.3912 34.54H45.8404V31.7428H46.3912V33.7516L48.022 31.7428Z" fill="#C4E5EE"/>
<path d="M17.6666 24.9928C17.375 24.6904 16.9484 24.5068 16.4894 24.5068C15.593 24.5068 14.9018 25.1494 14.9018 26.0566C14.9018 26.926 15.6524 27.5632 16.4948 27.5632C17.0186 27.5632 17.483 27.3202 17.7746 26.9314L18.1364 27.4228C17.7314 27.8764 17.1374 28.1518 16.4894 28.1518C15.269 28.1518 14.324 27.2014 14.324 25.9864C14.324 24.7984 15.3392 23.9128 16.4948 23.9128C17.0996 23.9128 17.6504 24.1558 18.0446 24.55L17.6666 24.9928ZM22.0914 26.6344C22.0914 27.5848 21.2814 28.1464 20.4336 28.1464C19.5858 28.1464 18.7866 27.5956 18.7866 26.6506C18.7866 25.7002 19.602 25.171 20.439 25.171C21.2814 25.171 22.0914 25.6624 22.0914 26.6344ZM21.5082 26.6398C21.5082 26.0134 20.9682 25.7434 20.439 25.7434C19.899 25.7434 19.3698 26.0296 19.3698 26.6614C19.3698 27.2932 19.9098 27.5794 20.4444 27.5794C20.9736 27.5794 21.5082 27.2446 21.5082 26.6398ZM23.0307 25.4518C23.4033 25.225 23.8353 25.171 24.0891 25.171C24.8397 25.171 25.2663 25.4626 25.2663 26.0296C25.2663 26.1916 25.2123 26.4076 25.0773 26.5318C25.2987 26.656 25.4067 26.9314 25.4067 27.1852C25.4067 27.9142 24.7317 28.1518 24.0891 28.1518C23.6085 28.1518 23.0469 27.9574 22.7391 27.6496L23.0577 27.169C23.3763 27.4822 23.7543 27.5848 24.0891 27.5848C24.5211 27.5848 24.8505 27.4984 24.8505 27.1744C24.8505 26.9098 24.6345 26.8504 24.4131 26.8504H23.8245V26.2942H24.4131C24.6075 26.2942 24.6939 26.1592 24.6939 26.0296C24.6939 25.819 24.4671 25.7326 24.0891 25.7326C23.9433 25.7326 23.6031 25.7866 23.3439 25.9324L23.0307 25.4518ZM28.9277 28.681V28.06H26.6165V28.681H26.0549V27.4984H26.5949C27.1349 26.8288 27.1889 26.2726 27.2861 25.819H26.8433L26.5949 25.2628H29.1383V27.4984H29.4893V28.681H28.9277ZM28.5875 27.4984V25.819H27.8693C27.7397 26.4076 27.5615 27.088 27.2537 27.4984H28.5875ZM31.2381 25.198H31.8375L33.3495 28.06H32.7393L32.5179 27.6388H32.1831C31.4919 27.6388 30.7737 27.9088 30.6819 28.0276L30.6657 28.06H30.0825L31.4217 25.549L31.2381 25.198ZM32.1777 27.1312H32.2533L31.7079 26.0944L31.0437 27.3742C31.2219 27.2824 31.5999 27.1312 32.1777 27.1312ZM34.7633 27.4984H36.5183V28.06H34.2125V25.2628H36.4157V25.819H34.7633V26.4994C35.0063 26.359 35.3141 26.3374 35.6381 26.3374H36.0485V26.8936H35.6381C35.1251 26.8936 35.0063 26.926 34.7633 27.0556V27.4984ZM40.6928 25.711V28.06H40.0826V26.4238L39.0944 27.7414L38.1062 26.4238V28.06H37.496V25.711L37.2206 25.2628H37.901L39.0944 26.845L40.2878 25.2628H40.9682L40.6928 25.711ZM45.9049 27.7468C45.5971 28.0114 45.1813 28.1464 44.7547 28.1464C43.9069 28.1464 43.1077 27.5956 43.1077 26.6506C43.1077 25.7002 43.9231 25.171 44.7601 25.171C45.1705 25.171 45.5377 25.2682 45.8455 25.5004L45.4729 25.9324C45.2623 25.7866 45.0247 25.7326 44.7601 25.7326C44.2201 25.7326 43.6963 26.0296 43.6963 26.6614C43.6963 27.2932 44.2309 27.5848 44.7655 27.5848C45.0571 27.5848 45.3649 27.4768 45.5809 27.2824L45.9049 27.7468ZM47.5489 25.198H48.1483L49.6603 28.06H49.0501L48.8287 27.6388H48.4939C47.8027 27.6388 47.0845 27.9088 46.9927 28.0276L46.9765 28.06H46.3933L47.7325 25.549L47.5489 25.198ZM48.4885 27.1312H48.5641L48.0187 26.0944L47.3545 27.3742C47.5327 27.2824 47.9107 27.1312 48.4885 27.1312ZM51.9434 24.5986C51.5924 24.5986 51.5276 24.3664 51.5276 24.1936H50.9066C50.9444 24.5284 51.1712 24.9766 51.9434 24.9766C52.7156 24.9766 52.9424 24.5284 52.9802 24.1936H52.3592C52.3592 24.3664 52.2944 24.5986 51.9434 24.5986ZM51.074 27.2716L52.7048 25.2628H53.2556V28.06H52.7048V26.0404L51.074 28.06H50.5232V25.2628H51.074V27.2716ZM55.6915 25.819V28.06H55.1353V25.819H54.1201V25.2628H56.7445V25.819H55.6915ZM58.1669 26.143C58.4099 26.2726 58.5287 26.305 59.0417 26.305H59.1659C59.7221 26.305 60.1595 26.602 60.1595 27.1852C60.1595 27.7738 59.7221 28.06 59.1659 28.06H57.6107V25.2628H58.1669V26.143ZM60.6131 28.06V25.2628H61.1639V28.06H60.6131ZM58.1669 27.4984H59.1659C59.3927 27.4984 59.6033 27.4444 59.6033 27.1744C59.6033 26.9098 59.3873 26.8612 59.1659 26.8612H59.0417C58.7177 26.8612 58.4099 26.8396 58.1669 26.6992V27.4984ZM63.9661 25.819L63.7285 25.2628H66.3799V28.06H65.7913V25.819H65.0083C64.9435 26.494 64.7869 27.3256 64.3711 27.817C64.1821 28.0384 63.9229 28.06 63.7825 28.06H63.4963V27.4984H63.6421C63.7555 27.4984 63.8959 27.439 64.0525 27.1906C64.3333 26.7424 64.3711 26.3536 64.4197 25.819H63.9661ZM71.7331 26.6344C71.7331 27.5848 70.9987 28.1464 70.1941 28.1464C69.4597 28.1464 68.7955 27.6874 68.6767 26.8882H68.2285V28.06H67.6777V25.2628H68.2285V26.3212H68.6929C68.8495 25.5814 69.4975 25.171 70.1995 25.171C70.9987 25.171 71.7331 25.6624 71.7331 26.6344ZM71.2093 26.6344C71.2093 26.008 70.7017 25.738 70.2211 25.738C69.7243 25.738 69.2275 26.0242 69.2275 26.6614C69.2275 27.2932 69.7351 27.5794 70.2211 27.5794C70.7071 27.5794 71.2093 27.2446 71.2093 26.6344ZM73.3175 26.1322C73.5605 26.2618 73.6793 26.2942 74.1923 26.2942H74.4785C75.0347 26.2942 75.4721 26.602 75.4721 27.1852C75.4721 27.7738 75.0347 28.06 74.4785 28.06H72.7613V25.2628H74.9159V25.819H73.3175V26.1322ZM74.4785 27.4984C74.7053 27.4984 74.9159 27.4444 74.9159 27.1744C74.9159 26.9098 74.6999 26.8612 74.4785 26.8612H74.1923C73.8683 26.8612 73.5605 26.8396 73.3175 26.6992V27.4984H74.4785ZM79.4769 26.6344C79.4769 27.5848 78.6669 28.1464 77.8191 28.1464C76.9713 28.1464 76.1721 27.5956 76.1721 26.6506C76.1721 25.7002 76.9875 25.171 77.8245 25.171C78.6669 25.171 79.4769 25.6624 79.4769 26.6344ZM78.8937 26.6398C78.8937 26.0134 78.3537 25.7434 77.8245 25.7434C77.2845 25.7434 76.7553 26.0296 76.7553 26.6614C76.7553 27.2932 77.2953 27.5794 77.8299 27.5794C78.3591 27.5794 78.8937 27.2446 78.8937 26.6398ZM81.9229 24.5986C81.5719 24.5986 81.5071 24.3664 81.5071 24.1936H80.8861C80.9239 24.5284 81.1507 24.9766 81.9229 24.9766C82.6951 24.9766 82.9219 24.5284 82.9597 24.1936H82.3387C82.3387 24.3664 82.2739 24.5986 81.9229 24.5986ZM81.0535 27.2716L82.6843 25.2628H83.2351V28.06H82.6843V26.0404L81.0535 28.06H80.5027V25.2628H81.0535V27.2716Z" fill="#80CCDD"/>
<path d="M17.1752 34.2268C16.8674 34.4914 16.4516 34.6264 16.025 34.6264C15.1772 34.6264 14.378 34.0756 14.378 33.1306C14.378 32.1802 15.1934 31.651 16.0304 31.651C16.4408 31.651 16.808 31.7482 17.1158 31.9804L16.7432 32.4124C16.5326 32.2666 16.295 32.2126 16.0304 32.2126C15.4904 32.2126 14.9666 32.5096 14.9666 33.1414C14.9666 33.7732 15.5012 34.0648 16.0358 34.0648C16.3274 34.0648 16.6352 33.9568 16.8512 33.7624L17.1752 34.2268ZM18.1874 32.299L17.9498 31.7428H20.6012V34.54H20.0126V32.299H19.2296C19.1648 32.974 19.0082 33.8056 18.5924 34.297C18.4034 34.5184 18.1442 34.54 18.0038 34.54H17.7176V33.9784H17.8634C17.9768 33.9784 18.1172 33.919 18.2738 33.6706C18.5546 33.2224 18.5924 32.8336 18.641 32.299H18.1874ZM24.9338 33.1144C24.9338 34.0648 24.1238 34.6264 23.276 34.6264C22.4282 34.6264 21.629 34.0756 21.629 33.1306C21.629 32.1802 22.4444 31.651 23.2814 31.651C24.1238 31.651 24.9338 32.1424 24.9338 33.1144ZM24.3506 33.1198C24.3506 32.4934 23.8106 32.2234 23.2814 32.2234C22.7414 32.2234 22.2122 32.5096 22.2122 33.1414C22.2122 33.7732 22.7522 34.0594 23.2868 34.0594C23.816 34.0594 24.3506 33.7246 24.3506 33.1198ZM27.6103 31.7428H28.1989V32.8768C28.3933 32.8768 28.5391 32.8444 28.6255 32.7634L29.4139 31.7428H30.1267L29.1007 33.055L29.5705 33.6922C29.7379 33.9244 29.9431 33.973 30.0835 33.973H30.2239V34.54H30.0349C29.7433 34.54 29.4949 34.54 29.1979 34.108L28.7065 33.3952C28.5607 33.4492 28.4041 33.4654 28.1989 33.4654V34.54H27.6103V33.4654C27.4051 33.4654 27.2485 33.4492 27.1027 33.3952L26.6113 34.108C26.3143 34.54 26.0659 34.54 25.7743 34.54H25.5853V33.973H25.7257C25.8661 33.973 26.0659 33.9244 26.2387 33.6922L26.7085 33.055L25.6825 31.7428H26.3953L27.1837 32.7634C27.2701 32.8444 27.4159 32.8768 27.6103 32.8768V31.7428ZM31.8523 34.54H31.3015V31.7428H31.8523V32.8606C31.9549 32.812 32.0683 32.7904 32.1817 32.7904C32.4139 32.7904 32.7433 32.8714 33.0241 32.8714C33.1429 32.8714 33.2617 32.8552 33.3751 32.8012V31.7428H33.9259V34.54H33.3751V33.3682C33.2671 33.4222 33.1591 33.4384 33.0457 33.4384C32.7541 33.4384 32.4787 33.3628 32.2033 33.3628C32.0791 33.3628 31.9657 33.379 31.8523 33.4276V34.54ZM38.2545 33.1144C38.2545 34.0648 37.4445 34.6264 36.5967 34.6264C35.7489 34.6264 34.9497 34.0756 34.9497 33.1306C34.9497 32.1802 35.7651 31.651 36.6021 31.651C37.4445 31.651 38.2545 32.1424 38.2545 33.1144ZM37.6713 33.1198C37.6713 32.4934 37.1313 32.2234 36.6021 32.2234C36.0621 32.2234 35.5329 32.5096 35.5329 33.1414C35.5329 33.7732 36.0729 34.0594 36.6075 34.0594C37.1367 34.0594 37.6713 33.7246 37.6713 33.1198ZM41.8074 34.2268C41.4996 34.4914 41.0838 34.6264 40.6572 34.6264C39.8094 34.6264 39.0102 34.0756 39.0102 33.1306C39.0102 32.1802 39.8256 31.651 40.6626 31.651C41.073 31.651 41.4402 31.7482 41.748 31.9804L41.3754 32.4124C41.1648 32.2666 40.9272 32.2126 40.6626 32.2126C40.1226 32.2126 39.5988 32.5096 39.5988 33.1414C39.5988 33.7732 40.1334 34.0648 40.668 34.0648C40.9596 34.0648 41.2674 33.9568 41.4834 33.7624L41.8074 34.2268ZM43.9212 32.299V34.54H43.365V32.299H42.3498V31.7428H44.9742V32.299H43.9212ZM48.022 31.7428H48.5728V34.54H48.022V32.5204L46.3912 34.54H45.8404V31.7428H46.3912V33.7516L48.022 31.7428Z" fill="#80CCDD"/>
<path d="M241.64 42.06H223.65V41.7H241.49L245.9 37.29L246.15 37.54L241.64 42.06Z" fill="#C4E5EE"/>
<path d="M246.87 37.42C246.87 37.88 246.49 38.26 246.03 38.26C245.57 38.26 245.19 37.88 245.19 37.42C245.19 36.96 245.57 36.58 246.03 36.58C246.49 36.58 246.87 36.96 246.87 37.42Z" fill="#C4E5EE"/>
<path d="M223.65 42.72C224.114 42.72 224.49 42.3439 224.49 41.88C224.49 41.4161 224.114 41.04 223.65 41.04C223.186 41.04 222.81 41.4161 222.81 41.88C222.81 42.3439 223.186 42.72 223.65 42.72Z" fill="#C4E5EE"/>
<path d="M93.22 39.48H75.23L70.72 34.96L70.97 34.71L75.38 39.12H93.22V39.48Z" fill="#C4E5EE"/>
<path d="M70.84 35.68C71.3039 35.68 71.68 35.3039 71.68 34.84C71.68 34.3761 71.3039 34 70.84 34C70.3761 34 70 34.3761 70 34.84C70 35.3039 70.3761 35.68 70.84 35.68Z" fill="#C4E5EE"/>
<path d="M93.22 40.14C93.6839 40.14 94.06 39.7639 94.06 39.3C94.06 38.8361 93.6839 38.46 93.22 38.46C92.7561 38.46 92.38 38.8361 92.38 39.3C92.38 39.7639 92.7561 40.14 93.22 40.14Z" fill="#C4E5EE"/>
<path d="M245.9 139.75L241.49 135.34H223.65V134.99H241.64L246.15 139.5L245.9 139.75Z" fill="#C4E5EE"/>
<path d="M246.87 139.62C246.87 139.16 246.49 138.78 246.03 138.78C245.57 138.78 245.19 139.16 245.19 139.62C245.19 140.08 245.57 140.46 246.03 140.46C246.49 140.46 246.87 140.08 246.87 139.62Z" fill="#C4E5EE"/>
<path d="M223.65 136C224.114 136 224.49 135.624 224.49 135.16C224.49 134.696 224.114 134.32 223.65 134.32C223.186 134.32 222.81 134.696 222.81 135.16C222.81 135.624 223.186 136 223.65 136Z" fill="#C4E5EE"/>
<path d="M16.3318 129V125.566H14.1772V129H13.594V124.972H16.9204V129H16.3318ZM18.1621 129V126.203H19.9387C20.4787 126.203 20.8513 126.548 20.8513 127.088C20.8513 127.639 20.4679 127.99 19.8415 127.99H19.5931C19.0801 127.99 18.9559 128.023 18.7129 128.152V129H18.1621ZM18.7129 127.596C18.9559 127.456 19.2691 127.434 19.5931 127.434H19.8415C20.1061 127.434 20.2843 127.38 20.2843 127.083C20.2843 126.813 20.0683 126.759 19.8415 126.759H18.7129V127.596ZM24.8566 127.574C24.8566 128.525 24.0466 129.086 23.1988 129.086C22.351 129.086 21.5518 128.536 21.5518 127.591C21.5518 126.64 22.3672 126.111 23.2042 126.111C24.0466 126.111 24.8566 126.602 24.8566 127.574ZM24.2734 127.58C24.2734 126.953 23.7334 126.683 23.2042 126.683C22.6642 126.683 22.135 126.97 22.135 127.601C22.135 128.233 22.675 128.519 23.2096 128.519C23.7388 128.519 24.2734 128.185 24.2734 127.58ZM26.471 129H25.8824V126.203H26.471V127.337H26.6546C26.849 127.337 26.9732 127.31 27.0812 127.223L27.8696 126.203H28.5824L27.5564 127.515L28.0262 128.152C28.1936 128.384 28.3988 128.438 28.5392 128.438H28.7336V129H28.4906C28.199 129 27.9506 128.984 27.6536 128.557L27.1622 127.855C27.0164 127.909 26.8598 127.925 26.7086 127.925H26.471V129ZM30.4807 126.138H31.0801L32.5921 129H31.9819L31.7605 128.579H31.4257C30.7345 128.579 30.0163 128.849 29.9245 128.968L29.9083 129H29.3251L30.6643 126.489L30.4807 126.138ZM31.4203 128.071H31.4959L30.9505 127.034L30.2863 128.314C30.4645 128.222 30.8425 128.071 31.4203 128.071ZM35.6474 126.203V129H35.0966V127.974C34.8752 128.06 34.67 128.093 34.3784 128.093C33.6116 128.093 33.131 127.855 33.131 127.159C33.131 126.835 33.1526 126.511 33.239 126.203H33.7898C33.7088 126.484 33.6818 126.743 33.6818 127.013C33.6818 127.418 33.887 127.542 34.3946 127.542C34.6484 127.542 34.778 127.51 35.0966 127.412V126.203H35.6474ZM37.6156 126.138H38.215L39.727 129H39.1168L38.8954 128.579H38.5606C37.8694 128.579 37.1512 128.849 37.0594 128.968L37.0432 129H36.46L37.7992 126.489L37.6156 126.138ZM38.5552 128.071H38.6308L38.0854 127.034L37.4212 128.314C37.5994 128.222 37.9774 128.071 38.5552 128.071ZM41.1408 128.438H42.8958V129H40.59V126.203H42.7932V126.759H41.1408V127.439C41.3838 127.299 41.6916 127.277 42.0156 127.277H42.426V127.834H42.0156C41.5026 127.834 41.3838 127.866 41.1408 127.996V128.438ZM47.0704 126.651V129H46.4602V127.364L45.472 128.681L44.4838 127.364V129H43.8736V126.651L43.5982 126.203H44.2786L45.472 127.785L46.6654 126.203H47.3458L47.0704 126.651ZM53.1248 127.898C53.1248 128.698 52.412 129 51.7424 129H49.7012V124.972H51.7424C52.4228 124.972 52.9304 125.366 52.9304 126.073C52.9304 126.419 52.8062 126.716 52.5686 126.867C52.8494 126.997 53.1248 127.342 53.1248 127.898ZM50.2844 126.797C50.5274 126.656 50.7866 126.635 51.0512 126.635H51.7424C52.1042 126.635 52.3418 126.451 52.3418 126.079C52.3418 125.695 52.0934 125.566 51.7424 125.566H50.2844V126.797ZM50.2844 128.411H51.8018C52.1312 128.411 52.5416 128.228 52.5416 127.823C52.5416 127.353 52.1312 127.234 51.7424 127.234H51.0512C50.792 127.234 50.5274 127.267 50.2844 127.396V128.411ZM54.8229 126.138H55.4223L56.9343 129H56.3241L56.1027 128.579H55.7679C55.0767 128.579 54.3585 128.849 54.2667 128.968L54.2505 129H53.6673L55.0065 126.489L54.8229 126.138ZM55.7625 128.071H55.8381L55.2927 127.034L54.6285 128.314C54.8067 128.222 55.1847 128.071 55.7625 128.071ZM61.3882 126.203V129H57.7972V126.203H58.3426V128.411H59.293V126.305H59.8708V128.411H60.8374V126.203H61.3882ZM64.7079 127.072C64.9509 127.202 65.0697 127.234 65.5827 127.234H65.8689C66.4251 127.234 66.8625 127.542 66.8625 128.125C66.8625 128.714 66.4251 129 65.8689 129H64.1517V126.203H66.3063V126.759H64.7079V127.072ZM65.8689 128.438C66.0957 128.438 66.3063 128.384 66.3063 128.114C66.3063 127.85 66.0903 127.801 65.8689 127.801H65.5827C65.2587 127.801 64.9509 127.78 64.7079 127.639V128.438H65.8689ZM70.0142 126.203H70.565V129H70.0142V126.98L68.3834 129H67.8326V126.203H68.3834V128.212L70.0142 126.203ZM71.7751 126.392C72.1477 126.165 72.5797 126.111 72.8335 126.111C73.5841 126.111 74.0107 126.403 74.0107 126.97C74.0107 127.132 73.9567 127.348 73.8217 127.472C74.0431 127.596 74.1511 127.871 74.1511 128.125C74.1511 128.854 73.4761 129.092 72.8335 129.092C72.3529 129.092 71.7913 128.897 71.4835 128.59L71.8021 128.109C72.1207 128.422 72.4987 128.525 72.8335 128.525C73.2655 128.525 73.5949 128.438 73.5949 128.114C73.5949 127.85 73.3789 127.79 73.1575 127.79H72.5689V127.234H73.1575C73.3519 127.234 73.4383 127.099 73.4383 126.97C73.4383 126.759 73.2115 126.673 72.8335 126.673C72.6877 126.673 72.3475 126.727 72.0883 126.872L71.7751 126.392ZM75.7293 129H75.1785V126.203H75.7293V127.321C75.8319 127.272 75.9453 127.25 76.0587 127.25C76.2909 127.25 76.6203 127.331 76.9011 127.331C77.0199 127.331 77.1387 127.315 77.2521 127.261V126.203H77.8029V129H77.2521V127.828C77.1441 127.882 77.0361 127.898 76.9227 127.898C76.6311 127.898 76.3557 127.823 76.0803 127.823C75.9561 127.823 75.8427 127.839 75.7293 127.888V129ZM79.6474 128.438H81.4024V129H79.0966V126.203H81.2998V126.759H79.6474V127.439C79.8904 127.299 80.1982 127.277 80.5222 127.277H80.9326V127.834H80.5222C80.0092 127.834 79.8904 127.866 79.6474 127.996V128.438ZM84.983 128.687C84.6752 128.951 84.2594 129.086 83.8328 129.086C82.985 129.086 82.1858 128.536 82.1858 127.591C82.1858 126.64 83.0012 126.111 83.8382 126.111C84.2486 126.111 84.6158 126.208 84.9236 126.44L84.551 126.872C84.3404 126.727 84.1028 126.673 83.8382 126.673C83.2982 126.673 82.7744 126.97 82.7744 127.601C82.7744 128.233 83.309 128.525 83.8436 128.525C84.1352 128.525 84.443 128.417 84.659 128.222L84.983 128.687Z" fill="#C4E5EE"/>
<path d="M14.1988 135.48H13.648V132.683H14.1988V133.801C14.3014 133.752 14.4148 133.73 14.5282 133.73C14.7604 133.73 15.0898 133.811 15.3706 133.811C15.4894 133.811 15.6082 133.795 15.7216 133.741V132.683H16.2724V135.48H15.7216V134.308C15.6136 134.362 15.5056 134.378 15.3922 134.378C15.1006 134.378 14.8252 134.303 14.5498 134.303C14.4256 134.303 14.3122 134.319 14.1988 134.368V135.48ZM18.2358 132.618H18.8352L20.3472 135.48H19.737L19.5156 135.059H19.1808C18.4896 135.059 17.7714 135.329 17.6796 135.448L17.6634 135.48H17.0802L18.4194 132.969L18.2358 132.618ZM19.1754 134.551H19.251L18.7056 133.514L18.0414 134.794C18.2196 134.702 18.5976 134.551 19.1754 134.551ZM23.2269 135.48H22.6761V132.683H23.2269V133.801C23.3295 133.752 23.4429 133.73 23.5563 133.73C23.7885 133.73 24.1179 133.811 24.3987 133.811C24.5175 133.811 24.6363 133.795 24.7497 133.741V132.683H25.3005V135.48H24.7497V134.308C24.6417 134.362 24.5337 134.378 24.4203 134.378C24.1287 134.378 23.8533 134.303 23.5779 134.303C23.4537 134.303 23.3403 134.319 23.2269 134.368V135.48ZM29.6291 134.054C29.6291 135.005 28.8191 135.566 27.9713 135.566C27.1235 135.566 26.3243 135.016 26.3243 134.071C26.3243 133.12 27.1397 132.591 27.9767 132.591C28.8191 132.591 29.6291 133.082 29.6291 134.054ZM29.0459 134.06C29.0459 133.433 28.5059 133.163 27.9767 133.163C27.4367 133.163 26.9075 133.45 26.9075 134.081C26.9075 134.713 27.4475 134.999 27.9821 134.999C28.5113 134.999 29.0459 134.665 29.0459 134.06ZM33.3656 134.605C33.3656 135.156 32.9876 135.48 32.372 135.48H30.6548V132.683H32.372C32.831 132.683 33.2198 133.001 33.2198 133.471C33.2198 133.655 33.1712 133.828 33.0362 133.952C33.2468 134.076 33.3656 134.33 33.3656 134.605ZM31.211 133.876C31.454 133.736 31.7618 133.714 32.0858 133.714H32.372C32.5664 133.714 32.6528 133.633 32.6528 133.471C32.6528 133.32 32.5394 133.239 32.372 133.239H31.211V133.876ZM31.211 134.918H32.372C32.5988 134.918 32.8094 134.864 32.8094 134.594C32.8094 134.389 32.6798 134.281 32.372 134.281H32.0858C31.5728 134.281 31.454 134.314 31.211 134.443V134.918ZM35.0026 133.563C35.2456 133.693 35.3644 133.725 35.8774 133.725H36.0016C36.5578 133.725 36.9952 134.022 36.9952 134.605C36.9952 135.194 36.5578 135.48 36.0016 135.48H34.4464V132.683H35.0026V133.563ZM37.4488 135.48V132.683H37.9996V135.48H37.4488ZM35.0026 134.918H36.0016C36.2284 134.918 36.439 134.864 36.439 134.594C36.439 134.33 36.223 134.281 36.0016 134.281H35.8774C35.5534 134.281 35.2456 134.26 35.0026 134.119V134.918ZM40.7182 132.019C40.3672 132.019 40.3024 131.786 40.3024 131.614H39.6814C39.7192 131.948 39.946 132.397 40.7182 132.397C41.4904 132.397 41.7172 131.948 41.755 131.614H41.134C41.134 131.786 41.0692 132.019 40.7182 132.019ZM39.8488 134.692L41.4796 132.683H42.0304V135.48H41.4796V133.46L39.8488 135.48H39.298V132.683H39.8488V134.692ZM44.7227 134.735C44.8685 134.848 45.0683 134.983 45.2357 134.983C45.4517 134.983 45.5597 134.87 45.6623 134.729C45.1385 134.465 44.5445 133.579 44.3069 132.683H44.9279C45.0953 133.352 45.4571 133.952 45.9917 134.292C46.2023 133.941 46.5101 133.32 46.7153 132.683H47.3147C47.0339 133.52 46.5749 134.53 46.0781 135.124C45.7919 135.464 45.6029 135.518 45.2249 135.518C44.9981 135.518 44.6525 135.394 44.4149 135.215L44.7227 134.735ZM48.131 135.48V132.683H49.9076C50.4476 132.683 50.8202 133.028 50.8202 133.568C50.8202 134.119 50.4368 134.47 49.8104 134.47H49.562C49.049 134.47 48.9248 134.503 48.6818 134.632V135.48H48.131ZM48.6818 134.076C48.9248 133.936 49.238 133.914 49.562 133.914H49.8104C50.075 133.914 50.2532 133.86 50.2532 133.563C50.2532 133.293 50.0372 133.239 49.8104 133.239H48.6818V134.076ZM54.8256 134.054C54.8256 135.005 54.0156 135.566 53.1678 135.566C52.32 135.566 51.5208 135.016 51.5208 134.071C51.5208 133.12 52.3362 132.591 53.1732 132.591C54.0156 132.591 54.8256 133.082 54.8256 134.054ZM54.2424 134.06C54.2424 133.433 53.7024 133.163 53.1732 133.163C52.6332 133.163 52.104 133.45 52.104 134.081C52.104 134.713 52.644 134.999 53.1786 134.999C53.7078 134.999 54.2424 134.665 54.2424 134.06ZM58.5621 134.605C58.5621 135.156 58.1841 135.48 57.5685 135.48H55.8513V132.683H57.5685C58.0275 132.683 58.4163 133.001 58.4163 133.471C58.4163 133.655 58.3677 133.828 58.2327 133.952C58.4433 134.076 58.5621 134.33 58.5621 134.605ZM56.4075 133.876C56.6505 133.736 56.9583 133.714 57.2823 133.714H57.5685C57.7629 133.714 57.8493 133.633 57.8493 133.471C57.8493 133.32 57.7359 133.239 57.5685 133.239H56.4075V133.876ZM56.4075 134.918H57.5685C57.7953 134.918 58.0059 134.864 58.0059 134.594C58.0059 134.389 57.8763 134.281 57.5685 134.281H57.2823C56.7693 134.281 56.6505 134.314 56.4075 134.443V134.918ZM60.1937 134.918H61.9487V135.48H59.6429V132.683H61.8461V133.239H60.1937V133.919C60.4367 133.779 60.7445 133.757 61.0685 133.757H61.4789V134.314H61.0685C60.5555 134.314 60.4367 134.346 60.1937 134.476V134.918ZM63.5529 135.48H63.0021V132.683H63.5529V133.801C63.6555 133.752 63.7689 133.73 63.8823 133.73C64.1145 133.73 64.4439 133.811 64.7247 133.811C64.8435 133.811 64.9623 133.795 65.0757 133.741V132.683H65.6265V135.48H65.0757V134.308C64.9677 134.362 64.8597 134.378 64.7463 134.378C64.4547 134.378 64.1793 134.303 63.9039 134.303C63.7797 134.303 63.6663 134.319 63.5529 134.368V135.48ZM67.4765 133.563C67.7195 133.693 67.8383 133.725 68.3513 133.725H68.6375C69.1937 133.725 69.6311 134.022 69.6311 134.605C69.6311 135.194 69.1937 135.48 68.6375 135.48H66.9203V132.683H67.4765V133.563ZM68.6375 134.918C68.8643 134.918 69.0749 134.864 69.0749 134.594C69.0749 134.33 68.8589 134.281 68.6375 134.281H68.3513C68.0273 134.281 67.7195 134.26 67.4765 134.119V134.918H68.6375Z" fill="#C4E5EE"/>
<path d="M16.3318 129V125.566H14.1772V129H13.594V124.972H16.9204V129H16.3318ZM18.1621 129V126.203H19.9387C20.4787 126.203 20.8513 126.548 20.8513 127.088C20.8513 127.639 20.4679 127.99 19.8415 127.99H19.5931C19.0801 127.99 18.9559 128.023 18.7129 128.152V129H18.1621ZM18.7129 127.596C18.9559 127.456 19.2691 127.434 19.5931 127.434H19.8415C20.1061 127.434 20.2843 127.38 20.2843 127.083C20.2843 126.813 20.0683 126.759 19.8415 126.759H18.7129V127.596ZM24.8566 127.574C24.8566 128.525 24.0466 129.086 23.1988 129.086C22.351 129.086 21.5518 128.536 21.5518 127.591C21.5518 126.64 22.3672 126.111 23.2042 126.111C24.0466 126.111 24.8566 126.602 24.8566 127.574ZM24.2734 127.58C24.2734 126.953 23.7334 126.683 23.2042 126.683C22.6642 126.683 22.135 126.97 22.135 127.601C22.135 128.233 22.675 128.519 23.2096 128.519C23.7388 128.519 24.2734 128.185 24.2734 127.58ZM26.471 129H25.8824V126.203H26.471V127.337H26.6546C26.849 127.337 26.9732 127.31 27.0812 127.223L27.8696 126.203H28.5824L27.5564 127.515L28.0262 128.152C28.1936 128.384 28.3988 128.438 28.5392 128.438H28.7336V129H28.4906C28.199 129 27.9506 128.984 27.6536 128.557L27.1622 127.855C27.0164 127.909 26.8598 127.925 26.7086 127.925H26.471V129ZM30.4807 126.138H31.0801L32.5921 129H31.9819L31.7605 128.579H31.4257C30.7345 128.579 30.0163 128.849 29.9245 128.968L29.9083 129H29.3251L30.6643 126.489L30.4807 126.138ZM31.4203 128.071H31.4959L30.9505 127.034L30.2863 128.314C30.4645 128.222 30.8425 128.071 31.4203 128.071ZM35.6474 126.203V129H35.0966V127.974C34.8752 128.06 34.67 128.093 34.3784 128.093C33.6116 128.093 33.131 127.855 33.131 127.159C33.131 126.835 33.1526 126.511 33.239 126.203H33.7898C33.7088 126.484 33.6818 126.743 33.6818 127.013C33.6818 127.418 33.887 127.542 34.3946 127.542C34.6484 127.542 34.778 127.51 35.0966 127.412V126.203H35.6474ZM37.6156 126.138H38.215L39.727 129H39.1168L38.8954 128.579H38.5606C37.8694 128.579 37.1512 128.849 37.0594 128.968L37.0432 129H36.46L37.7992 126.489L37.6156 126.138ZM38.5552 128.071H38.6308L38.0854 127.034L37.4212 128.314C37.5994 128.222 37.9774 128.071 38.5552 128.071ZM41.1408 128.438H42.8958V129H40.59V126.203H42.7932V126.759H41.1408V127.439C41.3838 127.299 41.6916 127.277 42.0156 127.277H42.426V127.834H42.0156C41.5026 127.834 41.3838 127.866 41.1408 127.996V128.438ZM47.0704 126.651V129H46.4602V127.364L45.472 128.681L44.4838 127.364V129H43.8736V126.651L43.5982 126.203H44.2786L45.472 127.785L46.6654 126.203H47.3458L47.0704 126.651ZM53.1248 127.898C53.1248 128.698 52.412 129 51.7424 129H49.7012V124.972H51.7424C52.4228 124.972 52.9304 125.366 52.9304 126.073C52.9304 126.419 52.8062 126.716 52.5686 126.867C52.8494 126.997 53.1248 127.342 53.1248 127.898ZM50.2844 126.797C50.5274 126.656 50.7866 126.635 51.0512 126.635H51.7424C52.1042 126.635 52.3418 126.451 52.3418 126.079C52.3418 125.695 52.0934 125.566 51.7424 125.566H50.2844V126.797ZM50.2844 128.411H51.8018C52.1312 128.411 52.5416 128.228 52.5416 127.823C52.5416 127.353 52.1312 127.234 51.7424 127.234H51.0512C50.792 127.234 50.5274 127.267 50.2844 127.396V128.411ZM54.8229 126.138H55.4223L56.9343 129H56.3241L56.1027 128.579H55.7679C55.0767 128.579 54.3585 128.849 54.2667 128.968L54.2505 129H53.6673L55.0065 126.489L54.8229 126.138ZM55.7625 128.071H55.8381L55.2927 127.034L54.6285 128.314C54.8067 128.222 55.1847 128.071 55.7625 128.071ZM61.3882 126.203V129H57.7972V126.203H58.3426V128.411H59.293V126.305H59.8708V128.411H60.8374V126.203H61.3882ZM64.7079 127.072C64.9509 127.202 65.0697 127.234 65.5827 127.234H65.8689C66.4251 127.234 66.8625 127.542 66.8625 128.125C66.8625 128.714 66.4251 129 65.8689 129H64.1517V126.203H66.3063V126.759H64.7079V127.072ZM65.8689 128.438C66.0957 128.438 66.3063 128.384 66.3063 128.114C66.3063 127.85 66.0903 127.801 65.8689 127.801H65.5827C65.2587 127.801 64.9509 127.78 64.7079 127.639V128.438H65.8689ZM70.0142 126.203H70.565V129H70.0142V126.98L68.3834 129H67.8326V126.203H68.3834V128.212L70.0142 126.203ZM71.7751 126.392C72.1477 126.165 72.5797 126.111 72.8335 126.111C73.5841 126.111 74.0107 126.403 74.0107 126.97C74.0107 127.132 73.9567 127.348 73.8217 127.472C74.0431 127.596 74.1511 127.871 74.1511 128.125C74.1511 128.854 73.4761 129.092 72.8335 129.092C72.3529 129.092 71.7913 128.897 71.4835 128.59L71.8021 128.109C72.1207 128.422 72.4987 128.525 72.8335 128.525C73.2655 128.525 73.5949 128.438 73.5949 128.114C73.5949 127.85 73.3789 127.79 73.1575 127.79H72.5689V127.234H73.1575C73.3519 127.234 73.4383 127.099 73.4383 126.97C73.4383 126.759 73.2115 126.673 72.8335 126.673C72.6877 126.673 72.3475 126.727 72.0883 126.872L71.7751 126.392ZM75.7293 129H75.1785V126.203H75.7293V127.321C75.8319 127.272 75.9453 127.25 76.0587 127.25C76.2909 127.25 76.6203 127.331 76.9011 127.331C77.0199 127.331 77.1387 127.315 77.2521 127.261V126.203H77.8029V129H77.2521V127.828C77.1441 127.882 77.0361 127.898 76.9227 127.898C76.6311 127.898 76.3557 127.823 76.0803 127.823C75.9561 127.823 75.8427 127.839 75.7293 127.888V129ZM79.6474 128.438H81.4024V129H79.0966V126.203H81.2998V126.759H79.6474V127.439C79.8904 127.299 80.1982 127.277 80.5222 127.277H80.9326V127.834H80.5222C80.0092 127.834 79.8904 127.866 79.6474 127.996V128.438ZM84.983 128.687C84.6752 128.951 84.2594 129.086 83.8328 129.086C82.985 129.086 82.1858 128.536 82.1858 127.591C82.1858 126.64 83.0012 126.111 83.8382 126.111C84.2486 126.111 84.6158 126.208 84.9236 126.44L84.551 126.872C84.3404 126.727 84.1028 126.673 83.8382 126.673C83.2982 126.673 82.7744 126.97 82.7744 127.601C82.7744 128.233 83.309 128.525 83.8436 128.525C84.1352 128.525 84.443 128.417 84.659 128.222L84.983 128.687Z" fill="#C4E5EE"/>
<path d="M14.1988 135.48H13.648V132.683H14.1988V133.801C14.3014 133.752 14.4148 133.73 14.5282 133.73C14.7604 133.73 15.0898 133.811 15.3706 133.811C15.4894 133.811 15.6082 133.795 15.7216 133.741V132.683H16.2724V135.48H15.7216V134.308C15.6136 134.362 15.5056 134.378 15.3922 134.378C15.1006 134.378 14.8252 134.303 14.5498 134.303C14.4256 134.303 14.3122 134.319 14.1988 134.368V135.48ZM18.2358 132.618H18.8352L20.3472 135.48H19.737L19.5156 135.059H19.1808C18.4896 135.059 17.7714 135.329 17.6796 135.448L17.6634 135.48H17.0802L18.4194 132.969L18.2358 132.618ZM19.1754 134.551H19.251L18.7056 133.514L18.0414 134.794C18.2196 134.702 18.5976 134.551 19.1754 134.551ZM23.2269 135.48H22.6761V132.683H23.2269V133.801C23.3295 133.752 23.4429 133.73 23.5563 133.73C23.7885 133.73 24.1179 133.811 24.3987 133.811C24.5175 133.811 24.6363 133.795 24.7497 133.741V132.683H25.3005V135.48H24.7497V134.308C24.6417 134.362 24.5337 134.378 24.4203 134.378C24.1287 134.378 23.8533 134.303 23.5779 134.303C23.4537 134.303 23.3403 134.319 23.2269 134.368V135.48ZM29.6291 134.054C29.6291 135.005 28.8191 135.566 27.9713 135.566C27.1235 135.566 26.3243 135.016 26.3243 134.071C26.3243 133.12 27.1397 132.591 27.9767 132.591C28.8191 132.591 29.6291 133.082 29.6291 134.054ZM29.0459 134.06C29.0459 133.433 28.5059 133.163 27.9767 133.163C27.4367 133.163 26.9075 133.45 26.9075 134.081C26.9075 134.713 27.4475 134.999 27.9821 134.999C28.5113 134.999 29.0459 134.665 29.0459 134.06ZM33.3656 134.605C33.3656 135.156 32.9876 135.48 32.372 135.48H30.6548V132.683H32.372C32.831 132.683 33.2198 133.001 33.2198 133.471C33.2198 133.655 33.1712 133.828 33.0362 133.952C33.2468 134.076 33.3656 134.33 33.3656 134.605ZM31.211 133.876C31.454 133.736 31.7618 133.714 32.0858 133.714H32.372C32.5664 133.714 32.6528 133.633 32.6528 133.471C32.6528 133.32 32.5394 133.239 32.372 133.239H31.211V133.876ZM31.211 134.918H32.372C32.5988 134.918 32.8094 134.864 32.8094 134.594C32.8094 134.389 32.6798 134.281 32.372 134.281H32.0858C31.5728 134.281 31.454 134.314 31.211 134.443V134.918ZM35.0026 133.563C35.2456 133.693 35.3644 133.725 35.8774 133.725H36.0016C36.5578 133.725 36.9952 134.022 36.9952 134.605C36.9952 135.194 36.5578 135.48 36.0016 135.48H34.4464V132.683H35.0026V133.563ZM37.4488 135.48V132.683H37.9996V135.48H37.4488ZM35.0026 134.918H36.0016C36.2284 134.918 36.439 134.864 36.439 134.594C36.439 134.33 36.223 134.281 36.0016 134.281H35.8774C35.5534 134.281 35.2456 134.26 35.0026 134.119V134.918ZM40.7182 132.019C40.3672 132.019 40.3024 131.786 40.3024 131.614H39.6814C39.7192 131.948 39.946 132.397 40.7182 132.397C41.4904 132.397 41.7172 131.948 41.755 131.614H41.134C41.134 131.786 41.0692 132.019 40.7182 132.019ZM39.8488 134.692L41.4796 132.683H42.0304V135.48H41.4796V133.46L39.8488 135.48H39.298V132.683H39.8488V134.692ZM44.7227 134.735C44.8685 134.848 45.0683 134.983 45.2357 134.983C45.4517 134.983 45.5597 134.87 45.6623 134.729C45.1385 134.465 44.5445 133.579 44.3069 132.683H44.9279C45.0953 133.352 45.4571 133.952 45.9917 134.292C46.2023 133.941 46.5101 133.32 46.7153 132.683H47.3147C47.0339 133.52 46.5749 134.53 46.0781 135.124C45.7919 135.464 45.6029 135.518 45.2249 135.518C44.9981 135.518 44.6525 135.394 44.4149 135.215L44.7227 134.735ZM48.131 135.48V132.683H49.9076C50.4476 132.683 50.8202 133.028 50.8202 133.568C50.8202 134.119 50.4368 134.47 49.8104 134.47H49.562C49.049 134.47 48.9248 134.503 48.6818 134.632V135.48H48.131ZM48.6818 134.076C48.9248 133.936 49.238 133.914 49.562 133.914H49.8104C50.075 133.914 50.2532 133.86 50.2532 133.563C50.2532 133.293 50.0372 133.239 49.8104 133.239H48.6818V134.076ZM54.8256 134.054C54.8256 135.005 54.0156 135.566 53.1678 135.566C52.32 135.566 51.5208 135.016 51.5208 134.071C51.5208 133.12 52.3362 132.591 53.1732 132.591C54.0156 132.591 54.8256 133.082 54.8256 134.054ZM54.2424 134.06C54.2424 133.433 53.7024 133.163 53.1732 133.163C52.6332 133.163 52.104 133.45 52.104 134.081C52.104 134.713 52.644 134.999 53.1786 134.999C53.7078 134.999 54.2424 134.665 54.2424 134.06ZM58.5621 134.605C58.5621 135.156 58.1841 135.48 57.5685 135.48H55.8513V132.683H57.5685C58.0275 132.683 58.4163 133.001 58.4163 133.471C58.4163 133.655 58.3677 133.828 58.2327 133.952C58.4433 134.076 58.5621 134.33 58.5621 134.605ZM56.4075 133.876C56.6505 133.736 56.9583 133.714 57.2823 133.714H57.5685C57.7629 133.714 57.8493 133.633 57.8493 133.471C57.8493 133.32 57.7359 133.239 57.5685 133.239H56.4075V133.876ZM56.4075 134.918H57.5685C57.7953 134.918 58.0059 134.864 58.0059 134.594C58.0059 134.389 57.8763 134.281 57.5685 134.281H57.2823C56.7693 134.281 56.6505 134.314 56.4075 134.443V134.918ZM60.1937 134.918H61.9487V135.48H59.6429V132.683H61.8461V133.239H60.1937V133.919C60.4367 133.779 60.7445 133.757 61.0685 133.757H61.4789V134.314H61.0685C60.5555 134.314 60.4367 134.346 60.1937 134.476V134.918ZM63.5529 135.48H63.0021V132.683H63.5529V133.801C63.6555 133.752 63.7689 133.73 63.8823 133.73C64.1145 133.73 64.4439 133.811 64.7247 133.811C64.8435 133.811 64.9623 133.795 65.0757 133.741V132.683H65.6265V135.48H65.0757V134.308C64.9677 134.362 64.8597 134.378 64.7463 134.378C64.4547 134.378 64.1793 134.303 63.9039 134.303C63.7797 134.303 63.6663 134.319 63.5529 134.368V135.48ZM67.4765 133.563C67.7195 133.693 67.8383 133.725 68.3513 133.725H68.6375C69.1937 133.725 69.6311 134.022 69.6311 134.605C69.6311 135.194 69.1937 135.48 68.6375 135.48H66.9203V132.683H67.4765V133.563ZM68.6375 134.918C68.8643 134.918 69.0749 134.864 69.0749 134.594C69.0749 134.33 68.8589 134.281 68.6375 134.281H68.3513C68.0273 134.281 67.7195 134.26 67.4765 134.119V134.918H68.6375Z" fill="#C4E5EE"/>
<path d="M253.572 28.64V25.2056H251.417V28.64H250.834V24.6116H254.16V28.64H253.572ZM255.402 28.64V25.8428H257.179C257.719 25.8428 258.091 26.1884 258.091 26.7284C258.091 27.2792 257.708 27.6302 257.081 27.6302H256.833C256.32 27.6302 256.196 27.6626 255.953 27.7922V28.64H255.402ZM255.953 27.236C256.196 27.0956 256.509 27.074 256.833 27.074H257.081C257.346 27.074 257.524 27.02 257.524 26.723C257.524 26.453 257.308 26.399 257.081 26.399H255.953V27.236ZM262.097 27.2144C262.097 28.1648 261.287 28.7264 260.439 28.7264C259.591 28.7264 258.792 28.1756 258.792 27.2306C258.792 26.2802 259.607 25.751 260.444 25.751C261.287 25.751 262.097 26.2424 262.097 27.2144ZM261.513 27.2198C261.513 26.5934 260.973 26.3234 260.444 26.3234C259.904 26.3234 259.375 26.6096 259.375 27.2414C259.375 27.8732 259.915 28.1594 260.45 28.1594C260.979 28.1594 261.513 27.8246 261.513 27.2198ZM265.833 27.7652C265.833 28.316 265.455 28.64 264.84 28.64H263.122V25.8428H264.84C265.299 25.8428 265.687 26.1614 265.687 26.6312C265.687 26.8148 265.639 26.9876 265.504 27.1118C265.714 27.236 265.833 27.4898 265.833 27.7652ZM263.679 27.0362C263.922 26.8958 264.229 26.8742 264.553 26.8742H264.84C265.034 26.8742 265.12 26.7932 265.12 26.6312C265.12 26.48 265.007 26.399 264.84 26.399H263.679V27.0362ZM263.679 28.0784H264.84C265.066 28.0784 265.277 28.0244 265.277 27.7544C265.277 27.5492 265.147 27.4412 264.84 27.4412H264.553C264.04 27.4412 263.922 27.4736 263.679 27.6032V28.0784ZM267.465 28.0784H269.22V28.64H266.914V25.8428H269.117V26.399H267.465V27.0794C267.708 26.939 268.016 26.9174 268.34 26.9174H268.75V27.4736H268.34C267.827 27.4736 267.708 27.506 267.465 27.6356V28.0784ZM272.767 29.261V28.64H270.455V29.261H269.894V28.0784H270.434C270.974 27.4088 271.028 26.8526 271.125 26.399H270.682L270.434 25.8428H272.977V28.0784H273.328V29.261H272.767ZM272.426 28.0784V26.399H271.708C271.579 26.9876 271.4 27.668 271.093 28.0784H272.426ZM274.853 28.0784H276.608V28.64H274.302V25.8428H276.505V26.399H274.853V27.0794C275.096 26.939 275.404 26.9174 275.728 26.9174H276.138V27.4736H275.728C275.215 27.4736 275.096 27.506 274.853 27.6356V28.0784ZM280.782 26.291V28.64H280.172V27.0038L279.184 28.3214L278.196 27.0038V28.64H277.586V26.291L277.31 25.8428H277.991L279.184 27.425L280.377 25.8428H281.058L280.782 26.291Z" fill="#C4E5EE"/>
<path d="M251.477 35.12H250.888V32.3228H251.477V33.4568H251.66C251.855 33.4568 251.979 33.4298 252.087 33.3434L252.875 32.3228H253.588L252.562 33.635L253.032 34.2722C253.199 34.5044 253.404 34.5584 253.545 34.5584H253.739V35.12H253.496C253.205 35.12 252.956 35.1038 252.659 34.6772L252.168 33.9752C252.022 34.0292 251.865 34.0454 251.714 34.0454H251.477V35.12ZM257.852 33.6944C257.852 34.6448 257.042 35.2064 256.194 35.2064C255.346 35.2064 254.547 34.6556 254.547 33.7106C254.547 32.7602 255.362 32.231 256.199 32.231C257.042 32.231 257.852 32.7224 257.852 33.6944ZM257.268 33.6998C257.268 33.0734 256.728 32.8034 256.199 32.8034C255.659 32.8034 255.13 33.0896 255.13 33.7214C255.13 34.3532 255.67 34.6394 256.205 34.6394C256.734 34.6394 257.268 34.3046 257.268 33.6998ZM259.428 35.12H258.877V32.3228H259.428V33.4406C259.531 33.392 259.644 33.3704 259.757 33.3704C259.99 33.3704 260.319 33.4514 260.6 33.4514C260.719 33.4514 260.837 33.4352 260.951 33.3812V32.3228H261.502V35.12H260.951V33.9482C260.843 34.0022 260.735 34.0184 260.621 34.0184C260.33 34.0184 260.054 33.9428 259.779 33.9428C259.655 33.9428 259.541 33.959 259.428 34.0076V35.12ZM265.323 34.8068C265.015 35.0714 264.599 35.2064 264.172 35.2064C263.325 35.2064 262.525 34.6556 262.525 33.7106C262.525 32.7602 263.341 32.231 264.178 32.231C264.588 32.231 264.955 32.3282 265.263 32.5604L264.891 32.9924C264.68 32.8466 264.442 32.7926 264.178 32.7926C263.638 32.7926 263.114 33.0896 263.114 33.7214C263.114 34.3532 263.649 34.6448 264.183 34.6448C264.475 34.6448 264.783 34.5368 264.999 34.3424L265.323 34.8068ZM266.39 34.3748C266.536 34.4882 266.736 34.6232 266.903 34.6232C267.119 34.6232 267.227 34.5098 267.33 34.3694C266.806 34.1048 266.212 33.2192 265.974 32.3228H266.595C266.763 32.9924 267.125 33.5918 267.659 33.932C267.87 33.581 268.178 32.96 268.383 32.3228H268.982C268.701 33.1598 268.242 34.1696 267.746 34.7636C267.459 35.1038 267.27 35.1578 266.892 35.1578C266.666 35.1578 266.32 35.0336 266.082 34.8554L266.39 34.3748ZM269.884 32.879L269.646 32.3228H272.298V35.12H271.709V32.879H270.926C270.861 33.554 270.705 34.3856 270.289 34.877C270.1 35.0984 269.841 35.12 269.7 35.12H269.414V34.5584H269.56C269.673 34.5584 269.814 34.499 269.97 34.2506C270.251 33.8024 270.289 33.4136 270.337 32.879H269.884ZM274.152 33.203C274.395 33.3326 274.513 33.365 275.026 33.365H275.313C275.869 33.365 276.306 33.662 276.306 34.2452C276.306 34.8338 275.869 35.12 275.313 35.12H273.595V32.3228H274.152V33.203ZM275.313 34.5584C275.539 34.5584 275.75 34.5044 275.75 34.2344C275.75 33.9698 275.534 33.9212 275.313 33.9212H275.026C274.702 33.9212 274.395 33.8996 274.152 33.7592V34.5584H275.313ZM278.231 32.879V35.12H277.675V32.879H276.66V32.3228H279.284V32.879H278.231ZM280.82 32.258H281.419L282.931 35.12H282.321L282.1 34.6988H281.765C281.074 34.6988 280.355 34.9688 280.264 35.0876L280.247 35.12H279.664L281.003 32.609L280.82 32.258ZM281.759 34.1912H281.835L281.29 33.1544L280.625 34.4342C280.804 34.3424 281.182 34.1912 281.759 34.1912ZM286.8 34.5314L286.152 35.9678H285.58L285.958 35.12H283.636V32.3228H284.181V34.5314H285.704V32.3228H286.255V34.5314H286.8ZM289.952 32.3228H290.503V35.12H289.952V33.1004L288.321 35.12H287.77V32.3228H288.321V34.3316L289.952 32.3228ZM295.855 33.6944C295.855 34.6448 295.12 35.2064 294.316 35.2064C293.581 35.2064 292.917 34.7474 292.798 33.9482H292.35V35.12H291.799V32.3228H292.35V33.3812H292.815C292.971 32.6414 293.619 32.231 294.321 32.231C295.12 32.231 295.855 32.7224 295.855 33.6944ZM295.331 33.6944C295.331 33.068 294.823 32.798 294.343 32.798C293.846 32.798 293.349 33.0842 293.349 33.7214C293.349 34.3532 293.857 34.6394 294.343 34.6394C294.829 34.6394 295.331 34.3046 295.331 33.6944Z" fill="#C4E5EE"/>
<path d="M253.572 28.64V25.2056H251.417V28.64H250.834V24.6116H254.16V28.64H253.572ZM255.402 28.64V25.8428H257.179C257.719 25.8428 258.091 26.1884 258.091 26.7284C258.091 27.2792 257.708 27.6302 257.081 27.6302H256.833C256.32 27.6302 256.196 27.6626 255.953 27.7922V28.64H255.402ZM255.953 27.236C256.196 27.0956 256.509 27.074 256.833 27.074H257.081C257.346 27.074 257.524 27.02 257.524 26.723C257.524 26.453 257.308 26.399 257.081 26.399H255.953V27.236ZM262.097 27.2144C262.097 28.1648 261.287 28.7264 260.439 28.7264C259.591 28.7264 258.792 28.1756 258.792 27.2306C258.792 26.2802 259.607 25.751 260.444 25.751C261.287 25.751 262.097 26.2424 262.097 27.2144ZM261.513 27.2198C261.513 26.5934 260.973 26.3234 260.444 26.3234C259.904 26.3234 259.375 26.6096 259.375 27.2414C259.375 27.8732 259.915 28.1594 260.45 28.1594C260.979 28.1594 261.513 27.8246 261.513 27.2198ZM265.833 27.7652C265.833 28.316 265.455 28.64 264.84 28.64H263.122V25.8428H264.84C265.299 25.8428 265.687 26.1614 265.687 26.6312C265.687 26.8148 265.639 26.9876 265.504 27.1118C265.714 27.236 265.833 27.4898 265.833 27.7652ZM263.679 27.0362C263.922 26.8958 264.229 26.8742 264.553 26.8742H264.84C265.034 26.8742 265.12 26.7932 265.12 26.6312C265.12 26.48 265.007 26.399 264.84 26.399H263.679V27.0362ZM263.679 28.0784H264.84C265.066 28.0784 265.277 28.0244 265.277 27.7544C265.277 27.5492 265.147 27.4412 264.84 27.4412H264.553C264.04 27.4412 263.922 27.4736 263.679 27.6032V28.0784ZM267.465 28.0784H269.22V28.64H266.914V25.8428H269.117V26.399H267.465V27.0794C267.708 26.939 268.016 26.9174 268.34 26.9174H268.75V27.4736H268.34C267.827 27.4736 267.708 27.506 267.465 27.6356V28.0784ZM272.767 29.261V28.64H270.455V29.261H269.894V28.0784H270.434C270.974 27.4088 271.028 26.8526 271.125 26.399H270.682L270.434 25.8428H272.977V28.0784H273.328V29.261H272.767ZM272.426 28.0784V26.399H271.708C271.579 26.9876 271.4 27.668 271.093 28.0784H272.426ZM274.853 28.0784H276.608V28.64H274.302V25.8428H276.505V26.399H274.853V27.0794C275.096 26.939 275.404 26.9174 275.728 26.9174H276.138V27.4736H275.728C275.215 27.4736 275.096 27.506 274.853 27.6356V28.0784ZM280.782 26.291V28.64H280.172V27.0038L279.184 28.3214L278.196 27.0038V28.64H277.586V26.291L277.31 25.8428H277.991L279.184 27.425L280.377 25.8428H281.058L280.782 26.291Z" fill="#80CCDD"/>
<path d="M251.477 35.12H250.888V32.3228H251.477V33.4568H251.66C251.855 33.4568 251.979 33.4298 252.087 33.3434L252.875 32.3228H253.588L252.562 33.635L253.032 34.2722C253.199 34.5044 253.404 34.5584 253.545 34.5584H253.739V35.12H253.496C253.205 35.12 252.956 35.1038 252.659 34.6772L252.168 33.9752C252.022 34.0292 251.865 34.0454 251.714 34.0454H251.477V35.12ZM257.852 33.6944C257.852 34.6448 257.042 35.2064 256.194 35.2064C255.346 35.2064 254.547 34.6556 254.547 33.7106C254.547 32.7602 255.362 32.231 256.199 32.231C257.042 32.231 257.852 32.7224 257.852 33.6944ZM257.268 33.6998C257.268 33.0734 256.728 32.8034 256.199 32.8034C255.659 32.8034 255.13 33.0896 255.13 33.7214C255.13 34.3532 255.67 34.6394 256.205 34.6394C256.734 34.6394 257.268 34.3046 257.268 33.6998ZM259.428 35.12H258.877V32.3228H259.428V33.4406C259.531 33.392 259.644 33.3704 259.757 33.3704C259.99 33.3704 260.319 33.4514 260.6 33.4514C260.719 33.4514 260.837 33.4352 260.951 33.3812V32.3228H261.502V35.12H260.951V33.9482C260.843 34.0022 260.735 34.0184 260.621 34.0184C260.33 34.0184 260.054 33.9428 259.779 33.9428C259.655 33.9428 259.541 33.959 259.428 34.0076V35.12ZM265.323 34.8068C265.015 35.0714 264.599 35.2064 264.172 35.2064C263.325 35.2064 262.525 34.6556 262.525 33.7106C262.525 32.7602 263.341 32.231 264.178 32.231C264.588 32.231 264.955 32.3282 265.263 32.5604L264.891 32.9924C264.68 32.8466 264.442 32.7926 264.178 32.7926C263.638 32.7926 263.114 33.0896 263.114 33.7214C263.114 34.3532 263.649 34.6448 264.183 34.6448C264.475 34.6448 264.783 34.5368 264.999 34.3424L265.323 34.8068ZM266.39 34.3748C266.536 34.4882 266.736 34.6232 266.903 34.6232C267.119 34.6232 267.227 34.5098 267.33 34.3694C266.806 34.1048 266.212 33.2192 265.974 32.3228H266.595C266.763 32.9924 267.125 33.5918 267.659 33.932C267.87 33.581 268.178 32.96 268.383 32.3228H268.982C268.701 33.1598 268.242 34.1696 267.746 34.7636C267.459 35.1038 267.27 35.1578 266.892 35.1578C266.666 35.1578 266.32 35.0336 266.082 34.8554L266.39 34.3748ZM269.884 32.879L269.646 32.3228H272.298V35.12H271.709V32.879H270.926C270.861 33.554 270.705 34.3856 270.289 34.877C270.1 35.0984 269.841 35.12 269.7 35.12H269.414V34.5584H269.56C269.673 34.5584 269.814 34.499 269.97 34.2506C270.251 33.8024 270.289 33.4136 270.337 32.879H269.884ZM274.152 33.203C274.395 33.3326 274.513 33.365 275.026 33.365H275.313C275.869 33.365 276.306 33.662 276.306 34.2452C276.306 34.8338 275.869 35.12 275.313 35.12H273.595V32.3228H274.152V33.203ZM275.313 34.5584C275.539 34.5584 275.75 34.5044 275.75 34.2344C275.75 33.9698 275.534 33.9212 275.313 33.9212H275.026C274.702 33.9212 274.395 33.8996 274.152 33.7592V34.5584H275.313ZM278.231 32.879V35.12H277.675V32.879H276.66V32.3228H279.284V32.879H278.231ZM280.82 32.258H281.419L282.931 35.12H282.321L282.1 34.6988H281.765C281.074 34.6988 280.355 34.9688 280.264 35.0876L280.247 35.12H279.664L281.003 32.609L280.82 32.258ZM281.759 34.1912H281.835L281.29 33.1544L280.625 34.4342C280.804 34.3424 281.182 34.1912 281.759 34.1912ZM286.8 34.5314L286.152 35.9678H285.58L285.958 35.12H283.636V32.3228H284.181V34.5314H285.704V32.3228H286.255V34.5314H286.8ZM289.952 32.3228H290.503V35.12H289.952V33.1004L288.321 35.12H287.77V32.3228H288.321V34.3316L289.952 32.3228ZM295.855 33.6944C295.855 34.6448 295.12 35.2064 294.316 35.2064C293.581 35.2064 292.917 34.7474 292.798 33.9482H292.35V35.12H291.799V32.3228H292.35V33.3812H292.815C292.971 32.6414 293.619 32.231 294.321 32.231C295.12 32.231 295.855 32.7224 295.855 33.6944ZM295.331 33.6944C295.331 33.068 294.823 32.798 294.343 32.798C293.846 32.798 293.349 33.0842 293.349 33.7214C293.349 34.3532 293.857 34.6394 294.343 34.6394C294.829 34.6394 295.331 34.3046 295.331 33.6944Z" fill="#80CCDD"/>
<path d="M248.414 130.22V126.192H250.482C251.195 126.192 251.659 126.624 251.659 127.342C251.659 128.055 251.195 128.508 250.482 128.508H249.769C249.51 128.508 249.246 128.541 249.003 128.67V130.22H248.414ZM249.769 127.914H250.482C250.866 127.914 251.076 127.731 251.076 127.342C251.076 126.937 250.871 126.786 250.482 126.786H249.003V128.076C249.246 127.936 249.505 127.914 249.769 127.914ZM252.766 127.358H253.365L254.877 130.22H254.267L254.046 129.799H253.711C253.02 129.799 252.301 130.069 252.21 130.188L252.193 130.22H251.61L252.949 127.709L252.766 127.358ZM253.705 129.291H253.781L253.236 128.254L252.571 129.534C252.75 129.442 253.128 129.291 253.705 129.291ZM255.654 127.612C256.026 127.385 256.458 127.331 256.712 127.331C257.463 127.331 257.889 127.623 257.889 128.19C257.889 128.352 257.835 128.568 257.7 128.692C257.922 128.816 258.03 129.091 258.03 129.345C258.03 130.074 257.355 130.312 256.712 130.312C256.232 130.312 255.67 130.117 255.362 129.81L255.681 129.329C255.999 129.642 256.377 129.745 256.712 129.745C257.144 129.745 257.474 129.658 257.474 129.334C257.474 129.07 257.258 129.01 257.036 129.01H256.448V128.454H257.036C257.231 128.454 257.317 128.319 257.317 128.19C257.317 127.979 257.09 127.893 256.712 127.893C256.566 127.893 256.226 127.947 255.967 128.092L255.654 127.612ZM259.057 130.22V127.423H260.834C261.374 127.423 261.746 127.768 261.746 128.308C261.746 128.859 261.363 129.21 260.737 129.21H260.488C259.975 129.21 259.851 129.243 259.608 129.372V130.22H259.057ZM259.608 128.816C259.851 128.676 260.164 128.654 260.488 128.654H260.737C261.001 128.654 261.179 128.6 261.179 128.303C261.179 128.033 260.963 127.979 260.737 127.979H259.608V128.816ZM263.386 127.358H263.986L265.498 130.22H264.888L264.666 129.799H264.331C263.64 129.799 262.922 130.069 262.83 130.188L262.814 130.22H262.231L263.57 127.709L263.386 127.358ZM264.326 129.291H264.402L263.856 128.254L263.192 129.534C263.37 129.442 263.748 129.291 264.326 129.291ZM266.759 128.292C267.002 128.422 267.121 128.454 267.634 128.454H267.92C268.476 128.454 268.913 128.762 268.913 129.345C268.913 129.934 268.476 130.22 267.92 130.22H266.203V127.423H268.357V127.979H266.759V128.292ZM267.92 129.658C268.147 129.658 268.357 129.604 268.357 129.334C268.357 129.07 268.141 129.021 267.92 129.021H267.634C267.31 129.021 267.002 129 266.759 128.859V129.658H267.92ZM272.918 128.794C272.918 129.745 272.108 130.306 271.26 130.306C270.413 130.306 269.613 129.756 269.613 128.811C269.613 127.86 270.429 127.331 271.266 127.331C272.108 127.331 272.918 127.822 272.918 128.794ZM272.335 128.8C272.335 128.173 271.795 127.903 271.266 127.903C270.726 127.903 270.197 128.19 270.197 128.821C270.197 129.453 270.737 129.739 271.271 129.739C271.8 129.739 272.335 129.405 272.335 128.8ZM275.083 127.979V130.22H274.527V127.979H273.512V127.423H276.136V127.979H275.083ZM277.672 127.358H278.272L279.784 130.22H279.173L278.952 129.799H278.617C277.926 129.799 277.208 130.069 277.116 130.188L277.1 130.22H276.517L277.856 127.709L277.672 127.358ZM278.612 129.291H278.687L278.142 128.254L277.478 129.534C277.656 129.442 278.034 129.291 278.612 129.291ZM281.197 129.658H282.952V130.22H280.647V127.423H282.85V127.979H281.197V128.659C281.44 128.519 281.748 128.497 282.072 128.497H282.483V129.054H282.072C281.559 129.054 281.44 129.086 281.197 129.216V129.658ZM287.127 127.871V130.22H286.517V128.584L285.529 129.901L284.54 128.584V130.22H283.93V127.871L283.655 127.423H284.335L285.529 129.005L286.722 127.423H287.402L287.127 127.871Z" fill="#C4E5EE"/>
<path d="M250.995 136.387C250.687 136.651 250.272 136.786 249.845 136.786C248.997 136.786 248.198 136.236 248.198 135.291C248.198 134.34 249.013 133.811 249.85 133.811C250.261 133.811 250.628 133.908 250.936 134.14L250.563 134.572C250.353 134.427 250.115 134.373 249.85 134.373C249.31 134.373 248.787 134.67 248.787 135.301C248.787 135.933 249.321 136.225 249.856 136.225C250.147 136.225 250.455 136.117 250.671 135.922L250.995 136.387ZM253.109 134.459V136.7H252.553V134.459H251.538V133.903H254.162V134.459H253.109ZM255.028 136.7V133.903H256.805C257.345 133.903 257.717 134.248 257.717 134.788C257.717 135.339 257.334 135.69 256.708 135.69H256.459C255.946 135.69 255.822 135.723 255.579 135.852V136.7H255.028ZM255.579 135.296C255.822 135.156 256.135 135.134 256.459 135.134H256.708C256.972 135.134 257.15 135.08 257.15 134.783C257.15 134.513 256.934 134.459 256.708 134.459H255.579V135.296ZM259.358 133.838H259.957L261.469 136.7H260.859L260.637 136.279H260.303C259.611 136.279 258.893 136.549 258.801 136.668L258.785 136.7H258.202L259.541 134.189L259.358 133.838ZM260.297 135.771H260.373L259.827 134.734L259.163 136.014C259.341 135.922 259.719 135.771 260.297 135.771ZM263.471 134.459V136.7H262.915V134.459H261.9V133.903H264.524V134.459H263.471ZM265.941 136.138H267.696V136.7H265.391V133.903H267.594V134.459H265.941V135.139C266.184 134.999 266.492 134.977 266.816 134.977H267.227V135.534H266.816C266.303 135.534 266.184 135.566 265.941 135.696V136.138ZM269.301 134.459V136.7H268.75V133.903H270.791V134.459H269.301ZM273.974 133.903H274.525V136.7H273.974V134.68L272.343 136.7H271.792V133.903H272.343V135.912L273.974 133.903ZM279.877 135.274C279.877 136.225 279.142 136.786 278.338 136.786C277.603 136.786 276.939 136.327 276.82 135.528H276.372V136.7H275.821V133.903H276.372V134.961H276.837C276.993 134.221 277.641 133.811 278.343 133.811C279.142 133.811 279.877 134.302 279.877 135.274ZM279.353 135.274C279.353 134.648 278.845 134.378 278.365 134.378C277.868 134.378 277.371 134.664 277.371 135.301C277.371 135.933 277.879 136.219 278.365 136.219C278.851 136.219 279.353 135.885 279.353 135.274Z" fill="#C4E5EE"/>
<path d="M248.414 130.22V126.192H250.482C251.195 126.192 251.659 126.624 251.659 127.342C251.659 128.055 251.195 128.508 250.482 128.508H249.769C249.51 128.508 249.246 128.541 249.003 128.67V130.22H248.414ZM249.769 127.914H250.482C250.866 127.914 251.076 127.731 251.076 127.342C251.076 126.937 250.871 126.786 250.482 126.786H249.003V128.076C249.246 127.936 249.505 127.914 249.769 127.914ZM252.766 127.358H253.365L254.877 130.22H254.267L254.046 129.799H253.711C253.02 129.799 252.301 130.069 252.21 130.188L252.193 130.22H251.61L252.949 127.709L252.766 127.358ZM253.705 129.291H253.781L253.236 128.254L252.571 129.534C252.75 129.442 253.128 129.291 253.705 129.291ZM255.654 127.612C256.026 127.385 256.458 127.331 256.712 127.331C257.463 127.331 257.889 127.623 257.889 128.19C257.889 128.352 257.835 128.568 257.7 128.692C257.922 128.816 258.03 129.091 258.03 129.345C258.03 130.074 257.355 130.312 256.712 130.312C256.232 130.312 255.67 130.117 255.362 129.81L255.681 129.329C255.999 129.642 256.377 129.745 256.712 129.745C257.144 129.745 257.474 129.658 257.474 129.334C257.474 129.07 257.258 129.01 257.036 129.01H256.448V128.454H257.036C257.231 128.454 257.317 128.319 257.317 128.19C257.317 127.979 257.09 127.893 256.712 127.893C256.566 127.893 256.226 127.947 255.967 128.092L255.654 127.612ZM259.057 130.22V127.423H260.834C261.374 127.423 261.746 127.768 261.746 128.308C261.746 128.859 261.363 129.21 260.737 129.21H260.488C259.975 129.21 259.851 129.243 259.608 129.372V130.22H259.057ZM259.608 128.816C259.851 128.676 260.164 128.654 260.488 128.654H260.737C261.001 128.654 261.179 128.6 261.179 128.303C261.179 128.033 260.963 127.979 260.737 127.979H259.608V128.816ZM263.386 127.358H263.986L265.498 130.22H264.888L264.666 129.799H264.331C263.64 129.799 262.922 130.069 262.83 130.188L262.814 130.22H262.231L263.57 127.709L263.386 127.358ZM264.326 129.291H264.402L263.856 128.254L263.192 129.534C263.37 129.442 263.748 129.291 264.326 129.291ZM266.759 128.292C267.002 128.422 267.121 128.454 267.634 128.454H267.92C268.476 128.454 268.913 128.762 268.913 129.345C268.913 129.934 268.476 130.22 267.92 130.22H266.203V127.423H268.357V127.979H266.759V128.292ZM267.92 129.658C268.147 129.658 268.357 129.604 268.357 129.334C268.357 129.07 268.141 129.021 267.92 129.021H267.634C267.31 129.021 267.002 129 266.759 128.859V129.658H267.92ZM272.918 128.794C272.918 129.745 272.108 130.306 271.26 130.306C270.413 130.306 269.613 129.756 269.613 128.811C269.613 127.86 270.429 127.331 271.266 127.331C272.108 127.331 272.918 127.822 272.918 128.794ZM272.335 128.8C272.335 128.173 271.795 127.903 271.266 127.903C270.726 127.903 270.197 128.19 270.197 128.821C270.197 129.453 270.737 129.739 271.271 129.739C271.8 129.739 272.335 129.405 272.335 128.8ZM275.083 127.979V130.22H274.527V127.979H273.512V127.423H276.136V127.979H275.083ZM277.672 127.358H278.272L279.784 130.22H279.173L278.952 129.799H278.617C277.926 129.799 277.208 130.069 277.116 130.188L277.1 130.22H276.517L277.856 127.709L277.672 127.358ZM278.612 129.291H278.687L278.142 128.254L277.478 129.534C277.656 129.442 278.034 129.291 278.612 129.291ZM281.197 129.658H282.952V130.22H280.647V127.423H282.85V127.979H281.197V128.659C281.44 128.519 281.748 128.497 282.072 128.497H282.483V129.054H282.072C281.559 129.054 281.44 129.086 281.197 129.216V129.658ZM287.127 127.871V130.22H286.517V128.584L285.529 129.901L284.54 128.584V130.22H283.93V127.871L283.655 127.423H284.335L285.529 129.005L286.722 127.423H287.402L287.127 127.871Z" fill="#C4E5EE"/>
<path d="M250.995 136.387C250.687 136.651 250.272 136.786 249.845 136.786C248.997 136.786 248.198 136.236 248.198 135.291C248.198 134.34 249.013 133.811 249.85 133.811C250.261 133.811 250.628 133.908 250.936 134.14L250.563 134.572C250.353 134.427 250.115 134.373 249.85 134.373C249.31 134.373 248.787 134.67 248.787 135.301C248.787 135.933 249.321 136.225 249.856 136.225C250.147 136.225 250.455 136.117 250.671 135.922L250.995 136.387ZM253.109 134.459V136.7H252.553V134.459H251.538V133.903H254.162V134.459H253.109ZM255.028 136.7V133.903H256.805C257.345 133.903 257.717 134.248 257.717 134.788C257.717 135.339 257.334 135.69 256.708 135.69H256.459C255.946 135.69 255.822 135.723 255.579 135.852V136.7H255.028ZM255.579 135.296C255.822 135.156 256.135 135.134 256.459 135.134H256.708C256.972 135.134 257.15 135.08 257.15 134.783C257.15 134.513 256.934 134.459 256.708 134.459H255.579V135.296ZM259.358 133.838H259.957L261.469 136.7H260.859L260.637 136.279H260.303C259.611 136.279 258.893 136.549 258.801 136.668L258.785 136.7H258.202L259.541 134.189L259.358 133.838ZM260.297 135.771H260.373L259.827 134.734L259.163 136.014C259.341 135.922 259.719 135.771 260.297 135.771ZM263.471 134.459V136.7H262.915V134.459H261.9V133.903H264.524V134.459H263.471ZM265.941 136.138H267.696V136.7H265.391V133.903H267.594V134.459H265.941V135.139C266.184 134.999 266.492 134.977 266.816 134.977H267.227V135.534H266.816C266.303 135.534 266.184 135.566 265.941 135.696V136.138ZM269.301 134.459V136.7H268.75V133.903H270.791V134.459H269.301ZM273.974 133.903H274.525V136.7H273.974V134.68L272.343 136.7H271.792V133.903H272.343V135.912L273.974 133.903ZM279.877 135.274C279.877 136.225 279.142 136.786 278.338 136.786C277.603 136.786 276.939 136.327 276.82 135.528H276.372V136.7H275.821V133.903H276.372V134.961H276.837C276.993 134.221 277.641 133.811 278.343 133.811C279.142 133.811 279.877 134.302 279.877 135.274ZM279.353 135.274C279.353 134.648 278.845 134.378 278.365 134.378C277.868 134.378 277.371 134.664 277.371 135.301C277.371 135.933 277.879 136.219 278.365 136.219C278.851 136.219 279.353 135.885 279.353 135.274Z" fill="#C4E5EE"/>
<path d="M93.66 82.79H76.99V83.49H93.66V82.79Z" fill="#3364AD"/>
<path d="M248.63 82.79H231.96V83.49H248.63V82.79Z" fill="#3364AD"/>
<path d="M79.3199 139.75L79.0699 139.5L83.5799 134.99H101.57V135.34H83.7299L79.3199 139.75Z" fill="#C4E5EE"/>
<path d="M79.19 140.46C79.6539 140.46 80.03 140.084 80.03 139.62C80.03 139.156 79.6539 138.78 79.19 138.78C78.7261 138.78 78.35 139.156 78.35 139.62C78.35 140.084 78.7261 140.46 79.19 140.46Z" fill="#C4E5EE"/>
<path d="M101.57 136C102.034 136 102.41 135.624 102.41 135.16C102.41 134.696 102.034 134.32 101.57 134.32C101.106 134.32 100.73 134.696 100.73 135.16C100.73 135.624 101.106 136 101.57 136Z" fill="#C4E5EE"/>
<path d="M95.55 152.92H94.63V148.57H95.55V152.92ZM97.34 148.57H96.42V152.92H97.34V148.57ZM99.13 148.57H98.21V152.92H99.13V148.57ZM100.92 148.57H100V152.92H100.92V148.57ZM102.71 148.57H101.79V152.92H102.71V148.57ZM104.5 148.57H103.58V152.92H104.5V148.57ZM106.29 148.57H105.37V152.92H106.29V148.57ZM108.08 148.57H107.16V152.92H108.08V148.57ZM109.87 148.57H108.95V152.92H109.87V148.57ZM111.66 148.57H110.74V152.92H111.66V148.57ZM113.45 148.57H112.53V152.92H113.45V148.57ZM115.24 148.57H114.32V152.92H115.24V148.57ZM117.03 148.57H116.11V152.92H117.03V148.57ZM118.82 148.57H117.9V152.92H118.82V148.57ZM120.61 148.57H119.69V152.92H120.61V148.57ZM122.4 148.57H121.48V152.92H122.4V148.57ZM124.19 148.57H123.27V152.92H124.19V148.57ZM125.98 148.57H125.06V152.92H125.98V148.57ZM127.77 148.57H126.85V152.92H127.77V148.57ZM129.56 148.57H128.64V152.92H129.56V148.57ZM131.35 148.57H130.43V152.92H131.35V148.57Z" fill="#3364AD"/>
<defs>
<linearGradient id="paint0_linear_267_3" x1="164.02" y1="167.66" x2="161.5" y2="-10.48" gradientUnits="userSpaceOnUse">
<stop offset="0.22" stop-color="#615B9A" stop-opacity="0.2"/>
<stop offset="0.54" stop-color="#605B99" stop-opacity="0.76"/>
<stop offset="0.56" stop-color="#605C99" stop-opacity="0.8"/>
<stop offset="0.72" stop-color="#56528E" stop-opacity="0.8"/>
<stop offset="0.96" stop-color="#3B3773" stop-opacity="0.8"/>
<stop offset="1" stop-color="#36326D" stop-opacity="0.8"/>
</linearGradient>
<linearGradient id="paint1_linear_267_3" x1="3.07001" y1="81.03" x2="322.54" y2="81.03" gradientUnits="userSpaceOnUse">
<stop offset="0.18" stop-color="#ADA7C6"/>
<stop offset="0.52" stop-color="#A6A5CE"/>
</linearGradient>
<linearGradient id="paint2_linear_267_3" x1="164.02" y1="167.66" x2="161.5" y2="-10.48" gradientUnits="userSpaceOnUse">
<stop offset="0.22" stop-color="#615B9A" stop-opacity="0.2"/>
<stop offset="0.54" stop-color="#605B99" stop-opacity="0.76"/>
<stop offset="0.56" stop-color="#605C99" stop-opacity="0.8"/>
<stop offset="0.72" stop-color="#56528E" stop-opacity="0.8"/>
<stop offset="0.96" stop-color="#3B3773" stop-opacity="0.8"/>
<stop offset="1" stop-color="#36326D" stop-opacity="0.8"/>
</linearGradient>
<linearGradient id="paint3_linear_267_3" x1="2.90002" y1="81.03" x2="322.72" y2="81.03" gradientUnits="userSpaceOnUse">
<stop offset="0.18" stop-color="#ADA7C6"/>
<stop offset="0.52" stop-color="#A6A5CE"/>
</linearGradient>
</defs>
</svg>
